<svg id="Vrstva_1" data-name="Vrstva 1" xmlns="http://www.w3.org/2000/svg" viewBox="0 0 934.55 880.4"><defs><style>.cls-1{fill:#444;}.cls-2{fill:#404040;}.cls-3{fill:#6e6e6e;}.cls-4{fill:#5b5b5b;}.cls-5{fill:#8d8d8d;}.cls-6{fill:#959595;}.cls-7{fill:#727272;}.cls-8{fill:#505050;}.cls-9{fill:#555;}.cls-10{fill:#797979;}.cls-11{fill:#898989;}.cls-12{fill:#0ce2af;}.cls-13{fill:#00b3b7;}.cls-14{fill:#fff;}.cls-15{fill:#82e8e3;}.cls-16{fill:#1d1d1b;}.cls-17{fill:#00eac8;}.cls-18{fill:#ffc5df;}.cls-19{fill:#ff1d6f;}.cls-20{fill:#ff5299;}.cls-21{fill:#d3d3d3;}</style></defs><path d="M853.4.77l1.1.22c.19.3.51.28.79.36l.67.13c.37,0,.73.28,1.11,0l6.59,1.33c.24.37.67.28,1,.4l.67.14c.29,0,.59.18.87,0l.73.14a73.72,73.72,0,0,1,13.73,5.08,81.2,81.2,0,0,1,12.7,7.78,2.19,2.19,0,0,0,3.1.14,13.28,13.28,0,0,1,20.57,8,2.55,2.55,0,0,0,1.83,2.09,13,13,0,0,1,8.93,13.92,2,2,0,0,0,1,2,15.81,15.81,0,0,1,3,2.75,11.31,11.31,0,0,1,2.61,8.82l-.81,4c-1.18,3.63-3.65,6.44-6,9.25a4.77,4.77,0,0,0-1.12,4.26,75,75,0,0,1,.74,15.78c-.1,1.72-.59,3.4-.52,5.13l-.22,1.1c-.29.17-.28.48-.35.75s-.08.42-.13.63-.16.55,0,.82l-1.62,8.05c-.27.16-.28.44-.34.7s-.14.52,0,.77l-.37,1.83c-1.12,2.94-1.78,6-3.06,9a83.21,83.21,0,0,1-30.05,36.31,83.18,83.18,0,0,1-93.81-.3c-1.81-1.22-1.8-1.24-2.26.92-3.12,14.47-16.53,25.26-30.92,24.44-8.72-.5-17-2.56-23.18-9.52a37.2,37.2,0,0,1-7.7-13.95c-.18-.59-.43-1.18-.56-1.78-.5-2.33-1.91-3.77-3.87-5.16-4.93-3.48-6.68-8.57-4.94-15,1.64-6,9.28-11.14,17.73-8.07,8.15,3,12.58,9.16,15.24,17,.77,2.3,1.44,4.64,2.36,6.88a4.7,4.7,0,0,0,5.1,3.24,5.26,5.26,0,0,0,4.87-3.73,61.08,61.08,0,0,1,3.93-12.24c.47-1.07-.18-1.11-1-1.18-2.55-.25-5.07-.59-7.28-2.07a12.78,12.78,0,0,1-6.12-11.65,3.55,3.55,0,0,0-1.57-3.31,12.84,12.84,0,0,1-4.34-15.49,2.43,2.43,0,0,0-.53-3,13.1,13.1,0,0,1,7.38-21.92c1.39-.26,1.79-.89,1.93-2.21A81.75,81.75,0,0,1,775.2,36.26a83.09,83.09,0,0,1,21.09-21.18A82,82,0,0,1,828.75,1.46C836.67,0,844.67-.62,852.69.82A1,1,0,0,0,853.4.77Z"/><path class="cls-1" d="M864.71,3.39c-.43,0-.86-.06-1.05-.55l1.09.22c.1.09.13.16.09.23S864.75,3.39,864.71,3.39Z"/><path class="cls-2" d="M857.07,1.51c-.37.41-.78.22-1.18.1-.1-.1-.12-.18-.06-.25s.1-.08.14-.07Z"/><path class="cls-3" d="M864.71,3.39c0-.11,0-.22,0-.33l.74.15c.1.08.13.16.08.22s-.09.1-.13.09Z"/><path class="cls-4" d="M856,1.29c0,.1-.05.21-.08.32l-.74-.16c-.09-.1-.11-.18,0-.24s.1-.08.13-.07Z"/><path class="cls-5" d="M865.44,3.52a2.87,2.87,0,0,1,0-.31l.73.15C866,3.8,865.73,3.63,865.44,3.52Z"/><path class="cls-6" d="M926,94.3c0-.31,0-.66.45-.65l-.15.73C926.19,94.53,926.09,94.5,926,94.3Z"/><path class="cls-7" d="M926,94.3l.3.08-.15.73c-.15.16-.25.12-.3-.08Z"/><path class="cls-8" d="M925.89,95l.3.08-.15.74A.61.61,0,0,1,925.89,95Z"/><path class="cls-9" d="M924,104.59c0-.33.09-.6.47-.69l-.15.73C924.15,104.77,924,104.76,924,104.59Z"/><path class="cls-10" d="M924,104.59l.32,0-.15.74C923.71,105.19,923.85,104.88,924,104.59Z"/><path class="cls-11" d="M855.23,1.14a1.09,1.09,0,0,1-.08.31c-.31,0-.66,0-.65-.46Z"/><path class="cls-12" d="M910.44,28.34A8.06,8.06,0,0,1,909,31.52c-16,24.05-37.83,40.93-64.52,51.61-24.08,9.64-49.19,13.65-75.06,13.13-2.67-.05-5.34-.21-8-.38a6.37,6.37,0,0,1-6.26-6.53,6.24,6.24,0,0,1,6.8-6.14,189.92,189.92,0,0,0,52-4.36c25.58-5.74,48.72-16.36,67.91-34.66a115.58,115.58,0,0,0,16.9-20.27,6.26,6.26,0,0,1,6.51-3.08,6.07,6.07,0,0,1,5,4.2A5.71,5.71,0,0,1,910.44,28.34Z"/><path class="cls-13" d="M763.61,112.66a6.39,6.39,0,0,1-4.89-8.8,2.25,2.25,0,0,1,2.51-1.64c31,1.89,60.93-2.66,89.53-14.87C876.91,76.2,898.21,59,914.08,35.29c.07-.1.15-.2.22-.31,1.58-2.37,2.63-2.47,4.79-.45,2.39,2.24,2.67,5.58.64,8.65A132.15,132.15,0,0,1,906.91,59.6C890.29,77.71,870,90.31,847.14,98.87a224.25,224.25,0,0,1-81.91,13.93C764.61,112.79,764,112.69,763.61,112.66Z"/><path class="cls-12" d="M770.59,127.09a6.48,6.48,0,0,1-5.51-6.49c0-1.13.36-1.43,1.53-1.42a233.87,233.87,0,0,0,58.08-6.82c25.72-6.31,49.57-16.62,70.45-33.21A138,138,0,0,0,923.2,49.22c1-1.53,1.74-1.26,2.79-.25,2.41,2.32,2.6,5.82.41,8.79A158.52,158.52,0,0,1,902,84.06c-21.71,18.55-46.78,30.42-74.38,37.16a201,201,0,0,1-52.73,6C773.32,127.23,771.77,127.14,770.59,127.09Z"/><path class="cls-13" d="M779.93,136a86,86,0,0,0,8.86,9.18c.38.33.73.64.52,1.25-1.33,3.67-1.64,7.64-3.53,11.17a25.17,25.17,0,0,1-30.47,11.86,22.86,22.86,0,0,1-14.45-13.55c-1.39-3.38-2.51-6.88-3.76-10.32a5,5,0,0,0-3.47-3.29,6.33,6.33,0,0,1,3.2-12.21A14.89,14.89,0,0,1,747,137a40.25,40.25,0,0,1,3.86,9.06c.52,1.53,1,3.07,1.62,4.56,2.29,5.36,6.66,7.9,12.49,7.3a11.92,11.92,0,0,0,10.66-9.68A44.13,44.13,0,0,1,779.93,136Z"/><path class="cls-12" d="M871.82,154.55a181.94,181.94,0,0,0,7.93-21.16,162.65,162.65,0,0,0,5.78-27,4.87,4.87,0,0,1,2.55-4.1,143.35,143.35,0,0,0,13.37-9.5,106.86,106.86,0,0,1-1,14.16,132.92,132.92,0,0,1-9.92,36.23,4.5,4.5,0,0,1-1.23,1.82A73.05,73.05,0,0,1,871.82,154.55Z"/><path class="cls-13" d="M832.56,15.26c1.52-2.71,3.3-5.08,5-7.53.43-.64,1.06-.6,1.65-.63a77.14,77.14,0,0,1,51.17,15.49c.76.56.89.91.29,1.73a133.31,133.31,0,0,1-9.45,11.5c-.71.78-1.06.57-1.71,0C870.91,27.86,860.66,23,849.7,19.44A130.69,130.69,0,0,0,832.56,15.26Z"/><path class="cls-12" d="M824.34,30.66c1.26-3,2.65-5.82,4.14-8.62a1.2,1.2,0,0,1,1.46-.76c14.65,2.51,28.67,6.67,40.89,15.56,1.4,1,2.64,2.25,4,3.3,1,.76.77,1.2-.07,1.94a123.79,123.79,0,0,1-13.43,10.37c-.61.4-1,.84-1.81,0-8.06-8.72-18.16-14.29-29-18.59-1.8-.71-3.62-1.33-5.41-2C824.57,31.62,823.69,31.53,824.34,30.66Z"/><path class="cls-13" d="M878.9,108c-2.77,16.29-6.77,31.81-14.07,46.36a6.84,6.84,0,0,1-6,4.07,2.13,2.13,0,0,1-1.68-.52,78.59,78.59,0,0,1-9.3-8.29c-.73-.76-.86-1.23-.11-2.12a73.43,73.43,0,0,0,15.44-30.22,3.14,3.14,0,0,1,2-2.41c4.05-1.75,8-3.8,11.83-5.93C877.53,108.69,878.08,108.45,878.9,108Z"/><path class="cls-13" d="M800.44,75a97.59,97.59,0,0,1,2.11-25.36,102.41,102.41,0,0,1,16.12-37.4A3.89,3.89,0,0,1,821,10.48a75,75,0,0,1,8.23-2c-1.23,2-2.34,3.73-3.41,5.51a106.66,106.66,0,0,0-14,36.51,82.46,82.46,0,0,0-1,21c.1,1.29-.24,1.75-1.47,1.94C806.36,73.84,803.45,74.41,800.44,75Z"/><path class="cls-12" d="M808.48,16.19c-.76,1.48-1.51,2.94-2.27,4.4a107.22,107.22,0,0,0-12.14,53c.06,1.88-.47,2.41-2.26,2.45-2.41.05-4.82.4-7.23.63-.85.08-1.28,0-1.27-1.14a125.33,125.33,0,0,1,10.35-48.75,6.53,6.53,0,0,1,2-2.63,78.72,78.72,0,0,1,11.45-7.69A1.46,1.46,0,0,1,808.48,16.19Z"/><path class="cls-13" d="M848.83,159.72a87.71,87.71,0,0,1-11.94-.14,7.66,7.66,0,0,1-4.25-1.56,65.38,65.38,0,0,1-20.45-25.47c-.62-1.37-.45-1.71,1-2,3.86-.64,7.68-1.43,11.51-2.22.9-.19,1.42-.16,1.88.81,5.37,11.37,12.4,21.54,21.88,29.91A2.87,2.87,0,0,1,848.83,159.72Z"/><path class="cls-13" d="M920.14,75.33C922,98,915.65,117.46,901,134.23a155.94,155.94,0,0,0,6.12-29.69,155.59,155.59,0,0,0,.78-16c0-.56-.11-1.09.4-1.54C912.35,83.39,916.2,79.61,920.14,75.33Z"/><path class="cls-13" d="M854.67,56.57A129.07,129.07,0,0,1,842.23,63c-.68.31-1,0-1.46-.36a62.46,62.46,0,0,0-21.24-12.35c-1-.34-1.13-.83-.91-1.79.76-3.4,1.7-6.75,2.78-10.06.19-.6.33-1,1.12-.74C834.39,41.9,845.75,47,854.67,56.57Z"/><path class="cls-12" d="M786.37,133.56c5.47-.34,10.75-.57,15.94-1.42,2.21-.36,3.06.28,3.86,2.3a61.93,61.93,0,0,0,13,19.88l1.43,1.54C812.86,155.45,794.05,143.21,786.37,133.56Z"/><path class="cls-12" d="M855.94,118.91c-1.54,7.39-7.88,19.12-13.27,24.59a92.68,92.68,0,0,1-10.27-16.94A220.64,220.64,0,0,0,855.94,118.91Z"/><path class="cls-13" d="M782.53,38.48c-.66,2.56-1.36,5.12-2,7.69A123.37,123.37,0,0,0,777,75c0,1.57-.38,2.3-2.11,2.15a35,35,0,0,0-5,0c-1.55.1-2.16-.28-1.95-2a79,79,0,0,1,4.79-19.52A63.27,63.27,0,0,1,782.53,38.48Z"/><path class="cls-12" d="M835,65.92a152.29,152.29,0,0,1-17.81,5.63,81.08,81.08,0,0,1,.08-14.2c.12-1.6,1-.81,1.65-.58A62.3,62.3,0,0,1,835,65.92Z"/><path class="cls-14" d="M756.14,239.27a32,32,0,0,1-7.51,9.25c-2.84,2.28-5.74,4.48-8.72,6.52s-6,4-8.94,5.86a53,53,0,0,0-7.92,5.9,12.33,12.33,0,0,0-2.53,3.24,8.65,8.65,0,0,0-.91,3.62c-.13,3.55-.37,7.16-.61,10.68-.52,7.08-1.1,14.15-1.81,21.2-2.81,28.19-6.35,56.31-11.29,84.22s-10.95,55.7-20.11,82.63c-4.74,13.37-10.18,26.66-18.15,38.56a63.18,63.18,0,0,1-6.7,8.37,36,36,0,0,1-8.33,6.77,23.35,23.35,0,0,1-10.21,3.15,22.69,22.69,0,0,1-7.86-1,334.27,334.27,0,0,1-23.39,37.87l-4,5.55-3.72,5.52c-1.21,1.85-2.52,3.63-3.66,5.52l-3.24,5.79a135.68,135.68,0,0,0-10.41,24.26c-.62,2.1-1.11,4.25-1.67,6.38a56.82,56.82,0,0,0-1.48,6.42l-1.11,6.51-.27,1.62-.15,1.64-.28,3.29a136,136,0,0,0,.15,26.38,177.49,177.49,0,0,0,13.86,51.08c1.67,4.13,3.7,8.1,5.59,12.13,2.09,3.93,4,7.93,6.29,11.78,4.34,7.79,9.13,15.33,14.23,22.66S631.8,777.13,637.5,784c5.53,6.65,11.37,13.23,17.43,19.21a65.27,65.27,0,0,1,9.3,3.92,48.6,48.6,0,0,1,9.36,6.1,24.66,24.66,0,0,1,7.25,9.49,17.58,17.58,0,0,1,.16,12.47,25.75,25.75,0,0,1-6.51,10,35.06,35.06,0,0,1-9.79,6.09,47.69,47.69,0,0,1-20.92,3c-10.47.25-20.45-3.52-29.08-8.63a96.94,96.94,0,0,1-11.55-7.23,194.81,194.81,0,0,1-30.85-28.68,286,286,0,0,1-25.08-33.58,275.61,275.61,0,0,1-19.63-36.94,306.81,306.81,0,0,1-19-57.53,112.73,112.73,0,0,1-1.19,11.61,153.46,153.46,0,0,1-6.73,26.92,208.75,208.75,0,0,1-11,25.37,264.29,264.29,0,0,1-14,23.68Q468,780.75,459.31,791.4c-3.23,3.93-6.53,7.77-10,11.53a83.89,83.89,0,0,1,26.19-.26,72.45,72.45,0,0,1,12.65,3.15c8.2,2.88,16.13,7.47,22,14.43a34.66,34.66,0,0,1,6.61,12,33.38,33.38,0,0,1,1.23,13.64,42.68,42.68,0,0,1-3.74,12.9,26.6,26.6,0,0,1-9.33,10.4c-7.57,5-16,7.32-24.35,8.91a152.3,152.3,0,0,1-25.13,2.29c-8.37.15-16.72-.18-25-.84a291.66,291.66,0,0,1-49.26-8.13c-8.06-2.21-16.11-4.56-23.7-8.75a21,21,0,0,1-5.42-4.2,21.86,21.86,0,0,1-3.23-6,65.12,65.12,0,0,1-3.07-12.34,205.79,205.79,0,0,1-2.14-21.35,447.94,447.94,0,0,1-205.4-.69A257.9,257.9,0,0,1,89,800.35a169.77,169.77,0,0,1-43.28-29.64,132,132,0,0,1-29.95-43.24c-7-16.22-11-33.52-13.24-50.87A380,380,0,0,1,0,624.3q.39-26.13,2.89-52.15c1.65-17.32,4-34.61,7.21-51.76a372.81,372.81,0,0,1,13.08-50.75c5.69-16.57,12.86-32.83,23-47.48a122.71,122.71,0,0,1,8.25-10.55,99.63,99.63,0,0,1,9.59-9.46,75.22,75.22,0,0,1,23.38-13.72,72.32,72.32,0,0,1,13.25-3.29,66.88,66.88,0,0,1,13.66-.73,49.93,49.93,0,0,1,26.19,8.68c7.74,5.3,13.67,12.71,18,20.66A101.12,101.12,0,0,1,168,438.93c4.09,17.37,4.92,35.16,3.91,52.73a216.48,216.48,0,0,1-3.21,26.22,155.46,155.46,0,0,1-7,25.64c-.82,2.09-1.66,4.18-2.63,6.23-.46,1-1,2-1.5,3.06l-1.48,2.86c-1.93,3.78-3.74,7.62-5.36,11.54a172.07,172.07,0,0,0-8.1,24.15,189.52,189.52,0,0,0-5.79,50.6,202.2,202.2,0,0,0,7.42,50.49c4.57,16.47,10.39,32.77,19,47.27,4.35,7.17,9.5,13.93,15.92,18.86A33.07,33.07,0,0,0,189.67,764a23.14,23.14,0,0,0,11.35.67,21.24,21.24,0,0,0,10-5.26,35.19,35.19,0,0,0,7.15-9.53,60.7,60.7,0,0,0,6.47-23.76,52.42,52.42,0,0,0-.52-12.29c-.19-1-.39-2-.65-2.93s-.57-1.81-.94-2.92c-.69-2.09-1.43-4.18-2-6.3A192.43,192.43,0,0,1,214.88,676a304,304,0,0,1-3-52.27,340.14,340.14,0,0,1,5.22-52A263.13,263.13,0,0,1,231,521.26a166.54,166.54,0,0,1,26.36-45.17,145.71,145.71,0,0,1,18.44-18.65,141.07,141.07,0,0,1,21.54-14.87C312.6,434,329.16,428.17,346,423.9a484.47,484.47,0,0,1,49.07-9.22,137.11,137.11,0,0,1-8.31-14.22,125.82,125.82,0,0,1-8.38-21.2A165.21,165.21,0,0,1,373.67,357c-1.15-7.42-2.05-14.82-3.29-22.07-.61-3.63-1.33-7.2-2.2-10.73-.41-1.75-.91-3.49-1.42-5.24h-.13l-.06-.64c-.46-1.56-.94-3.12-1.42-4.69-4.4-14.12-9.71-28-14.1-42.51-2.2-7.22-4.17-14.58-5.66-22.07-.73-3.75-1.38-7.51-1.87-11.31s-.84-7.73-1.22-11.21c-.4-3.63-.91-7.35-1.25-11.21a53.67,53.67,0,0,1,.09-12.2,25.54,25.54,0,0,1,1.86-6.55,18.73,18.73,0,0,1,4.26-5.93,23.43,23.43,0,0,1,12.41-5.58,81.92,81.92,0,0,1,11.83-.84c3.87,0,7.71.1,11.57.4a79.23,79.23,0,0,1,11.79,1.61,84.09,84.09,0,0,1,11.36,3.52,58.31,58.31,0,0,1,10.51,5.95c3.13,2.14,6.09,4.12,9.24,6.17s5.8,3.56,8.42,4a18,18,0,0,0,8.78-1.12l1.33-.48c-5.38-13-16.16-48,11.83-67.92l1.12-.79,1.36.13c.49,0,49.34,5.51,68.75,60.83l-.14,0q2.66,1.13,5.22,2.51A201.52,201.52,0,0,1,552,211.28a194.1,194.1,0,0,1,17.82,14.22,136,136,0,0,1,15.78,16.65,89.94,89.94,0,0,1,6.59,9.56,83.22,83.22,0,0,1,5.05,10.47,132.37,132.37,0,0,1,5.52,17.88,84.23,84.23,0,0,1,9.11-.69,76.61,76.61,0,0,1,14.9,1.06,93.83,93.83,0,0,0-14.89-.68,84.66,84.66,0,0,0-9,.78c1.27,5.23,2.34,10.46,3.49,15.63l2.26.72a80.18,80.18,0,0,1,11.49,4.72,117.76,117.76,0,0,0-11.62-4.37c-.67-.21-1.35-.42-2-.61.68,3.09,1.39,6.15,2.19,9.19a50.86,50.86,0,0,1,1.83,11.47,46.76,46.76,0,0,1-1,11.58,45.82,45.82,0,0,1-10.17,20.52,44.25,44.25,0,0,1-11.21,9.33c8,8.59,16,17.17,23.88,25.83l26.94,29.31c1.17-13.44,2.68-26.86,4.4-40.25q2.7-21,6-42c4.63-27.92,10.1-55.75,18-83.08,4-13.65,8.44-27.23,14.68-40.25a97.37,97.37,0,0,1,11.33-18.73,42.45,42.45,0,0,1,8.29-8,22.75,22.75,0,0,1,11.51-4.35,31.25,31.25,0,0,1,3.21,0l2.76.35c1.83.2,3.64.57,5.45.94s3.62.89,5.43,1.33c1.77.63,3.58,1.11,5.3,1.89a42.92,42.92,0,0,1,18.38,13.51,38.45,38.45,0,0,1,7.66,21.7A42.91,42.91,0,0,1,756.14,239.27Z"/><path class="cls-15" d="M502,198.63a11.9,11.9,0,0,0-5.78,3.19c-9.12,9.33-13.45,24.7-17.6,37.14-1.24,3.69-2.33,7.62-1.62,11.68,1,5.58,5.14,10.34,9,14.83,7.71,9,15.35,19.7,14.64,30.72-.2,3.08-1,6.17-.07,9.24,1,3.23,3.84,5.72,6.59,7.86,9.08,7.08,19.27,12.92,30.08,15.51s22.3,1.68,30.9-3.91c7.57-4.91,12.41-13,16-21.4,6.12-14.51,8.9-31.51,3.43-47.67-5.56-16.44-19.07-30.08-34.17-39.2C542.2,209.87,516.24,195.11,502,198.63Z"/><ellipse class="cls-16" cx="438.26" cy="296.97" rx="22.74" ry="26.56" transform="translate(-87.93 238.74) rotate(-27.81)"/><circle class="cls-14" cx="434.88" cy="284.77" r="10.91"/><path class="cls-14" d="M429.22,308.93c7.87,4.07,11.69,1.81,14.42,3.9a2.73,2.73,0,0,1,.38,3.33h0a2.48,2.48,0,0,1-2.85,1.2c-3.17-1.81-9.68-.56-16.27-9.86-1.32-2.29-1.94-3.44-1-2.22h0C424.86,306.5,427.54,308.08,429.22,308.93Z"/><circle class="cls-14" cx="448.25" cy="316.04" r="1.47"/><circle class="cls-17" cx="449.17" cy="300.9" r="4.77"/><circle class="cls-17" cx="451.37" cy="292.34" r="1.63"/><ellipse class="cls-16" cx="539.33" cy="260.06" rx="24.3" ry="28.39" transform="translate(-59.04 281.63) rotate(-27.81)"/><circle class="cls-14" cx="535.72" cy="247.03" r="11.66"/><path class="cls-14" d="M529.67,272.85c8.41,4.35,12.5,1.94,15.41,4.17.76.46,1.19,2.31.41,3.56h0a2.64,2.64,0,0,1-3,1.28c-3.38-1.94-10.35-.6-17.38-10.54-1.41-2.44-2.08-3.68-1.07-2.37h0C525,270.25,527.88,271.94,529.67,272.85Z"/><circle class="cls-14" cx="550.01" cy="280.45" r="1.57"/><circle class="cls-17" cx="550.99" cy="264.26" r="5.1"/><circle class="cls-17" cx="553.34" cy="255.12" r="1.74"/><circle class="cls-18" cx="437.57" cy="352.92" r="21.56"/><path d="M404.2,382.12A81,81,0,0,1,411,371.46a79.62,79.62,0,0,1,8.31-9.57,43.6,43.6,0,0,1,10.31-7.37A21.18,21.18,0,0,1,442,352.2a22.75,22.75,0,0,0-12.14,2.66,43.22,43.22,0,0,0-10.08,7.45,78.86,78.86,0,0,0-8.41,9.38A116.2,116.2,0,0,0,404.2,382.12Z"/><path d="M387.76,367.79a110.62,110.62,0,0,1,14.11-10,108.58,108.58,0,0,1,15.46-7.88,59.8,59.8,0,0,1,16.86-4.07,29,29,0,0,1,16.8,3.37,31.06,31.06,0,0,0-16.76-2.84,59.07,59.07,0,0,0-16.61,4.27,108.23,108.23,0,0,0-15.48,7.59A159.7,159.7,0,0,0,387.76,367.79Z"/><path class="cls-18" d="M510.34,318.44s-8.6,10.82-18.36,10.06c0,0-4.49,20.62,30.55,33.2,0,0,34.33,7.46,30.32-17.76,0,0-5.08-18.52-15.23-27.74C537.62,316.2,523.19,326.16,510.34,318.44Z"/><path class="cls-19" d="M544.31,362.33s-27.82,8.55-47.39-18.76c0,0,16.93-.86,28.06,5.6,0,0,2.8-5.31,10.3-6.31S548.1,356.32,544.31,362.33Z"/><path d="M534,364.65c7.6,0,14-2.1,17.56-6.27,12.69-14.9-11.75-42.91-12.79-44.09l-1.55,1.35c.25.28,24.32,27.86,12.77,41.41-5.39,6.32-19,7.34-32.28,2.41-16.25-6-25.91-17.88-25.86-31.77h-2c-.07,17.41,14,28.83,27.2,33.71A50.21,50.21,0,0,0,534,364.65Z"/><path d="M509.79,317.28a31.49,31.49,0,0,1-7.6,5.68,30.57,30.57,0,0,1-8.75,3.15,31.26,31.26,0,0,1-4.63.53c-.78,0-1.57.11-2.35.08s-1.56-.09-2.35-.12a16.85,16.85,0,0,1-2.36-.24l-2.37-.31c-1.58-.25-3.13-.67-4.75-.92,1.47.69,3,1.31,4.51,1.9a37,37,0,0,0,4.78,1.16,28.75,28.75,0,0,0,9.92-.07C500.36,326.8,506.51,323,509.79,317.28Z"/><path d="M543.93,309.38a31.49,31.49,0,0,1-7.6,5.68,30.68,30.68,0,0,1-8.75,3.15,31.39,31.39,0,0,1-4.64.53c-.77,0-1.56.11-2.34.08s-1.57-.09-2.36-.12a16.86,16.86,0,0,1-2.35-.24l-2.37-.31c-1.58-.25-3.13-.67-4.75-.92,1.47.69,3,1.31,4.5,1.9a37.14,37.14,0,0,0,4.79,1.16,28.69,28.69,0,0,0,9.91-.07C534.49,318.9,540.65,315,543.93,309.38Z"/><path d="M514.59,313c-1.83,4.78-4.94,8.14-10.37,4-1.55-1.19-3-2.64-4.83-3.26-1.33-.45-2.77-.41-4.13-.76s-2.76-1.24-3-2.62a3.29,3.29,0,0,1,2.1-3.23,11.11,11.11,0,0,1,4.06-.63c3.5-.15,7.11-.7,10-2.62,1.9-1.25,3.47-3.06,5.59-3.9a2.34,2.34,0,0,1,2.31.07,2.72,2.72,0,0,1,.55,2.51A48.42,48.42,0,0,1,514.59,313Z"/><circle class="cls-18" cx="575.27" cy="297.59" r="21.18"/><path d="M620.06,301.6a117.76,117.76,0,0,0-11.62-4.37c-.67-.21-1.35-.42-2-.61q-2.6-.75-5.23-1.32c-1.58-.34-3.17-.63-4.78-.86l-.18,0a46,46,0,0,0-8.68-.57,30.7,30.7,0,0,0-3.45.31,22.19,22.19,0,0,0-11.25,4.71A20.72,20.72,0,0,1,584,293.77a31.64,31.64,0,0,1,3.63-.36,46.8,46.8,0,0,1,8.45.42l.37.05c1.54.25,3,.55,4.57.9,1.77.39,3.52.86,5.26,1.38l2.26.72A80.18,80.18,0,0,1,620.06,301.6Z"/><path d="M626.72,280.43a93.83,93.83,0,0,0-14.89-.68,84.66,84.66,0,0,0-9,.78c-1.75.26-3.49.57-5.21,1l-.55.11a57.34,57.34,0,0,0-6.15,1.74c-.39.13-.77.26-1.16.41a55.69,55.69,0,0,0-6.63,2.9,46.37,46.37,0,0,0-11.64,9.18,41.52,41.52,0,0,1,11.46-9.51,55.87,55.87,0,0,1,6.88-3.1c.24-.1.49-.19.73-.27a59.3,59.3,0,0,1,6.39-1.9l.51-.11c1.74-.35,3.5-.64,5.26-.87a84.23,84.23,0,0,1,9.11-.69A76.61,76.61,0,0,1,626.72,280.43Z"/><path class="cls-19" d="M521.24,195.39s-45.38-3.86-55.64,5.23c0,0-13.35-29.85,2.9-52.43a7.83,7.83,0,0,1,9-2.81c10.61,3.79,34.07,16,43.76,51.4Z"/><path class="cls-19" d="M428.64,211.58s-39.87,29-43.94,42.09c0,0-24.25-21.93-22.05-49.67.28-3.47,5.53-14.53,8.94-15.23,11-2.25,28.56-6.38,55.21,18.9Z"/><path class="cls-20" d="M490.84,156.93s-18.43-7.52-16.21,11.9,15.16,26,15.16,26l36.56,5.77S502.58,157.47,490.84,156.93Z"/><path class="cls-20" d="M387.75,198.2s-18.43-7.52-16.21,11.9,28.14,21.67,28.14,21.67l23.39-17.55S399.49,198.74,387.75,198.2Z"/><path class="cls-18" d="M500.61,171.51s-12.51-5.35-7.53,5.58,20.32,15.09,14.26,8.59A26.35,26.35,0,0,1,500.61,171.51Z"/><path class="cls-18" d="M394,203.52s-13.61.11-4.67,8.13,24.68,5.67,16.52,2.14A26.22,26.22,0,0,1,394,203.52Z"/><path class="cls-15" d="M3,676.5s51.86-179,96.51-123c0,0,48.09-111.8,68.83-44.06,0,0,9.89-148.32-79.83-117S3,676.5,3,676.5Z"/><path class="cls-21" d="M735.83,253.21S749.4,207.58,712.4,210s-62.9,141.83-62.9,141.83,19.58-166,66.52-171.16S758,231,758,231Z"/><path class="cls-21" d="M425.12,815.59S513.55,583,298.49,598.15c0,0,74.53-36.11,139.39-23.42s66.74,114.21,66.74,114.21S486.86,784.76,425.12,815.59Z"/><path class="cls-21" d="M465.8,805.39s37.23,47.24-5.07,72.11c0,0,57.1-6.54,54.18-36.06S483.59,804,465.8,805.39Z"/><path class="cls-21" d="M678.21,834.78a17.66,17.66,0,0,1-1.81,3c-2.31,3.11-6,6.41-11.4,9.86a40.74,40.74,0,0,1-21.22,6.64c-10.47.25-20.45-3.52-29.08-8.63-16.78-9.93-28.43-24.87-28.43-24.87s1.93.5,5.14,1.21c15.92,3.47,63.37,11.87,62.19-11.8a21.54,21.54,0,0,0-.56-3.9S686.55,817.41,678.21,834.78Z"/><path d="M609.43,328.86a45.82,45.82,0,0,1-10.17,20.52,44.25,44.25,0,0,1-11.21,9.33,1.34,1.34,0,0,1-.23.13,42.11,42.11,0,0,1-7.22,3.33,47.86,47.86,0,0,1-22.25,2.05,47.24,47.24,0,0,0,21.77-3.31,41.27,41.27,0,0,0,6.56-3.42l.15-.1a42,42,0,0,0,10.51-9.59,43.66,43.66,0,0,0,7-40.81c-1.17-3.88-2.18-7.79-3.18-11.69,0-.18-.09-.35-.13-.52-1.14-4.47-2.23-8.92-3.44-13.3-.05-.18-.11-.36-.16-.55a120.3,120.3,0,0,0-5.69-16.47,68.31,68.31,0,0,0-4-7.83c-5.79-9.82-13.91-18.24-22.7-25.85a183.88,183.88,0,0,0-17.47-13.29,217.63,217.63,0,0,0-18.73-11.4c-8.81-4.63-18.81-6.65-28.94-6.77a86.63,86.63,0,0,0-12.25.73,115.19,115.19,0,0,0-21,4.82q-5.13,1.68-10.11,3.82c-3.25,1.38-6.69,3.13-10.59,4.5a26.61,26.61,0,0,1-13.2,1.52l-.12,0a22.84,22.84,0,0,1-5.77-1.87,33.83,33.83,0,0,1-3-1.57c-1-.6-2-1.21-2.9-1.8-3.11-2-6.37-4.15-9.41-6.2a50.19,50.19,0,0,0-8.94-5,73.93,73.93,0,0,0-10-3.16,72.45,72.45,0,0,0-10.37-1.43c-3.58-.29-7.21-.43-10.8-.42-1.26,0-2.54,0-3.79.08-.17,0-.35,0-.52,0h-.13a59.62,59.62,0,0,0-6,.57,14.73,14.73,0,0,0-7.8,3.28c-1.87,1.68-3,4.17-3.42,7.29a44.92,44.92,0,0,0-.07,10.13c.3,3.58.79,7.26,1.15,11s.58,7.42,1,11.06,1,7.21,1.63,10.79c1.32,7.17,3.1,14.29,5.13,21.38,2.48,8.53,5.28,17.05,8,25.64,1.8,5.66,3.57,11.36,5.2,17.13.6,2.2,1.23,4.4,1.8,6.64.39,1.44.74,2.9,1.06,4.39.83,3.74,1.49,7.5,2,11.25,1.11,7.49,1.83,14.94,2.69,22.29a160.43,160.43,0,0,0,3.84,21.67,126.08,126.08,0,0,0,7.36,20.66c12.18,26.77,33.41,49.34,59.18,64.37a142.61,142.61,0,0,1-54.82-48.18l0-.05a137.11,137.11,0,0,1-8.31-14.22,125.82,125.82,0,0,1-8.38-21.2A165.21,165.21,0,0,1,373.67,357c-1.15-7.42-2.05-14.82-3.29-22.07-.61-3.63-1.33-7.2-2.2-10.73-.41-1.75-.91-3.49-1.42-5.24-.06-.21-.13-.42-.19-.63-.46-1.56-.94-3.12-1.42-4.69-4.4-14.12-9.71-28-14.1-42.51-2.2-7.22-4.17-14.58-5.66-22.07-.73-3.75-1.38-7.51-1.87-11.31s-.84-7.73-1.22-11.21c-.4-3.63-.91-7.35-1.25-11.21a53.67,53.67,0,0,1,.09-12.2,25.54,25.54,0,0,1,1.86-6.55,18.73,18.73,0,0,1,4.26-5.93,23.43,23.43,0,0,1,12.41-5.58,81.92,81.92,0,0,1,11.83-.84c3.87,0,7.71.1,11.57.4a79.23,79.23,0,0,1,11.79,1.61,84.09,84.09,0,0,1,11.36,3.52,58.31,58.31,0,0,1,10.51,5.95c3.13,2.14,6.09,4.12,9.24,6.17s5.8,3.56,8.42,4a18,18,0,0,0,8.78-1.12l1.33-.48c2.15-.82,4.35-1.84,6.7-2.88l2-.86q4.95-2.1,10.06-3.78l.79-.26h0c.72-.24,1.44-.47,2.18-.68a113.63,113.63,0,0,1,19.29-4.14l1.18-.15a90.87,90.87,0,0,1,23.41.24,68.67,68.67,0,0,1,8.46,1.75c.64.16,1.26.34,1.88.53.87.26,1.72.53,2.59.83,1.47.5,2.93,1.07,4.37,1.69q2.66,1.13,5.22,2.51A201.52,201.52,0,0,1,552,211.28a194.1,194.1,0,0,1,17.82,14.22,136,136,0,0,1,15.78,16.65,89.94,89.94,0,0,1,6.59,9.56,83.22,83.22,0,0,1,5.05,10.47,132.37,132.37,0,0,1,5.52,17.88c0,.16.08.32.11.47,1.27,5.23,2.34,10.46,3.49,15.63,0,.16.06.31.1.46.68,3.09,1.39,6.15,2.19,9.19a50.86,50.86,0,0,1,1.83,11.47A46.76,46.76,0,0,1,609.43,328.86Z"/><path d="M681,835.21a25.75,25.75,0,0,1-6.51,10,35.06,35.06,0,0,1-9.79,6.09,47.69,47.69,0,0,1-20.92,3l-1-.07a73.37,73.37,0,0,1-28.11-8.56,96.94,96.94,0,0,1-11.55-7.23,194.81,194.81,0,0,1-30.85-28.68,286,286,0,0,1-25.08-33.58,275.61,275.61,0,0,1-19.63-36.94,306.81,306.81,0,0,1-19-57.53q-2.49-11.12-4.09-22.4,1.83,9.62,4.21,19.11A313.34,313.34,0,0,0,530.2,738a309.08,309.08,0,0,0,20.35,36,279,279,0,0,0,25.3,32.55A206,206,0,0,0,591.41,822a171.76,171.76,0,0,0,15,11.9c5.68,3.72,11.32,7.31,17.65,9.58a67.83,67.83,0,0,0,19.26,4.5,45.63,45.63,0,0,0,14.41-1.13c.84-.21,1.68-.46,2.49-.74s1.39-.51,2.06-.79a27.82,27.82,0,0,0,7.76-4.89,20.09,20.09,0,0,0,3.44-4.53,17.46,17.46,0,0,0,1.23-2.77,11.86,11.86,0,0,0,.69-3.49,10.53,10.53,0,0,0-.78-4.37,18.05,18.05,0,0,0-5.4-6.77,52.19,52.19,0,0,0-15.57-8.3c-.52-.19-1-.36-1.57-.53l-.86-.28-.55-.53A272.6,272.6,0,0,1,632,788.56Q623.27,778,615.4,766.77c-5.24-7.48-10.18-15.2-14.66-23.18-2.33-4-4.37-8.06-6.49-12.13-1.94-4.16-4-8.25-5.72-12.52a184.52,184.52,0,0,1-14.23-53.22,137.82,137.82,0,0,1,5.44-55,142.52,142.52,0,0,1,11.16-25.38l3.45-6c1.22-2,2.59-3.82,3.88-5.73l3.93-5.68,4-5.45C616.68,548,626.5,533,634.38,516.9s14.1-33,16.12-50.64A81.19,81.19,0,0,0,649.25,440,59.07,59.07,0,0,0,645,427.51a39.59,39.59,0,0,0-7.24-10.68l-.13-.14-26.88-31.12c-7.7-8.87-15.31-17.8-22.95-26.73-.37-.45-.76-.9-1.14-1.35l-2.7-3.15c.95,1,1.89,2,2.85,3.05.4.45.81.89,1.22,1.32,8,8.59,16,17.17,23.88,25.83l26.94,29.31.09.11.75.8,0,.06a32.79,32.79,0,0,1,4.53,5.27,50.62,50.62,0,0,1,3.64,6,62.86,62.86,0,0,1,4.88,13,85,85,0,0,1,1.84,27.56c-1.75,18.4-7.76,36-15.59,52.49q-2.12,4.54-4.45,9l-.07.13a334.27,334.27,0,0,1-23.39,37.87l-4,5.55-3.72,5.52c-1.21,1.85-2.52,3.63-3.66,5.52l-3.24,5.79a135.68,135.68,0,0,0-10.41,24.26c-.62,2.1-1.11,4.25-1.67,6.38a56.82,56.82,0,0,0-1.48,6.42l-1.11,6.51-.27,1.62-.15,1.64-.28,3.29a136,136,0,0,0,.15,26.38,177.49,177.49,0,0,0,13.86,51.08c1.67,4.13,3.7,8.1,5.59,12.13,2.09,3.93,4,7.93,6.29,11.78,4.34,7.79,9.13,15.33,14.23,22.66S631.8,777.13,637.5,784c5.53,6.65,11.37,13.23,17.43,19.21a65.27,65.27,0,0,1,9.3,3.92,48.6,48.6,0,0,1,9.36,6.1,24.66,24.66,0,0,1,7.25,9.49A17.58,17.58,0,0,1,681,835.21Z"/><path d="M397.1,414.38l-2,.35a495.38,495.38,0,0,0-48.8,10.34c-16.67,4.55-33,10.64-47.85,19.36a139.33,139.33,0,0,0-20.92,15A143,143,0,0,0,259.78,478a170.2,170.2,0,0,0-25.2,44.64,259.08,259.08,0,0,0-13.32,49.75,335.12,335.12,0,0,0-4.71,51.38,298,298,0,0,0,3.39,51.38,188.21,188.21,0,0,0,5.65,25c.58,2.05,1.31,4,2,6.05.32.94.76,2.17,1.06,3.27s.57,2.26.79,3.4a56.78,56.78,0,0,1,.74,13.62,66.59,66.59,0,0,1-6.88,26.11,40.66,40.66,0,0,1-8.3,11.2,27.17,27.17,0,0,1-12.71,6.82c-9.76,2.1-19.5-1.52-26.84-7.08s-12.9-13-17.54-20.55a157.75,157.75,0,0,1-11.6-23.82,249.55,249.55,0,0,1-8.29-25,209.26,209.26,0,0,1-7.81-52.08A196.23,196.23,0,0,1,136,589.68a178.61,178.61,0,0,1,8.34-25.12c1.67-4.09,3.54-8.1,5.54-12l1.5-2.92c.47-.91.93-1.83,1.35-2.77.88-1.88,1.66-3.81,2.41-5.77a147.54,147.54,0,0,0,6.56-24.47c1.08-5.9,1.88-11.85,2.44-17.83q.36-3.75.58-7.52c.92-17,.05-34.21-3.88-50.61a96.15,96.15,0,0,0-8.68-23.39c-3.92-7.24-9.13-13.73-15.73-18.26A42.78,42.78,0,0,0,114,391.47,65.2,65.2,0,0,0,89.78,395a68.32,68.32,0,0,0-21.23,12.4,93.21,93.21,0,0,0-8.93,8.74,118.7,118.7,0,0,0-7.79,9.91c-9.67,13.85-16.7,29.58-22.31,45.74a366.17,366.17,0,0,0-13,49.8c-3.24,16.9-5.6,34-7.29,51.16s-2.7,34.39-3,51.63C5.91,637.53,6,650.68,7,663.74q.45,6.09,1.15,12.17c2,17,5.76,33.83,12.37,49.54A127.31,127.31,0,0,0,49,767.4a166.2,166.2,0,0,0,41.9,29.25,256.54,256.54,0,0,0,48.27,18,401,401,0,0,0,50.78,9.92,450.25,450.25,0,0,0,103.52,1.81,453.62,453.62,0,0,0,50.19-7.58l1.14-.24-1.14.26a447.94,447.94,0,0,1-205.4-.69A257.9,257.9,0,0,1,89,800.35a169.77,169.77,0,0,1-43.28-29.64,132,132,0,0,1-29.95-43.24c-7-16.22-11-33.52-13.24-50.87A380,380,0,0,1,0,624.3q.39-26.13,2.89-52.15c1.65-17.32,4-34.61,7.21-51.76a372.81,372.81,0,0,1,13.08-50.75c5.69-16.57,12.86-32.83,23-47.48a122.71,122.71,0,0,1,8.25-10.55,99.63,99.63,0,0,1,9.59-9.46,75.22,75.22,0,0,1,23.38-13.72,72.32,72.32,0,0,1,13.25-3.29,66.88,66.88,0,0,1,13.66-.73,49.93,49.93,0,0,1,26.19,8.68c7.74,5.3,13.67,12.71,18,20.66A101.12,101.12,0,0,1,168,438.93c4.09,17.37,4.92,35.16,3.91,52.73a216.48,216.48,0,0,1-3.21,26.22,155.46,155.46,0,0,1-7,25.64c-.82,2.09-1.66,4.18-2.63,6.23-.46,1-1,2-1.5,3.06l-1.48,2.86c-1.93,3.78-3.74,7.62-5.36,11.54a172.07,172.07,0,0,0-8.1,24.15,189.52,189.52,0,0,0-5.79,50.6,202.2,202.2,0,0,0,7.42,50.49c4.57,16.47,10.39,32.77,19,47.27,4.35,7.17,9.5,13.93,15.92,18.86A33.07,33.07,0,0,0,189.67,764a23.14,23.14,0,0,0,11.35.67,21.24,21.24,0,0,0,10-5.26,35.19,35.19,0,0,0,7.15-9.53,60.7,60.7,0,0,0,6.47-23.76,52.42,52.42,0,0,0-.52-12.29c-.19-1-.39-2-.65-2.93s-.57-1.81-.94-2.92c-.69-2.09-1.43-4.18-2-6.3A192.43,192.43,0,0,1,214.88,676a304,304,0,0,1-3-52.27,340.14,340.14,0,0,1,5.22-52A263.13,263.13,0,0,1,231,521.26a166.54,166.54,0,0,1,26.36-45.17,145.71,145.71,0,0,1,18.44-18.65,141.07,141.07,0,0,1,21.54-14.87C312.6,434,329.16,428.17,346,423.9a484.47,484.47,0,0,1,49.07-9.22Z"/><path d="M518.05,845.86a42.68,42.68,0,0,1-3.74,12.9,26.6,26.6,0,0,1-9.33,10.4c-7.57,5-16,7.32-24.35,8.91a152.3,152.3,0,0,1-25.13,2.29c-8.37.15-16.72-.18-25-.84a291.66,291.66,0,0,1-49.26-8.13c-8.06-2.21-16.11-4.56-23.7-8.75a21,21,0,0,1-5.42-4.2,21.86,21.86,0,0,1-3.23-6,65.12,65.12,0,0,1-3.07-12.34,205.79,205.79,0,0,1-2.14-21.35v0c-.06-1.15-.12-2.32-.17-3.48-.39-8.27-.49-16.55-.45-24.83.05-16.54.74-33.07,1.89-49.55q-.35,12.39-.31,24.78c0,8.26,0,16.5.27,24.75s.59,16.49,1.23,24.69a220.21,220.21,0,0,0,3,24.41,69.24,69.24,0,0,0,3.21,11.57,18.45,18.45,0,0,0,2.69,4.84,17.12,17.12,0,0,0,4.43,3.23c7,3.68,15,5.92,22.83,7.9a286,286,0,0,0,48.55,7.05,228.38,228.38,0,0,0,35.49-.37c4.42-.42,8.8-1,13.14-1.84,7.82-1.54,15.64-3.86,21.82-8.11.67-.47,1.32-1,1.93-1.48a20.1,20.1,0,0,0,3.09-3.17,17,17,0,0,0,2-3.21,35.77,35.77,0,0,0,3-10.8c0-.23.05-.47.07-.7a25.31,25.31,0,0,0-.3-6.63,26.7,26.7,0,0,0-4.74-11.14c-.46-.65-1-1.27-1.49-1.88a35.74,35.74,0,0,0-6.52-5.93,48.71,48.71,0,0,0-12.5-6.34,66.61,66.61,0,0,0-11.38-2.8q-3-.42-6-.6c-1.91-.13-3.83-.18-5.74-.17a84,84,0,0,0-23.37,3.72L425.15,817l3.06-3,7.56-7.4a258.6,258.6,0,0,0,17.9-19.79c5.67-6.9,11-14.07,16-21.49a253.9,253.9,0,0,0,13.72-23,200.61,200.61,0,0,0,10.66-24.41,152.5,152.5,0,0,0,6.64-25.65,120.08,120.08,0,0,0,1.24-26.3l-.71-6.54,0-.27-.15-1.36-.32-1.62-.65-3.23a78.4,78.4,0,0,0-2.76-10.53c-.22-.73-.43-1.44-.65-2.16-3.12-8.19-6.67-16.32-11.69-23.61l-1.8-2.79a22.86,22.86,0,0,0-1.91-2.71l-4.08-5.23-2.05-2.62-2.27-2.43L468.31,596a70.76,70.76,0,0,0-21.23-15.17,90,90,0,0,0-25.36-7.31,135.2,135.2,0,0,0-26.7-1l-2,.13-.23,0a225.28,225.28,0,0,0-41.52,7.05l-.74.19c-2.83.73-5.65,1.52-8.45,2.34-8.66,2.55-17.21,5.48-25.66,8.71-5.86,2.24-11.68,4.59-17.42,7.15-2.53,1.13-5,2.29-7.53,3.5a314.88,314.88,0,0,1,50-21.28c17.25-5.63,35.07-10,53.32-11.51a138.93,138.93,0,0,1,27.5.47,94.27,94.27,0,0,1,26.78,7.17,75.85,75.85,0,0,1,23,15.77l4.81,5,2.41,2.49,2.19,2.68,4.38,5.39a25.57,25.57,0,0,1,2,2.79l1.94,2.88c1.27,2,2.68,3.8,3.81,5.83l3.34,6.13c.52,1,1.16,2,1.6,3.09l1.37,3.22c.87,2.16,1.87,4.27,2.64,6.47,1.35,4.46,3,8.86,3.75,13.47l.73,3.41.35,1.72.21,1.74.83,7c.29,4.31.39,8.64.28,12.95,0,1.1-.06,2.2-.12,3.29a112.73,112.73,0,0,1-1.19,11.61,153.46,153.46,0,0,1-6.73,26.92,208.75,208.75,0,0,1-11,25.37,264.29,264.29,0,0,1-14,23.68Q468,780.75,459.31,791.4c-3.23,3.93-6.53,7.77-10,11.53a83.89,83.89,0,0,1,26.19-.26,72.45,72.45,0,0,1,12.65,3.15c8.2,2.88,16.13,7.47,22,14.43a34.66,34.66,0,0,1,6.61,12A33.38,33.38,0,0,1,518.05,845.86Z"/><path d="M756.14,239.27a32,32,0,0,1-7.51,9.25c-2.84,2.28-5.74,4.48-8.72,6.52s-6,4-8.94,5.86a53,53,0,0,0-7.92,5.9,12.33,12.33,0,0,0-2.53,3.24,8.65,8.65,0,0,0-.91,3.62c-.13,3.55-.37,7.16-.61,10.68-.52,7.08-1.1,14.15-1.81,21.2-2.81,28.19-6.35,56.31-11.29,84.22s-10.95,55.7-20.11,82.63c-4.74,13.37-10.18,26.66-18.15,38.56a63.18,63.18,0,0,1-6.7,8.37,36,36,0,0,1-8.33,6.77,23.35,23.35,0,0,1-10.21,3.15,22.69,22.69,0,0,1-7.86-1c-.86-.26-1.7-.56-2.54-.9a26.85,26.85,0,0,0,2.61.77,21.48,21.48,0,0,0,17.42-3,35.08,35.08,0,0,0,7.79-6.85,62.43,62.43,0,0,0,6.2-8.41c7.34-11.92,12.2-25.23,16.36-38.62s7.48-27.1,10.36-40.87,5.36-27.64,7.52-41.56q6.38-41.77,10-83.93c.58-7,1.19-14,1.65-21,.24-3.53.45-7,.56-10.48a16.15,16.15,0,0,1,1.65-6.57,19.54,19.54,0,0,1,3.89-5.12,58.09,58.09,0,0,1,9-6.8c3-1.95,5.91-3.84,8.76-5.81.4-.27.8-.55,1.19-.84,2.41-1.7,4.73-3.49,7-5.35a25.26,25.26,0,0,0,5.73-7.15c5.07-9.16,5.82-21,1.56-30.45a26.84,26.84,0,0,0-2.32-4.2c-.33-.51-.7-1-1.07-1.5a33.08,33.08,0,0,0-9.53-8.41,42.52,42.52,0,0,0-5.65-2.82l-.16-.07c-1.49-.69-3.11-1.11-4.66-1.68-1.63-.39-3.2-.93-4.86-1.22h0c-1.64-.33-3.26-.67-4.93-.88l-2.51-.35h-.21c-.62,0-1.24-.09-1.86,0-5.58.28-10.87,4.57-15.06,9.63a91,91,0,0,0-10.74,17.34,203.88,203.88,0,0,0-8.19,19.18c-2.46,6.54-4.7,13.18-6.78,19.88-8.25,26.86-14.45,54.41-19.91,82.09-.77,3.78-1.5,7.56-2.22,11.35-4.45,23.35-8.21,46.83-11.64,70.38-.09.61-.17,1.2-.26,1.8,0-.63.11-1.28.17-1.91,1.17-13.44,2.68-26.86,4.4-40.25q2.7-21,6-42c4.63-27.92,10.1-55.75,18-83.08,4-13.65,8.44-27.23,14.68-40.25a97.37,97.37,0,0,1,11.33-18.73,42.45,42.45,0,0,1,8.29-8,22.75,22.75,0,0,1,11.51-4.35,31.25,31.25,0,0,1,3.21,0l2.76.35c1.83.2,3.64.57,5.45.94s3.62.89,5.43,1.33c1.77.63,3.58,1.11,5.3,1.89a42.92,42.92,0,0,1,18.38,13.51,38.45,38.45,0,0,1,7.66,21.7A42.91,42.91,0,0,1,756.14,239.27Z"/><path d="M367.88,192.46a91.33,91.33,0,0,0-.82,16.68,64.78,64.78,0,0,0,2.53,15.65,29.73,29.73,0,0,0,1.23,3.74,25.73,25.73,0,0,0,1.41,3.69c.54,1.22,1.09,2.42,1.59,3.67.65,1.17,1.3,2.34,1.92,3.54l.94,1.82c.34.59.74,1.13,1.1,1.72.73,1.15,1.46,2.34,2.17,3.54,1.5,2.37,3.27,4.56,4.75,7.16a55.22,55.22,0,0,1-7.4-4.74c-1.11-1-2.2-2-3.29-3-.54-.5-1.09-1-1.6-1.55L371,242.68c-.93-1.17-1.87-2.34-2.76-3.56s-1.52-2.6-2.27-3.91a27.54,27.54,0,0,1-1.91-4.12,34,34,0,0,1-1.5-4.29,42,42,0,0,1-1.22-18A35.21,35.21,0,0,1,367.88,192.46Z"/><path d="M527.56,196.54l-.14,0-2.81,1-4,1.39c-.44-1.27-.9-2.5-1.38-3.72-.22-.58-.45-1.15-.7-1.71-7.24-17.58-17.61-29.09-27.71-36.6a77.13,77.13,0,0,0-20.18-10.79c-.25-.1-.48-.18-.71-.25-.39-.14-.77-.27-1.14-.38a60.82,60.82,0,0,0-9.42-2.33c-22.33,17.09-12.92,46.91-8.22,58.23,1.15,2.79,2,4.46,2.07,4.54l-6.46,3.45c-.05-.09-1-2-2.31-5.11-5.38-13-16.16-48,11.83-67.92l1.12-.79,1.36.13C459.3,135.76,508.15,141.22,527.56,196.54Z"/><path d="M470.45,143.83c-1.18,5.16-2.39,10-3.42,14.87A133.05,133.05,0,0,0,464.66,173a69.38,69.38,0,0,0,0,14.19,64.09,64.09,0,0,0,3.43,14.46,27.43,27.43,0,0,1-9-13.19,39.23,39.23,0,0,1-1.63-16.19,50.68,50.68,0,0,1,4.21-15.42A42.47,42.47,0,0,1,470.45,143.83Z"/><path d="M435,213.64c-.25.11-1,.46-2.23,1.05-11.93,5.94-65.57,36.5-58.84,103.57l-.17,0-7,.69h-.13l-.06-.64a113,113,0,0,1,.17-23.83,101.74,101.74,0,0,1,14.91-42.6l.5-.79.46-.71a116.46,116.46,0,0,1,15.28-18.87A132.57,132.57,0,0,1,421.13,213c1-.63,2-1.21,2.85-1.73,1.32-.8,2.51-1.46,3.55-2,2.75-1.5,4.42-2.24,4.53-2.29Z"/><path d="M726.69,180.61c-1.69,2.28-3.17,4.1-4.53,5.85a61.47,61.47,0,0,0-3.56,5c-.58.8-1,1.68-1.51,2.51-.38.9-.93,1.76-1.3,2.75-1,1.93-1.58,4.11-2.77,6.77a12.12,12.12,0,0,1-2.91-7.71,14.87,14.87,0,0,1,.5-4.28,16.64,16.64,0,0,1,1.81-3.95,15.84,15.84,0,0,1,6.21-5.64A12.86,12.86,0,0,1,726.69,180.61Z"/><path d="M741.94,187.48c-1.93,2.08-3.6,3.73-5.15,5.32a61.13,61.13,0,0,0-4.09,4.61c-.66.73-1.14,1.56-1.76,2.33s-1.13,1.65-1.6,2.59c-1.17,1.81-2,3.91-3.5,6.42a12.07,12.07,0,0,1-2-8,14.46,14.46,0,0,1,1-4.2,17,17,0,0,1,2.23-3.73,15.86,15.86,0,0,1,6.79-4.92A12.93,12.93,0,0,1,741.94,187.48Z"/><path d="M754.48,201.54a51.76,51.76,0,0,1-4.27,4.89c-1.33,1.37-2.56,2.56-3.64,3.71a39.05,39.05,0,0,0-2.93,3.54,33.69,33.69,0,0,0-2.83,5.35,8.45,8.45,0,0,1-2.72-6.86,11.61,11.61,0,0,1,3.16-7,13.67,13.67,0,0,1,6.16-3.7A11.48,11.48,0,0,1,754.48,201.54Z"/><path d="M678.73,839.22c-2.43-1.46-4.39-2.75-6.27-3.93s-3.62-2.17-5.36-3c-.85-.49-1.76-.79-2.65-1.24-.93-.3-1.84-.76-2.86-1-2-.76-4.25-1.16-7-2.08a12.1,12.1,0,0,1,7.38-3.66,14.51,14.51,0,0,1,4.31.07,17.05,17.05,0,0,1,4.11,1.4,15.82,15.82,0,0,1,6.22,5.62A12.78,12.78,0,0,1,678.73,839.22Z"/><path d="M659.93,848.67c-2.23-1.76-4-3.3-5.72-4.71a60.23,60.23,0,0,0-4.92-3.7c-.78-.6-1.65-1-2.47-1.58-.88-.41-1.73-1-2.7-1.39-1.91-1-4.07-1.69-6.69-3a12.11,12.11,0,0,1,7.79-2.68,14.91,14.91,0,0,1,4.27.62,16.61,16.61,0,0,1,3.89,1.93,15.75,15.75,0,0,1,5.45,6.37A12.88,12.88,0,0,1,659.93,848.67Z"/><path d="M508.6,826.85c-2.82-.22-5.15-.5-7.36-.71a58.5,58.5,0,0,0-6.16-.32c-1-.07-1.93.08-2.92.07-1,.15-2,.15-3,.36-2.15.22-4.32.86-7.2,1.27a12.05,12.05,0,0,1,5-6.57,14.24,14.24,0,0,1,3.89-1.86,16.46,16.46,0,0,1,4.3-.59,15.85,15.85,0,0,1,8.09,2.25A12.9,12.9,0,0,1,508.6,826.85Z"/><path d="M517.92,845.74c-2.79-.51-5.08-1-7.26-1.47s-4.15-.76-6.08-1c-1-.16-1.93-.12-2.92-.23s-2-.06-3,0c-2.16,0-4.39.41-7.3.52a12.1,12.1,0,0,1,5.62-6,14.68,14.68,0,0,1,4.06-1.45,16.26,16.26,0,0,1,4.35-.13,15.75,15.75,0,0,1,7.8,3.07A12.87,12.87,0,0,1,517.92,845.74Z"/><path d="M508.47,863.64c-2.76-.65-5-1.28-7.17-1.83s-4.11-1-6-1.26c-1-.21-1.92-.21-2.9-.37-1,0-2-.16-3-.11-2.16-.11-4.4.19-7.31.16a12.08,12.08,0,0,1,5.91-5.74,14.79,14.79,0,0,1,4.12-1.24,16.25,16.25,0,0,1,4.35.08,15.73,15.73,0,0,1,7.64,3.45A12.82,12.82,0,0,1,508.47,863.64Z"/></svg>