<svg id="Vrstva_1" data-name="Vrstva 1" xmlns="http://www.w3.org/2000/svg" viewBox="0 0 202 163.68"><defs><style>.cls-1{fill:#0ce2af;}.cls-2{fill:#ff5299;}.cls-3{fill:#fff;}.cls-4{fill:#82e8e3;}.cls-5{fill:#1d1d1b;}.cls-6{fill:#00eac8;}.cls-7{fill:#ffc5df;}.cls-8{fill:#ff1d6f;}.cls-9{fill:#d3d3d3;}.cls-10{fill:#090909;}.cls-11{fill:#1c1c1c;}.cls-12{fill:#404040;}.cls-13{fill:#7c7c7c;}.cls-14{fill:#575757;}.cls-15{fill:#484848;}.cls-16{fill:#5f5f5f;}.cls-17{fill:#999;}.cls-18{fill:#fefefe;}.cls-19{fill:#00b3b7;}.cls-20{fill:#010101;}</style></defs><g id="Huge_Marketing" data-name="Huge Marketing"><circle class="cls-1" cx="119.93" cy="81.84" r="81.84"/><path class="cls-2" d="M49,133.2s21.17-10.28,29.22,1.46Z" transform="translate(-3.89 -23.16)"/><path class="cls-3" d="M108.89,167.1a2.65,2.65,0,0,1,0,1.92,4,4,0,0,1-1,1.53,5.5,5.5,0,0,1-1.51.93,7.45,7.45,0,0,1-3.36.45h0a8.82,8.82,0,0,1-4.42-1.38,12.79,12.79,0,0,1-1.66-1,30,30,0,0,1-4.74-4.4A41.5,41.5,0,0,1,88.34,160a39,39,0,0,1-3-5.67,45.56,45.56,0,0,1-2.93-8.86,18.29,18.29,0,0,1-.18,1.83,24.35,24.35,0,0,1-1,4.12,36.56,36.56,0,0,1-1.71,3.9,39.16,39.16,0,0,1-4.68,7c-.49.61-1,1.21-1.53,1.79a12.71,12.71,0,0,1,2-.19,14.78,14.78,0,0,1,2,.13,11.73,11.73,0,0,1,1.94.49,7.83,7.83,0,0,1,3.4,2.2,5.82,5.82,0,0,1,1,1.84,5.32,5.32,0,0,1,.19,2.09,6.57,6.57,0,0,1-.58,2,4,4,0,0,1-1.45,1.6,9.82,9.82,0,0,1-3.75,1.36,23.68,23.68,0,0,1-3.86.36c-1.29,0-2.56,0-3.86-.13a44.29,44.29,0,0,1-7.57-1.25,17.09,17.09,0,0,1-3.64-1.33,3.45,3.45,0,0,1-.84-.65,3.51,3.51,0,0,1-.5-.93,9.15,9.15,0,0,1-.47-1.87c-.18-1.1-.26-2.18-.33-3.28a69.31,69.31,0,0,1-31.61-.11,40.18,40.18,0,0,1-7.57-2.72,26.1,26.1,0,0,1-6.67-4.55,20.25,20.25,0,0,1-4.61-6.62,28.82,28.82,0,0,1-2-7.81,55,55,0,0,1-.39-8c0-2.65.2-5.33.43-8s.63-5.3,1.12-7.93a57.82,57.82,0,0,1,2-7.79,29.44,29.44,0,0,1,3.54-7.29c.41-.56.82-1.1,1.27-1.62A15.69,15.69,0,0,1,14,102.62a11,11,0,0,1,3.58-2.09,11.41,11.41,0,0,1,2.05-.52,9.78,9.78,0,0,1,2.09-.11,7.72,7.72,0,0,1,4,1.34,8.72,8.72,0,0,1,2.78,3.17A15.64,15.64,0,0,1,30,108.27a28.45,28.45,0,0,1,.6,8.06,32.28,32.28,0,0,1-.49,4A23.76,23.76,0,0,1,29,124.29c-.11.33-.26.65-.39.95s-.15.32-.24.48l-.23.43c-.29.58-.57,1.18-.82,1.79a27.52,27.52,0,0,0-1.26,3.68,29.9,29.9,0,0,0-.88,7.77,30.31,30.31,0,0,0,1.14,7.74,28.66,28.66,0,0,0,2.94,7.25,10.33,10.33,0,0,0,2.43,2.89,5.44,5.44,0,0,0,1.62.84,3.48,3.48,0,0,0,1.75.08,3,3,0,0,0,1.53-.79,5,5,0,0,0,1.1-1.47,9.26,9.26,0,0,0,1-3.65,7.78,7.78,0,0,0-.09-1.87,3.54,3.54,0,0,0-.08-.45c0-.16-.09-.28-.15-.46a9.16,9.16,0,0,1-.3-1,28.35,28.35,0,0,1-.87-3.92,45.1,45.1,0,0,1-.47-8,48.52,48.52,0,0,1,.82-8,39.51,39.51,0,0,1,2.13-7.73A26,26,0,0,1,43.72,114a23.33,23.33,0,0,1,2.84-2.87,22.52,22.52,0,0,1,3.33-2.28A30.35,30.35,0,0,1,57.35,106a68.11,68.11,0,0,1,7.57-1.42,18.18,18.18,0,0,1-2.57-5.44,23.69,23.69,0,0,1-.73-3.4c-.18-1.15-.33-2.27-.5-3.39-.11-.54-.21-1.1-.34-1.64-.07-.28-.15-.54-.22-.8h0v-.08c-.09-.26-.15-.5-.24-.74-.67-2.15-1.49-4.29-2.15-6.51-.35-1.12-.65-2.24-.89-3.39-.11-.58-.21-1.16-.28-1.74s-.13-1.17-.19-1.71-.13-1.12-.2-1.72a9.91,9.91,0,0,1,0-1.88,3.68,3.68,0,0,1,.28-1,2.87,2.87,0,0,1,.67-.91,3.68,3.68,0,0,1,1.9-.86,10.44,10.44,0,0,1,1.83-.13c.59,0,1.19,0,1.77.07a12.62,12.62,0,0,1,1.81.23,14.1,14.1,0,0,1,1.75.54,9,9,0,0,1,1.62.93l1.42.93a3.53,3.53,0,0,0,1.3.62,2.71,2.71,0,0,0,1.35-.17.59.59,0,0,0,.2-.09c-.82-2-2.46-7.35,1.83-10.39l.17-.13.22,0A13.52,13.52,0,0,1,85.3,71.09l0,0a5.85,5.85,0,0,1,.84.39,31.89,31.89,0,0,1,5.72,4,25.1,25.1,0,0,1,2.09,2.16c0-.41.11-.84.11-1.23.09-1.71.22-3.39.43-5l2.76,7.81a2.07,2.07,0,0,1-.6,0,9.13,9.13,0,0,0-1.56.06c.07.09.13.2.2.3a13.11,13.11,0,0,1,.78,1.6,23.14,23.14,0,0,1,.86,2.76,9.22,9.22,0,0,1,1.4-.13,4.87,4.87,0,0,1,.54,0v0h-.54a10.71,10.71,0,0,0-1.4.12c.21.8.36,1.62.56,2.4.11,0,.21.06.32.11a12.13,12.13,0,0,1,1.79.71,17.64,17.64,0,0,0-1.79-.67c-.11,0-.19-.07-.3-.09.09.48.19,1,.32,1.41a7.89,7.89,0,0,1,.28,1.76,7.52,7.52,0,0,1-.15,1.77,7.25,7.25,0,0,1-.49,1.47c.43-.3.86-.58,1.31-.84a10.66,10.66,0,0,1,2.57-1.12l1.38,3.9.65,1.83,0,.13.22.58,3.62,10.31,1.94,5.5.06.2.22.64,1.1,3.09,7.27,20.64,1.33,3.77,0,.11,0,.11H108.48v-.09c-1.51.09-3-1.6-3.13-3.45-.47-4.85-1-9.71-1.4-14.56,0-.54-.11-1.08-.17-1.64a3.06,3.06,0,0,1-.8.15,2.75,2.75,0,0,1-1.21-.19,46,46,0,0,1-3.6,5.84l-.6.85-.58.86a9.43,9.43,0,0,0-.56.84l-.5.88a21.63,21.63,0,0,0-1.6,3.71c-.1.33-.17.67-.26,1a8.68,8.68,0,0,0-.23,1l-.18,1,0,.24,0,.25,0,.5a21.19,21.19,0,0,0,0,4.06,27.77,27.77,0,0,0,2.13,7.82c.26.63.59,1.23.87,1.86s.62,1.23,1,1.81c.67,1.19,1.4,2.35,2.17,3.47s1.62,2.22,2.51,3.28,1.74,2,2.67,2.93a11.66,11.66,0,0,1,1.45.61,7.62,7.62,0,0,1,1.44.95A3.74,3.74,0,0,1,108.89,167.1Z" transform="translate(-3.89 -23.16)"/><path class="cls-4" d="M81.38,71.42a1.74,1.74,0,0,0-.89.49c-1.41,1.43-2.07,3.78-2.71,5.69a3.64,3.64,0,0,0-.25,1.79,5.18,5.18,0,0,0,1.38,2.28c1.19,1.37,2.36,3,2.26,4.71a3.52,3.52,0,0,0,0,1.41,2.7,2.7,0,0,0,1,1.21,12.54,12.54,0,0,0,4.63,2.38,6.24,6.24,0,0,0,4.75-.6A7.09,7.09,0,0,0,94,87.5a10.32,10.32,0,0,0,.53-7.31,11.92,11.92,0,0,0-5.26-6C87.56,73.14,83.56,70.88,81.38,71.42Z" transform="translate(-3.89 -23.16)"/><ellipse class="cls-5" cx="71.56" cy="86.49" rx="3.5" ry="4.08" transform="translate(-36.43 21.31) rotate(-28.41)"/><ellipse class="cls-3" cx="67.15" cy="61.46" rx="1.68" ry="1.67"/><path class="cls-3" d="M70.17,88.33c1.21.62,1.8.28,2.22.6a.42.42,0,0,1,.06.51h0a.38.38,0,0,1-.44.18c-.49-.28-1.49-.09-2.5-1.51-.21-.35-.3-.53-.16-.34h0A3,3,0,0,0,70.17,88.33Z" transform="translate(-3.89 -23.16)"/><circle class="cls-3" cx="69.21" cy="66.26" r="0.23"/><circle class="cls-6" cx="69.35" cy="63.94" r="0.73"/><circle class="cls-6" cx="69.69" cy="62.63" r="0.25"/><ellipse class="cls-5" cx="87.12" cy="80.84" rx="3.74" ry="4.36" transform="translate(-31.86 28.03) rotate(-28.41)"/><ellipse class="cls-3" cx="82.67" cy="55.68" rx="1.8" ry="1.79"/><path class="cls-3" d="M85.63,82.8c1.29.66,1.92.29,2.37.64a.45.45,0,0,1,.07.54h0a.41.41,0,0,1-.47.2c-.53-.3-1.6-.09-2.68-1.62-.22-.37-.32-.56-.16-.36h0A3,3,0,0,0,85.63,82.8Z" transform="translate(-3.89 -23.16)"/><circle class="cls-3" cx="84.87" cy="60.8" r="0.24"/><circle class="cls-6" cx="85.02" cy="58.32" r="0.79"/><circle class="cls-6" cx="85.38" cy="56.92" r="0.27"/><ellipse class="cls-7" cx="67.56" cy="71.91" rx="3.32" ry="3.31"/><path d="M66.32,99.55a12.32,12.32,0,0,1,1.05-1.64,12.62,12.62,0,0,1,1.28-1.46,6.8,6.8,0,0,1,1.58-1.13,3.3,3.3,0,0,1,1.9-.36,3.56,3.56,0,0,0-1.87.41,6.67,6.67,0,0,0-1.55,1.14A12.71,12.71,0,0,0,67.41,98,16.09,16.09,0,0,0,66.32,99.55Z" transform="translate(-3.89 -23.16)"/><path d="M63.79,97.35A17.38,17.38,0,0,1,66,95.81a16.07,16.07,0,0,1,2.38-1.2A9.26,9.26,0,0,1,70.93,94a4.48,4.48,0,0,1,2.59.52,4.78,4.78,0,0,0-2.58-.44,9.11,9.11,0,0,0-2.56.66A18,18,0,0,0,66,95.88C65.24,96.34,64.5,96.82,63.79,97.35Z" transform="translate(-3.89 -23.16)"/><path class="cls-7" d="M82.66,89.79s-1.33,1.66-2.83,1.54c0,0-.69,3.16,4.7,5.09,0,0,5.28,1.14,4.67-2.72a10.52,10.52,0,0,0-2.35-4.26S84.63,91,82.66,89.79Z" transform="translate(-3.89 -23.16)"/><path class="cls-8" d="M87.88,96.52a6.79,6.79,0,0,1-7.29-2.88,9.28,9.28,0,0,1,4.32.86,2.1,2.1,0,0,1,1.58-1C87.65,93.38,88.47,95.6,87.88,96.52Z" transform="translate(-3.89 -23.16)"/><path d="M86.29,96.87a3.49,3.49,0,0,0,2.71-1c2-2.28-1.81-6.58-2-6.76l-.24.21s3.74,4.27,2,6.35c-.83,1-2.92,1.12-5,.37-2.5-.92-4-2.75-4-4.88h-.32c0,2.67,2.16,4.42,4.19,5.17A7.71,7.71,0,0,0,86.29,96.87Z" transform="translate(-3.89 -23.16)"/><path d="M82.57,89.61a4.88,4.88,0,0,1-1.17.87,4.94,4.94,0,0,1-1.35.48,3.36,3.36,0,0,1-.71.08l-.36,0-.36,0a2.46,2.46,0,0,1-.37,0l-.36,0c-.24,0-.48-.1-.73-.14.22.11.46.2.69.29a6.64,6.64,0,0,0,.74.18,4.56,4.56,0,0,0,1.52,0A3.65,3.65,0,0,0,82.57,89.61Z" transform="translate(-3.89 -23.16)"/><path d="M87.82,88.4a4.51,4.51,0,0,1-1.17.87,4.88,4.88,0,0,1-1.34.48,4.29,4.29,0,0,1-.72.08,2.17,2.17,0,0,1-.36,0h-.36a2.2,2.2,0,0,1-.36,0l-.37-.05-.73-.14c.23.11.46.2.7.29a6,6,0,0,0,.73.18,4.62,4.62,0,0,0,1.53,0A3.65,3.65,0,0,0,87.82,88.4Z" transform="translate(-3.89 -23.16)"/><path d="M83.31,89c-.28.73-.76,1.24-1.6.61a2.61,2.61,0,0,0-.74-.5c-.21-.07-.43-.06-.64-.12a.55.55,0,0,1-.45-.4.47.47,0,0,1,.32-.49,1.62,1.62,0,0,1,.62-.1,3.06,3.06,0,0,0,1.55-.4,5.1,5.1,0,0,1,.86-.6.34.34,0,0,1,.35,0,.4.4,0,0,1,.09.38A8,8,0,0,1,83.31,89Z" transform="translate(-3.89 -23.16)"/><ellipse class="cls-7" cx="88.76" cy="63.43" rx="3.26" ry="3.25"/><path d="M99.55,87.2a17.64,17.64,0,0,0-1.79-.67c-.11,0-.19-.07-.3-.09a5.44,5.44,0,0,0-.82-.19,6.77,6.77,0,0,0-.73-.15h0A5.45,5.45,0,0,0,94.53,86a1.8,1.8,0,0,0-.52,0,3.43,3.43,0,0,0-1.34.45A3.09,3.09,0,0,1,94,86a4.73,4.73,0,0,1,.54,0,5.71,5.71,0,0,1,1.31,0h.07l.71.15a6.23,6.23,0,0,1,.82.22c.11,0,.21.06.32.11A12.13,12.13,0,0,1,99.55,87.2Z" transform="translate(-3.89 -23.16)"/><path d="M100.57,84a12.93,12.93,0,0,0-1.75-.1h-.54a10.71,10.71,0,0,0-1.4.12,6.68,6.68,0,0,0-.8.13s-.06,0-.09,0a4.61,4.61,0,0,0-.92.28.39.39,0,0,0-.2.06,6.38,6.38,0,0,0-1,.43,7.16,7.16,0,0,0-1.79,1.4,6.06,6.06,0,0,1,1.77-1.44c.34-.17.69-.35,1-.48a.38.38,0,0,1,.13,0,10.09,10.09,0,0,1,1-.3h.07a4.66,4.66,0,0,1,.82-.13,9.22,9.22,0,0,1,1.4-.13,4.87,4.87,0,0,1,.54,0A10.43,10.43,0,0,1,100.57,84Z" transform="translate(-3.89 -23.16)"/><path class="cls-8" d="M84.33,70.92s-7-.59-8.56.8c0,0-2.06-4.57.45-8a1.21,1.21,0,0,1,1.38-.43c1.63.59,5.24,2.45,6.73,7.89Z" transform="translate(-3.89 -23.16)"/><path class="cls-8" d="M70.08,73.4s-6.14,4.45-6.76,6.46c0,0-3.73-3.37-3.4-7.62,0-.53.85-2.23,1.38-2.33,1.7-.35,4.4-1,8.5,2.89Z" transform="translate(-3.89 -23.16)"/><path class="cls-2" d="M79.65,65s-2.83-1.15-2.49,1.83a5,5,0,0,0,2.33,4l5.63.88S81.46,65.11,79.65,65Z" transform="translate(-3.89 -23.16)"/><path class="cls-2" d="M63.79,71.35S61,70.2,61.29,73.18s4.33,3.32,4.33,3.32l3.6-2.69S65.59,71.44,63.79,71.35Z" transform="translate(-3.89 -23.16)"/><path class="cls-7" d="M81.16,67.26s-1.93-.82-1.16.86,3.13,2.31,2.19,1.31A4,4,0,0,1,81.16,67.26Z" transform="translate(-3.89 -23.16)"/><path class="cls-7" d="M64.75,72.17s-2.09,0-.72,1.24,3.8.87,2.54.33A4.05,4.05,0,0,1,64.75,72.17Z" transform="translate(-3.89 -23.16)"/><path class="cls-4" d="M4.58,144.68s8-27.45,14.85-18.86c0,0,7.4-17.14,10.59-6.75,0,0,1.53-22.74-12.28-17.94S4.58,144.68,4.58,144.68Z" transform="translate(-3.89 -23.16)"/><path class="cls-9" d="M117.36,79.79s2.09-7-3.61-6.62-9.68,21.74-9.68,21.74,3-25.44,10.24-26.24,6.47,7.71,6.47,7.71Z" transform="translate(-3.89 -23.16)"/><path class="cls-9" d="M69.54,166s13.61-35.67-19.49-33.34c0,0,11.47-5.54,21.45-3.59s10.27,17.51,10.27,17.51S79,161.28,69.54,166Z" transform="translate(-3.89 -23.16)"/><path class="cls-9" d="M75.8,164.44s5.73,7.25-.78,11.06c0,0,8.79-1,8.34-5.53S78.54,164.23,75.8,164.44Z" transform="translate(-3.89 -23.16)"/><path class="cls-9" d="M108.48,168.93a1.71,1.71,0,0,1-.28.48,7,7,0,0,1-5.15,2.52h0a8.82,8.82,0,0,1-4.42-1.38,18,18,0,0,1-4.27-3.75s.31.09.82.19c0,0,0,0,0,0,2.53.54,9.71,1.79,9.54-1.81a3.36,3.36,0,0,0-.09-.6S109.75,166.28,108.48,168.93Z" transform="translate(-3.89 -23.16)"/><path d="M98.06,89.61a7.52,7.52,0,0,1-.15,1.77,7.25,7.25,0,0,1-.49,1.47,7.41,7.41,0,0,1-1.08,1.68A6.43,6.43,0,0,1,94.59,96s0,0,0,0a2.13,2.13,0,0,1-.5.25,2.48,2.48,0,0,1-.6.26A7.15,7.15,0,0,1,90,96.8a7.4,7.4,0,0,0,3.34-.5,6.25,6.25,0,0,0,1-.54h0a0,0,0,0,1,0,0A6,6,0,0,0,96,94.29a7.74,7.74,0,0,0,.49-.73A6.68,6.68,0,0,0,97.12,88c-.18-.58-.33-1.19-.48-1.79,0,0,0,0,0-.09-.17-.69-.35-1.38-.54-2a.07.07,0,0,0,0-.06,21.21,21.21,0,0,0-.86-2.55,9.58,9.58,0,0,0-.63-1.18,15.85,15.85,0,0,0-3.49-4,32.12,32.12,0,0,0-2.68-2c-1-.62-1.92-1.23-2.89-1.75a9.63,9.63,0,0,0-4.42-1h0a10.86,10.86,0,0,0-1.88.09,18.06,18.06,0,0,0-3.21.75c-.54.17-1.06.37-1.58.58s-1,.48-1.61.69a4.38,4.38,0,0,1-2,.24h0a3.47,3.47,0,0,1-.91-.3,2.42,2.42,0,0,1-.45-.24c-.15-.08-.3-.19-.45-.28-.48-.3-1-.62-1.45-.95a7,7,0,0,0-1.38-.77,9.78,9.78,0,0,0-1.53-.48,10.53,10.53,0,0,0-1.6-.21c-.53,0-1.1-.07-1.66-.07a5.72,5.72,0,0,0-.58,0H60.6a6.83,6.83,0,0,0-.92.09,2.16,2.16,0,0,0-1.19.5A1.83,1.83,0,0,0,58,72.32a8,8,0,0,0,0,1.55c0,.54.11,1.1.17,1.68s.09,1.15.15,1.71.16,1.1.26,1.66c.2,1.1.48,2.17.78,3.27.39,1.32.84,2.66,1.25,4,.28.85.54,1.71.8,2.57.08.32.19.67.26,1s.13.46.17.67c.13.59.24,1.15.32,1.73.18,1.14.28,2.28.41,3.43a25.1,25.1,0,0,0,.59,3.32,18,18,0,0,0,1.14,3.15,22.15,22.15,0,0,0,9.1,9.87,21.68,21.68,0,0,1-8.43-7.39,18.18,18.18,0,0,1-2.57-5.44,23.69,23.69,0,0,1-.73-3.4c-.18-1.15-.33-2.27-.5-3.39-.11-.54-.21-1.1-.34-1.64-.07-.28-.15-.54-.22-.8a.15.15,0,0,1,0-.08c-.09-.26-.15-.5-.24-.74-.67-2.15-1.49-4.29-2.15-6.51-.35-1.12-.65-2.24-.89-3.39-.11-.58-.21-1.16-.28-1.74s-.13-1.17-.19-1.71-.13-1.12-.2-1.72a9.91,9.91,0,0,1,0-1.88,3.68,3.68,0,0,1,.28-1,2.87,2.87,0,0,1,.67-.91,3.68,3.68,0,0,1,1.9-.86,10.44,10.44,0,0,1,1.83-.13c.59,0,1.19,0,1.77.07a12.62,12.62,0,0,1,1.81.23,14.1,14.1,0,0,1,1.75.54,9,9,0,0,1,1.62.93l1.42.93a3.53,3.53,0,0,0,1.3.62,2.71,2.71,0,0,0,1.35-.17.59.59,0,0,0,.2-.09,7.11,7.11,0,0,0,1-.43l.33-.13c.49-.21,1-.41,1.55-.58l.11,0,.34-.11a17.74,17.74,0,0,1,3-.63l.17,0a14,14,0,0,1,3.6,0,8.63,8.63,0,0,1,1.3.28,1.29,1.29,0,0,1,.28.08,1.76,1.76,0,0,1,.43.13h0a4.69,4.69,0,0,1,.6.24,5.85,5.85,0,0,1,.84.39,31.89,31.89,0,0,1,5.72,4,25.1,25.1,0,0,1,2.09,2.16v0l.33.39A7.77,7.77,0,0,1,95,79.26c.07.09.13.2.2.3a13.11,13.11,0,0,1,.78,1.6,23.14,23.14,0,0,1,.86,2.76V84c.21.8.36,1.62.56,2.4a.07.07,0,0,0,0,.06c.09.48.19,1,.32,1.41A7.89,7.89,0,0,1,98.06,89.61Z" transform="translate(-3.89 -23.16)"/><path d="M98.06,89.61a7,7,0,0,1-.85,3.66A6.65,6.65,0,0,1,94.6,96v0s0,0,0,0h0l-.5.26h0a8.7,8.7,0,0,1-1,.38,5.77,5.77,0,0,1-1,.21,7.48,7.48,0,0,1-2.06,0v0a7.79,7.79,0,0,0,2.26-.16,6.81,6.81,0,0,0,1.08-.35l1-.53h0l0,0a.06.06,0,0,1,.06-.06h0a5.87,5.87,0,0,0,1.86-1.85,6.11,6.11,0,0,0,1-2.41,6.42,6.42,0,0,0,0-2.62l-.7-2.57,0-.07,0,.06s0,0,0-.09v0L96,84.13h0l0,0a18.59,18.59,0,0,0-1.44-3.62,13.66,13.66,0,0,0-2.43-3,33.79,33.79,0,0,0-6.32-4.57,8.67,8.67,0,0,0-3.67-1.15,11.54,11.54,0,0,0-1.95,0l-1,0c-.32,0-.64.1-1,.16a21.07,21.07,0,0,0-3.72,1.15c-.6.24-1.2.52-1.82.76a4.46,4.46,0,0,1-2,.22h0a4.5,4.5,0,0,1-.94-.31h0a23.33,23.33,0,0,1-2.11-1.3,6.67,6.67,0,0,0-2.14-1.09A10.09,10.09,0,0,0,64.35,71l-1.2-.16c-.4,0-.81,0-1.22-.06a8,8,0,0,0-1.2,0h0a9.4,9.4,0,0,0-1.3.14,1.73,1.73,0,0,0-1,.63,4.17,4.17,0,0,0-.25,2.52,44.83,44.83,0,0,0,.69,5.31L59.46,82c.25.86.53,1.71.8,2.56.52,1.72,1.12,3.4,1.57,5.18v0a52.49,52.49,0,0,1,1,6.52,18.64,18.64,0,0,0,1.86,6.19,22.35,22.35,0,0,0,8.77,9.33l-.21.4a21.93,21.93,0,0,1-5.5-3.89,21.48,21.48,0,0,1-4-5.38,19.79,19.79,0,0,1-2.14-6.38,60.35,60.35,0,0,0-1.16-6.58v0a.94.94,0,0,1,0-.16v0L59,85.51c-.46-1.44-1-2.86-1.33-4.35-.18-.74-.4-1.47-.55-2.22s-.25-1.5-.32-2.26a21.67,21.67,0,0,1-.27-4.56,3,3,0,0,1,1-2.05,3.92,3.92,0,0,1,2.13-.88A11.71,11.71,0,0,1,62,69.13l1.14,0,1.14.16A9.07,9.07,0,0,1,68.45,71c.64.4,1.26.86,1.91,1.22a2.32,2.32,0,0,0,2.1,0h0c1-.4,1.93-.77,2.92-1.13h0l.1,0h0l.34-.11h0a17.08,17.08,0,0,1,3-.62h0l.17,0h0a14.69,14.69,0,0,1,2.48-.07,10.29,10.29,0,0,1,1.23.14l1.21.26h0l.29.09h0l.44.13h0l.61.24h0a15.56,15.56,0,0,1,2.38,1.36A17.28,17.28,0,0,1,89.9,74c.71.58,1.46,1.11,2.12,1.73l1.9,2h0v0c.43.48.76,1,1.15,1.56h0a7.87,7.87,0,0,1,.59,1.11,9.88,9.88,0,0,1,.52,1.15,21.61,21.61,0,0,1,.72,2.41h0V84h0l.56,2.4h0a.07.07,0,0,0,0,.06h0L97.83,88A7.1,7.1,0,0,1,98.06,89.61Zm0,0A7.11,7.11,0,0,0,97.82,88l-.37-1.58h0a.11.11,0,0,1,0-.07h0L96.87,84h0v-.06h0a24.62,24.62,0,0,0-.73-2.4,11.79,11.79,0,0,0-.53-1.14,8.21,8.21,0,0,0-.58-1.1h0c-.38-.51-.71-1.06-1.14-1.54h0v0l-1.91-2c-.66-.61-1.41-1.14-2.12-1.71A17.21,17.21,0,0,0,87.6,72.5a16.25,16.25,0,0,0-2.36-1.34h0l-.6-.23h0l-.42-.12h0l-.26-.08h0l-1.2-.25a8.27,8.27,0,0,0-1.22-.13A14.31,14.31,0,0,0,79,70.4h0l-.17,0h0a17.31,17.31,0,0,0-3,.63h0l-.34.11h0l-.11,0h0c-1,.37-1.94.73-2.91,1.15h0a2.46,2.46,0,0,1-2.27,0c-.68-.38-1.29-.82-1.93-1.23a8.93,8.93,0,0,0-4.15-1.63l-1.11-.14-1.14,0a12.07,12.07,0,0,0-2.25.07,3.69,3.69,0,0,0-2,.83,2.88,2.88,0,0,0-1,1.9,22.76,22.76,0,0,0,.3,4.5c.07.75.21,1.49.33,2.24s.37,1.46.56,2.19c.34,1.47.88,2.9,1.34,4.34l1.44,4.31v.06h0v0a59.73,59.73,0,0,1,1.2,6.6A19.35,19.35,0,0,0,64,102.68a21.41,21.41,0,0,0,4,5.26,21.88,21.88,0,0,0,5.41,3.79l-.22.4a22.46,22.46,0,0,1-9-9.51,19,19,0,0,1-1.87-6.34,52.48,52.48,0,0,0-1-6.45v0c-.42-1.7-1-3.41-1.53-5.13-.27-.86-.55-1.71-.79-2.58l-.62-2.63a46.17,46.17,0,0,1-.67-5.36,4.44,4.44,0,0,1,.32-2.74,2,2,0,0,1,1.22-.76,9.26,9.26,0,0,1,1.37-.15h0a8.67,8.67,0,0,1,1.25,0c.41,0,.83,0,1.24.07l1.23.17c.41.07.8.23,1.2.34a7,7,0,0,1,2.2,1.14,23.86,23.86,0,0,0,2,1.28h0a3.9,3.9,0,0,0,.87.3h0a4.12,4.12,0,0,0,1.87-.19l1.8-.75a20.83,20.83,0,0,1,3.78-1.14c.32-.07.64-.12,1-.16l1-.05a11.9,11.9,0,0,1,2,0,8.74,8.74,0,0,1,3.75,1.19,33.85,33.85,0,0,1,6.34,4.62,14,14,0,0,1,2.45,3.08A19.17,19.17,0,0,1,96.12,84v0a.19.19,0,0,1,0,.11h0l.54,2.05h0s0,0,0,.09v0l.69,2.57a6.44,6.44,0,0,1,0,2.66,6.21,6.21,0,0,1-1,2.45,5.79,5.79,0,0,1-1.89,1.86h0s0,0,0,0l0,0h0l-1,.54a7,7,0,0,1-1.1.34,7.52,7.52,0,0,1-2.27.15v0a7.81,7.81,0,0,0,2,0,6.33,6.33,0,0,0,2-.58h0l.49-.26h0a6.63,6.63,0,0,0,2.62-2.68A7,7,0,0,0,98.06,89.61Z" transform="translate(-3.89 -23.16)"/><path d="M108.91,169a4,4,0,0,1-1,1.53,5.5,5.5,0,0,1-1.51.93,7.45,7.45,0,0,1-3.36.45h0a11.71,11.71,0,0,1-4.42-1.38,12.79,12.79,0,0,1-1.66-1,30,30,0,0,1-4.74-4.4A41.5,41.5,0,0,1,88.34,160a39,39,0,0,1-3-5.67,45.56,45.56,0,0,1-2.93-8.86c-.26-1.12-.46-2.25-.63-3.39.19,1,.39,1.92.63,2.87a47.71,47.71,0,0,0,3.32,9.21,49.16,49.16,0,0,0,3.12,5.52,42.85,42.85,0,0,0,3.91,5A26.93,26.93,0,0,0,95.15,167s0,0,0,0a20.93,20.93,0,0,0,2.27,1.81,12,12,0,0,0,2.72,1.49,10.47,10.47,0,0,0,3,.69,6.84,6.84,0,0,0,2.22-.19,2.85,2.85,0,0,0,.39-.11,1.21,1.21,0,0,0,.3-.11,4.65,4.65,0,0,0,1.21-.75,2.61,2.61,0,0,0,.52-.69,1.66,1.66,0,0,0,.19-.43,1.53,1.53,0,0,0,.11-.54,1.42,1.42,0,0,0-.11-.67,2.93,2.93,0,0,0-.84-1,7.72,7.72,0,0,0-2.39-1.27,1.13,1.13,0,0,0-.24-.08l-.13,0-.09-.08a39.74,39.74,0,0,1-2.86-3.11c-.91-1.08-1.75-2.18-2.57-3.34s-1.55-2.33-2.24-3.56c-.37-.6-.69-1.23-1-1.86s-.6-1.25-.86-1.91A28,28,0,0,1,92.5,143,20.37,20.37,0,0,1,95,130.72l.54-.93c.2-.3.41-.58.61-.88l.6-.87.61-.84a50.85,50.85,0,0,0,4.35-7,27.19,27.19,0,0,0,1.23-2.83v0a20.21,20.21,0,0,0,1.25-4.92,12.64,12.64,0,0,0-.19-4,10.1,10.1,0,0,0-.65-1.92s0,0,0,0a7,7,0,0,0-1.1-1.6h0l-4.14-4.79c-.3-.34-.61-.69-.91-1-.88-1-1.75-2-2.63-3,0-.07-.11-.13-.15-.2l0,0L94,95.29c.15.15.3.32.43.47a1.45,1.45,0,0,1,.17.19c.93,1,1.81,1.94,2.7,2.92.34.34.67.71,1,1l4.16,4.51h0l.11.13a3.5,3.5,0,0,1,.69.82s.07.11.11.15a6.47,6.47,0,0,1,.45.75,8.92,8.92,0,0,1,.76,2,12.83,12.83,0,0,1,.28,4.23,22.54,22.54,0,0,1-1.43,5.82c-.3.75-.62,1.49-1,2.22-.21.45-.43.91-.69,1.36a46,46,0,0,1-3.6,5.84l-.6.85-.58.86a9.43,9.43,0,0,0-.56.84l-.5.88a21.63,21.63,0,0,0-1.6,3.71c-.1.33-.17.67-.26,1a8.68,8.68,0,0,0-.23,1l-.18,1,0,.24,0,.25,0,.5a21.19,21.19,0,0,0,0,4.06,27.77,27.77,0,0,0,2.13,7.82c.26.63.59,1.23.87,1.86s.62,1.23,1,1.81c.67,1.19,1.4,2.35,2.17,3.47s1.62,2.22,2.51,3.28,1.74,2,2.67,2.93a11.66,11.66,0,0,1,1.45.61,7.62,7.62,0,0,1,1.44.95,3.74,3.74,0,0,1,1.1,1.44A2.65,2.65,0,0,1,108.91,169Z" transform="translate(-3.89 -23.16)"/><path d="M108.91,169a4,4,0,0,1-1,1.54h0a5.45,5.45,0,0,1-2.29,1.18A7.78,7.78,0,0,1,103,172h0c-3.27-.28-6.13-2.18-8.48-4.36a39.05,39.05,0,0,1-6.18-7.45,46.12,46.12,0,0,1-5.76-13.32c-.42-1.56-.65-3.17-1-4.76l.26,0c.27,1.16.49,2.34.8,3.5s.66,2.3,1.06,3.43a47.29,47.29,0,0,0,2.86,6.57,44.18,44.18,0,0,0,3.84,6c.73,1,1.49,1.87,2.29,2.75s1.71,1.67,2.55,2.51l.08.16a.27.27,0,0,0,0-.12.22.22,0,0,0-.24-.07l-.07,0h.3l2.18,1.74A13.76,13.76,0,0,0,99.91,170a11,11,0,0,0,2.66.73,6.82,6.82,0,0,0,2.7-.13h0l.35-.1h0a4,4,0,0,0,.54-.23,5.74,5.74,0,0,0,.53-.32,2.87,2.87,0,0,0,.45-.39,2.63,2.63,0,0,0,.33-.49v0c.06-.14.12-.26.18-.41a1.4,1.4,0,0,0,.08-.42h0v0a1.33,1.33,0,0,0-.32-.92,3.87,3.87,0,0,0-.8-.76,7.83,7.83,0,0,0-2-1l0,0-.18-.06h0l-.13,0-.06,0,0,0A50.83,50.83,0,0,1,96,154.51a29.29,29.29,0,0,1-3.92-12.9,20.45,20.45,0,0,1,3.81-12.87c2.64-3.64,5.25-7.29,6.81-11.46l0,.11v-.08l0,0a19.4,19.4,0,0,0,1.29-5.33,10.81,10.81,0,0,0-.84-5.31l0-.12a.27.27,0,0,0,.08.18.28.28,0,0,1-.1-.22l0,.13a6.87,6.87,0,0,0-1-1.53l.2.09h-.15l-.09-.09-7.65-8.91,0,0-.15-.19,0,0,0,0h0l-.41-.47.36-.34.45.49h0l.21.23,0,0,7.83,8.51-.16-.07h.12l.07.07.1.13,0,0a4,4,0,0,1,.73.87l0,0,.11.15,0,0c1.72,2.58,1.82,5.83,1.27,8.73a23.63,23.63,0,0,1-1.23,4.29l-.9,2c-.32.67-.67,1.33-1,2a75.55,75.55,0,0,1-4.84,7.46,20.54,20.54,0,0,0-3.11,8.2h0a21.27,21.27,0,0,0-.13,3.74,21,21,0,0,0,.5,3.69,27.86,27.86,0,0,0,1.05,3.59c.41,1.18,1,2.31,1.48,3.44h0l.84,1.57c.28.52.61,1,.92,1.52a32.4,32.4,0,0,0,2,3c.72.93,1.4,1.91,2.17,2.81l2.39,2.64h0c.54.24,1.1.45,1.63.71a7.35,7.35,0,0,1,1.44,1,3.47,3.47,0,0,1,1,1.47A2.73,2.73,0,0,1,108.91,169Zm0,0a2.66,2.66,0,0,0,0-1.74,3.5,3.5,0,0,0-1-1.45,7,7,0,0,0-1.45-1c-.53-.26-1.08-.46-1.63-.7h0l-2.41-2.63c-.78-.9-1.46-1.87-2.2-2.8a32.61,32.61,0,0,1-2-3c-.31-.5-.65-1-.93-1.51l-.85-1.57h0c-.53-1.13-1.08-2.25-1.51-3.44a28.08,28.08,0,0,1-1.07-3.6,22,22,0,0,1-.42-7.48h0a20.68,20.68,0,0,1,3.09-8.31,73.75,73.75,0,0,0,4.78-7.47c.34-.66.68-1.31,1-2l.88-2a23.85,23.85,0,0,0,1.2-4.24,14.57,14.57,0,0,0,.18-4.37,9.05,9.05,0,0,0-1.44-4l0,0-.11-.15,0,0a3.49,3.49,0,0,0-.66-.77h0v0l-.11-.12.16.07h-.11l-.06-.07-7.88-8.45,0,0-.14-.16h0l-.42-.46.37-.34.41.48,0,0,0,0h0l0,0,.15.2,0,0,7.7,8.86-.21-.09h.14l.08.08a7.06,7.06,0,0,1,1.15,1.66l0,.14a.36.36,0,0,0-.07-.19s.11.14.09.23l0-.12a11.46,11.46,0,0,1,.92,5.6,19.88,19.88,0,0,1-1.3,5.5l0-.11v.08l0,0c-1.56,4.28-4.22,8-6.81,11.64a20.31,20.31,0,0,0-3.71,12.45,28.82,28.82,0,0,0,3.76,12.62,50.73,50.73,0,0,0,8,10.65l-.1-.07.13.05h0l.29.11,0,0A8.79,8.79,0,0,1,107,166a4.15,4.15,0,0,1,.91.87,1.85,1.85,0,0,1,.42,1.28v0a2.06,2.06,0,0,1-.11.58l-.24.53,0,0a2.52,2.52,0,0,1-.42.59,2.93,2.93,0,0,1-.53.47,4.49,4.49,0,0,1-1.26.62h0l-.43.11h0a9.12,9.12,0,0,1-5.67-.66,14.15,14.15,0,0,1-2.48-1.43L95,167.15h.29l-.09,0a.22.22,0,0,1-.25-.07.2.2,0,0,1,0-.14l.07.16c-.85-.85-1.73-1.69-2.57-2.55s-1.57-1.84-2.29-2.8a45.13,45.13,0,0,1-3.85-6.11,48.57,48.57,0,0,1-2.84-6.64c-.39-1.14-.74-2.3-1-3.46s-.51-2.35-.78-3.52l.26,0c.31,1.58.52,3.18.93,4.74a43.31,43.31,0,0,0,1.43,4.62,43.88,43.88,0,0,0,4.24,8.68,38.81,38.81,0,0,0,6.12,7.46c2.32,2.19,5.16,4.09,8.42,4.39h0a8,8,0,0,0,2.58-.19,5.55,5.55,0,0,0,2.29-1.17h0A4,4,0,0,0,108.91,169Z" transform="translate(-3.89 -23.16)"/><path d="M38.15,128.71a53.45,53.45,0,0,0-.71,7.9,46,46,0,0,0,.52,7.87,33.31,33.31,0,0,0,.86,3.84c.09.3.22.6.33.92l.15.5c0,.17.08.35.13.52a8.15,8.15,0,0,1,.1,2.09,10,10,0,0,1-1.05,4,6.27,6.27,0,0,1-1.28,1.72,4.31,4.31,0,0,1-2,1.06A5.26,5.26,0,0,1,31.1,158a11.24,11.24,0,0,1-2.69-3.15,22.23,22.23,0,0,1-1.77-3.64,35.4,35.4,0,0,1-1.3-3.84,31.18,31.18,0,0,1-1.18-8,29.48,29.48,0,0,1,.88-8,27.1,27.1,0,0,1,1.3-3.84q.38-.94.84-1.86l.23-.45.22-.41.37-.88a22.91,22.91,0,0,0,1-3.76c.17-.9.28-1.81.37-2.74,0-.38.06-.77.08-1.16a26.76,26.76,0,0,0-.6-7.74,14.66,14.66,0,0,0-1.32-3.6,8,8,0,0,0-2.43-2.79A6.48,6.48,0,0,0,21.66,101a10.32,10.32,0,0,0-3.74.54,10.42,10.42,0,0,0-3.25,1.92,13.36,13.36,0,0,0-1.38,1.33c-.43.48-.82,1-1.21,1.51a28.52,28.52,0,0,0-3.43,7,56.8,56.8,0,0,0-2,7.64c-.5,2.61-.87,5.22-1.13,7.85s-.41,5.28-.47,7.91c0,2,0,4,.13,6,0,.62.11,1.25.19,1.88a27.72,27.72,0,0,0,1.9,7.59,19.68,19.68,0,0,0,4.38,6.45,25.84,25.84,0,0,0,6.45,4.48,40.24,40.24,0,0,0,7.42,2.74,64.69,64.69,0,0,0,7.82,1.53,68.25,68.25,0,0,0,8,.58,73.41,73.41,0,0,0,8-.3A71.5,71.5,0,0,0,57,166.5a69.31,69.31,0,0,1-31.61-.11,40.18,40.18,0,0,1-7.57-2.72,26.1,26.1,0,0,1-6.67-4.55,20.25,20.25,0,0,1-4.61-6.62,28.82,28.82,0,0,1-2-7.81,55,55,0,0,1-.39-8c0-2.65.2-5.33.43-8s.63-5.3,1.12-7.93a57.82,57.82,0,0,1,2-7.79,29.44,29.44,0,0,1,3.54-7.29c.41-.56.82-1.1,1.27-1.62A15.69,15.69,0,0,1,14,102.62a11,11,0,0,1,3.58-2.09,11.41,11.41,0,0,1,2.05-.52,9.78,9.78,0,0,1,2.09-.11,7.72,7.72,0,0,1,4,1.34,8.72,8.72,0,0,1,2.78,3.17A15.64,15.64,0,0,1,30,108.27a28.45,28.45,0,0,1,.6,8.06,32.28,32.28,0,0,1-.49,4A23.76,23.76,0,0,1,29,124.29c-.11.33-.26.65-.39.95s-.15.32-.24.48l-.23.43c-.29.58-.57,1.18-.82,1.79a27.52,27.52,0,0,0-1.26,3.68,29.9,29.9,0,0,0-.88,7.77,30.31,30.31,0,0,0,1.14,7.74,28.66,28.66,0,0,0,2.94,7.25,10.33,10.33,0,0,0,2.43,2.89,5.44,5.44,0,0,0,1.62.84,3.48,3.48,0,0,0,1.75.08,3,3,0,0,0,1.53-.79,5,5,0,0,0,1.1-1.47,9.26,9.26,0,0,0,1-3.65,7.78,7.78,0,0,0-.09-1.87,3.54,3.54,0,0,0-.08-.45c0-.16-.09-.28-.15-.46a9.16,9.16,0,0,1-.3-1,28.35,28.35,0,0,1-.87-3.92,45.1,45.1,0,0,1-.47-8,48.52,48.52,0,0,1,.82-8,39.51,39.51,0,0,1,2.13-7.73A26,26,0,0,1,43.72,114a23.33,23.33,0,0,1,2.84-2.87,22.52,22.52,0,0,1,3.33-2.28A30.35,30.35,0,0,1,57.35,106a68.11,68.11,0,0,1,7.57-1.42,73.11,73.11,0,0,0-7.51,1.59,29.9,29.9,0,0,0-7.37,3,20.4,20.4,0,0,0-3.22,2.29,23,23,0,0,0-2.74,2.84,26.27,26.27,0,0,0-3.88,6.86A41.15,41.15,0,0,0,38.15,128.71Z" transform="translate(-3.89 -23.16)"/><path d="M38.15,128.71a52.44,52.44,0,0,0-.48,13.36A40.67,40.67,0,0,0,39,148.63a9.24,9.24,0,0,1,0,6.57,7.3,7.3,0,0,1-1.74,2.85,4.12,4.12,0,0,1-3.06,1.18,5.61,5.61,0,0,1-3.11-1.17,10.69,10.69,0,0,1-2.27-2.47A23,23,0,0,1,26,149.52,30.26,30.26,0,0,1,24.38,143a30.6,30.6,0,0,1,1.06-13.28,25.4,25.4,0,0,1,1.23-3.13c.43-1,1-2,1.37-3a22.27,22.27,0,0,0,.86-3.23c.16-1.1.32-2.2.43-3.31a28.62,28.62,0,0,0-.2-6.67A15.37,15.37,0,0,0,27,104.14a7.45,7.45,0,0,0-2.4-2.24,6.48,6.48,0,0,0-3.16-.83,10.33,10.33,0,0,0-3.27.49,9.89,9.89,0,0,0-2.91,1.57,17.44,17.44,0,0,0-4.21,5.1,33.11,33.11,0,0,0-2.58,6.14,68.81,68.81,0,0,0-2.63,13.1c-.25,2.22-.29,4.46-.45,6.68l-.1,1.67a13.3,13.3,0,0,0,0,1.67l.07,3.34a28.79,28.79,0,0,0,2.9,12.9,21.74,21.74,0,0,0,9.53,9,44.64,44.64,0,0,0,12.68,4A70.68,70.68,0,0,0,57,166.29l.09.41a69.56,69.56,0,0,1-31.83-.1c-5.16-1.34-10.27-3.52-14.2-7.27a20.55,20.55,0,0,1-4.63-6.58A28.65,28.65,0,0,1,4.32,145a53.83,53.83,0,0,1-.42-8l.43-8a71.91,71.91,0,0,1,3.05-15.72A31.34,31.34,0,0,1,10.79,106a17.87,17.87,0,0,1,2.62-3.07,10.82,10.82,0,0,1,3.35-2.26,9.86,9.86,0,0,1,7.91-.21A8.28,8.28,0,0,1,27.81,103a12.88,12.88,0,0,1,1.83,3.6,24.56,24.56,0,0,1,1.13,7.93,31.36,31.36,0,0,1-1,8c-.18.65-.39,1.3-.63,1.92a12.64,12.64,0,0,1-.86,1.82L27.43,128c-.26.61-.5,1.23-.71,1.86a28,28,0,0,0-1.4,7.81,32.46,32.46,0,0,0,3.36,15.42,14.27,14.27,0,0,0,2.2,3.28,5.08,5.08,0,0,0,3.38,1.77,3.15,3.15,0,0,0,1.84-.52,4.58,4.58,0,0,0,1.3-1.43,8.79,8.79,0,0,0,1.15-3.74,7.64,7.64,0,0,0,0-2,4.41,4.41,0,0,0-.24-.95l-.3-1a27.25,27.25,0,0,1-.86-3.91,45.44,45.44,0,0,1-.48-8,49.62,49.62,0,0,1,.81-8A40.37,40.37,0,0,1,39.54,121a23.68,23.68,0,0,1,10.07-12.1c4.68-2.66,10-3.64,15.3-4.4v.08a65.36,65.36,0,0,0-9.57,2.2,24.72,24.72,0,0,0-8.57,4.68A23.74,23.74,0,0,0,41,119.32,38,38,0,0,0,38.15,128.71Zm0,0a37.71,37.71,0,0,1,2.81-9.4,23.59,23.59,0,0,1,5.79-7.88,24.74,24.74,0,0,1,8.58-4.7,65.58,65.58,0,0,1,9.58-2.23v.08c-5.25.76-10.6,1.76-15.26,4.42a23.51,23.51,0,0,0-10,12,40.87,40.87,0,0,0-2.09,7.69,50.38,50.38,0,0,0-.79,7.94,45.1,45.1,0,0,0,.49,8,27,27,0,0,0,.87,3.89l.29.95a4.17,4.17,0,0,1,.26,1,8,8,0,0,1,.06,2,9.16,9.16,0,0,1-1.18,3.84,4.65,4.65,0,0,1-1.36,1.5,3.36,3.36,0,0,1-2,.56,5.36,5.36,0,0,1-3.54-1.83,14.89,14.89,0,0,1-2.25-3.33,32.71,32.71,0,0,1-3.41-15.54,28.25,28.25,0,0,1,1.39-7.89c.22-.63.45-1.26.71-1.88l.84-1.83a16.2,16.2,0,0,0,1.45-3.68,31.25,31.25,0,0,0,1-7.88,24.11,24.11,0,0,0-1.13-7.83,12.54,12.54,0,0,0-1.79-3.49,7.87,7.87,0,0,0-3-2.45,9.56,9.56,0,0,0-7.63.23,10.39,10.39,0,0,0-3.24,2.2,18.37,18.37,0,0,0-2.56,3,31.6,31.6,0,0,0-3.35,7.19,71.51,71.51,0,0,0-3,15.63l-.41,8a54.1,54.1,0,0,0,.43,8,28.25,28.25,0,0,0,2.05,7.63A20,20,0,0,0,11.36,159c3.85,3.65,8.87,5.82,14,7.15a69,69,0,0,0,31.61.16l.1.41a71.1,71.1,0,0,1-26.73.39A44.9,44.9,0,0,1,17.55,163,26,26,0,0,1,12,159.19a19.59,19.59,0,0,1-4.12-5.32,29.06,29.06,0,0,1-2.91-13l-.06-3.36a13.46,13.46,0,0,1,0-1.68l.1-1.67c.17-2.23.22-4.47.47-6.7A69.28,69.28,0,0,1,8.19,114.3a33.92,33.92,0,0,1,2.62-6.18A17.57,17.57,0,0,1,15.09,103a10.24,10.24,0,0,1,3-1.59,10.71,10.71,0,0,1,3.33-.5,6.86,6.86,0,0,1,3.25.86A7.73,7.73,0,0,1,27.1,104a15.66,15.66,0,0,1,2.2,6.32,28.35,28.35,0,0,1,.18,6.7c-.11,1.12-.27,2.22-.43,3.33a22.91,22.91,0,0,1-.87,3.25c-.36,1.07-1,2-1.39,3.05a24.46,24.46,0,0,0-1.22,3.11A30.34,30.34,0,0,0,24.48,143a30,30,0,0,0,1.62,6.48,22.7,22.7,0,0,0,2.79,6.06A10.67,10.67,0,0,0,31.13,158a5.59,5.59,0,0,0,3.07,1.17,4.1,4.1,0,0,0,3-1.16A7.28,7.28,0,0,0,39,155.19a9.21,9.21,0,0,0,0-6.54,41.12,41.12,0,0,1-1.28-6.58A52.45,52.45,0,0,1,38.15,128.71Z" transform="translate(-3.89 -23.16)"/><path d="M83.85,170.64a6.57,6.57,0,0,1-.58,2,4,4,0,0,1-1.45,1.6,9.82,9.82,0,0,1-3.75,1.36,23.68,23.68,0,0,1-3.86.36c-1.29,0-2.56,0-3.86-.13a44.29,44.29,0,0,1-7.57-1.25,17.09,17.09,0,0,1-3.64-1.33,3.45,3.45,0,0,1-.84-.65,3.51,3.51,0,0,1-.5-.93,9.15,9.15,0,0,1-.47-1.87c-.18-1.1-.26-2.18-.33-3.28,0-.18,0-.37,0-.54-.06-1.27-.09-2.55-.09-3.82,0-2.52.13-5.07.31-7.59-.05,1.27-.05,2.54-.05,3.8s0,2.54.05,3.79.08,2.55.17,3.8.24,2.5.47,3.73a11.21,11.21,0,0,0,.5,1.79,3.65,3.65,0,0,0,.41.73,2.85,2.85,0,0,0,.69.5,15.46,15.46,0,0,0,3.51,1.2A42.71,42.71,0,0,0,70.42,175a35.12,35.12,0,0,0,5.43,0c.69-.07,1.38-.15,2.05-.28a9,9,0,0,0,3.36-1.25l.31-.22a2.56,2.56,0,0,0,.45-.49,1.7,1.7,0,0,0,.32-.5,5.74,5.74,0,0,0,.48-1.66v-.11a3.1,3.1,0,0,0,0-1A3.72,3.72,0,0,0,82,167.7a1.93,1.93,0,0,0-.22-.28,5.22,5.22,0,0,0-1-.92,7.58,7.58,0,0,0-1.9-1,10.63,10.63,0,0,0-1.77-.43c-.3,0-.62-.07-.92-.09s-.59,0-.89,0a13.24,13.24,0,0,0-3.58.56l-2.18.67.5-.5,1.12-1.1a36.51,36.51,0,0,0,2.76-3,37.89,37.89,0,0,0,2.46-3.28,32.7,32.7,0,0,0,2.11-3.54A28.13,28.13,0,0,0,80.14,151a25.22,25.22,0,0,0,1-3.92,18.17,18.17,0,0,0,.17-4l-.11-1,0-.17v-.09l0-.23-.11-.5a12.05,12.05,0,0,0-.45-1.72l-.07-.22v0a16.2,16.2,0,0,0-1.81-3.6l-.26-.43a3.64,3.64,0,0,0-.3-.41l-.63-.8-.3-.39,0,0-.34-.37-.07-.06-.62-.69A11.33,11.33,0,0,0,72.92,130,14.16,14.16,0,0,0,69,128.89a19.88,19.88,0,0,0-2.78-.2c-.34,0-.69,0-1,0h-.3a2.11,2.11,0,0,0-.35.05,5.66,5.66,0,0,0-.82.06,8.66,8.66,0,0,0-1.53.2,17.57,17.57,0,0,0-2.26.41,12.94,12.94,0,0,0-1.43.32c-.6.15-1.18.3-1.77.47-1.31.39-2.63.82-3.94,1.32-.89.34-1.77.69-2.63,1.1-.35.13-.67.28-1,.43.31-.17.61-.32.91-.45l.27-.13a46.62,46.62,0,0,1,6.31-2.57,36.75,36.75,0,0,1,8.21-1.77,22.14,22.14,0,0,1,4.23.07,14.62,14.62,0,0,1,4.12,1.1,12.14,12.14,0,0,1,3.54,2.41l.73.78.39.37.32.41.69.84a2.55,2.55,0,0,1,.3.43l.31.43c.19.3.41.58.58.91l.52.92a3.54,3.54,0,0,1,.23.48l.22.49c.13.33.3.65.41,1a18.11,18.11,0,0,1,.58,2.07l.11.51.06.26,0,.28.13,1.06a13.68,13.68,0,0,1,0,1.92,4.51,4.51,0,0,1,0,.52,18.29,18.29,0,0,1-.18,1.83,24.35,24.35,0,0,1-1,4.12,36.56,36.56,0,0,1-1.71,3.9,39.16,39.16,0,0,1-4.68,7c-.49.61-1,1.21-1.53,1.79a12.71,12.71,0,0,1,2-.19,14.78,14.78,0,0,1,2,.13,11.73,11.73,0,0,1,1.94.49,7.83,7.83,0,0,1,3.4,2.2,5.82,5.82,0,0,1,1,1.84A5.32,5.32,0,0,1,83.85,170.64Z" transform="translate(-3.89 -23.16)"/><path d="M83.85,170.64a5,5,0,0,1-1.49,3.17,7.64,7.64,0,0,1-3.2,1.55,23.66,23.66,0,0,1-7.12.54,39.5,39.5,0,0,1-7.11-.8,31.64,31.64,0,0,1-3.48-.88,14.12,14.12,0,0,1-1.68-.63,4.3,4.3,0,0,1-1.51-1h0a9,9,0,0,1-1.14-4.39c-.06-.76-.19-1.51-.2-2.27l0-2.28c-.08-1.53,0-3,.07-4.57l.18-4.56h.18c0,1.49,0,3,0,4.46s0,3,.11,4.46l.1,2.22c.06.74.18,1.47.27,2.21l.14,1.1a5,5,0,0,0,.21,1.09l.29,1.06.08.27.13.23.26.47h0a7.34,7.34,0,0,0,2.58,1.23,28.38,28.38,0,0,0,2.86.7,42.27,42.27,0,0,0,5.83.76,34.85,34.85,0,0,0,5.87-.05c1.92-.24,3.93-.51,5.5-1.72l0,0a2,2,0,0,0,.42-.46h0l0,0a2.89,2.89,0,0,0,.49-1,5.07,5.07,0,0,0,.25-1.09v-.09h0a3.65,3.65,0,0,0-.77-2.58v0a5.91,5.91,0,0,0-2.56-1.91,9.51,9.51,0,0,0-1.58-.45,7.46,7.46,0,0,0-1.62-.24,12.45,12.45,0,0,0-3.28.28c-1.07.24-2.13.62-3.2.94l-.78.22.57-.57c.81-.84,1.68-1.63,2.46-2.47s1.56-1.72,2.26-2.65l2.08-2.79,1.77-3a25.72,25.72,0,0,0,2.59-6.42,17.14,17.14,0,0,0,.42-6.84h0v-.06c0-.25-.1-.49-.15-.73h0a13.74,13.74,0,0,0-.51-1.9v-.09l0,.08a21,21,0,0,0-.9-2.06c-.32-.68-.75-1.27-1.15-1.94h0c-.37-.52-.82-1.06-1.22-1.59l0,0-1.2-1.29a11,11,0,0,0-1.33-1.12,11.09,11.09,0,0,0-3.09-1.56,12,12,0,0,0-3.42-.64l-1.75-.13c-.29,0-.58,0-.87,0a5.7,5.7,0,0,0-.85,0h0l-.79.06h0l-1.5.19h0c-1,.2-2.06.34-3.07.59-.51.1-1,.24-1.52.38s-1,.27-1.51.44l-3,1c-1,.36-1.94.79-2.91,1.18h0l-1,.42L49.1,133a49.89,49.89,0,0,1,7.15-3,38.19,38.19,0,0,1,7.55-1.77,19.5,19.5,0,0,1,7.72.45,12.24,12.24,0,0,1,3.54,1.63,11.87,11.87,0,0,1,1.52,1.21c.48.44.88,1,1.36,1.38h0c.43.58.92,1.06,1.32,1.69h0c.37.52.73,1.08,1,1.64a12.78,12.78,0,0,1,.86,1.74l.37.91.29.92c.2.62.29,1.27.45,1.89h0c0,.54.15,1.07.15,1.62l0,1.64h0a12.59,12.59,0,0,1-.08,1.37c-.06.45-.07.9-.16,1.35a26.61,26.61,0,0,1-.62,2.64,16.54,16.54,0,0,1-1,2.53l-1.09,2.48-1.38,2.33-.7,1.16c-.24.39-.53.73-.8,1.1L75,162c-.55.71-1.17,1.38-1.75,2.07l0,0,1.79-.16a13.55,13.55,0,0,1,1.8.08,9.88,9.88,0,0,1,3.44,1A6.82,6.82,0,0,1,83,167.22,5,5,0,0,1,83.85,170.64Zm0,0a5.1,5.1,0,0,0-.84-3.42A6.75,6.75,0,0,0,80.28,165a9.86,9.86,0,0,0-3.44-1,15.22,15.22,0,0,0-1.79-.07l-1.78.17H73.2l0-.06c.58-.69,1.19-1.36,1.74-2.07l1.61-2.18c.26-.36.56-.71.79-1.09l.69-1.17,1.38-2.32,1.07-2.49a16,16,0,0,0,1-2.52,25.71,25.71,0,0,0,.6-2.63c.09-.44.1-.89.15-1.34a11.87,11.87,0,0,0,.08-1.33h0l0-1.62c0-.54-.13-1.08-.15-1.62h0c-.16-.63-.25-1.27-.46-1.88l-.29-.92L81,138a12.66,12.66,0,0,0-.86-1.73c-.32-.56-.67-1.09-1-1.62h0a8,8,0,0,0-.64-.83L77.8,133h0c-.49-.43-.89-.94-1.36-1.37a12.34,12.34,0,0,0-1.51-1.19,11.66,11.66,0,0,0-3.48-1.58,19.42,19.42,0,0,0-7.63-.42,38.71,38.71,0,0,0-7.49,1.79,49.88,49.88,0,0,0-7.09,3l-.14-.28,1-.44h0c1-.4,1.93-.84,2.92-1.21l3-1c.5-.17,1-.32,1.51-.45s1-.28,1.53-.39c1-.26,2.08-.4,3.12-.61h0l1.56-.2h0l.85-.07h0a7.59,7.59,0,0,1,.92-.06c.29,0,.59,0,.89,0l1.78.13a12.43,12.43,0,0,1,3.51.65,11.48,11.48,0,0,1,3.21,1.6A11.69,11.69,0,0,1,76.2,132l1.21,1.3h0c.42.54.83,1,1.24,1.6h0c.38.63.84,1.27,1.17,2s.65,1.39.93,2.11v0a13.69,13.69,0,0,1,.53,2v0c0,.25.11.49.15.74v.1a17.73,17.73,0,0,1-.4,7,25.82,25.82,0,0,1-2.65,6.51l-1.81,3-2.12,2.81a33.84,33.84,0,0,1-2.28,2.67c-.81.85-1.67,1.63-2.49,2.47l-.21-.35c1.08-.31,2.12-.7,3.24-.94a12.85,12.85,0,0,1,3.39-.27,8,8,0,0,1,1.69.25,9.87,9.87,0,0,1,1.64.48,6.35,6.35,0,0,1,2.73,2.07l0,0a4,4,0,0,1,.83,2.85v.09h0a5.23,5.23,0,0,1-.27,1.17,3,3,0,0,1-.58,1.09l0,0a2.51,2.51,0,0,1-.49.53l0,0a7.58,7.58,0,0,1-2.7,1.25,24.36,24.36,0,0,1-2.94.49,34.42,34.42,0,0,1-5.92,0,44.74,44.74,0,0,1-5.87-.79,25.62,25.62,0,0,1-2.87-.72,7.31,7.31,0,0,1-2.7-1.32h0l-.29-.5-.14-.26-.07-.27-.3-1.08a5.18,5.18,0,0,1-.21-1.11l-.14-1.11c-.08-.74-.2-1.48-.25-2.22l-.1-2.23c-.09-1.49-.07-3-.09-4.47s0-3,0-4.46h.19l-.19,4.55c-.06,1.52-.17,3-.1,4.55l0,2.28c0,.76.13,1.51.19,2.27a8.89,8.89,0,0,0,1.1,4.34h0a4.31,4.31,0,0,0,1.47,1,14,14,0,0,0,1.67.63,33.74,33.74,0,0,0,3.46.89,39.41,39.41,0,0,0,7.1.82,23.35,23.35,0,0,0,7.12-.51,7.75,7.75,0,0,0,3.19-1.53A5,5,0,0,0,83.85,170.64Z" transform="translate(-3.89 -23.16)"/><path d="M121.27,74.24a6.68,6.68,0,0,1-.78,3.4s0,0,0,0a4.85,4.85,0,0,1-1.14,1.4c-.43.34-.89.69-1.34,1s-.8.54-1.18.78l-.2.13a8.65,8.65,0,0,0-1.21.9,1.74,1.74,0,0,0-.41.5,1.59,1.59,0,0,0-.13.56c0,.54-.06,1.1-.08,1.64,0,.08,0,.19,0,.28-.09,1-.15,2-.26,3s-.2,1.86-.3,2.78c-.39,3.39-.85,6.78-1.45,10.14-.5,2.76-1.06,5.54-1.77,8.28-.39,1.45-.8,2.87-1.29,4.29,0,0,0,.07,0,.09-.07.19-.15.41-.24.6a29.18,29.18,0,0,1-1.27,3.07l-.65,1.23c-.22.34-.41.69-.65,1a9.39,9.39,0,0,1-1,1.27,5.51,5.51,0,0,1-1.27,1,3,3,0,0,1-.78.34,3.06,3.06,0,0,1-.8.15,2.75,2.75,0,0,1-1.21-.19A3.28,3.28,0,0,0,103,122a5.85,5.85,0,0,0,.8-.2,3.78,3.78,0,0,0,.69-.36,5.63,5.63,0,0,0,1.19-1,9.64,9.64,0,0,0,.94-1.29c.31-.5.59-1,.85-1.51l.23-.5a28.73,28.73,0,0,0,1.4-3.79,1.12,1.12,0,0,0,0-.13s0,0,0-.07c.62-2,1.14-4.1,1.57-6.19.09-.41.18-.82.24-1.25.37-1.7.67-3.41.93-5.13.49-3.32.93-6.64,1.27-10,.11-.94.19-1.92.28-2.86s.17-2.14.24-3.22v0c0-.54.08-1.06.08-1.6a2.49,2.49,0,0,1,.87-1.79A8,8,0,0,1,116,80c.19-.13.41-.26.6-.41a6.13,6.13,0,0,0,.73-.48.94.94,0,0,0,.22-.15v0a13,13,0,0,0,1.06-.77,4.35,4.35,0,0,0,.88-1.1,5.34,5.34,0,0,0,.24-4.66,2.89,2.89,0,0,0-.37-.63.79.79,0,0,0-.15-.26,4.63,4.63,0,0,0-1.47-1.27,4.07,4.07,0,0,0-.86-.43s0,0,0,0l-.15-.07-.56-.19c-.24-.07-.5-.15-.74-.2h0c-.26,0-.49-.1-.75-.12l-.39-.07h-.32a2.22,2.22,0,0,0-1,.35,4.9,4.9,0,0,0-1.29,1.14A13.18,13.18,0,0,0,110,73.33a26.85,26.85,0,0,0-1.25,2.93c-.39,1-.74,2-1.06,3.07-.43,1.4-.82,2.8-1.17,4.22-.73,2.76-1.33,5.55-1.89,8.35l-.33,1.68c-.23,1.25-.47,2.5-.66,3.75-.09.41-.16.82-.22,1.21-.32,2-.63,3.93-.91,5.89,0,.09,0,.19,0,.28,0-.09,0-.19,0-.28.17-2.07.41-4.12.67-6.19.07-.54.15-1.08.22-1.62,0-.11,0-.21,0-.3.22-1.51.43-3,.67-4.51.56-3.34,1.18-6.66,2-9.94.26-.93.5-1.87.78-2.8a39.25,39.25,0,0,1,2.24-6.17A15.21,15.21,0,0,1,110.81,70a6.74,6.74,0,0,1,1.27-1.23,5.38,5.38,0,0,1,.82-.45,3.86,3.86,0,0,1,.95-.22,4.17,4.17,0,0,1,.5,0l.43.07a8.13,8.13,0,0,1,.84.13c.28.06.56.15.84.21l.24.09a3.27,3.27,0,0,1,.58.19,6.93,6.93,0,0,1,2.82,2.07,2.39,2.39,0,0,1,.37.59A5.91,5.91,0,0,1,121.27,74.24Z" transform="translate(-3.89 -23.16)"/><path d="M60.73,70.47A14,14,0,0,0,60.6,73a10.11,10.11,0,0,0,.39,2.4,5.44,5.44,0,0,0,.19.57,4,4,0,0,0,.22.57c.08.18.17.37.24.56l.3.54.14.28c.05.09.12.18.17.27s.23.35.34.54c.23.36.5.7.73,1.1a7.6,7.6,0,0,1-1.14-.73l-.51-.45-.24-.24-.22-.27-.43-.54-.35-.6a5.11,5.11,0,0,1-.29-.63,5.75,5.75,0,0,1-.23-.66A6.46,6.46,0,0,1,59.72,73,5.38,5.38,0,0,1,60.73,70.47Z" transform="translate(-3.89 -23.16)"/><path d="M85.3,71.09l0,0-.38.13-.63.24a4.87,4.87,0,0,0-.24-.59,1,1,0,0,0-.08-.23A13,13,0,0,0,79.67,65l0,0a12.69,12.69,0,0,0-3-1.64.27.27,0,0,1-.13,0l-.17-.06a9.67,9.67,0,0,0-1.46-.35c-3.43,2.61-2,7.21-1.28,8.93.2.43.33.67.33.69l-1,.54s-.15-.3-.36-.8c-.82-2-2.46-7.35,1.83-10.39l.17-.13.22,0A13.52,13.52,0,0,1,85.3,71.09Z" transform="translate(-3.89 -23.16)"/><path d="M76.52,63c-.19.79-.37,1.53-.53,2.28a21.49,21.49,0,0,0-.37,2.2,11.24,11.24,0,0,0,0,2.17,9.4,9.4,0,0,0,.53,2.22,4.31,4.31,0,0,1-1.4-2,6.18,6.18,0,0,1-.25-2.49A8,8,0,0,1,75.15,65,6.25,6.25,0,0,1,76.52,63Z" transform="translate(-3.89 -23.16)"/><path d="M71.06,73.72a3.17,3.17,0,0,0-.34.17c-1.86.91-10.09,5.59-9.06,15.87h0l-1.06.11h0v-.08a16.69,16.69,0,0,1,0-3.61,15.67,15.67,0,0,1,2.29-6.59.59.59,0,0,0,.08-.11,1.05,1.05,0,0,1,.07-.11,16.05,16.05,0,0,1,2.37-2.89,20.46,20.46,0,0,1,3.56-2.87,4.45,4.45,0,0,0,.43-.26c.22-.11.39-.21.54-.3a7.35,7.35,0,0,1,.71-.37Z" transform="translate(-3.89 -23.16)"/><path d="M116,68.66l-.69.89c-.21.27-.39.52-.55.77s-.15.26-.23.39-.15.27-.2.42c-.15.3-.25.63-.43,1A1.9,1.9,0,0,1,113.4,71a2.13,2.13,0,0,1,.08-.66,2.4,2.4,0,0,1,.28-.61,2.45,2.45,0,0,1,.95-.86A2,2,0,0,1,116,68.66Z" transform="translate(-3.89 -23.16)"/><path d="M118.3,69.71c-.3.32-.55.57-.79.81s-.44.48-.63.71-.18.24-.27.36a3.89,3.89,0,0,0-.25.4c-.18.27-.31.6-.54,1a1.83,1.83,0,0,1-.31-1.22,2.19,2.19,0,0,1,.15-.65,2.53,2.53,0,0,1,.34-.57,2.35,2.35,0,0,1,1-.75A2,2,0,0,1,118.3,69.71Z" transform="translate(-3.89 -23.16)"/><path d="M120.23,71.86a6.5,6.5,0,0,1-.66.75l-.56.57a6.3,6.3,0,0,0-.45.55,4.6,4.6,0,0,0-.43.82,1.29,1.29,0,0,1-.42-1.06,1.87,1.87,0,0,1,.48-1.08,2.16,2.16,0,0,1,1-.56A1.77,1.77,0,0,1,120.23,71.86Z" transform="translate(-3.89 -23.16)"/><path d="M108.57,169.63c-.37-.22-.67-.42-1-.6a9,9,0,0,0-.83-.47l-.41-.19a4.5,4.5,0,0,0-.44-.16c-.31-.11-.65-.17-1.08-.32a1.88,1.88,0,0,1,1.14-.56,2.12,2.12,0,0,1,1.3.23,2.33,2.33,0,0,1,.95.86A1.92,1.92,0,0,1,108.57,169.63Z" transform="translate(-3.89 -23.16)"/><path d="M105.68,171.08l-.88-.72a7.16,7.16,0,0,0-.76-.57c-.12-.09-.25-.16-.38-.24l-.42-.22c-.29-.15-.62-.26-1-.45a1.83,1.83,0,0,1,1.19-.41,2.44,2.44,0,0,1,.66.09,2.59,2.59,0,0,1,.6.3,2.4,2.4,0,0,1,.84,1A2,2,0,0,1,105.68,171.08Z" transform="translate(-3.89 -23.16)"/><path d="M82.39,167.73c-.44,0-.8-.07-1.14-.11s-.64-.05-.94-.05-.3,0-.45,0-.31,0-.47,0c-.33,0-.66.13-1.11.2a1.85,1.85,0,0,1,.77-1,2,2,0,0,1,.6-.29,2.84,2.84,0,0,1,.66-.09,2.41,2.41,0,0,1,1.24.35A2,2,0,0,1,82.39,167.73Z" transform="translate(-3.89 -23.16)"/><path d="M83.82,170.63l-1.12-.23c-.33-.06-.63-.11-.93-.14-.15,0-.3,0-.45,0s-.31,0-.47,0c-.33,0-.67.06-1.12.08a1.85,1.85,0,0,1,.86-.93,2.61,2.61,0,0,1,.63-.22,2.5,2.5,0,0,1,.67,0,2.53,2.53,0,0,1,1.2.47A2,2,0,0,1,83.82,170.63Z" transform="translate(-3.89 -23.16)"/><path d="M82.37,173.37l-1.11-.28c-.33-.08-.63-.14-.92-.19l-.45-.06c-.15,0-.31,0-.47,0-.33,0-.68,0-1.12,0a1.81,1.81,0,0,1,.91-.88,2.2,2.2,0,0,1,.63-.19,2.43,2.43,0,0,1,1.85.54A2,2,0,0,1,82.37,173.37Z" transform="translate(-3.89 -23.16)"/><path d="M205.64,95c.73,7.91-.15,15.59-3.69,22.81a41.89,41.89,0,0,1-18.2,19.09,40.55,40.55,0,0,1-13.27,4.49,24.14,24.14,0,0,0-2.95.28h-.45a.47.47,0,0,0-.37-.11h-1.17a.57.57,0,0,0-.45.11h-2c-.18-.18-.41-.09-.63-.11h-.11c-.13,0-.26,0-.36.11h-1.34a44.24,44.24,0,0,1-7-1,41.93,41.93,0,0,1-18-9.86,39.15,39.15,0,0,1-8.93-11.88,1.88,1.88,0,0,0-1.66-1.23c-1.45-.11-2.87-.34-4.32-.34-1.18,0-1.23.06-1,1.18.52,2.16,1.06,4.32,1.6,6.47l2.91,11.61a4,4,0,0,1-.77,3.83,2.82,2.82,0,0,1-2.18,1.17,1.83,1.83,0,0,1-.33,0H108.74a1.14,1.14,0,0,1-.26,0c-1.51.09-3-1.6-3.13-3.45-.47-4.85-1-9.71-1.4-14.56,0-.54-.11-1.08-.17-1.64v-.13c-.13-1.1-.26-2.2-.32-3.3,0-.06,0-.13,0-.19a1.5,1.5,0,0,0-.45-1v0a2.16,2.16,0,0,0-.86-.41A13.72,13.72,0,0,1,93,109.45a14.5,14.5,0,0,1-1-3.7v-2a1.65,1.65,0,0,0,0-1.34V102a12.28,12.28,0,0,1,2-5.74,2.29,2.29,0,0,1,.35-.45v0a0,0,0,0,1,0,0,11.34,11.34,0,0,1,2.09-2.18,8.39,8.39,0,0,1,.89-.71c.43-.3.86-.58,1.31-.84a10.66,10.66,0,0,1,2.57-1.12,11,11,0,0,1,2.24-.48c.58-.06.82-.24.82-.54a1.49,1.49,0,0,0-.17-.6,30,30,0,0,1-2.33-7.51c-1.9-11.21.91-21.09,8.56-29.54A34,34,0,0,1,143.33,42a17.61,17.61,0,0,0,6.82.52,13.26,13.26,0,0,0,8.23-4.81A25.71,25.71,0,0,1,174,28.34c9.14-1.51,17.31.56,24.06,7.23a25,25,0,0,1,7.36,13.65c1.36,7.74.08,15-4.77,21.42-2.33,3.08-2.41,4.8-.47,8.13A39.49,39.49,0,0,1,205.64,95Z" transform="translate(-3.89 -23.16)"/><path class="cls-10" d="M121.4,141.48a.3.3,0,0,0,0,.13s0,.06,0,.09H108.48v-.09a.3.3,0,0,0,0-.13Z" transform="translate(-3.89 -23.16)"/><path class="cls-11" d="M92.06,102.41a1,1,0,0,1,0,1.33Z" transform="translate(-3.89 -23.16)"/><path class="cls-12" d="M162.41,141.5c.25,0,.51-.08.68.2h-.67c-.07,0-.09-.09-.07-.13S162.39,141.5,162.41,141.5Z" transform="translate(-3.89 -23.16)"/><path class="cls-13" d="M166,141.51h.67c.06,0,.08.08.06.13s-.05.06-.07.06H166c-.07,0-.1-.09-.07-.13S166,141.51,166,141.51Z" transform="translate(-3.89 -23.16)"/><path class="cls-14" d="M162.41,141.5a1.34,1.34,0,0,1,0,.2H162C162.05,141.47,162.23,141.48,162.41,141.5Z" transform="translate(-3.89 -23.16)"/><path class="cls-15" d="M165.08,141.7c.1-.21.27-.22.46-.2s.08.09.06.13,0,.07-.07.07Z" transform="translate(-3.89 -23.16)"/><path class="cls-16" d="M165.53,141.7a1.34,1.34,0,0,1,0-.2H166c0,.06,0,.12,0,.19Z" transform="translate(-3.89 -23.16)"/><path class="cls-17" d="M166.64,141.7a1.15,1.15,0,0,1,0-.19c.18,0,.38-.1.43.19Z" transform="translate(-3.89 -23.16)"/><path class="cls-18" d="M131.08,118.42c4,1,7.78,2.38,11.58,3.63,4.21,1.37,8.4,2.79,12.6,4.18,2,.67,3.08-.09,3.09-2.18,0-2.67,0-5.33,0-8,0-.5,0-.89.68-1,4.11-.55,6.65-3.2,6.85-7.38a55.41,55.41,0,0,0-.1-8.64,7.3,7.3,0,0,0-6.33-6.44c-.86-.11-1.15-.36-1.13-1.28.08-2.51,0-5,0-7.54,0-2.34-1-3.07-3.23-2.36-7.65,2.48-15.2,5.24-22.92,7.5a46.54,46.54,0,0,1-12.48,1.64c-3.15.05-6.29,0-9.44,0a1.25,1.25,0,0,1-1.27-.77,30.26,30.26,0,0,1,34.23-43.72c6.05,1.48,11.52.35,16.24-3.77,1.6-1.4,2.91-3.15,4.48-4.6A22.68,22.68,0,0,1,201.22,49,22.06,22.06,0,0,1,197.47,68c-1.28,1.78-2.48,3.55-2.71,5.83a9.17,9.17,0,0,0,1.11,5.66,43.81,43.81,0,0,1,4.81,11.13,37.42,37.42,0,0,1-2,24.7,36.08,36.08,0,0,1-19.14,19.26c-12.56,5.45-24.78,4.39-36.34-3A36,36,0,0,1,131.35,119C131.27,118.84,131.2,118.68,131.08,118.42Z" transform="translate(-3.89 -23.16)"/><path class="cls-7" d="M145,118.85c-2-.67-4-1.28-5.9-2A59.38,59.38,0,0,0,116,113.3c-.94,0-1.24-.16-1.22-1.18.06-5.54,0-11.09,0-16.64,0-.94.28-1.15,1.17-1.13a61.12,61.12,0,0,0,16.29-1.48c4.08-1,8-2.5,12-3.81.61-.21.9-.31.89.55,0,9.58,0,19.16,0,28.73A4.08,4.08,0,0,1,145,118.85Z" transform="translate(-3.89 -23.16)"/><path class="cls-1" d="M154.56,103.87c0,5.69,0,11.39,0,17.08,0,.86-.12,1.12-1,.77a38.89,38.89,0,0,0-3.77-1.28,1.08,1.08,0,0,1-.95-1.28c0-9.43,0-18.86,0-28.29,0-.88,0-1.77,0-2.66a.77.77,0,0,1,.67-.93c1.31-.39,2.61-.81,3.88-1.3.89-.35,1.18-.25,1.17.8C154.54,92.48,154.56,98.17,154.56,103.87Z" transform="translate(-3.89 -23.16)"/><path class="cls-2" d="M120.41,137.71c-3.52,0-7,0-10.53,0-.49,0-.49-.28-.53-.63-.35-3.68-.72-7.35-1.08-11-.26-2.72-.48-5.44-.8-8.16-.08-.71.06-.87.76-.86,2.07,0,4.13,0,6.2,0,.41,0,.78,0,.92.52C117,124.33,118.74,131.08,120.41,137.71Z" transform="translate(-3.89 -23.16)"/><path class="cls-8" d="M103.37,113a9.31,9.31,0,0,1-7.49-9.43c.16-4.55,3.47-8.41,7.49-8.92Z" transform="translate(-3.89 -23.16)"/><path class="cls-19" d="M107.2,103.74c0-2.81,0-5.61,0-8.42,0-.79.24-1,1-1a10.73,10.73,0,0,0,1.88,0c.67,0,1,.1.94.88q0,8.58,0,17.16c0,.74-.2,1-.92.9-.91-.08-2.1.28-2.68-.17s-.17-1.73-.19-2.64C107.18,108.24,107.2,106,107.2,103.74Z" transform="translate(-3.89 -23.16)"/><path class="cls-2" d="M162.15,103.81c0,1.22,0,2.44,0,3.66a3.86,3.86,0,0,1-2.94,3.82c-.57.11-.86,0-.86-.67q0-6.83,0-13.63c0-.7.21-.79.84-.64a3.85,3.85,0,0,1,2.95,3.81C162.18,101.37,162.15,102.59,162.15,103.81Z" transform="translate(-3.89 -23.16)"/><path d="M137.36,37.36c-.48.65-1.73.21-2.63.28-7.27.41-14.13,2.16-20.3,6.17a33.7,33.7,0,0,0-12.61,14.92,47.28,47.28,0,0,0-4,19.26c0,.71-.11,1.14-.63,1.23a2.07,2.07,0,0,1-.6,0,9.13,9.13,0,0,0-1.56.06,1,1,0,0,1-.94-.32,1.81,1.81,0,0,1-.2-1.23v0c0-.41.11-.84.11-1.23.09-1.71.22-3.39.43-5a46.23,46.23,0,0,1,7.14-20.29A36.47,36.47,0,0,1,120.64,36.5a51.06,51.06,0,0,1,16-2.7c.74,0,1,.13,1,.88C137.47,35.59,137.81,36.78,137.36,37.36Z" transform="translate(-3.89 -23.16)"/><path d="M112.91,72.58c0-3.25,0-6.51,0-9.76,0-1.9.64-2.56,2.5-2.56h6.44a2,2,0,0,1,2.31,1.46c.15.53.44.41.73.3a2.05,2.05,0,0,0,1.27-2.23c0-1.84,0-3.7.06-5.54a5.6,5.6,0,0,1,8.63-4.43,5.67,5.67,0,0,1,2.68,5c0,1.67,0,3.33,0,5s.69,2.26,2.3,2.32a11,11,0,0,1,3.18.27,5.43,5.43,0,0,1,3.88,4.89c.16,3.5.18,7,0,10.53a5.27,5.27,0,0,1-5,5c-4.4.15-8.8.09-13.2.11-.92,0-1.85,0-2.77,0s-1.69-.12-2,1c-.21.66-1,.86-1.67.86-2.41,0-4.81,0-7.21,0a1.92,1.92,0,0,1-2.07-2.19C112.89,79.31,112.91,75.94,112.91,72.58Z" transform="translate(-3.89 -23.16)"/><path d="M179.19,71.6a17,17,0,1,1,17-16.95A17,17,0,0,1,179.19,71.6Z" transform="translate(-3.89 -23.16)"/><path d="M181.34,94.39a4.13,4.13,0,0,1,3,1c1.46,1.33,2.72,1.25,4.14,0a4.15,4.15,0,0,1,2.57-.92,6.82,6.82,0,0,1,6.51,4.12c1,2.26.51,4.65-1.49,6.66-2.62,2.65-5.27,5.29-7.91,7.92-1.29,1.28-2.24,1.29-3.5,0q-4-4-8.08-8.08a5.62,5.62,0,0,1-1.43-6.39A7,7,0,0,1,181.34,94.39Z" transform="translate(-3.89 -23.16)"/><path d="M178,88.24c0,.35-.23.4-.42.49-2.17,1.09-4.35,2.16-6.51,3.27-.46.24-.63.11-.82-.3-.42-.93-1.34-1.93-1.18-2.74s1.6-1,2.47-1.43c1.4-.73,2.83-1.4,4.23-2.14.51-.27.75-.21,1,.33C177.14,86.59,177.6,87.43,178,88.24Z" transform="translate(-3.89 -23.16)"/><path d="M178,121.25c-.53,1-1,2-1.54,3-.15.28-.39,0-.57,0-2.17-1.09-4.34-2.18-6.52-3.25-.43-.21-.56-.41-.29-.82a.31.31,0,0,0,0-.1c.46-.87.72-2.19,1.43-2.51s1.73.68,2.61,1.1c1.43.68,2.84,1.4,4.25,2.11C177.69,120.85,178,120.91,178,121.25Z" transform="translate(-3.89 -23.16)"/><path class="cls-20" d="M166.33,78.83c1,.26,1.93.51,2.83.7.41.09.44.32.36.64l-1.62,6.54c-.1.41-.32.53-.71.39a.85.85,0,0,0-.22,0c-2.92-.65-2.91-.64-2.18-3.55.34-1.35.66-2.71,1-4.07C165.88,79.13,165.88,78.61,166.33,78.83Z" transform="translate(-3.89 -23.16)"/><path d="M167.45,122.35c.3-.1.37.23.44.51.54,2.14,1.07,4.28,1.62,6.42.12.47,0,.69-.5.73-.07,0-.14.06-.21.07-.92.2-2,.8-2.71.49s-.56-1.65-.8-2.53c-.35-1.32-.65-2.65-1-4-.2-.68-.07-1,.69-1.1A22.74,22.74,0,0,0,167.45,122.35Z" transform="translate(-3.89 -23.16)"/><path class="cls-20" d="M122.36,105.72c1,0,2.07,0,3.11,0,.51,0,.68.13.71.68.16,3.12.18,3.12-2.92,3.12-1.34,0-2.67,0-4,0-.52,0-.68-.14-.71-.68-.17-3.12-.18-3.12,2.93-3.12Z" transform="translate(-3.89 -23.16)"/><path class="cls-20" d="M122.41,101.94c-1,0-2.07,0-3.1,0-.59,0-.73-.19-.76-.75-.12-3-.14-3,2.89-3,1.33,0,2.66,0,4,0,.58,0,.74.17.76.75.11,3,.13,3-2.88,3Z" transform="translate(-3.89 -23.16)"/><path class="cls-19" d="M133,79.19c-2.59,0-5.18,0-7.77,0-.72,0-1-.1-1-.94,0-3.8,0-7.62,0-11.43,0-.49,0-.86.67-1,3.29-.6,5-2.64,5-6,0-1.63,0-3.25,0-4.88,0-1.43.72-2.28,1.86-2.28s1.89.86,1.92,2.26c0,1.67,0,3.33,0,5a5.7,5.7,0,0,0,6,6c3.29.07,3.44.23,3.45,3.48q0,3.66,0,7.32c0,1.78-.62,2.4-2.39,2.42C138.19,79.2,135.6,79.19,133,79.19Z" transform="translate(-3.89 -23.16)"/><path class="cls-7" d="M120.47,72.68c0,2.54,0,5.09,0,7.64,0,.61-.15.85-.79.79-1-.1-2.24.4-2.85-.22-.47-.47-.15-1.74-.15-2.66,0-4.43,0-8.86,0-13.29,0-.7.15-1,.91-.91.93.1,2.19-.4,2.74.22s.14,1.75.15,2.67C120.48,68.84,120.47,70.76,120.47,72.68Z" transform="translate(-3.89 -23.16)"/><path class="cls-1" d="M192.41,54.58a13.24,13.24,0,1,1-13.25-13.23A13.22,13.22,0,0,1,192.41,54.58Z" transform="translate(-3.89 -23.16)"/><path class="cls-8" d="M178.56,100.83a3.18,3.18,0,0,1,1.74-2.4,1.82,1.82,0,0,1,2.17.17c.89.59,1.79,1.17,2.67,1.77a2.07,2.07,0,0,0,2.57,0c.88-.61,1.76-1.21,2.67-1.78,1.23-.77,2.2-.5,3.33.86a1.94,1.94,0,0,1-.17,2.94c-2.19,2.24-4.44,4.43-6.64,6.67-.39.4-.6.35-1,0-2.2-2.23-4.43-4.44-6.65-6.66A2,2,0,0,1,178.56,100.83Z" transform="translate(-3.89 -23.16)"/><path d="M173.5,54.51c0-2.37,0-4.73,0-7.09a2.08,2.08,0,0,1,1-2.05,2,2,0,0,1,2.27.3c3.53,2.35,7.06,4.69,10.58,7.06,1.69,1.13,1.7,2.57,0,3.69-3.55,2.39-7.12,4.75-10.67,7.12a2,2,0,0,1-2.28.25,2,2,0,0,1-1-2C173.51,59.38,173.5,56.94,173.5,54.51Z" transform="translate(-3.89 -23.16)"/><path class="cls-2" d="M177.31,58.6v-8l6,4Z" transform="translate(-3.89 -23.16)"/></g></svg>