<svg id="Vrstva_1" data-name="Vrstva 1" xmlns="http://www.w3.org/2000/svg" viewBox="0 0 761.31 744.82"><defs><style>.cls-1{fill:#fff;}.cls-2{fill:#82e8e3;}.cls-3{fill:#1d1d1b;}.cls-4{fill:#00eac8;}.cls-5{fill:#ffc5df;}.cls-6{fill:#ff1d6f;}.cls-7{fill:#ff5299;}.cls-8{fill:#d3d3d3;}</style></defs><path class="cls-1" d="M756.14,103.69a32.16,32.16,0,0,1-7.51,9.25c-2.84,2.28-5.74,4.48-8.72,6.52s-6,4-8.94,5.86a53,53,0,0,0-7.92,5.9,12.29,12.29,0,0,0-2.53,3.23,8.69,8.69,0,0,0-.91,3.63c-.13,3.55-.37,7.16-.61,10.68-.52,7.08-1.1,14.14-1.81,21.2-2.81,28.18-6.35,56.31-11.29,84.22S695,309.87,685.79,336.81c-4.74,13.37-10.18,26.66-18.15,38.55a62.63,62.63,0,0,1-6.7,8.38,36.26,36.26,0,0,1-8.33,6.77,23.35,23.35,0,0,1-10.21,3.15,22.69,22.69,0,0,1-7.86-1,334.27,334.27,0,0,1-23.39,37.87l-4,5.55-3.72,5.52c-1.21,1.84-2.52,3.63-3.66,5.52l-3.24,5.79a135.68,135.68,0,0,0-10.41,24.26c-.62,2.1-1.11,4.25-1.67,6.38A56.82,56.82,0,0,0,583,490l-1.11,6.51-.27,1.61-.15,1.65-.28,3.29a136,136,0,0,0,.15,26.38,177.49,177.49,0,0,0,13.86,51.08c1.67,4.13,3.7,8.1,5.59,12.13,2.09,3.92,4,7.93,6.29,11.78,4.34,7.79,9.13,15.33,14.23,22.66s10.49,14.47,16.19,21.36c5.53,6.65,11.37,13.23,17.43,19.21a65.27,65.27,0,0,1,9.3,3.92,48.55,48.55,0,0,1,9.36,6.09,24.77,24.77,0,0,1,7.25,9.5,17.56,17.56,0,0,1,.16,12.46,25.72,25.72,0,0,1-6.51,10,35.06,35.06,0,0,1-9.79,6.09,47.69,47.69,0,0,1-20.92,3c-10.47.25-20.45-3.52-29.08-8.63a96.94,96.94,0,0,1-11.55-7.23,194.81,194.81,0,0,1-30.85-28.68,285.28,285.28,0,0,1-25.08-33.59,275.49,275.49,0,0,1-19.63-36.93,306.81,306.81,0,0,1-19-57.53,112.73,112.73,0,0,1-1.19,11.61,153.46,153.46,0,0,1-6.73,26.92,208.75,208.75,0,0,1-11,25.37,264.29,264.29,0,0,1-14,23.68q-7.62,11.47-16.35,22.11c-3.23,3.94-6.53,7.78-10,11.54a83.89,83.89,0,0,1,26.19-.26,72.45,72.45,0,0,1,12.65,3.15c8.2,2.88,16.13,7.46,22,14.43a34.66,34.66,0,0,1,6.61,12,33.38,33.38,0,0,1,1.23,13.64,42.68,42.68,0,0,1-3.74,12.9,26.6,26.6,0,0,1-9.33,10.4c-7.57,5-16,7.32-24.35,8.91a152.3,152.3,0,0,1-25.13,2.29c-8.37.15-16.72-.18-25-.84a291.66,291.66,0,0,1-49.26-8.13c-8.06-2.21-16.11-4.56-23.7-8.75a21.2,21.2,0,0,1-5.42-4.2,21.86,21.86,0,0,1-3.23-6,65.31,65.31,0,0,1-3.07-12.34,206.06,206.06,0,0,1-2.14-21.35,447.94,447.94,0,0,1-205.4-.69A257.9,257.9,0,0,1,89,664.77a169.77,169.77,0,0,1-43.28-29.64,132.1,132.1,0,0,1-29.95-43.24c-7-16.22-11-33.52-13.24-50.87A380,380,0,0,1,0,488.72q.39-26.13,2.89-52.15c1.65-17.33,4-34.61,7.21-51.76a372.81,372.81,0,0,1,13.08-50.75c5.69-16.57,12.86-32.83,23-47.48A122.71,122.71,0,0,1,54.48,276a99.63,99.63,0,0,1,9.59-9.46,75.44,75.44,0,0,1,23.38-13.73,73.11,73.11,0,0,1,13.25-3.28,66.18,66.18,0,0,1,13.66-.73,49.93,49.93,0,0,1,26.19,8.68c7.74,5.3,13.67,12.71,18,20.66A101.12,101.12,0,0,1,168,303.35c4.09,17.36,4.92,35.16,3.91,52.73a216.48,216.48,0,0,1-3.21,26.22,155.73,155.73,0,0,1-7,25.64c-.82,2.09-1.66,4.18-2.63,6.23-.46,1-1,2-1.5,3.06l-1.48,2.86c-1.93,3.78-3.74,7.62-5.36,11.54a172.07,172.07,0,0,0-8.1,24.15,189.47,189.47,0,0,0-5.79,50.6,202.2,202.2,0,0,0,7.42,50.49c4.57,16.47,10.39,32.77,19,47.27,4.35,7.17,9.5,13.93,15.92,18.85a33.1,33.1,0,0,0,10.46,5.44,23.26,23.26,0,0,0,11.35.67,21.24,21.24,0,0,0,10-5.26,35.09,35.09,0,0,0,7.15-9.54,60.65,60.65,0,0,0,6.47-23.75,52.42,52.42,0,0,0-.52-12.29c-.19-1-.39-2-.65-2.93s-.57-1.81-.94-2.92c-.69-2.1-1.43-4.19-2-6.31a192,192,0,0,1-5.59-25.73,304,304,0,0,1-3-52.27,340.14,340.14,0,0,1,5.22-52A263.13,263.13,0,0,1,231,385.68a166.74,166.74,0,0,1,26.36-45.18,145.63,145.63,0,0,1,18.44-18.64A141.07,141.07,0,0,1,297.37,307c15.23-8.58,31.79-14.4,48.61-18.67a487.29,487.29,0,0,1,49.07-9.23,135.93,135.93,0,0,1-8.31-14.21,125.82,125.82,0,0,1-8.38-21.2,165.21,165.21,0,0,1-4.69-22.25c-1.15-7.42-2.05-14.82-3.29-22.07-.61-3.63-1.33-7.2-2.2-10.73-.41-1.75-.91-3.49-1.42-5.24h-.13l-.06-.65c-.46-1.55-.94-3.11-1.42-4.68-4.4-14.12-9.71-28-14.1-42.51-2.2-7.22-4.17-14.58-5.66-22.07-.73-3.75-1.38-7.52-1.87-11.31s-.84-7.73-1.22-11.21-.91-7.35-1.25-11.22a53.58,53.58,0,0,1,.09-12.19A25.54,25.54,0,0,1,343,61a18.73,18.73,0,0,1,4.26-5.93,23.43,23.43,0,0,1,12.41-5.58,81.92,81.92,0,0,1,11.83-.84c3.87,0,7.71.1,11.57.39a80.63,80.63,0,0,1,11.79,1.62,84.09,84.09,0,0,1,11.36,3.52,57.68,57.68,0,0,1,10.51,5.94c3.13,2.14,6.09,4.13,9.24,6.18s5.8,3.56,8.42,4a18,18,0,0,0,8.78-1.12c.44-.15.88-.32,1.33-.49-5.38-13.05-16.16-48,11.83-67.91L457.45,0l1.36.13c.49,0,49.34,5.51,68.75,60.83l-.14,0q2.66,1.13,5.22,2.51A201.52,201.52,0,0,1,552,75.7a194.1,194.1,0,0,1,17.82,14.22,135.27,135.27,0,0,1,15.78,16.65,88.94,88.94,0,0,1,6.59,9.56,83.22,83.22,0,0,1,5.05,10.47,132.37,132.37,0,0,1,5.52,17.88,84.23,84.23,0,0,1,9.11-.69,76.61,76.61,0,0,1,14.9,1.06,93.83,93.83,0,0,0-14.89-.68,84.66,84.66,0,0,0-9,.78c1.27,5.23,2.34,10.46,3.49,15.63.75.22,1.5.47,2.26.72A80.18,80.18,0,0,1,620.06,166a115.29,115.29,0,0,0-11.62-4.37c-.67-.21-1.35-.42-2-.61.68,3.09,1.39,6.15,2.19,9.19a50.77,50.77,0,0,1,1.83,11.47,46.76,46.76,0,0,1-1,11.58,45.82,45.82,0,0,1-10.17,20.52,44.25,44.25,0,0,1-11.21,9.33c8,8.59,16,17.17,23.88,25.83l26.94,29.31c1.17-13.44,2.68-26.86,4.4-40.25q2.7-21,6-42c4.63-27.92,10.1-55.75,18-83.08,4-13.65,8.44-27.23,14.68-40.25A97.37,97.37,0,0,1,693.28,54a42.45,42.45,0,0,1,8.29-8,22.75,22.75,0,0,1,11.51-4.35,31.25,31.25,0,0,1,3.21,0l2.76.35c1.83.2,3.64.56,5.45.94s3.62.89,5.43,1.33c1.77.63,3.58,1.11,5.3,1.89a42.84,42.84,0,0,1,18.38,13.51,38.45,38.45,0,0,1,7.66,21.7A42.91,42.91,0,0,1,756.14,103.69Z"/><path class="cls-2" d="M502,63.05a11.89,11.89,0,0,0-5.78,3.18c-9.12,9.34-13.45,24.71-17.6,37.15-1.24,3.69-2.33,7.62-1.62,11.68,1,5.58,5.14,10.34,9,14.82,7.71,9,15.35,19.71,14.64,30.73-.2,3.08-1,6.17-.07,9.23,1,3.24,3.84,5.73,6.59,7.87,9.08,7.08,19.27,12.92,30.08,15.51s22.3,1.68,30.9-3.91c7.57-4.92,12.41-13,16-21.4,6.12-14.51,8.9-31.51,3.43-47.67C582,103.8,568.47,90.16,553.37,81,542.2,74.29,516.24,59.53,502,63.05Z"/><ellipse class="cls-3" cx="438.26" cy="161.38" rx="22.74" ry="26.56" transform="translate(-24.68 223.08) rotate(-27.81)"/><circle class="cls-1" cx="434.88" cy="149.19" r="10.91"/><path class="cls-1" d="M429.22,173.35c7.87,4.07,11.69,1.81,14.42,3.9a2.72,2.72,0,0,1,.38,3.33h0a2.48,2.48,0,0,1-2.85,1.2c-3.17-1.82-9.68-.56-16.27-9.86-1.32-2.29-1.94-3.44-1-2.22h0C424.86,170.91,427.54,172.5,429.22,173.35Z"/><circle class="cls-1" cx="448.25" cy="180.46" r="1.47"/><circle class="cls-4" cx="449.17" cy="165.31" r="4.77"/><circle class="cls-4" cx="451.37" cy="156.76" r="1.63"/><ellipse class="cls-3" cx="539.33" cy="124.48" rx="24.3" ry="28.39" transform="translate(4.21 265.97) rotate(-27.81)"/><circle class="cls-1" cx="535.72" cy="111.45" r="11.66"/><path class="cls-1" d="M529.67,137.27c8.41,4.35,12.5,1.94,15.41,4.17.76.46,1.19,2.31.41,3.56h0a2.64,2.64,0,0,1-3,1.28c-3.38-1.94-10.35-.6-17.38-10.54-1.41-2.44-2.08-3.68-1.07-2.37h0C525,134.67,527.88,136.36,529.67,137.27Z"/><circle class="cls-1" cx="550.01" cy="144.87" r="1.57"/><circle class="cls-4" cx="550.99" cy="128.68" r="5.1"/><circle class="cls-4" cx="553.34" cy="119.54" r="1.74"/><circle class="cls-5" cx="437.57" cy="217.34" r="21.56"/><path d="M404.2,246.54A81.07,81.07,0,0,1,411,235.87a79.53,79.53,0,0,1,8.31-9.56,43.6,43.6,0,0,1,10.31-7.37A21.18,21.18,0,0,1,442,216.62a22.75,22.75,0,0,0-12.14,2.66,43.22,43.22,0,0,0-10.08,7.45,78.77,78.77,0,0,0-8.41,9.37A117.8,117.8,0,0,0,404.2,246.54Z"/><path d="M387.76,232.21a111.7,111.7,0,0,1,14.11-10,109.58,109.58,0,0,1,15.46-7.87,59.8,59.8,0,0,1,16.86-4.07A29,29,0,0,1,451,213.6a31.16,31.16,0,0,0-16.76-2.85A59.43,59.43,0,0,0,417.62,215a108.23,108.23,0,0,0-15.48,7.59A159.7,159.7,0,0,0,387.76,232.21Z"/><path class="cls-5" d="M510.34,182.86s-8.6,10.82-18.36,10.06c0,0-4.49,20.62,30.55,33.2,0,0,34.33,7.46,30.32-17.76,0,0-5.08-18.52-15.23-27.75C537.62,180.61,523.19,190.58,510.34,182.86Z"/><path class="cls-6" d="M544.31,226.75s-27.82,8.54-47.39-18.76c0,0,16.93-.87,28.06,5.6,0,0,2.8-5.31,10.3-6.32S548.1,220.74,544.31,226.75Z"/><path d="M534,229.07c7.6,0,14-2.1,17.56-6.27,12.69-14.9-11.75-42.91-12.79-44.09l-1.55,1.35c.25.28,24.32,27.85,12.77,41.41-5.39,6.32-19,7.34-32.28,2.41-16.25-6-25.91-17.88-25.86-31.77h-2c-.07,17.41,14,28.83,27.2,33.71A50.21,50.21,0,0,0,534,229.07Z"/><path d="M509.79,181.7a31.49,31.49,0,0,1-7.6,5.68,30.88,30.88,0,0,1-8.75,3.15,31.26,31.26,0,0,1-4.63.53c-.78,0-1.57.11-2.35.08s-1.56-.09-2.35-.12a16.85,16.85,0,0,1-2.36-.24l-2.37-.31c-1.58-.25-3.13-.67-4.75-.92,1.47.69,3,1.31,4.51,1.9a37,37,0,0,0,4.78,1.16,28.75,28.75,0,0,0,9.92-.07C500.36,191.22,506.51,187.36,509.79,181.7Z"/><path d="M543.93,173.8a31.49,31.49,0,0,1-7.6,5.68,31,31,0,0,1-8.75,3.15,31.39,31.39,0,0,1-4.64.53c-.77,0-1.56.11-2.34.08s-1.57-.09-2.36-.12a16.86,16.86,0,0,1-2.35-.24l-2.37-.31c-1.58-.25-3.13-.67-4.75-.92,1.47.69,3,1.31,4.5,1.9a37.14,37.14,0,0,0,4.79,1.16,28.69,28.69,0,0,0,9.91-.07C534.49,183.32,540.65,179.46,543.93,173.8Z"/><path d="M514.59,177.37c-1.83,4.78-4.94,8.14-10.37,4-1.55-1.19-3-2.65-4.83-3.26-1.33-.45-2.77-.42-4.13-.76s-2.76-1.24-3-2.63a3.27,3.27,0,0,1,2.1-3.22,11.11,11.11,0,0,1,4.06-.63c3.5-.15,7.11-.7,10-2.62,1.9-1.25,3.47-3.06,5.59-3.9a2.34,2.34,0,0,1,2.31.07,2.72,2.72,0,0,1,.55,2.51A48.42,48.42,0,0,1,514.59,177.37Z"/><circle class="cls-5" cx="575.27" cy="162.01" r="21.18"/><path d="M620.06,166a115.29,115.29,0,0,0-11.62-4.37c-.67-.21-1.35-.42-2-.61q-2.6-.75-5.23-1.32c-1.58-.34-3.17-.63-4.78-.86l-.18,0a46,46,0,0,0-8.68-.57,33.22,33.22,0,0,0-3.45.3,22.29,22.29,0,0,0-11.25,4.72A20.65,20.65,0,0,1,584,158.19a31.64,31.64,0,0,1,3.63-.36,46.8,46.8,0,0,1,8.45.42l.37.05c1.54.24,3,.55,4.57.9,1.77.39,3.52.86,5.26,1.38.75.22,1.5.47,2.26.72A80.18,80.18,0,0,1,620.06,166Z"/><path d="M626.72,144.85a93.83,93.83,0,0,0-14.89-.68,84.66,84.66,0,0,0-9,.78c-1.75.26-3.49.56-5.21,1l-.55.11a59.71,59.71,0,0,0-6.15,1.73l-1.16.42a54.11,54.11,0,0,0-6.63,2.9,46.37,46.37,0,0,0-11.64,9.18,41.34,41.34,0,0,1,11.46-9.51,57.46,57.46,0,0,1,6.88-3.11l.73-.26a61.72,61.72,0,0,1,6.39-1.91l.51-.1c1.74-.35,3.5-.64,5.26-.87a84.23,84.23,0,0,1,9.11-.69A76.61,76.61,0,0,1,626.72,144.85Z"/><path class="cls-6" d="M521.24,59.81S475.86,56,465.6,65c0,0-13.35-29.85,2.9-52.44a7.84,7.84,0,0,1,9-2.8c10.61,3.79,34.07,16,43.76,51.4Z"/><path class="cls-6" d="M428.64,76s-39.87,29-43.94,42.09c0,0-24.25-21.93-22.05-49.67.28-3.47,5.53-14.53,8.94-15.23,11-2.25,28.56-6.38,55.21,18.9Z"/><path class="cls-7" d="M490.84,21.35s-18.43-7.52-16.21,11.9,15.16,26,15.16,26L526.35,65S502.58,21.89,490.84,21.35Z"/><path class="cls-7" d="M387.75,62.61s-18.43-7.51-16.21,11.91,28.14,21.67,28.14,21.67l23.39-17.55S399.49,63.16,387.75,62.61Z"/><path class="cls-5" d="M500.61,35.93s-12.51-5.36-7.53,5.58S513.4,56.6,507.34,50.1A26.35,26.35,0,0,1,500.61,35.93Z"/><path class="cls-5" d="M394,67.94s-13.61.11-4.67,8.13,24.68,5.67,16.52,2.14A26.28,26.28,0,0,1,394,67.94Z"/><path class="cls-2" d="M3,540.92s51.86-179,96.51-123c0,0,48.09-111.79,68.83-44.05,0,0,9.89-148.32-79.83-117S3,540.92,3,540.92Z"/><path class="cls-8" d="M735.83,117.63S749.4,72,712.4,74.46s-62.9,141.83-62.9,141.83S669.08,50.32,716,45.13s42,50.3,42,50.3Z"/><path class="cls-8" d="M425.12,680s88.43-232.62-126.63-217.44c0,0,74.53-36.12,139.39-23.42s66.74,114.2,66.74,114.2S486.86,649.17,425.12,680Z"/><path class="cls-8" d="M465.8,669.8s37.23,47.25-5.07,72.12c0,0,57.1-6.54,54.18-36.06S483.59,668.39,465.8,669.8Z"/><path class="cls-8" d="M678.21,699.2a17.66,17.66,0,0,1-1.81,3c-2.31,3.11-6,6.41-11.4,9.86a40.74,40.74,0,0,1-21.22,6.64c-10.47.25-20.45-3.52-29.08-8.63-16.78-9.93-28.43-24.87-28.43-24.87s1.93.5,5.14,1.2c15.92,3.48,63.37,11.88,62.19-11.79a21.42,21.42,0,0,0-.56-3.9S686.55,681.83,678.21,699.2Z"/><path d="M609.43,193.28a45.82,45.82,0,0,1-10.17,20.52,44.25,44.25,0,0,1-11.21,9.33,1.34,1.34,0,0,1-.23.13,41.32,41.32,0,0,1-7.22,3.32,47.59,47.59,0,0,1-22.25,2,47.11,47.11,0,0,0,21.77-3.3,42.11,42.11,0,0,0,6.56-3.42l.15-.1a42,42,0,0,0,10.51-9.59,43.66,43.66,0,0,0,7-40.81c-1.17-3.89-2.18-7.79-3.18-11.69,0-.18-.09-.35-.13-.52-1.14-4.47-2.23-8.92-3.44-13.3l-.16-.55a120.3,120.3,0,0,0-5.69-16.47,67.5,67.5,0,0,0-4-7.83c-5.79-9.82-13.91-18.24-22.7-25.86A187.29,187.29,0,0,0,547.64,81.9c-6.07-4.06-12.36-8-18.73-11.39-8.81-4.63-18.81-6.65-28.94-6.77a88.14,88.14,0,0,0-12.25.72,116.06,116.06,0,0,0-21,4.83c-3.42,1.12-6.79,2.4-10.11,3.81s-6.69,3.14-10.59,4.5a26.5,26.5,0,0,1-13.2,1.53l-.12,0A22.84,22.84,0,0,1,427,77.24a33.83,33.83,0,0,1-3-1.57c-1-.6-2-1.21-2.9-1.8-3.11-2-6.37-4.15-9.41-6.2a50.19,50.19,0,0,0-8.94-5,73.93,73.93,0,0,0-10-3.16,72.45,72.45,0,0,0-10.37-1.43c-3.58-.29-7.21-.43-10.8-.42-1.26,0-2.54,0-3.79.08-.17,0-.35,0-.52,0a.56.56,0,0,0-.13,0,54.36,54.36,0,0,0-6,.57,14.73,14.73,0,0,0-7.8,3.28c-1.87,1.68-3,4.17-3.42,7.28A45,45,0,0,0,349.8,79c.3,3.58.79,7.25,1.15,11s.58,7.42,1,11.06,1,7.2,1.63,10.79c1.32,7.17,3.1,14.29,5.13,21.38,2.48,8.53,5.28,17.05,8,25.64,1.8,5.66,3.57,11.36,5.2,17.12.6,2.2,1.23,4.4,1.8,6.64.39,1.45.74,2.91,1.06,4.39.83,3.75,1.49,7.51,2,11.26,1.11,7.49,1.83,14.93,2.69,22.29a160.71,160.71,0,0,0,3.84,21.67A126.08,126.08,0,0,0,390.73,263c12.18,26.77,33.41,49.34,59.18,64.36a142.53,142.53,0,0,1-54.82-48.18l0-.05a135.93,135.93,0,0,1-8.31-14.21,125.82,125.82,0,0,1-8.38-21.2,165.21,165.21,0,0,1-4.69-22.25c-1.15-7.42-2.05-14.82-3.29-22.07-.61-3.63-1.33-7.2-2.2-10.73-.41-1.75-.91-3.49-1.42-5.24-.06-.21-.13-.42-.19-.64-.46-1.55-.94-3.11-1.42-4.68-4.4-14.12-9.71-28-14.1-42.51-2.2-7.22-4.17-14.58-5.66-22.07-.73-3.75-1.38-7.52-1.87-11.31s-.84-7.73-1.22-11.21-.91-7.35-1.25-11.22a53.58,53.58,0,0,1,.09-12.19A25.54,25.54,0,0,1,343,61a18.73,18.73,0,0,1,4.26-5.93,23.43,23.43,0,0,1,12.41-5.58,81.92,81.92,0,0,1,11.83-.84c3.87,0,7.71.1,11.57.39a80.63,80.63,0,0,1,11.79,1.62,84.09,84.09,0,0,1,11.36,3.52,57.68,57.68,0,0,1,10.51,5.94c3.13,2.14,6.09,4.13,9.24,6.18s5.8,3.56,8.42,4a18,18,0,0,0,8.78-1.12c.44-.15.88-.32,1.33-.49,2.15-.81,4.35-1.83,6.7-2.87l2-.86c3.3-1.4,6.66-2.67,10.06-3.78l.79-.26h0c.72-.24,1.44-.47,2.18-.68a113.63,113.63,0,0,1,19.29-4.14l1.18-.15a90.87,90.87,0,0,1,23.41.24,70.53,70.53,0,0,1,8.46,1.74c.64.17,1.26.35,1.88.54.87.26,1.72.53,2.59.83,1.47.5,2.93,1.07,4.37,1.69q2.66,1.13,5.22,2.51A201.52,201.52,0,0,1,552,75.7a194.1,194.1,0,0,1,17.82,14.22,135.27,135.27,0,0,1,15.78,16.65,88.94,88.94,0,0,1,6.59,9.56,83.22,83.22,0,0,1,5.05,10.47,132.37,132.37,0,0,1,5.52,17.88c0,.16.08.32.11.47,1.27,5.23,2.34,10.46,3.49,15.63,0,.15.06.3.1.46.68,3.09,1.39,6.15,2.19,9.19a50.77,50.77,0,0,1,1.83,11.47A46.76,46.76,0,0,1,609.43,193.28Z"/><path d="M681,699.62a25.72,25.72,0,0,1-6.51,10,35.06,35.06,0,0,1-9.79,6.09,47.69,47.69,0,0,1-20.92,3l-1-.07a73.37,73.37,0,0,1-28.11-8.56,96.94,96.94,0,0,1-11.55-7.23,194.81,194.81,0,0,1-30.85-28.68,285.28,285.28,0,0,1-25.08-33.59,275.49,275.49,0,0,1-19.63-36.93,306.81,306.81,0,0,1-19-57.53q-2.49-11.11-4.09-22.4,1.83,9.62,4.21,19.11a313.34,313.34,0,0,0,21.48,59.61,308.13,308.13,0,0,0,20.35,36A278.32,278.32,0,0,0,575.85,671a204,204,0,0,0,15.56,15.43,170,170,0,0,0,15,11.91C612,702,617.68,705.63,624,707.9a67.83,67.83,0,0,0,19.26,4.5,45.93,45.93,0,0,0,14.41-1.13c.84-.21,1.68-.46,2.49-.75s1.39-.5,2.06-.78a27.82,27.82,0,0,0,7.76-4.89,20.31,20.31,0,0,0,3.44-4.53,17.17,17.17,0,0,0,1.23-2.78,11.8,11.8,0,0,0,.69-3.48,10.53,10.53,0,0,0-.78-4.37,18.05,18.05,0,0,0-5.4-6.77,52.19,52.19,0,0,0-15.57-8.3c-.52-.19-1-.36-1.57-.53l-.86-.28-.55-.54A272.47,272.47,0,0,1,632,653q-8.76-10.53-16.63-21.79c-5.24-7.48-10.18-15.2-14.66-23.18-2.33-4-4.37-8.06-6.49-12.13-1.94-4.16-4-8.25-5.72-12.52a184.6,184.6,0,0,1-14.23-53.22,137.82,137.82,0,0,1,5.44-55A142.52,142.52,0,0,1,590.9,449.8l3.45-6c1.22-2,2.59-3.82,3.88-5.73l3.93-5.69,4-5.44c10.57-14.48,20.39-29.57,28.27-45.61s14.1-33,16.12-50.64a81.19,81.19,0,0,0-1.25-26.31A59.07,59.07,0,0,0,645,291.93a39.8,39.8,0,0,0-7.24-10.69l-.13-.13L610.77,250c-7.7-8.87-15.31-17.8-22.95-26.73-.37-.45-.76-.9-1.14-1.35l-2.7-3.15c.95,1,1.89,2,2.85,3.05.4.44.81.89,1.22,1.32,8,8.59,16,17.17,23.88,25.83l26.94,29.31.09.11.75.79,0,.06a33.29,33.29,0,0,1,4.53,5.28,50.62,50.62,0,0,1,3.64,6,62.86,62.86,0,0,1,4.88,13,85,85,0,0,1,1.84,27.56c-1.75,18.4-7.76,36-15.59,52.49q-2.12,4.55-4.45,9l-.07.13a334.27,334.27,0,0,1-23.39,37.87l-4,5.55-3.72,5.52c-1.21,1.84-2.52,3.63-3.66,5.52l-3.24,5.79a135.68,135.68,0,0,0-10.41,24.26c-.62,2.1-1.11,4.25-1.67,6.38A56.82,56.82,0,0,0,583,490l-1.11,6.51-.27,1.61-.15,1.65-.28,3.29a136,136,0,0,0,.15,26.38,177.49,177.49,0,0,0,13.86,51.08c1.67,4.13,3.7,8.1,5.59,12.13,2.09,3.92,4,7.93,6.29,11.78,4.34,7.79,9.13,15.33,14.23,22.66s10.49,14.47,16.19,21.36c5.53,6.65,11.37,13.23,17.43,19.21a65.27,65.27,0,0,1,9.3,3.92,48.55,48.55,0,0,1,9.36,6.09,24.77,24.77,0,0,1,7.25,9.5A17.56,17.56,0,0,1,681,699.62Z"/><path d="M397.1,278.8l-2,.34a498.32,498.32,0,0,0-48.8,10.35c-16.67,4.55-33,10.64-47.85,19.36a139.33,139.33,0,0,0-20.92,15,142.38,142.38,0,0,0-17.74,18.59,169.88,169.88,0,0,0-25.2,44.64,259.18,259.18,0,0,0-13.32,49.74,335.37,335.37,0,0,0-4.71,51.39,298,298,0,0,0,3.39,51.38,188.21,188.21,0,0,0,5.65,25c.58,2.05,1.31,4,2,6.05.32.94.76,2.17,1.06,3.27s.57,2.26.79,3.4a56.78,56.78,0,0,1,.74,13.62A66.59,66.59,0,0,1,223.3,617a40.66,40.66,0,0,1-8.3,11.2A27.26,27.26,0,0,1,202.29,635c-9.76,2.1-19.5-1.52-26.84-7.08s-12.9-13-17.54-20.55a157.39,157.39,0,0,1-11.6-23.83,248.53,248.53,0,0,1-8.29-25,209.26,209.26,0,0,1-7.81-52.08A196.23,196.23,0,0,1,136,454.1,178.19,178.19,0,0,1,144.38,429c1.67-4.09,3.54-8.1,5.54-12l1.5-2.92c.47-.91.93-1.83,1.35-2.77.88-1.88,1.66-3.81,2.41-5.77A147.54,147.54,0,0,0,161.74,381c1.08-5.9,1.88-11.85,2.44-17.83q.36-3.75.58-7.53c.92-17,.05-34.2-3.88-50.6a96.15,96.15,0,0,0-8.68-23.39c-3.92-7.24-9.13-13.73-15.73-18.26A42.78,42.78,0,0,0,114,255.89a65.4,65.4,0,0,0-24.2,3.54,68.54,68.54,0,0,0-21.23,12.41,93.21,93.21,0,0,0-8.93,8.74,118.7,118.7,0,0,0-7.79,9.91c-9.67,13.85-16.7,29.58-22.31,45.74a366.17,366.17,0,0,0-13,49.8c-3.24,16.9-5.6,34-7.29,51.16s-2.7,34.39-3,51.63C5.91,502,6,515.1,7,528.16q.45,6.09,1.15,12.17c2,17,5.76,33.83,12.37,49.54A127.16,127.16,0,0,0,49,631.81a166,166,0,0,0,41.9,29.26A256.54,256.54,0,0,0,139.15,679a401,401,0,0,0,50.78,9.92,449.5,449.5,0,0,0,103.52,1.8,453.59,453.59,0,0,0,50.19-7.57l1.14-.24-1.14.26a447.94,447.94,0,0,1-205.4-.69A257.9,257.9,0,0,1,89,664.77a169.77,169.77,0,0,1-43.28-29.64,132.1,132.1,0,0,1-29.95-43.24c-7-16.22-11-33.52-13.24-50.87A380,380,0,0,1,0,488.72q.39-26.13,2.89-52.15c1.65-17.33,4-34.61,7.21-51.76a372.81,372.81,0,0,1,13.08-50.75c5.69-16.57,12.86-32.83,23-47.48A122.71,122.71,0,0,1,54.48,276a99.63,99.63,0,0,1,9.59-9.46,75.44,75.44,0,0,1,23.38-13.73,73.11,73.11,0,0,1,13.25-3.28,66.18,66.18,0,0,1,13.66-.73,49.93,49.93,0,0,1,26.19,8.68c7.74,5.3,13.67,12.71,18,20.66A101.12,101.12,0,0,1,168,303.35c4.09,17.36,4.92,35.16,3.91,52.73a216.48,216.48,0,0,1-3.21,26.22,155.73,155.73,0,0,1-7,25.64c-.82,2.09-1.66,4.18-2.63,6.23-.46,1-1,2-1.5,3.06l-1.48,2.86c-1.93,3.78-3.74,7.62-5.36,11.54a172.07,172.07,0,0,0-8.1,24.15,189.47,189.47,0,0,0-5.79,50.6,202.2,202.2,0,0,0,7.42,50.49c4.57,16.47,10.39,32.77,19,47.27,4.35,7.17,9.5,13.93,15.92,18.85a33.1,33.1,0,0,0,10.46,5.44,23.26,23.26,0,0,0,11.35.67,21.24,21.24,0,0,0,10-5.26,35.09,35.09,0,0,0,7.15-9.54,60.65,60.65,0,0,0,6.47-23.75,52.42,52.42,0,0,0-.52-12.29c-.19-1-.39-2-.65-2.93s-.57-1.81-.94-2.92c-.69-2.1-1.43-4.19-2-6.31a192,192,0,0,1-5.59-25.73,304,304,0,0,1-3-52.27,340.14,340.14,0,0,1,5.22-52A263.13,263.13,0,0,1,231,385.68a166.74,166.74,0,0,1,26.36-45.18,145.63,145.63,0,0,1,18.44-18.64A141.07,141.07,0,0,1,297.37,307c15.23-8.58,31.79-14.4,48.61-18.67a487.29,487.29,0,0,1,49.07-9.23Z"/><path d="M518.05,710.28a42.68,42.68,0,0,1-3.74,12.9,26.6,26.6,0,0,1-9.33,10.4c-7.57,5-16,7.32-24.35,8.91a152.3,152.3,0,0,1-25.13,2.29c-8.37.15-16.72-.18-25-.84a291.66,291.66,0,0,1-49.26-8.13c-8.06-2.21-16.11-4.56-23.7-8.75a21.2,21.2,0,0,1-5.42-4.2,21.86,21.86,0,0,1-3.23-6,65.31,65.31,0,0,1-3.07-12.34,206.06,206.06,0,0,1-2.14-21.35v0c-.06-1.16-.12-2.32-.17-3.48-.39-8.27-.49-16.55-.45-24.83.05-16.55.74-33.07,1.89-49.55q-.35,12.39-.31,24.78c0,8.25,0,16.5.27,24.75s.59,16.49,1.23,24.69a219.74,219.74,0,0,0,3,24.4,69.09,69.09,0,0,0,3.21,11.58,18.45,18.45,0,0,0,2.69,4.84,17.36,17.36,0,0,0,4.43,3.23c7,3.68,15,5.92,22.83,7.9a286,286,0,0,0,48.55,7,228.38,228.38,0,0,0,35.49-.37c4.42-.42,8.8-1,13.14-1.84,7.82-1.55,15.64-3.87,21.82-8.12a23.35,23.35,0,0,0,1.93-1.47,20.54,20.54,0,0,0,3.09-3.17,17.3,17.3,0,0,0,2-3.21,35.77,35.77,0,0,0,3-10.8c0-.23.05-.47.07-.7a25.31,25.31,0,0,0-.3-6.63,26.7,26.7,0,0,0-4.74-11.14c-.46-.65-1-1.27-1.49-1.88a35.74,35.74,0,0,0-6.52-5.93,48.71,48.71,0,0,0-12.5-6.34,65.68,65.68,0,0,0-11.38-2.8q-3-.42-6-.6c-1.91-.14-3.83-.19-5.74-.18a84,84,0,0,0-23.37,3.73l-14.17,4.3,3.06-3,7.56-7.4a260.5,260.5,0,0,0,17.9-19.79c5.67-6.9,11-14.07,16-21.49a253.9,253.9,0,0,0,13.72-23,201.29,201.29,0,0,0,10.66-24.41,152.5,152.5,0,0,0,6.64-25.65,120.08,120.08,0,0,0,1.24-26.3l-.71-6.54,0-.27L501,522.2l-.32-1.61-.65-3.23a78.94,78.94,0,0,0-2.76-10.54c-.22-.72-.43-1.43-.65-2.16-3.12-8.18-6.67-16.31-11.69-23.6l-1.8-2.79a22.86,22.86,0,0,0-1.91-2.71l-4.08-5.23-2.05-2.62-2.27-2.44-4.55-4.88a70.76,70.76,0,0,0-21.23-15.17,90,90,0,0,0-25.36-7.31,134.44,134.44,0,0,0-26.7-1l-2,.13-.23,0a225.28,225.28,0,0,0-41.52,7l-.74.19c-2.83.73-5.65,1.52-8.45,2.34q-13,3.82-25.66,8.71c-5.86,2.24-11.68,4.59-17.42,7.15-2.53,1.13-5,2.29-7.53,3.5a314.88,314.88,0,0,1,50-21.28c17.25-5.63,35.07-10,53.32-11.51a138.93,138.93,0,0,1,27.5.47,94.27,94.27,0,0,1,26.78,7.17,75.67,75.67,0,0,1,23,15.77l4.81,5,2.41,2.49,2.19,2.68,4.38,5.39a24.64,24.64,0,0,1,2,2.79l1.94,2.88c1.27,1.95,2.68,3.8,3.81,5.83l3.34,6.13c.52,1,1.16,2,1.6,3.09l1.37,3.22c.87,2.15,1.87,4.26,2.64,6.46,1.35,4.47,3,8.87,3.75,13.48l.73,3.41.35,1.72.21,1.74.83,7c.29,4.31.39,8.64.28,13,0,1.1-.06,2.2-.12,3.29a112.73,112.73,0,0,1-1.19,11.61,153.46,153.46,0,0,1-6.73,26.92,208.75,208.75,0,0,1-11,25.37,264.29,264.29,0,0,1-14,23.68q-7.62,11.47-16.35,22.11c-3.23,3.94-6.53,7.78-10,11.54a83.89,83.89,0,0,1,26.19-.26,72.45,72.45,0,0,1,12.65,3.15c8.2,2.88,16.13,7.46,22,14.43a34.66,34.66,0,0,1,6.61,12A33.38,33.38,0,0,1,518.05,710.28Z"/><path d="M756.14,103.69a32.16,32.16,0,0,1-7.51,9.25c-2.84,2.28-5.74,4.48-8.72,6.52s-6,4-8.94,5.86a53,53,0,0,0-7.92,5.9,12.29,12.29,0,0,0-2.53,3.23,8.69,8.69,0,0,0-.91,3.63c-.13,3.55-.37,7.16-.61,10.68-.52,7.08-1.1,14.14-1.81,21.2-2.81,28.18-6.35,56.31-11.29,84.22S695,309.87,685.79,336.81c-4.74,13.37-10.18,26.66-18.15,38.55a62.63,62.63,0,0,1-6.7,8.38,36.26,36.26,0,0,1-8.33,6.77,23.35,23.35,0,0,1-10.21,3.15,22.69,22.69,0,0,1-7.86-1c-.86-.26-1.7-.56-2.54-.9a26.85,26.85,0,0,0,2.61.77,22.08,22.08,0,0,0,7.75.55,22.38,22.38,0,0,0,9.67-3.54,35.08,35.08,0,0,0,7.79-6.85,62.43,62.43,0,0,0,6.2-8.41c7.34-11.93,12.2-25.23,16.36-38.62s7.48-27.1,10.36-40.87,5.36-27.64,7.52-41.56q6.38-41.77,10-83.93c.58-7,1.19-14,1.65-21,.24-3.53.45-7,.56-10.48a16.15,16.15,0,0,1,1.65-6.57,19.54,19.54,0,0,1,3.89-5.12,58.82,58.82,0,0,1,9-6.81c3-1.94,5.91-3.83,8.76-5.8.4-.27.8-.55,1.19-.85,2.41-1.69,4.73-3.48,7-5.34a25.26,25.26,0,0,0,5.73-7.15c5.07-9.16,5.82-21,1.56-30.45a26.84,26.84,0,0,0-2.32-4.2c-.33-.51-.7-1-1.07-1.5a33.11,33.11,0,0,0-9.53-8.42,42.46,42.46,0,0,0-5.65-2.81l-.16-.07c-1.49-.69-3.11-1.11-4.66-1.68-1.63-.39-3.2-.93-4.86-1.22h0c-1.64-.33-3.26-.68-4.93-.88l-2.51-.35h-.21c-.62,0-1.24-.09-1.86,0-5.58.28-10.87,4.57-15.06,9.63A91.24,91.24,0,0,0,687.7,75.49a205.2,205.2,0,0,0-8.19,19.19c-2.46,6.54-4.7,13.18-6.78,19.88-8.25,26.86-14.45,54.41-19.91,82.09-.77,3.78-1.5,7.56-2.22,11.35-4.45,23.35-8.21,46.83-11.64,70.38-.09.6-.17,1.2-.26,1.8,0-.63.11-1.28.17-1.91,1.17-13.44,2.68-26.86,4.4-40.25q2.7-21,6-42c4.63-27.92,10.1-55.75,18-83.08,4-13.65,8.44-27.23,14.68-40.25A97.37,97.37,0,0,1,693.28,54a42.45,42.45,0,0,1,8.29-8,22.75,22.75,0,0,1,11.51-4.35,31.25,31.25,0,0,1,3.21,0l2.76.35c1.83.2,3.64.56,5.45.94s3.62.89,5.43,1.33c1.77.63,3.58,1.11,5.3,1.89a42.84,42.84,0,0,1,18.38,13.51,38.45,38.45,0,0,1,7.66,21.7A42.91,42.91,0,0,1,756.14,103.69Z"/><path d="M367.88,56.88a91.27,91.27,0,0,0-.82,16.67,64.78,64.78,0,0,0,2.53,15.66A29.73,29.73,0,0,0,370.82,93a25.73,25.73,0,0,0,1.41,3.69c.54,1.22,1.09,2.42,1.59,3.67.65,1.16,1.3,2.34,1.92,3.54l.94,1.81c.34.59.74,1.14,1.1,1.73.73,1.15,1.46,2.33,2.17,3.54,1.5,2.37,3.27,4.56,4.75,7.16a55.22,55.22,0,0,1-7.4-4.74c-1.11-1-2.2-1.95-3.29-3-.54-.51-1.09-1-1.6-1.55L371,107.1c-.93-1.17-1.87-2.34-2.76-3.56s-1.52-2.6-2.27-3.91a27.54,27.54,0,0,1-1.91-4.12,33.64,33.64,0,0,1-1.5-4.3,42,42,0,0,1-1.22-18A35.22,35.22,0,0,1,367.88,56.88Z"/><path d="M527.56,61l-.14,0-2.81,1-4,1.39c-.44-1.27-.9-2.5-1.38-3.72-.22-.58-.45-1.15-.7-1.72C511.34,40.36,501,28.86,490.87,21.35a77.13,77.13,0,0,0-20.18-10.79c-.25-.1-.48-.18-.71-.25-.39-.14-.77-.27-1.14-.38a62.42,62.42,0,0,0-9.42-2.34c-22.33,17.1-12.92,46.92-8.22,58.24,1.15,2.79,2,4.46,2.07,4.54l-6.46,3.45c-.05-.09-1-2-2.31-5.12-5.38-13.05-16.16-48,11.83-67.91L457.45,0l1.36.13C459.3.18,508.15,5.64,527.56,61Z"/><path d="M470.45,8.25c-1.18,5.16-2.39,10-3.42,14.86a133.64,133.64,0,0,0-2.37,14.35,69.38,69.38,0,0,0,0,14.19,64.09,64.09,0,0,0,3.43,14.46,27.43,27.43,0,0,1-9-13.19,39.23,39.23,0,0,1-1.63-16.19,50.82,50.82,0,0,1,4.21-15.43A42.54,42.54,0,0,1,470.45,8.25Z"/><path d="M435,78.06c-.25.11-1,.46-2.23,1-11.93,5.94-65.57,36.5-58.84,103.56l-.17,0-7,.7h-.13l-.06-.65a112.94,112.94,0,0,1,.17-23.82,101.69,101.69,0,0,1,14.91-42.6l.5-.79.46-.72A116.8,116.8,0,0,1,397.89,96,132.57,132.57,0,0,1,421.13,77.4c1-.63,2-1.21,2.85-1.73,1.32-.8,2.51-1.46,3.55-2,2.75-1.5,4.42-2.24,4.53-2.29Z"/><path d="M726.69,45c-1.69,2.28-3.17,4.1-4.53,5.85a59.8,59.8,0,0,0-3.56,5c-.58.8-1,1.68-1.51,2.51-.38.9-.93,1.76-1.3,2.75-1,1.93-1.58,4.11-2.77,6.77a12.12,12.12,0,0,1-2.91-7.71,14.87,14.87,0,0,1,.5-4.28,16.64,16.64,0,0,1,1.81-4,15.84,15.84,0,0,1,6.21-5.64A12.86,12.86,0,0,1,726.69,45Z"/><path d="M741.94,51.9c-1.93,2.08-3.6,3.73-5.15,5.32a61.13,61.13,0,0,0-4.09,4.61c-.66.73-1.14,1.56-1.76,2.33s-1.13,1.65-1.6,2.59c-1.17,1.81-2,3.91-3.5,6.42a12.07,12.07,0,0,1-2-8,14.46,14.46,0,0,1,1-4.2A16.76,16.76,0,0,1,727,57.26a15.86,15.86,0,0,1,6.79-4.92A12.93,12.93,0,0,1,741.94,51.9Z"/><path d="M754.48,66a51.76,51.76,0,0,1-4.27,4.89c-1.33,1.37-2.56,2.56-3.64,3.71a39.05,39.05,0,0,0-2.93,3.54,33.25,33.25,0,0,0-2.83,5.35,8.45,8.45,0,0,1-2.72-6.86,11.61,11.61,0,0,1,3.16-7,13.67,13.67,0,0,1,6.16-3.7A11.48,11.48,0,0,1,754.48,66Z"/><path d="M678.73,703.64c-2.43-1.46-4.39-2.75-6.27-3.93a61.56,61.56,0,0,0-5.36-3c-.85-.49-1.76-.79-2.65-1.24-.93-.3-1.84-.76-2.86-1-2-.76-4.25-1.16-7-2.08a12.1,12.1,0,0,1,7.38-3.66,14.51,14.51,0,0,1,4.31.07,17.05,17.05,0,0,1,4.11,1.4,15.74,15.74,0,0,1,6.22,5.62A12.78,12.78,0,0,1,678.73,703.64Z"/><path d="M659.93,713.08c-2.23-1.76-4-3.29-5.72-4.7a60.23,60.23,0,0,0-4.92-3.7c-.78-.61-1.65-1-2.47-1.58s-1.73-1-2.7-1.39c-1.91-1-4.07-1.69-6.69-3a12,12,0,0,1,7.79-2.68,14.91,14.91,0,0,1,4.27.62,17,17,0,0,1,3.89,1.92,15.84,15.84,0,0,1,5.45,6.38A12.85,12.85,0,0,1,659.93,713.08Z"/><path d="M508.6,691.27c-2.82-.22-5.15-.5-7.36-.71a61.46,61.46,0,0,0-6.16-.33c-1-.06-1.93.08-2.92.08s-2,.14-3,.36c-2.15.22-4.32.86-7.2,1.27a12.05,12.05,0,0,1,5-6.57,14.56,14.56,0,0,1,3.89-1.87,16.88,16.88,0,0,1,4.3-.58,15.75,15.75,0,0,1,8.09,2.25A12.85,12.85,0,0,1,508.6,691.27Z"/><path d="M517.92,710.16c-2.79-.51-5.08-1-7.26-1.47s-4.15-.76-6.08-1c-1-.17-1.93-.12-2.92-.23s-2-.06-3,0c-2.16,0-4.39.41-7.3.52a12.1,12.1,0,0,1,5.62-6,14.68,14.68,0,0,1,4.06-1.45,16.26,16.26,0,0,1,4.35-.13,15.75,15.75,0,0,1,7.8,3.07A12.83,12.83,0,0,1,517.92,710.16Z"/><path d="M508.47,728.06c-2.76-.65-5-1.28-7.17-1.83s-4.11-1-6-1.26c-1-.21-1.92-.21-2.9-.37s-2-.16-3-.11c-2.16-.11-4.4.19-7.31.16a12.08,12.08,0,0,1,5.91-5.74,14.48,14.48,0,0,1,4.12-1.25,16.67,16.67,0,0,1,4.35.09A15.73,15.73,0,0,1,504,721.2,12.79,12.79,0,0,1,508.47,728.06Z"/></svg>