<svg id="Vrstva_1" data-name="Vrstva 1" xmlns="http://www.w3.org/2000/svg" viewBox="0 0 42.01 28.82"><defs><style>.cls-1{fill:#00b3b7;}</style></defs><path class="cls-1" d="M43.49,28a44.39,44.39,0,0,0-2.67-11.17A13.63,13.63,0,0,0,28.92,7.9a1,1,0,0,0-1,.53c4.1,1.36,8,3.26,8.27,4.06h0l-.34-.15a32.42,32.42,0,0,0-18.87-2.6,32.84,32.84,0,0,0-8.48,2.57c-.11,0-.15,0-.11-.11a23.19,23.19,0,0,1,8.77-4,.59.59,0,0,0-.65-.39c-.59.07-1.19.06-1.76.18A13.41,13.41,0,0,0,4.31,16.68,43.22,43.22,0,0,0,1.56,28.32a6,6,0,0,0,2.55,5.84A13.77,13.77,0,0,0,12,36.65a.38.38,0,0,0,.38-.12l2.17-2.72c-3.39-1.39-5.29-2.62-6-3.86,0,0,.06,0,.09,0a38.81,38.81,0,0,0,8.11,2.9,23.69,23.69,0,0,0,16.34-1.39c1-.49,2-1,3.08-1.58a12.32,12.32,0,0,1-6.09,3.75c.66.91,1.35,1.73,2,2.55a.66.66,0,0,0,.61.27A14.66,14.66,0,0,0,40.66,34,6.11,6.11,0,0,0,43.49,28Zm-27.66.12a3.83,3.83,0,0,1,0-7.65,3.83,3.83,0,0,1,0,7.65Zm13.17,0a3.83,3.83,0,0,1,0-7.65,3.83,3.83,0,0,1,0,7.65Z" transform="translate(-1.52 -7.84)"/><path class="cls-1" d="M8.44,12.31c-.08.09-.21.18-.28.09s.08-.16.17-.2Z" transform="translate(-1.52 -7.84)"/></svg>