<svg id="Vrstva_1" data-name="Vrstva 1" xmlns="http://www.w3.org/2000/svg" viewBox="0 0 483.73 973.19"><defs><style>.cls-1{fill:#edbf77;}.cls-2{fill:#281b00;}.cls-3{fill:#fff;}.cls-4{fill:#0ce2af;}.cls-5{fill:#684800;}.cls-6{fill:#1d1d1b;}.cls-11,.cls-7{fill:#362b26;}.cls-8{fill:#ffc5df;}.cls-9{fill:none;}.cls-10{fill:#ff1d6f;}.cls-11{stroke:#fff;stroke-miterlimit:10;stroke-width:4px;}</style></defs><path class="cls-1" d="M20.73,943.56l2,.47c-.35.11-.69.2-1.06.29C21.32,944.08,21,943.82,20.73,943.56Z"/><path class="cls-1" d="M59.5,943.56c.74.67,1.53,1.32,2.33,1.91l-.26.39C60.85,945.12,60.16,944.36,59.5,943.56Z"/><path class="cls-1" d="M328.9,958.28c0-.15-.06-.3-.09-.45a10,10,0,0,0,3,.45A10.83,10.83,0,0,1,328.9,958.28Z"/><path class="cls-1" d="M387.34,958.61a6.15,6.15,0,0,1-.87-.37c.45-.11.91-.24,1.39-.35C387.68,958.13,387.53,958.37,387.34,958.61Z"/><path class="cls-1" d="M455,937.25a10.46,10.46,0,0,1-2.08,2.43c-.2-.28-.4-.52-.57-.78a23.62,23.62,0,0,0-2.37-2.63,38.39,38.39,0,0,0-5.14-4.22,56.23,56.23,0,0,0-5.46-3.51l-1-.52c-1.41.52-2.87,1.09-4.39,1.68a3.65,3.65,0,0,0,.52.45l2.5,1.94c1.59,1.26,3.18,2.55,4.66,3.92a55.15,55.15,0,0,1,4.18,4.2,20.1,20.1,0,0,1,1.69,2.15,6.89,6.89,0,0,1,.72,1.39,13.39,13.39,0,0,1-1.94,1,42.18,42.18,0,0,1-5.5,1.81,55.14,55.14,0,0,1-11.55,1.85c-3.77.17-7.66-.42-9.7-2.35a6.51,6.51,0,0,1-1.83-4.23c-.28-1.93-.59-3.82-1-5.74-1.09.39-2.18.76-3.25,1.13.07,1.61.05,3.24,0,4.85a12,12,0,0,0,.81,4.9c-1.83,1.07-4.7,2.35-7.2,1.85a4.59,4.59,0,0,1-2.79-1.7l-.24-.28c.46-.85.92-1.7,1.33-2.59l.07-.13,1-2.76a8.31,8.31,0,0,0,.3-1.87,5.82,5.82,0,0,0-.34-2.38,6.52,6.52,0,0,0-3-3.19l-7.85-2.7-2.31-.81c-1.11,1.05-2.24,2-3.39,2.92a42.9,42.9,0,0,0,6,1.87,36.06,36.06,0,0,1,5.94,1.81,3.1,3.1,0,0,1,1.55,1.34,3.93,3.93,0,0,1,0,2.24,30.09,30.09,0,0,1-2.29,5.79,39.62,39.62,0,0,1-3.17,5.53c-.22.32-.46.63-.7.93a13,13,0,0,1-3.59,3.4,7.44,7.44,0,0,1-2.67,1.06,7,7,0,0,1-2.87-.24,9.46,9.46,0,0,1-2.72-1.3,4.14,4.14,0,0,1-1.68-2.18c-.54-1.87,0-4.15-.2-6.42a11.62,11.62,0,0,0-2.26-6.3,13.22,13.22,0,0,0-1.35-1.61l-.32.15a13.1,13.1,0,0,1,1.26,1.74,10.92,10.92,0,0,1,1.67,6.07c.05,2.13-.63,4.26-.13,6.72a5.66,5.66,0,0,0,2.09,3.07,10.67,10.67,0,0,0,2.05,1.26,55.25,55.25,0,0,1-8.58,1.55c-3.08.23-5.67-.22-7.67-1.57a18.35,18.35,0,0,1-5.4-6.46c-1.44-2.55-2.68-5.4-4.22-8.38-.22,0-.44,0-.65,0a22.93,22.93,0,0,0,.08,10.16,17.54,17.54,0,0,0,3.92,7.77,85.69,85.69,0,0,1-11.4,4.46c-4.74,1.44-9.53,1.74-12.57-.37a12.09,12.09,0,0,1-4-4.68,29.78,29.78,0,0,1-1.44-3.22c-.35-1.17-.83-2.3-1.11-3.52-1.35-4.81-2.13-9.94-3.31-15.23l-.08,0a45,45,0,0,0-1.66,16.18,24.89,24.89,0,0,0,.39,2.92,10.49,10.49,0,0,1-3.17-1.59,14.19,14.19,0,0,1-4.16-4.85,31.92,31.92,0,0,1-3.41-12.4c-.18-1.61-.26-3.22-.31-4.85-1.43-.64-2.72-1.22-3.78-1.72v0c-.11-1.15-.18-2.32-.22-3.5s-.07-2.28-.07-3.44c0-4.48.31-8.94.74-13.35.24-2.27.42-4.55.72-6.79l1-6.68c.24-1.57.48-3.15.74-4.72-2.55,2.07-5.11,4.11-7.83,5.94a128.14,128.14,0,0,1-13.14,8.07,115.46,115.46,0,0,1-28.94,11.16c-20.27,4.94-42,3.57-61.83-3a153,153,0,0,1-28.34-12.9q-3.21-1.89-6.34-3.92v.13a23,23,0,0,1-.3,3.29c-1.78.45-3.52.85-5.24,1.22-.11.21-.22.45-.33.67a65.43,65.43,0,0,0-2.61,6.16c-.37,1.06-.72,2.15-1,3.24l-.44,1.63a2.51,2.51,0,0,1-.22.7l-.19.54a5.67,5.67,0,0,1-2.44,3.39,10.89,10.89,0,0,1-4.79,1.64,49.72,49.72,0,0,1-9.15,0c.23-.44.45-.87.67-1.33a18.33,18.33,0,0,0,1.26-7.24,23,23,0,0,0-1.3-6.66c-1.79.11-3.49.15-5.14.17.05.31.07.59.11.9a33,33,0,0,1,.15,5.5,17,17,0,0,1-1.11,4.83,12.11,12.11,0,0,1-2.52,3.81,6.84,6.84,0,0,1-3.81,1.8c-2.59.42-5.72-.28-9-1.3.61-.61,1.15-1.26,1.7-1.9l.34-.41.09-.35c.39-1.67.68-3.26.91-4.89a35.39,35.39,0,0,0,.24-4.94,22.42,22.42,0,0,0-.41-3.81l-2-.26a23.94,23.94,0,0,1-.48,3.87c-.26,1.5-.56,3-1,4.46-.33,1.31-.7,2.66-1.11,3.9a22.57,22.57,0,0,1-5.27,4.2,6.17,6.17,0,0,1-5.72.48,14.66,14.66,0,0,1-5.18-4.68c-.67-.94-1.33-1.92-2-2.94-.24,1.07-.45,2.11-.65,3.11-.11-.32-.24-.65-.35-1-1,3.14-2,6.25-3,9.47a75.47,75.47,0,0,1-5.64,12.61,44,44,0,0,1-3.19,4.77c-1.37-.31-2.7-.61-4-.94a20.33,20.33,0,0,1-3.94,4.18A13.63,13.63,0,0,1,77,950a14.09,14.09,0,0,1-6.16-.09,25,25,0,0,1-9-4.44,23.4,23.4,0,0,0,2.92-6.87c.1-.46.21-.94.28-1.4-1.57-.5-3.09-1-4.57-1.54-.17.43-.35.87-.54,1.28-2.07,4.57-5.09,8.2-9.18,9.73s-9.16,1.43-14.23.58c-4.53-.74-9.07-2-13.82-3.22a21.29,21.29,0,0,0,5.16-2.39,55.94,55.94,0,0,0,14-13.71c-.17-.06-.35-.15-.52-.23-1.26,1.43-2.57,2.8-3.92,4.15A48.63,48.63,0,0,1,27,940.14c-3.79,2.13-8.38,3.26-11.92,1.24a13.87,13.87,0,0,1-6.44-10c-.57-4,.69-8.24,2.76-11.94a36.57,36.57,0,0,1,6.22-8c-1-1-2-2-2.89-3,.65-.69,1.33-1.37,2-2A54.2,54.2,0,0,1,41.42,893c1.14-.31,2.4-.46,3.48-.7a4.71,4.71,0,0,0,1.9-.87A13.73,13.73,0,0,0,50,887a54.77,54.77,0,0,0,3.83-12.27,202.5,202.5,0,0,0,3.22-26.54c1.19-17.95,1.3-36,1.06-54.09s-.78-36.16-1.48-54.26l-1-27.17c-.28-9.09-.54-18.23.33-27.5a62.15,62.15,0,0,1,1-7,59.34,59.34,0,0,1,1.92-6.79,69.57,69.57,0,0,0,3.19-12.79c1.4-8.49-1.17-17.23-3.17-26.11a70.33,70.33,0,0,1-1.81-13.73A40.78,40.78,0,0,1,59.31,605a35.37,35.37,0,0,1,2.74-6.36,15.73,15.73,0,0,1,2-2.91,6.07,6.07,0,0,1,3-2.07,4.17,4.17,0,0,1,3.53.91,10.38,10.38,0,0,1,2.28,2.64,1.08,1.08,0,0,1,.15.28,46.42,46.42,0,0,1,2-17.08c-5.07-4.78-8.44-9.44-9.9-13.46A73,73,0,0,1,61,550.48l-.24.54a6.7,6.7,0,0,1-3.52,3.35A6.83,6.83,0,0,1,49.3,552a6.49,6.49,0,0,1-.57-.87l-.26-.44-.11-.26-.47-1-1-1.93L45,543.62l-7.53-15.55c-5.64-11.79-11.25-23.61-16.62-35.53H399q-3.5,10-7.05,19.95L386,528.79l-1.5,4.06-.74,2-.39,1-.09.26-.2.46a7.07,7.07,0,0,1-.5.94,6.85,6.85,0,0,1-7.61,3.28,3.9,3.9,0,0,1-.87-.3,118.36,118.36,0,0,1-7.2,16c-.26.5-.55,1-.83,1.48a47.45,47.45,0,0,1,1.18,15.64,2.11,2.11,0,0,1-.05.35,5.28,5.28,0,0,1,1.59-1.79,5.47,5.47,0,0,1,5.79,0,11.38,11.38,0,0,1,3.94,4,12.22,12.22,0,0,1,1.19,2.44,17.78,17.78,0,0,1,.85,2.52,32.59,32.59,0,0,1,1,10.31,40.92,40.92,0,0,1-2.18,10c-.34,1-.74,2.07-1.17,3.07,6.57,4.7,11.7,11.33,15.69,18.38a94.83,94.83,0,0,1,9.31,25c3.72,17.51,3.54,35.55,1.43,53.19-.65,5.35-1.5,10.68-2.59,16a45.46,45.46,0,0,1,5.68,9.77,77.73,77.73,0,0,1,4.64,13.77,96,96,0,0,1,2.3,14.29c.18,2.4.22,4.83.24,7.25-.09,2.24-.15,4.48-.46,6.74a1.83,1.83,0,0,1,.33,0,36.84,36.84,0,0,1,10.44,1.43c.87.27,1.66.44,2.59.77a9.84,9.84,0,0,1,2.63,1.56,20.39,20.39,0,0,1,3.68,4.25,56.16,56.16,0,0,1,5,9.46c5.27,13.07,7.9,26.89,9.25,40.77,1.11,13.92.87,28.08-2.5,41.94A61.61,61.61,0,0,1,437.44,889a37.41,37.41,0,0,1-7.42,8.23,32.6,32.6,0,0,1-6,3.78c-.37.2-.76.37-1.13.55a8.51,8.51,0,0,0,2.48,5.87,16,16,0,0,0,8.81,3.92l1.17.19.85.15a9.17,9.17,0,0,1,1.68.48,19.81,19.81,0,0,1,3.33,1.53,35.09,35.09,0,0,1,6.15,4.54,37.56,37.56,0,0,1,4.18,4.57,22,22,0,0,1,4.16,7.81A8.37,8.37,0,0,1,455,937.25Z"/><path class="cls-1" d="M113.28,375.36s-66.74,48.43-38.36,106c24.12,49-24.49,35-6.62,84.27C78.85,594.7,205.21,661.84,321,561.93c53.11-45.81,29.2-148.1-35.53-194.65C231.39,328.35,147.3,334.74,113.28,375.36Z"/><path class="cls-2" d="M350.18,489.17,346.39,482c.13,1.59.22,3.13.29,4.7.06,1.76.1,3.5.1,5.24v.61h3.44C350.22,491.43,350.2,490.3,350.18,489.17ZM143.35,356.87a8,8,0,0,0-1.11.44,8.75,8.75,0,0,0-1.81,1.2c1.33-.72,2.7-1.4,4.09-2l-.21.07Zm-60.16,140a42.55,42.55,0,0,0,.11,12.29,32.74,32.74,0,0,0,0-13.29C83.3,496.15,83.24,496.5,83.19,496.83Zm-1.76-8.49s0,0,0,0c-.61-1.87-1.35-3.83-2.24-5.94-.61,1.46-1.22,2.94-1.78,4.4v0c.87,2,1.59,3.94,2.17,5.74h3.07c-.22-.85-.46-1.7-.72-2.59C81.78,489.43,81.61,488.89,81.43,488.34Zm272.1-2v-.15c-2-46.64-27.89-94.48-66.09-122a140.35,140.35,0,0,0-43.1-20.56l-.65-.19h0l-.63-.18a159.16,159.16,0,0,0-51.36-5.48,144.15,144.15,0,0,0-33.46,5.72l-1.94.59h0c-.72.22-1.39.46-2.09.69-17.79,6-32.74,15.45-43.12,27.7A139,139,0,0,0,80,403c-18.54,25.47-21.84,52.1-9.57,77a80.69,80.69,0,0,1,4.85,11.92c.06.22.13.42.17.61a40.7,40.7,0,0,1,1.42,7c1,9.44-2.83,14.94-7,21-1.13,1.63-2.26,3.31-3.35,5.07,0,0,0,0,0,0a36.88,36.88,0,0,0-5.37,13.73s0,0,0,0a41.29,41.29,0,0,0-.2,11.05v0A73,73,0,0,0,65.09,567c1.46,4,4.83,8.68,9.9,13.46a7.67,7.67,0,0,0,.66.63c11.79,11,32.17,22.69,58.41,30.09a194.51,194.51,0,0,0,44.47,7.14c39.83,1.76,92.11-8.18,144.67-53.52,17.06-14.71,27.37-36,29.85-61,.26-2.68.44-5.38.52-8.14.05-1,.07-2.05.07-3.07C353.66,490.52,353.62,488.45,353.53,486.38ZM135.82,604.1c-37.92-10.7-60.78-30-64.31-39.77-8-22.08-2.2-30.56,4-39.53,2.76-4,5.55-8.07,7.16-13.14a8.07,8.07,0,0,0,.33-1.11,12,12,0,0,0,.34-1.43,32.74,32.74,0,0,0,0-13.29,5.25,5.25,0,0,0-.09-.55c-.15-.8-.35-1.65-.54-2.5a2.17,2.17,0,0,1-.07-.24c-.22-.85-.46-1.7-.72-2.59-.15-.52-.32-1.06-.5-1.61,0,0,0,0,0,0-.61-1.87-1.35-3.83-2.24-5.94-.76-1.83-1.65-3.74-2.63-5.74-11.07-22.45-8.12-45.69,8.81-69a133.4,133.4,0,0,1,29.74-29.18l.41-.26.33-.39a80.13,80.13,0,0,1,24.58-19.27c1.33-.72,2.7-1.4,4.09-2a96.84,96.84,0,0,1,9.6-3.91c2.22-.81,4.48-1.53,6.79-2.2h0c1-.31,2.09-.59,3.15-.87a146.52,146.52,0,0,1,43-4.31c24.15,1.05,48.69,7.72,69.12,20.19,1.78,1.09,3.54,2.22,5.26,3.44a0,0,0,0,1,0,0c.72.43,1.42.94,2.13,1.46,1.44,1,2.83,2.09,4.23,3.17,29.74,23.17,50.95,59.37,57.13,96.51v0c.67,4,1.15,8,1.45,12v0c.13,1.59.22,3.13.29,4.7.06,1.76.1,3.5.1,5.24v.61c-.21,27.63-10,51.13-27.91,66.57C245.43,622.47,172.65,614.48,135.82,604.1Zm8.49-247.55-1,.32a8,8,0,0,0-1.11.44,8.75,8.75,0,0,0-1.81,1.2c1.33-.72,2.7-1.4,4.09-2Z"/><ellipse class="cls-3" cx="122.3" cy="501.06" rx="40.36" ry="42.76"/><ellipse cx="129.31" cy="499.16" rx="31.2" ry="33.05"/><path class="cls-4" d="M165.28,496.52c-.05-.5-.07-1-.11-1.45s-.09-.85-.15-1.27-.13-.85-.2-1.26c-.09-.61-.22-1.24-.35-1.85-3.22-15.1-14.33-26.19-27.67-29.52h0a34.62,34.62,0,0,0-16.69-.09,37,37,0,0,0-3.87,1.18c-13,4.7-22.1,16.53-24.41,30.28a40.66,40.66,0,0,0,.33,15.56c4.41,20.66,23.56,33.83,43.05,29.91.46-.09.89-.17,1.33-.28l.24-.07h0c.59-.15,1.17-.3,1.74-.48a35.28,35.28,0,0,0,8.72-4,34.91,34.91,0,0,0,5.46-4.2c.22-.19.44-.41.66-.61l.84-.85c.4-.41.79-.84,1.18-1.28a40.66,40.66,0,0,0,9.81-22.84,5.93,5.93,0,0,0,.07-.83c0-.52.06-1,.08-1.57A37.21,37.21,0,0,0,165.28,496.52Zm-61.66,8.81a28.26,28.26,0,0,1,.22-12.79c2.35-9.33,9.38-17,18.86-19.27,13.3-3.22,26.61,5.39,30.07,19.27.09.31.15.63.22.94,3.09,14.4-5.49,28.78-19.08,32.06S106.71,519.76,103.62,505.33Z"/><path class="cls-2" d="M165.28,496.52c-.05-.5-.07-1-.11-1.45s-.09-.85-.15-1.27-.09-.85-.16-1.26a47.22,47.22,0,0,0-.93-4.68,45.38,45.38,0,0,0-7.64-16.12,43.67,43.67,0,0,0-13.14-11.66,41.78,41.78,0,0,0-7.94-3.48,40.85,40.85,0,0,0-8.46-1.72,39.94,39.94,0,0,0-10.36.39,3.1,3.1,0,0,1-.5.09,41.16,41.16,0,0,0-20.66,10.49l-.11.11a44.56,44.56,0,0,0-9.92,13.9A47.2,47.2,0,0,0,81.93,490c-.17.87-.32,1.72-.43,2.59-.2,1.33-.33,2.7-.42,4l-.06,1.3v0c0,.95,0,1.91,0,2.87a43.09,43.09,0,0,0,.63,6.5,42.47,42.47,0,0,0,1,4.37c.15.61.33,1.2.52,1.81a46,46,0,0,0,7.75,14.69,39,39,0,0,0,5.26,5.48,13.18,13.18,0,0,0,1.07.93,23.18,23.18,0,0,0,2.24,1.77l.24.15c-.52-.39-1-.79-1.57-1.2L96.6,534a40.77,40.77,0,0,1-5.51-6,42.25,42.25,0,0,1-7-14.81c-.33-1.33-.59-2.68-.79-4a42.55,42.55,0,0,1-.11-12.29c0-.33.11-.68.16-1s.15-.94.26-1.4c.11-.63.26-1.26.41-1.89a43,43,0,0,1,4.33-10.88c.39-.67.78-1.35,1.22-2a39.16,39.16,0,0,1,8.81-9.7,37.69,37.69,0,0,1,13.23-6.72,33.48,33.48,0,0,1,4.61-1,36.37,36.37,0,0,1,9.83-.09,35.84,35.84,0,0,1,7.07,1.61,35.25,35.25,0,0,1,6.64,3,36.26,36.26,0,0,1,6.26,4.48l0,0a38.51,38.51,0,0,1,4.87,5.09A42.38,42.38,0,0,1,158,489.76c.28.91.54,1.85.78,2.78a43.51,43.51,0,0,1,1.18,12.6c0,.11,0,.22,0,.32v.09a42.91,42.91,0,0,1-3.7,14.9,40.14,40.14,0,0,1-4,7c-.28.43-.61.87-.93,1.28s-.74.94-1.14,1.37a30.85,30.85,0,0,1-2.87,3.07l-.15.15a37.51,37.51,0,0,1-12.94,8c-.16.06-.29.13-.44.17l-1,.33h0c-.43.13-.85.28-1.3.39a36.22,36.22,0,0,1-13.23,1.24,39.57,39.57,0,0,1-7.46-1.48c-.74-.24-1.46-.48-2.18-.76l-.17-.06s.08,0,.13.06a8,8,0,0,0,.89.33c.35.15.72.26,1.07.39.88.29,1.76.54,2.65.76a38.28,38.28,0,0,0,5.05,1,39.5,39.5,0,0,0,12.46-.41c.39-.07.76-.15,1.16-.24s.76-.17,1.15-.28.7-.16,1-.26a42.09,42.09,0,0,0,14.47-7.42,42.72,42.72,0,0,0,7.2-7.27c.31-.39.61-.78.89-1.17s.55-.74.81-1.14c.72-1.06,1.41-2.15,2-3.28A46.12,46.12,0,0,0,165,505.68c.11-.76.2-1.52.24-2.28a5.93,5.93,0,0,0,.07-.83c0-.52.06-1,.08-1.57A37.21,37.21,0,0,0,165.28,496.52Zm-64,41.06c-.55-.35-1.09-.72-1.61-1.09.3.24.63.45,1,.67A4.59,4.59,0,0,0,101.32,537.58Z"/><ellipse class="cls-3" cx="135.34" cy="512.8" rx="4.64" ry="4.92"/><ellipse class="cls-3" cx="141.42" cy="492.53" rx="5.52" ry="9.7" transform="translate(-25.35 8) rotate(-2.97)"/><ellipse class="cls-3" cx="242.28" cy="488.75" rx="50.53" ry="53.54"/><ellipse cx="251.06" cy="486.37" rx="39.06" ry="41.38"/><path class="cls-4" d="M293.9,476.07a47.1,47.1,0,0,0-24-32.17.06.06,0,0,0-.06,0,42.5,42.5,0,0,0-23-4.76,40.61,40.61,0,0,0-6.74,1c-22.72,5.49-37.51,28.4-34.66,52.39.17,1.55.44,3.07.76,4.61,5.48,25.61,29.61,41.71,53.78,35.9a43.9,43.9,0,0,0,19.76-10.7,47.19,47.19,0,0,0,7.18-8.55s0,0,0,0a49.92,49.92,0,0,0,6.94-37.7Zm-76.19,18.32c-.13-.61-.24-1.24-.35-1.85-3-18.27,8.12-36.05,25.37-40.2,17.82-4.29,35.63,7.59,39.68,26.5a36.85,36.85,0,0,1,.35,13.7c-2.22,13.58-11.92,25.09-25.35,28.33C239.57,525.15,221.76,513.27,217.71,494.39Z"/><path class="cls-2" d="M293.68,472.46a56.84,56.84,0,0,0-9.51-19.84A54.24,54.24,0,0,0,268,438.28a53.43,53.43,0,0,0-9.79-4.3,50.5,50.5,0,0,0-10.42-2.14,49.79,49.79,0,0,0-20.87,2.48,52.29,52.29,0,0,0-18.12,10.86,55.22,55.22,0,0,0-12.55,17.25A57.79,57.79,0,0,0,191,483.19a54,54,0,0,0,.15,9.35,55.7,55.7,0,0,0,2.31,11.71A56.61,56.61,0,0,0,203,522.63s0,0,0,0c.29.35.55.68.83,1s.57.7.85,1a47.09,47.09,0,0,0,3.57,3.63,5.4,5.4,0,0,0,.61.56c.34.33.71.66,1.08,1a.69.69,0,0,1,.13.11l.42.33c.22.19.43.39.67.56l-1.72-1.5c-.66-.59-1.29-1.19-1.91-1.8l-.1-.11-.07-.09c-.81-.82-1.59-1.72-2.35-2.61-.29-.32-.57-.67-.83-1a12.24,12.24,0,0,1-.78-1,2.35,2.35,0,0,1-.22-.26,53.64,53.64,0,0,1-10.53-29.94,55.76,55.76,0,0,1,.41-9.14,53.74,53.74,0,0,1,6.31-19.18,49.13,49.13,0,0,1,29.31-23.63,46.12,46.12,0,0,1,18.16-1.48l.22,0A47,47,0,0,1,264.57,445a49.32,49.32,0,0,1,14.08,12.1l0,0,.13.15A53.85,53.85,0,0,1,290.09,488s0,.06,0,.11a35.72,35.72,0,0,1,0,4.39,53.39,53.39,0,0,1-4.92,20.71,52.5,52.5,0,0,1-5.41,9.1,47.9,47.9,0,0,1-6.25,7,48.59,48.59,0,0,1-16.88,10.16,46.16,46.16,0,0,1-19.47,2.35c-.76-.08-1.55-.17-2.31-.28-.32,0-.65-.11-1-.17h0c-.35,0-.67-.11-1-.18a46.74,46.74,0,0,1-5.42-1.37,47.63,47.63,0,0,1-6.91-2.85c.21.13.45.24.67.35.48.24,1,.48,1.46.7s1,.43,1.48.63l1.48.58c.5.2,1,.37,1.5.53s1,.32,1.48.47a43.58,43.58,0,0,0,4.39,1.16,9.23,9.23,0,0,0,1,.19l1,.18c.72.13,1.44.24,2.15.32a49.36,49.36,0,0,0,19.8-1.61,50.67,50.67,0,0,0,18-9.37,54.48,54.48,0,0,0,13.47-16.08,57.62,57.62,0,0,0,6.72-20.6c.09-.66.15-1.29.2-1.94A58.86,58.86,0,0,0,293.68,472.46Zm-73.9,64.2.74.37q-1.16-.56-2.22-1.17C218.78,536.14,219.28,536.42,219.78,536.66Zm-6.05-3.74c.35.24.69.5,1.06.74s.68.46,1,.67a54.25,54.25,0,0,1-4.64-3.46c.37.33.74.66,1.11,1S213.25,532.57,213.73,532.92Z"/><ellipse class="cls-3" cx="258.62" cy="503.45" rx="5.81" ry="6.16"/><ellipse class="cls-3" cx="266.23" cy="478.07" rx="6.91" ry="12.14" transform="translate(-24.43 14.45) rotate(-2.97)"/><ellipse class="cls-5" cx="181.91" cy="553.09" rx="54.57" ry="31.04" transform="translate(-35.56 12.99) rotate(-3.73)"/><path class="cls-6" d="M204.2,523.74c.26.35.54.7.83,1,13,2.92,23.19,8.86,27.82,16.49.33.07.65.13,1,.18C229.17,533.12,218.23,526.72,204.2,523.74Zm32.94,25.93a19.65,19.65,0,0,0-2.18-7.85c0-.05,0-.07,0-.09a.17.17,0,0,0-.07-.13c-2.76-5.29-8-9.94-15.31-13.55a66.33,66.33,0,0,0-16.12-5.31,1.17,1.17,0,0,1-.2,0l-.2,0a89.66,89.66,0,0,0-22.86-1.39,91.71,91.71,0,0,0-22.8,4.26c-.68.22-1.33.46-2,.7l-.59.2,0,0c-.87.32-1.74.65-2.59,1a64.46,64.46,0,0,0-10.4,5.39,45.84,45.84,0,0,0-6.59,5.16,32.94,32.94,0,0,0-3.76,4.22,4,4,0,0,0-.4.57,3.71,3.71,0,0,0-.39.52,21.26,21.26,0,0,0-4,13.18c.48,8.6,6.75,16.28,17.62,21.63s24.7,7.68,39.38,6.76a93.86,93.86,0,0,0,16.23-2.39A71.83,71.83,0,0,0,222,573.32C232.24,566.66,237.62,558.26,237.14,549.67Zm-15.91,22.26c-9.87,6.42-23.23,10.44-37.66,11.33-29.6,1.85-54.45-10.2-55.36-26.84-.26-4.77,1.45-9.4,4.74-13.62l.54-.68.66-.78a37.84,37.84,0,0,1,4.37-4.16,53.61,53.61,0,0,1,11.59-7.07c.85-.39,1.7-.76,2.59-1.13a.85.85,0,0,0,.26-.11c.9-.34,1.79-.69,2.7-1a83.43,83.43,0,0,1,8.62-2.57,93,93,0,0,1,16-2.37,87.78,87.78,0,0,1,24.45,1.79l.15,0h0l.16,0c13,2.92,23.19,8.86,27.82,16.49a.24.24,0,0,1,.09.11.11.11,0,0,1,0,.09,17.85,17.85,0,0,1,2.63,8.31C236.05,557.72,230.94,565.6,221.23,571.93Z"/><ellipse class="cls-2" cx="179.76" cy="533.37" rx="18.88" ry="9.07" transform="translate(-61.58 24.89) rotate(-6.76)"/><ellipse class="cls-3" cx="179.24" cy="528.29" rx="6.26" ry="3.01" transform="translate(-60.98 24.79) rotate(-6.76)"/><path d="M199.28,531.14c-.28-2.77-2.65-5-6.68-6.44a35.6,35.6,0,0,0-27.15,3.11c-3.63,2.28-5.48,5-5.2,7.81.57,5.5,9.58,8.85,20.52,7.59a45.93,45.93,0,0,0,4.72-.83,28.89,28.89,0,0,0,8.57-3.46c3.42-2.13,5.24-4.67,5.24-7.24A4.87,4.87,0,0,0,199.28,531.14Zm-6,6.39a31.18,31.18,0,0,1-12.69,4.05c-9.74,1.13-18.36-1.7-18.81-6.14-.22-2,1.41-4.33,4.46-6.22a27.16,27.16,0,0,1,8.13-3.26,38.17,38.17,0,0,1,4.55-.81,30.66,30.66,0,0,1,13.2,1.09c3.38,1.18,5.42,3,5.64,5.07S196.35,535.62,193.28,537.53Z"/><path d="M134.07,556a14.88,14.88,0,0,1,1.44-2.47,11.36,11.36,0,0,1,1.93-2.11A7.88,7.88,0,0,1,140,550a6.26,6.26,0,0,1,2.92-.11l.14,0,.15.18a25.4,25.4,0,0,0,7,5.88,16.87,16.87,0,0,0,16.85.21,31.84,31.84,0,0,0,7.27-5.38l.78-.76.86.72a22.52,22.52,0,0,0,2.15,1.58c.76.51,1.54,1,2.33,1.39a29.81,29.81,0,0,0,4.94,2.13,21.65,21.65,0,0,0,5.19,1,19.37,19.37,0,0,0,5.21-.37,18.76,18.76,0,0,0,2.53-.74l1.22-.51c.41-.17.79-.41,1.19-.61a22.71,22.71,0,0,0,4.4-3.15,38.57,38.57,0,0,0,7-8.72l.19-.31.29,0a14.24,14.24,0,0,1,2.23-.21,16.2,16.2,0,0,1,2.2.1,13.2,13.2,0,0,1,4.25,1.18,9.57,9.57,0,0,1,3.47,2.81,10.77,10.77,0,0,1,1.88,4.08,10.9,10.9,0,0,0-2.23-3.75,9,9,0,0,0-3.44-2.3,12.25,12.25,0,0,0-4-.77,17,17,0,0,0-4.05.37l.48-.35a37.9,37.9,0,0,1-7,9.53,27.78,27.78,0,0,1-2.23,2c-.38.31-.81.57-1.21.86l-.62.42-.64.37c-.44.23-.85.51-1.31.71l-1.35.61a21.07,21.07,0,0,1-2.82.91,21.53,21.53,0,0,1-11.62-.53,29.06,29.06,0,0,1-5.39-2.28c-.86-.48-1.7-1-2.51-1.53a24.45,24.45,0,0,1-2.41-1.81l1.64,0a31.39,31.39,0,0,1-7.94,5.68,20.45,20.45,0,0,1-4.61,1.65,16.71,16.71,0,0,1-4.88.44,18.78,18.78,0,0,1-9.18-3,25.88,25.88,0,0,1-3.82-3,24,24,0,0,1-3.2-3.73l.29.21a5.46,5.46,0,0,0-2.48-.11,7.09,7.09,0,0,0-2.37,1.07,12,12,0,0,0-2,1.82A15,15,0,0,0,134.07,556Z"/><ellipse cx="156.3" cy="546.51" rx="3.81" ry="4.03"/><ellipse cx="198.94" cy="542.55" rx="2.39" ry="2.53"/><ellipse cx="163.23" cy="550.19" rx="1.11" ry="1.18"/><ellipse cx="188.94" cy="549.05" rx="1.06" ry="1.12"/><path class="cls-2" d="M161.26,520.7a34.67,34.67,0,0,1,8.71-4.15,40.6,40.6,0,0,1,9.44-1.93,35.52,35.52,0,0,1,4.84-.07,31.05,31.05,0,0,1,4.79.6,27,27,0,0,1,9,3.47,49.8,49.8,0,0,0-18.47-1.83,68.85,68.85,0,0,0-9.2,1.4A92.08,92.08,0,0,0,161.26,520.7Z"/><path class="cls-2" d="M164.84,512.74a25.84,25.84,0,0,1,7-3.59,29.94,29.94,0,0,1,7.71-1.57,26,26,0,0,1,7.86.65,20.75,20.75,0,0,1,7.19,3.23,45.64,45.64,0,0,0-7.46-1.55,41.32,41.32,0,0,0-7.46-.16,55.55,55.55,0,0,0-7.43,1C169.79,511.31,167.33,512,164.84,512.74Z"/><path class="cls-2" d="M169.2,505.41a18.75,18.75,0,0,1,5.29-2.87,23.07,23.07,0,0,1,5.87-1.28,19.31,19.31,0,0,1,6,.42c.49.12,1,.25,1.46.39l1.41.56.69.31c.22.12.44.24.66.38.44.26.87.52,1.28.81-.5-.06-1-.15-1.46-.24-.24,0-.48-.1-.71-.15l-.73-.08-1.41-.19-1.42-.1a36.49,36.49,0,0,0-5.63.06,54.5,54.5,0,0,0-5.62.76C173,504.53,171.14,505,169.2,505.41Z"/><path class="cls-2" d="M172.11,497.66a12,12,0,0,1,3.86-2.34,15.55,15.55,0,0,1,4.37-1,13.36,13.36,0,0,1,4.49.37l1.08.33c.35.14.7.31,1,.47l.51.25.48.31a10.41,10.41,0,0,1,.92.68c-1.5-.12-2.87-.34-4.26-.35a35.2,35.2,0,0,0-4.11.11c-1.36.11-2.73.28-4.12.49Z"/><path class="cls-6" d="M214.42,437.4a173.32,173.32,0,0,1,9.18-32.68,79.73,79.73,0,0,1,7.86-15.31,29.76,29.76,0,0,1,6.08-6.66,13.85,13.85,0,0,1,4.34-2.3,10.52,10.52,0,0,1,5.16-.21,20.48,20.48,0,0,1,8.25,4.15,47.68,47.68,0,0,1,6.22,6.07,99,99,0,0,1,9.9,13.81,166.45,166.45,0,0,1,7.92,14.93,144.65,144.65,0,0,1,6.34,15.7c-6-9.43-11.79-18.88-18.11-27.8a134.82,134.82,0,0,0-9.95-12.73A49.91,49.91,0,0,0,252,389a15.33,15.33,0,0,0-6-3.26,5.33,5.33,0,0,0-2.75.05,9,9,0,0,0-2.82,1.38,24.37,24.37,0,0,0-5.18,5.29,87,87,0,0,0-8.2,13.94A317.44,317.44,0,0,0,214.42,437.4Z"/><path class="cls-6" d="M115.85,458.28a179,179,0,0,1,3-31.37A96,96,0,0,1,123,411.49a40.86,40.86,0,0,1,3.69-7.4,20.2,20.2,0,0,1,2.79-3.42,11.78,11.78,0,0,1,4-2.58,10.79,10.79,0,0,1,9.29,1.37,21.88,21.88,0,0,1,6.11,6,51.74,51.74,0,0,1,4.18,7c1.17,2.42,2.18,4.89,3.12,7.37s1.72,5,2.46,7.55,1.37,5.1,1.92,7.67a108.13,108.13,0,0,1,2.36,15.61c-3.58-9.81-6.95-19.58-11.13-28.8-1-2.31-2.14-4.56-3.34-6.72a46.51,46.51,0,0,0-3.84-6.14,20.48,20.48,0,0,0-4.62-4.63,5.66,5.66,0,0,0-4.87-1,9.79,9.79,0,0,0-4.42,3.79,35.28,35.28,0,0,0-3.43,6.29,100.7,100.7,0,0,0-4.87,14.37C119.69,437.76,117.7,448,115.85,458.28Z"/><path class="cls-7" d="M172.1,343l-33,2.46a16.19,16.19,0,0,0-14.09.81L13.65,409.91C6.52,414,2.14,422.22,2.59,431.54c.3,6.23,1.94,14.35,6,24.86,11,28.21,34.46,75.26,43.13,92.37,1.35,2.67,4.72,2.78,5.72.18,12.74-33,72-185,85.83-190.07C158.78,353.17,172.1,343,172.1,343Z"/><path d="M171.65,342.8l-.17.11.15,0s0-.05,0-.05,0,0,0-.06A0,0,0,0,1,171.65,342.8Zm0,.09a.41.41,0,0,0,0,.15l.07.11-.72.06-.87.57-1.33.82,0,0-.41.26L164.78,347c-2.4,1.37-4.83,2.69-7.29,3.93-1.13.57-2.24,1.11-3.37,1.64-1.35.63-2.72,1.24-4.09,1.8s-2.53,1-3.81,1.5c-.57.22-1.13.42-1.7.61l-.21.07-1,.32a8,8,0,0,0-1.11.44,8.75,8.75,0,0,0-1.81,1.2,18.88,18.88,0,0,0-2,2c-1,1.15-1.89,2.32-2.76,3.52-1.7,2.39-3.26,4.85-4.77,7.33-3,5-5.74,10.05-8.41,15.17-5.38,10.22-10.34,20.64-15.21,31.09s-9.51,21-14.12,31.58q-7.16,16.51-14,33.18c-.61,1.46-1.22,2.94-1.78,4.4v0c-.72,1.72-1.42,3.41-2.09,5.13-.09.2-.17.42-.24.61-2.79,6.9-5.48,13.79-8.16,20.73-4.2,10.75-8.27,21.56-12.31,32.38l-.11.26.41.76.09.22s-.2-.07-.48,0a1.23,1.23,0,0,0-.56.48l.54-1.46-.09-.18-1-1.91-2-3.81-7.81-15.34c-5.15-10.22-10.24-20.49-15.18-30.85-.2-.43-.42-.84-.61-1.28-4.72-9.92-9.36-19.9-13.64-30-1.13-2.63-2.2-5.28-3.27-7.92S9,449.38,8.16,446.7a62.69,62.69,0,0,1-3-16.25,21.45,21.45,0,0,1,4.8-14.23,20.49,20.49,0,0,1,2.66-2.61,27.22,27.22,0,0,1,3.22-2.11l7.2-4.2,57.61-33.76,28.78-16.93,14.4-8.46,1.79-1a15,15,0,0,1,1.76-.85,14,14,0,0,1,3.74-1,16.09,16.09,0,0,1,7.72,1l.18.06.15,0c5-.43,10-.91,15-1.44.37,0,.74-.06,1.11-.1,5.16-.53,10.42-1.07,15.73-1.55l.24-.15.2-.13,0,0c-4.37.26-8.79.45-13.27.67l-2.26.11c-5.57.26-11.17.57-16.76.91a17.54,17.54,0,0,0-8.26-1.21,16.9,16.9,0,0,0-4.25,1,21.25,21.25,0,0,0-2,.94l-1.83,1-14.57,8.09L79.13,370.6,20.84,403l-7.26,4.09a27.22,27.22,0,0,0-3.81,2.41,22.85,22.85,0,0,0-3.42,3.25A26.82,26.82,0,0,0,0,430.49C.28,443,4.66,454.32,9,465c3.79,9.29,7.79,18.45,11.93,27.54,5.37,11.92,11,23.74,16.62,35.53L45,543.62l1.89,3.88,1,1.93.47,1,.11.26.26.44a6.49,6.49,0,0,0,.57.87,6.83,6.83,0,0,0,7.92,2.41A6.7,6.7,0,0,0,60.74,551l.24-.54v0l.11-.21.2-.5.41-1,2.87-7.16,0-.05,4.9-12.18,0,0,5.09-12.62L81,500.79l.35-.92v0l.61-1.48v0l1.26-3.07.35-.85.76-1.89,5.2-12.88,3.09-7.61L95.12,466l5.37-13.3c8.68-21.3,17.45-42.57,27-63.39,2.39-5.2,4.87-10.34,7.48-15.36,1.3-2.5,2.68-5,4.13-7.33a38.84,38.84,0,0,1,2.31-3.35,10.79,10.79,0,0,1,2.37-2.46,5,5,0,0,1,.78-.39l1-.42c.63-.28,1.29-.56,1.92-.87,1.28-.58,2.54-1.19,3.8-1.87,2.51-1.28,4.94-2.67,7.34-4.13,1.89-1.13,3.74-2.31,5.54-3.59.5-.31,1-.68,1.53-1,1.13-.81,2.28-1.66,3.39-2.51l1.68-1.28.82-.65.42-.35.19-.17a.81.81,0,0,0,.22-.2.91.91,0,0,0,.15-.48C172.22,342.86,171.91,342.89,171.63,342.89Z"/><path class="cls-7" d="M239.45,343.7l33.06-1.3a16.24,16.24,0,0,1,14.1-.78L403.74,392.3c7.5,3.25,12.68,10.94,13.18,20.26.33,6.22-.49,14.49-3.49,25.4-8.06,29.29-26.69,78.73-33.58,96.72-1.08,2.81-4.41,3.29-5.67.83-16-31.4-90.25-175.78-104.49-179.28C253.72,352.3,239.45,343.7,239.45,343.7Z"/><path d="M419.38,411.24a26.38,26.38,0,0,0-8.09-16.9,23.69,23.69,0,0,0-3.72-2.85,28.14,28.14,0,0,0-4.05-2l-7.63-3.24-61.22-25.67L304.06,347.8l-15.32-6.39-1.91-.81a16.42,16.42,0,0,0-2.09-.67,16.11,16.11,0,0,0-4.31-.53,18.7,18.7,0,0,0-8.14,2.16c-5.57.28-11.18.61-16.7,1-4.25.28-8.42.56-12.56.78-1,.09-2,.13-3,.18l.07,0,.19.09h0l.22.13,3.79-.07c4-.09,8-.13,12-.15,5.42-.07,10.79-.15,16.16-.3h.18l.15-.09a16.34,16.34,0,0,1,7.57-1.85,14.32,14.32,0,0,1,3.85.54c.63.18,1.22.42,1.83.66l1.89.84,15.16,6.79,30.33,13.56,60.68,27.06,7.59,3.37a26.11,26.11,0,0,1,3.39,1.72,19,19,0,0,1,2.92,2.31,21.22,21.22,0,0,1,6.2,13.59,62.67,62.67,0,0,1-1.37,16.49c-.54,2.77-1.22,5.51-2,8.23s-1.57,5.5-2.44,8.24c-3.39,11-7.13,21.85-11,32.7q-2.7,7.57-5.5,15.12c-2.13,5.77-4.31,11.53-6.48,17.28l-6.22,16.12-1.57,4-.81,2-.06.2.67,1.39a1,1,0,0,0-.61-.41c-.39-.07-.5.06-.5.08v0l.11-.24.33-.8-.13-.26c-5.11-10.29-10.25-20.58-15.51-30.81-1.46-2.85-2.92-5.7-4.42-8.55-1.07-2.11-2.15-4.22-3.24-6.31q-2-3.75-4-7.5-2.28-4.38-4.63-8.73v0q-8-14.88-16.3-29.61c-5.66-10-11.31-20-17.23-29.8s-11.88-19.65-18.23-29.2q-2.64-4-5.37-7.9c-1.48-2.09-3-4.17-4.55-6.22-.83-1.11-1.68-2.2-2.55-3.28s-1.91-2.35-2.91-3.48-2-2.18-3.09-3.2a12.45,12.45,0,0,0-4.11-2.74,9.5,9.5,0,0,0-1.16-.31l-1-.22c-.65-.15-1.3-.28-2-.45-1.32-.33-2.63-.68-3.93-1.07-2.61-.76-5.2-1.61-7.77-2.57s-5.11-2-7.64-3.09c-1.26-.54-2.52-1.1-3.78-1.69l-1.87-.89-.92-.46,0,0c-.24,0-.45,0-.69,0a.17.17,0,0,0,0-.13.15.15,0,0,0,0-.13l-.85,0a.68.68,0,0,0,.18.46c.17.15.21.17.23.17l.22.15.46.29.87.56,1.81,1.09c.8.48,1.61,1,2.41,1.41.41.24.8.48,1.22.7,2.43,1.35,5,2.59,7.48,3.79s5.11,2.28,7.73,3.28c1.3.52,2.63,1,3.95,1.44.66.24,1.33.43,2,.63l1,.32a3.56,3.56,0,0,1,.82.29,10.23,10.23,0,0,1,2.61,2.17,37.31,37.31,0,0,1,2.61,3.07c.51.65,1,1.31,1.51,2,1.15,1.57,2.26,3.2,3.37,4.85,3.09,4.7,6.07,9.53,9,14.43,11.56,19.62,22.41,39.79,33.18,60l25.08,47.29.33.61,2.94,5.55,3,5.66.85,1.61L370,535.77l.5.94.27.47.1.24.31.53a7.62,7.62,0,0,0,1.22,1.47,7.28,7.28,0,0,0,1.76,1.14,3.9,3.9,0,0,0,.87.3,6.85,6.85,0,0,0,7.61-3.28,7.07,7.07,0,0,0,.5-.94l.2-.46.09-.26.39-1,.74-2,1.5-4.06,5.92-16.3q3.56-9.94,7.05-19.95c5.3-15.18,10.42-30.46,15-46C417.16,435.45,420.36,423.69,419.38,411.24Zm-179.5-67.81h0a.06.06,0,0,0,0,0s0,0,0,.07a.39.39,0,0,0,.15,0Zm113.65,142.8q-2-3.75-4-7.5c0,.13,0,.28,0,.41.11,1.24.22,2.48.31,3.7s.15,2.57.19,3.87c.05.81.07,1.63.07,2.46.61,1.13,1.2,2.26,1.78,3.37h4.81C355.7,490.43,354.62,488.32,353.53,486.23Z"/><path class="cls-8" d="M331.45,501.42"/><path class="cls-9" d="M214.72,622.9"/><path class="cls-6" d="M164.34,714.67c-7.05-1.48-13.57-5.44-18.88-10.56s-9.36-11.37-13-17.55-7-12.6-11.32-17.41c-4.85-5.26-9.5-10.85-14-16.38s-8.94-11.09-13.46-16.6l-6.77-8.24a75,75,0,0,1-6.66-8.81,46.41,46.41,0,0,1-7.09-20.74c0-.08,0-.19,0-.28s0-.41,0-.61a46.42,46.42,0,0,1,2-17.08,30,30,0,0,1,1.33-3.57.38.38,0,0,1,0-.13s0,.11,0,.16c-.3,1.39-.52,2.78-.69,4.17a49.11,49.11,0,0,0,8.74,35.25,103.22,103.22,0,0,0,6.77,7.89l7.18,8c4.7,5.42,9.26,11,13.81,16.47s8.9,11,13.6,16.4a61.84,61.84,0,0,1,6.18,9.44c1.8,3.2,3.35,6.42,5,9.6,3.24,6.26,6.5,12.49,10.94,17.84A44,44,0,0,0,164.34,714.67Z"/><path class="cls-6" d="M376.37,533.25c-.3,1.17-.63,2.35-1,3.52s-.8,2.52-1.26,3.79a118.36,118.36,0,0,1-7.2,16c-.26.5-.55,1-.83,1.48s-.43.8-.65,1.19a123.57,123.57,0,0,1-12.71,18.32,88,88,0,0,1-19,17.08,62.65,62.65,0,0,1-11.38,5.9A47.56,47.56,0,0,1,310,603.41a85.06,85.06,0,0,0,20.73-12.88,140.79,140.79,0,0,0,17-17.19c2.68-3,5.18-6.26,7.62-9.51s4.83-6.59,7.22-9.92c3.31-4.76,6.55-9.59,9.77-14.49.72-1.1,1.46-2.21,2.19-3.35Z"/><path class="cls-6" d="M367.26,573.69a2.11,2.11,0,0,1-.05.35c0,.56-.08,1.13-.15,1.69,0,0,0,0,0,0a76.09,76.09,0,0,1-3.79,16.75c-4.22,12.12-11.16,23.78-21.95,31.94a42.28,42.28,0,0,1-8.85,4.93,48,48,0,0,1-4.81,1.64c-1.35.47-2.7,1-4.09,1.37a44.06,44.06,0,0,0-14.45,9.81,71.75,71.75,0,0,0-10.94,14.47,102.86,102.86,0,0,0-8,16.83,71.63,71.63,0,0,1,5.18-18.27,64.84,64.84,0,0,1,10.07-16.49,45.65,45.65,0,0,1,15.78-12c1.58-.61,3.17-1.18,4.78-1.74,1.44-.5,2.74-.85,4.07-1.46a38,38,0,0,0,7.44-4.31,54.92,54.92,0,0,0,12.21-12.72,86.86,86.86,0,0,0,8.85-15.8,91.47,91.47,0,0,0,5.57-17.43,55.85,55.85,0,0,0,1.35-14c-.07-1.45-.22-2.93-.44-4.41a25.94,25.94,0,0,1,1.09,3.22A47.45,47.45,0,0,1,367.26,573.69Z"/><path class="cls-6" d="M381.55,591.57a40.92,40.92,0,0,1-2.18,10c-.34,1-.74,2.07-1.17,3.07a.33.33,0,0,1,0,.13,71.76,71.76,0,0,1-8,14.21,75.81,75.81,0,0,1-12.92,14.44c2.83-5.85,5.79-11.44,8.57-17.05a151.39,151.39,0,0,0,7.36-16.91l.71-2.13.57-2.13a36.83,36.83,0,0,0,.89-4.24,39.23,39.23,0,0,0,.22-8.71,17,17,0,0,0-.91-4.07,7.77,7.77,0,0,0-1.92-3.32,3.1,3.1,0,0,0-3.15-1,5.63,5.63,0,0,0-2.55,1.87s0,0,0,0c-.26.3-.5.63-.74,1a7.77,7.77,0,0,1,.91-2.67,5.28,5.28,0,0,1,1.59-1.79,5.47,5.47,0,0,1,5.79,0,11.38,11.38,0,0,1,3.94,4,12.22,12.22,0,0,1,1.19,2.44,17.78,17.78,0,0,1,.85,2.52A32.59,32.59,0,0,1,381.55,591.57Z"/><path class="cls-6" d="M22.69,944c-.35.11-.69.2-1.06.29-.31-.24-.61-.5-.9-.76Z"/><path class="cls-6" d="M41.36,927.7q2.61-2.91,5-6.07c-1.39,2.13-2.85,4.26-4.44,6.3C41.71,927.87,41.53,927.78,41.36,927.7Z"/><path class="cls-6" d="M75.73,603.41a29,29,0,0,0-2.63-5c-.2-.3-.39-.61-.61-.89a9.64,9.64,0,0,0-2.33-2.31,3.18,3.18,0,0,0-2.85-.56,5,5,0,0,0-2.37,1.87,14.16,14.16,0,0,0-1.7,2.78A34.55,34.55,0,0,0,61,605.52a38.14,38.14,0,0,0-1.37,13.09A65.91,65.91,0,0,0,62,631.69c1.17,4.33,2.5,8.7,3.43,13.25a44.24,44.24,0,0,1,.87,14.14,67.62,67.62,0,0,1-2.95,13.64c-.64,2.15-1.18,4.22-1.59,6.35a61.57,61.57,0,0,0-.76,6.49c-.57,8.79-.07,17.81.32,26.82l1.48,27.15c.92,18.12,1.57,36.27,1.85,54.43.13,18.19,0,36.4-1.44,54.63a206.05,206.05,0,0,1-3.78,27.31,58.77,58.77,0,0,1-4.55,13.53A18.28,18.28,0,0,1,50,895.67a10.13,10.13,0,0,1-4.28,1.79c-1.13.19-2.13.28-3.2.54A50.61,50.61,0,0,0,19.6,909.57c-.67.61-1.35,1.24-2,1.9-1-1-2-2-2.89-3,.65-.69,1.33-1.37,2-2A54.2,54.2,0,0,1,41.42,893c1.14-.31,2.4-.46,3.48-.7a4.71,4.71,0,0,0,1.9-.87A13.73,13.73,0,0,0,50,887a54.77,54.77,0,0,0,3.83-12.27,202.5,202.5,0,0,0,3.22-26.54c1.19-17.95,1.3-36,1.06-54.09s-.78-36.16-1.48-54.26l-1-27.17c-.28-9.09-.54-18.23.33-27.5a62.15,62.15,0,0,1,1-7,59.34,59.34,0,0,1,1.92-6.79,69.57,69.57,0,0,0,3.19-12.79c1.4-8.49-1.17-17.23-3.17-26.11a70.33,70.33,0,0,1-1.81-13.73A40.78,40.78,0,0,1,59.31,605a35.37,35.37,0,0,1,2.74-6.36,15.73,15.73,0,0,1,2-2.91,6.07,6.07,0,0,1,3-2.07,4.17,4.17,0,0,1,3.53.91,10.38,10.38,0,0,1,2.28,2.64,1.08,1.08,0,0,1,.15.28A25.07,25.07,0,0,1,75.73,603.41Z"/><path class="cls-6" d="M20.73,943.56l2,.47c-.35.11-.69.2-1.06.29C21.32,944.08,21,943.82,20.73,943.56Z"/><path class="cls-6" d="M61.83,945.47l-.26.39c-.72-.74-1.41-1.5-2.07-2.3C60.24,944.23,61,944.88,61.83,945.47Z"/><path class="cls-6" d="M65,937.2c-1.57-.5-3.09-1-4.57-1.54a74.08,74.08,0,0,0,3.81-14A31.69,31.69,0,0,1,65,937.2Z"/><path class="cls-6" d="M59.5,943.56c.74.67,1.53,1.32,2.33,1.91l-.26.39C60.85,945.12,60.16,944.36,59.5,943.56Z"/><path class="cls-6" d="M123.88,865.13a33,33,0,0,1-1.76,14.68,11.38,11.38,0,0,1-2.53,3.92,5.48,5.48,0,0,1-1,.82c-.37.24-.74.48-1,.61l-1.37.74a11.22,11.22,0,0,0-3.35,3.85,79.38,79.38,0,0,0-5.27,11.64c-1.15,3.09-2.24,6.23-3.26,9.36a1.62,1.62,0,0,0-.06.17c-.33,1-.66,2-1,3-.09.29-.18.59-.26.87-.27.83-.53,1.66-.79,2.48-1,3.14-2,6.25-3,9.47a75.47,75.47,0,0,1-5.64,12.61,44,44,0,0,1-3.19,4.77c-1.37-.31-2.7-.61-4-.94a36.11,36.11,0,0,0,3.48-5.85,79.28,79.28,0,0,0,4.55-12.12l3.41-12.92c1.27-4.33,2.55-8.66,4-13a73.68,73.68,0,0,1,5.59-12.81,17.31,17.31,0,0,1,5.44-6.07l1.56-.89a4,4,0,0,0,.44-.28.75.75,0,0,0,.26-.22,5.19,5.19,0,0,0,1-1.72,26.69,26.69,0,0,0,1.41-11.7A47.58,47.58,0,0,0,115,853.34a41.65,41.65,0,0,0-5.55-11.17l-.93-1.34a10.9,10.9,0,0,1-1.11-1.83,11.43,11.43,0,0,1-.81-1.85,10.13,10.13,0,0,1-.54-1.87,33.2,33.2,0,0,1-.83-7.25c0-9.44,2.33-18.38,5.68-26.86a57.59,57.59,0,0,1,6.55-12,28.22,28.22,0,0,1,4.7-5,12.13,12.13,0,0,1,6.18-2.72,11.48,11.48,0,0,0-5.51,3.46,25.55,25.55,0,0,0-3.85,5.27,59.41,59.41,0,0,0-5,12.09A84.16,84.16,0,0,0,111,815a64,64,0,0,0-.72,12.84,27.85,27.85,0,0,0,1,6,11.22,11.22,0,0,0,1,2.53,6.9,6.9,0,0,0,.65,1l1,1.37a47.37,47.37,0,0,1,6.27,11.18l.52,1.33c.43,1.2.83,2.39,1.17,3.61l0,0A51.21,51.21,0,0,1,123.88,865.13Z"/><path class="cls-6" d="M321.14,890.47c-1.44,1.13-2.86,2.29-4.29,3.44-2.55,2.07-5.11,4.11-7.83,5.94a128.14,128.14,0,0,1-13.14,8.07,115.46,115.46,0,0,1-28.94,11.16c-20.27,4.94-42,3.57-61.83-3a153,153,0,0,1-28.34-12.9q-3.21-1.89-6.34-3.92c-.91-.59-1.8-1.17-2.69-1.78a170.36,170.36,0,0,1-16.25-12.23,213.73,213.73,0,0,1-22.06-21.54q-3.83-4.34-7.42-8.81l0,0a159.45,159.45,0,0,1-11.13-15.6c3,3.66,6.2,7.2,9.44,10.66,3.7,4,7.53,7.83,11.42,11.58a272.16,272.16,0,0,0,22.95,19.77,207.24,207.24,0,0,0,25.15,16.54,153.85,153.85,0,0,0,27.33,12,113.93,113.93,0,0,0,29.1,5.85,109.26,109.26,0,0,0,29.64-1.63,126.48,126.48,0,0,0,28.58-9.05c4.72-1.83,9.07-4.42,13.6-6.72,2.28-1.09,4.35-2.57,6.55-3.88L317,893Z"/><path class="cls-6" d="M103.25,915.12c-.24,1.07-.45,2.11-.65,3.11-.11-.32-.24-.65-.35-1a23.2,23.2,0,0,1-1.17-5.91c.63,1.17,1.28,2.32,2,3.43Z"/><path class="cls-6" d="M123.94,905.83c0-.22,0-.46,0-.67a10.58,10.58,0,0,0-.78-4.53,8.68,8.68,0,0,1,2.44,4.31,9.62,9.62,0,0,1,.28,1.15Z"/><path class="cls-6" d="M144.31,906.68c-1.79.11-3.49.15-5.14.17-.48-3.52-1.33-7.18-2.26-11.07a25.48,25.48,0,0,1,7.35,10.77A.69.69,0,0,0,144.31,906.68Z"/><path class="cls-6" d="M170.43,899.26v.13a23,23,0,0,1-.3,3.29c-1.78.45-3.52.85-5.24,1.22.85-1.75,1.72-3.42,2.39-5a13.28,13.28,0,0,0,.46-1.39,4.51,4.51,0,0,0,.15-1.31,5.32,5.32,0,0,0-1.13-2.8,5,5,0,0,1,2.85,2.24A7.42,7.42,0,0,1,170.43,899.26Z"/><path class="cls-6" d="M376.37,936.31a30.23,30.23,0,0,1,3.48,2.92l-.32.15A35.23,35.23,0,0,0,376.37,936.31Z"/><path class="cls-6" d="M386.47,958.24c.45-.11.91-.24,1.39-.35-.18.24-.33.48-.52.72A6.15,6.15,0,0,1,386.47,958.24Z"/><path class="cls-6" d="M403.39,933.9l-7.85-2.7,1.28.37A37,37,0,0,1,403.39,933.9Z"/><path class="cls-6" d="M404.63,701.22c-.65,5.35-1.5,10.68-2.59,16-.26,1.26-.52,2.52-.8,3.78-.48,2.16-1,4.31-1.57,6.47-2.17,8.63-4.94,17.12-7.57,25.43-1.24,4.13-2.61,8.37-3,12.12a9.78,9.78,0,0,0,0,2.45l.09.46.24.7c.17.45.28.91.5,1.37a32.2,32.2,0,0,0,2.76,5.33c2.18,3.54,5.07,6.85,7.35,11.33a16.67,16.67,0,0,1,1.92,7.86l-.09,1.15-.15.89c-.09.61-.2,1.2-.31,1.74l-.69,3.33c-4.09,17.25-8.57,34.16-12.49,51.26-2,8.55-3.87,17.1-5.48,25.69a242.35,242.35,0,0,0-3.68,25.78c-.06.83-.11,1.65-.13,2.48a3.17,3.17,0,0,0,0,.44,45.79,45.79,0,0,0,.46,9.59c.1.48.24.94.34,1.39a4.88,4.88,0,0,0,.46,1.26,11.26,11.26,0,0,0,1.39,2.46,22.51,22.51,0,0,0,4.09,4.35,26,26,0,0,0,7.55,4.09c-1.11,1.05-2.24,2-3.39,2.92a28.07,28.07,0,0,1-6.77-3.63,25,25,0,0,1-5.11-5,16,16,0,0,1-2-3.2,7.11,7.11,0,0,1-.69-1.83c-.18-.58-.37-1.19-.53-1.78a59.68,59.68,0,0,1-.78-13.77,213.56,213.56,0,0,1,3.13-26.52c1.48-8.73,3.25-17.39,5.09-26,3.75-17.23,8.23-34.35,12.14-51.35L395,797c.11-.52.22-1,.28-1.5l.13-.74.05-.48a10.34,10.34,0,0,0-1.22-4.83c-1.68-3.41-4.55-6.87-7-10.81a39,39,0,0,1-3.27-6.37c-.24-.57-.41-1.16-.61-1.74l-.3-.87-.24-1.16a15.64,15.64,0,0,1-.09-4.13,69.45,69.45,0,0,1,3.44-13.4c2.81-8.4,5.63-16.62,7.92-25a227.36,227.36,0,0,0,5.44-25.46c2.5-17.16,3.33-34.78.48-51.88a92.06,92.06,0,0,0-7.73-24.78,67.68,67.68,0,0,0-6.83-11.1,49.65,49.65,0,0,0-7.37-8c-.57-.48-1.18-1-1.79-1.39a20.5,20.5,0,0,1,1.83,1.26c6.57,4.7,11.7,11.33,15.69,18.38a94.83,94.83,0,0,1,9.31,25C406.92,665.54,406.74,683.58,404.63,701.22Z"/><path class="cls-6" d="M406.46,941.34a18.63,18.63,0,0,1-1,2.76Z"/><path class="cls-6" d="M360.14,942.51c.16.28.31.59.46.87-.22,0-.44,0-.65,0C360,943.1,360.08,942.82,360.14,942.51Z"/><path class="cls-6" d="M387.86,957.89c-.18.24-.33.48-.52.72a6.15,6.15,0,0,1-.87-.37C386.92,958.13,387.38,958,387.86,957.89Z"/><path class="cls-6" d="M330.16,938.77l-.08,0a.58.58,0,0,1,0-.18C330.14,938.62,330.14,938.7,330.16,938.77Z"/><path class="cls-6" d="M328.81,957.83a10,10,0,0,0,3,.45,10.83,10.83,0,0,1-2.9,0C328.88,958.13,328.84,958,328.81,957.83Z"/><path class="cls-6" d="M331.8,958.28a10.83,10.83,0,0,1-2.9,0c0-.15-.06-.3-.09-.45A10,10,0,0,0,331.8,958.28Z"/><path class="cls-6" d="M332,846.61c-.57,4.59-1.42,9-2.24,13.47l-5.42,26.35c-1.76,8.72-3.5,17.57-4.83,26.3a125.58,125.58,0,0,0-1.72,21.41c-1.43-.64-2.72-1.22-3.78-1.72v0c-.11-1.15-.18-2.32-.22-3.5s-.07-2.28-.07-3.44c0-4.48.31-8.94.74-13.35.24-2.27.42-4.55.72-6.79l1-6.68c.24-1.57.48-3.15.74-4.72,0-.31.09-.61.13-.91.41-2.57.85-5.14,1.28-7.71,1.53-8.87,3.4-17.7,5.07-26.47.85-4.35,1.72-8.73,2.31-13a59.18,59.18,0,0,0,.65-12.73,30.55,30.55,0,0,0-3.18-11.75l-1.54-2.72-1.76-3a57.68,57.68,0,0,1-3.07-6.33,53.46,53.46,0,0,1-3.57-13.53c-.3-2.31-.48-4.57-.74-6.73a14.68,14.68,0,0,0-1.54-5.72,15.83,15.83,0,0,0-4.46-4.07,13.4,13.4,0,0,0-5.72-2.26,4.28,4.28,0,0,0-4.62,2.83,17.07,17.07,0,0,0-1.06,6.46,17.58,17.58,0,0,1,.13-6.81,6,6,0,0,1,2-3.09,4.9,4.9,0,0,1,1.7-.91,8.29,8.29,0,0,1,1.89-.31,14.88,14.88,0,0,1,6.94,1.92,25,25,0,0,1,3,1.83,11.4,11.4,0,0,1,2.81,2.61,17.1,17.1,0,0,1,2.61,6.91c.46,2.29.81,4.49,1.26,6.62a52.46,52.46,0,0,0,4,12.2,47.82,47.82,0,0,0,3.11,5.59l1.74,2.75,1.89,3.06a36.55,36.55,0,0,1,4.29,13.91A61.6,61.6,0,0,1,332,846.61Z"/><path class="cls-6" d="M414.9,762.27c-.09,2.24-.15,4.48-.46,6.74a5.9,5.9,0,0,1-.06.59l-.26-.59a107.35,107.35,0,0,1-4.51-13c-1.34-4.55-2.48-9.1-3.59-13.67l-3.13-13.68c-.56-2.54-1.11-5.07-1.65-7.64-.48-2.08-1-4.17-1.48-6.3a21.71,21.71,0,0,1,2.28,2.52,45.46,45.46,0,0,1,5.68,9.77,77.73,77.73,0,0,1,4.64,13.77,96,96,0,0,1,2.3,14.29C414.84,757.42,414.88,759.85,414.9,762.27Z"/><path class="cls-6" d="M445.82,869.17A61.61,61.61,0,0,1,437.44,889a37.41,37.41,0,0,1-7.42,8.23,32.6,32.6,0,0,1-6,3.78c-.37.2-.76.37-1.13.55q-1.24.56-2.55,1l-.08,0a59.75,59.75,0,0,1-21.56,7,43.47,43.47,0,0,1-11.51-.11,34.11,34.11,0,0,1-8.29-2.24c-.87-.35-1.72-.72-2.57-1.11.87.24,1.74.47,2.59.67a36.93,36.93,0,0,0,8.4,1.09,46,46,0,0,0,10.92-1.09,63.31,63.31,0,0,0,10.4-3.33,62.34,62.34,0,0,0,9.53-5l.17-.13.31-.11a28.2,28.2,0,0,0,7.92-5,36,36,0,0,0,6-7.33c3.42-5.44,5.48-11.75,7-18.16a114.06,114.06,0,0,0,2.61-19.82,160.11,160.11,0,0,0-.2-20.19,181.18,181.18,0,0,0-2.37-20.1A129.51,129.51,0,0,0,434.94,788a51.89,51.89,0,0,0-3.85-9.11,20.27,20.27,0,0,0-2.74-3.81,7.63,7.63,0,0,0-1.66-1.24c-.65-.3-1.52-.61-2.28-.93a38.93,38.93,0,0,0-9.7-2.46c-3.27-.26-6.88-.16-9.64,2,2.28-2.4,5.76-3.22,9.05-3.42h.32a1.83,1.83,0,0,1,.33,0,36.84,36.84,0,0,1,10.44,1.43c.87.27,1.66.44,2.59.77a9.84,9.84,0,0,1,2.63,1.56,20.39,20.39,0,0,1,3.68,4.25,56.16,56.16,0,0,1,5,9.46c5.27,13.07,7.9,26.89,9.25,40.77C449.43,841.15,449.19,855.31,445.82,869.17Z"/><path class="cls-6" d="M424.06,901c-.37.2-.76.37-1.13.55a6.89,6.89,0,0,1,.59-3A9.24,9.24,0,0,0,424.06,901Z"/><path class="cls-6" d="M416.69,936.07c-1.09.39-2.18.76-3.25,1.13,0-.43,0-.85,0-1.28a54.48,54.48,0,0,0-.54-6.14,15.31,15.31,0,0,0-1.83-5.85c1.74,1.33,2.7,3.42,3.57,5.35a39.18,39.18,0,0,1,1.95,6.18C416.6,935.66,416.64,935.88,416.69,936.07Z"/><path class="cls-6" d="M438.35,928c-1.41.52-2.87,1.09-4.39,1.68h0a12.89,12.89,0,0,1-1.94-2.11,22.62,22.62,0,0,1-3.91-12.38c1.54,3.89,3.48,7.72,6.3,10.27a10.77,10.77,0,0,0,2.18,1.58Z"/><path class="cls-6" d="M231.06,741.73a54.69,54.69,0,0,0,2.77,9,28.61,28.61,0,0,0,4.33,7.64,18.27,18.27,0,0,0,14,7.07l2.09.12c.69.05,1.62,0,2.42.06l2.48.08,2.49.26a41,41,0,0,1,9.76,2.28,31,31,0,0,1,8.78,4.88,19.36,19.36,0,0,1,6,7.76,26.79,26.79,0,0,0-7.73-5,37.31,37.31,0,0,0-8.52-2.68,54.41,54.41,0,0,0-8.84-1l-2.24-.11-2.25,0c-.78,0-1.43,0-2.31,0l-2.64-.1a25.57,25.57,0,0,1-5.28-.89,14.71,14.71,0,0,1-2.56-1,11.88,11.88,0,0,1-2.45-1.21,20.69,20.69,0,0,1-7.47-7.69,26.26,26.26,0,0,1-3.16-9.67A29,29,0,0,1,231.06,741.73Z"/><path class="cls-6" d="M208.1,741.73a29.28,29.28,0,0,1,.31,9.76,26.24,26.24,0,0,1-3.15,9.67,20.77,20.77,0,0,1-7.47,7.69,12,12,0,0,1-2.46,1.21,14.42,14.42,0,0,1-2.56,1,25.48,25.48,0,0,1-5.27.89l-2.64.1c-.89,0-1.54,0-2.32,0l-2.25,0-2.23.11a54.53,54.53,0,0,0-8.85,1,37.63,37.63,0,0,0-8.52,2.68,26.62,26.62,0,0,0-7.72,5,19.25,19.25,0,0,1,6-7.76,31.26,31.26,0,0,1,8.78-4.88,40.93,40.93,0,0,1,9.77-2.28l2.48-.26,2.49-.08c.8,0,1.72,0,2.42-.06l2.09-.12a18.27,18.27,0,0,0,14-7.07,28.32,28.32,0,0,0,4.32-7.64A55.69,55.69,0,0,0,208.1,741.73Z"/><path class="cls-6" d="M41.88,927.93a55.94,55.94,0,0,1-14,13.71A21.29,21.29,0,0,1,22.69,944l-2-.47c.29.26.59.52.9.76l-.33.06a11.35,11.35,0,0,1-7.35-.8A15.16,15.16,0,0,1,8.4,938.7a16.69,16.69,0,0,1-2.94-6.78c-.91-5,.46-10,2.61-14.23a39.54,39.54,0,0,1,6.64-9.25c.89,1,1.85,2,2.89,3a36.57,36.57,0,0,0-6.22,8c-2.07,3.7-3.33,7.9-2.76,11.94a13.87,13.87,0,0,0,6.44,10c3.54,2,8.13.89,11.92-1.24a48.63,48.63,0,0,0,10.46-8.29c1.35-1.35,2.66-2.72,3.92-4.15C41.53,927.78,41.71,927.87,41.88,927.93Z"/><path class="cls-3" d="M27,940.14c-3.79,2.13-8.38,3.26-11.92,1.24a13.87,13.87,0,0,1-6.44-10c-.57-4,.69-8.24,2.76-11.94a36.57,36.57,0,0,1,6.22-8c5.33,5.24,12.92,10.83,23.76,16.23-1.26,1.43-2.57,2.8-3.92,4.15A48.63,48.63,0,0,1,27,940.14Z"/><path class="cls-6" d="M65,937.2c-.07.46-.18.94-.28,1.4a23.4,23.4,0,0,1-2.92,6.87c-.8-.59-1.59-1.24-2.33-1.91.66.8,1.35,1.56,2.07,2.3a10.41,10.41,0,0,1-.72,1,18.1,18.1,0,0,1-7.72,5.86,21.64,21.64,0,0,1-9.29,1.32,31.08,31.08,0,0,1-8.64-1.85,45.11,45.11,0,0,1-13.57-7.89c.37-.09.71-.18,1.06-.29,4.75,1.2,9.29,2.48,13.82,3.22,5.07.85,10.14,1,14.23-.58s7.11-5.16,9.18-9.73c.19-.41.37-.85.54-1.28C61.94,936.2,63.46,936.7,65,937.2Z"/><path class="cls-3" d="M20.73,943.56l2,.47c-.35.11-.69.2-1.06.29C21.32,944.08,21,943.82,20.73,943.56Z"/><path class="cls-3" d="M59.92,936.94c-2.07,4.57-5.09,8.2-9.18,9.73s-9.16,1.43-14.23.58c-4.53-.74-9.07-2-13.82-3.22a21.29,21.29,0,0,0,5.16-2.39,55.94,55.94,0,0,0,14-13.71,162.31,162.31,0,0,0,18.58,7.73C60.29,936.09,60.11,936.53,59.92,936.94Z"/><path class="cls-6" d="M90.4,944.1a25.26,25.26,0,0,1-6.14,5.83,16,16,0,0,1-6.81,2.55,15.67,15.67,0,0,1-7.09-.83,24.33,24.33,0,0,1-8.79-5.79l.26-.39a25,25,0,0,0,9,4.44A14.09,14.09,0,0,0,77,950a13.63,13.63,0,0,0,5.39-2.66,20.33,20.33,0,0,0,3.94-4.18C87.7,943.49,89,943.79,90.4,944.1Z"/><path class="cls-3" d="M59.5,943.56c.74.67,1.53,1.32,2.33,1.91l-.26.39C60.85,945.12,60.16,944.36,59.5,943.56Z"/><path class="cls-3" d="M86.37,943.16a20.33,20.33,0,0,1-3.94,4.18A13.63,13.63,0,0,1,77,950a14.09,14.09,0,0,1-6.16-.09,25,25,0,0,1-9-4.44,23.4,23.4,0,0,0,2.92-6.87c.1-.46.21-.94.28-1.4Q74.62,940.36,86.37,943.16Z"/><path class="cls-3" d="M123.94,905.83a23.94,23.94,0,0,1-.48,3.87c-.26,1.5-.56,3-1,4.46-.33,1.31-.7,2.66-1.11,3.9a22.57,22.57,0,0,1-5.27,4.2,6.17,6.17,0,0,1-5.72.48,14.66,14.66,0,0,1-5.18-4.68c-.67-.94-1.33-1.92-2-2.94.31-1.37.63-2.78,1-4.2a1.62,1.62,0,0,1,.06-.17,63.53,63.53,0,0,1,3.26-9.36S113.26,904.24,123.94,905.83Z"/><path class="cls-3" d="M139.43,913.25a17,17,0,0,1-1.11,4.83,12.11,12.11,0,0,1-2.52,3.81,6.84,6.84,0,0,1-3.81,1.8c-2.59.42-5.72-.28-9-1.3.61-.61,1.15-1.26,1.7-1.9l.34-.41.09-.35c.39-1.67.68-3.26.91-4.89a35.39,35.39,0,0,0,.24-4.94,22.42,22.42,0,0,0-.41-3.81,102.35,102.35,0,0,0,13.27.76c.05.31.07.59.11.9A33,33,0,0,1,139.43,913.25Z"/><path class="cls-6" d="M170.13,902.68a1.26,1.26,0,0,0,0,.28c-.09.52-.2,1-.31,1.52s-.24,1.18-.37,1.76c-.48,2.16-1,4.23-1.52,6.29l-.74,3.07-.37,1.52a17.25,17.25,0,0,1-.57,1.9,13.27,13.27,0,0,1-2,3.8,11.46,11.46,0,0,1-3.48,2.77,14,14,0,0,1-7.81,1.39,24.16,24.16,0,0,1-10.14-3.53,11.71,11.71,0,0,1-3.09,3.24,11.11,11.11,0,0,1-7.66,2.14,14.79,14.79,0,0,1-6.63-2.55,19.58,19.58,0,0,1-3.33-2.94,17.71,17.71,0,0,1-3.94,2.77,10.62,10.62,0,0,1-4.68,1.28,9.62,9.62,0,0,1-4.8-1.28,11.76,11.76,0,0,1-3.4-3.11,17.36,17.36,0,0,1-2.15-3.7l-.46-1.07c.2-1,.41-2,.65-3.11.63,1,1.29,2,2,2.94a14.66,14.66,0,0,0,5.18,4.68,6.17,6.17,0,0,0,5.72-.48,22.57,22.57,0,0,0,5.27-4.2c.41-1.24.78-2.59,1.11-3.9.41-1.48.71-3,1-4.46a23.94,23.94,0,0,0,.48-3.87l2,.26a22.42,22.42,0,0,1,.41,3.81,35.39,35.39,0,0,1-.24,4.94c-.23,1.63-.52,3.22-.91,4.89l-.09.35-.34.41c-.55.64-1.09,1.29-1.7,1.9,3.24,1,6.37,1.72,9,1.3a6.84,6.84,0,0,0,3.81-1.8,12.11,12.11,0,0,0,2.52-3.81,17,17,0,0,0,1.11-4.83,33,33,0,0,0-.15-5.5c0-.31-.06-.59-.11-.9,1.65,0,3.35-.06,5.14-.17a23,23,0,0,1,1.3,6.66,18.33,18.33,0,0,1-1.26,7.24c-.22.46-.44.89-.67,1.33a49.72,49.72,0,0,0,9.15,0,10.89,10.89,0,0,0,4.79-1.64,5.67,5.67,0,0,0,2.44-3.39l.19-.54a2.51,2.51,0,0,0,.22-.7l.44-1.63c.32-1.09.67-2.18,1-3.24a65.43,65.43,0,0,1,2.61-6.16c.11-.22.22-.46.33-.67C166.61,903.53,168.35,903.13,170.13,902.68Z"/><path class="cls-3" d="M164.89,903.9c-.11.21-.22.45-.33.67a65.43,65.43,0,0,0-2.61,6.16c-.37,1.06-.72,2.15-1,3.24l-.44,1.63a2.51,2.51,0,0,1-.22.7l-.19.54a5.67,5.67,0,0,1-2.44,3.39,10.89,10.89,0,0,1-4.79,1.64,49.72,49.72,0,0,1-9.15,0c.23-.44.45-.87.67-1.33a18.33,18.33,0,0,0,1.26-7.24,23,23,0,0,0-1.3-6.66A127,127,0,0,0,164.89,903.9Z"/><path class="cls-6" d="M328.9,958.28a11,11,0,0,1-3.76-1.21,15.49,15.49,0,0,1-5.16-4.7c-.35-.48-.72-.94-1-1.44l-.81-1.57-.78-1.56c-.24-.52-.39-1.09-.61-1.63-.35-1.11-.82-2.2-1.06-3.31l-.79-3.39a70.88,70.88,0,0,1-.93-7.05c1.06.5,2.35,1.08,3.78,1.72.05,1.63.13,3.24.31,4.85a31.92,31.92,0,0,0,3.41,12.4,14.19,14.19,0,0,0,4.16,4.85,10.49,10.49,0,0,0,3.17,1.59C328.84,958,328.88,958.13,328.9,958.28Z"/><path class="cls-6" d="M365,962.4a36.21,36.21,0,0,1-10.55,8.13,23.22,23.22,0,0,1-8.48,2.59,15.23,15.23,0,0,1-9.55-2.24,16.36,16.36,0,0,1-6-7.51,26.83,26.83,0,0,1-1.37-4.24c0-.28-.11-.56-.15-.85a10.83,10.83,0,0,0,2.9,0,10,10,0,0,1-3-.45,24.89,24.89,0,0,1-.39-2.92,45,45,0,0,1,1.66-16.18l.08,0c1.18,5.29,2,10.42,3.31,15.23.28,1.22.76,2.35,1.11,3.52a29.78,29.78,0,0,0,1.44,3.22,12.09,12.09,0,0,0,4,4.68c3,2.11,7.83,1.81,12.57.37a85.69,85.69,0,0,0,11.4-4.46A8,8,0,0,0,365,962.4Z"/><path class="cls-3" d="M328.42,954.91a24.89,24.89,0,0,0,.39,2.92,10.49,10.49,0,0,1-3.17-1.59,14.19,14.19,0,0,1-4.16-4.85,31.92,31.92,0,0,1-3.41-12.4c-.18-1.61-.26-3.22-.31-4.85a127.63,127.63,0,0,0,12.32,4.59A45,45,0,0,0,328.42,954.91Z"/><path class="cls-3" d="M328.81,957.83a10,10,0,0,0,3,.45,10.83,10.83,0,0,1-2.9,0C328.88,958.13,328.84,958,328.81,957.83Z"/><path class="cls-6" d="M387.34,958.61a18.17,18.17,0,0,1-8.27,6.16,14.94,14.94,0,0,1-6.09,1,12.88,12.88,0,0,1-6.31-2,11.54,11.54,0,0,1-1.68-1.3,8,8,0,0,1-1-1.07,17.54,17.54,0,0,1-3.92-7.77A22.93,22.93,0,0,1,360,943.4c.21,0,.43,0,.65,0,1.54,3,2.78,5.83,4.22,8.38a18.35,18.35,0,0,0,5.4,6.46c2,1.35,4.59,1.8,7.67,1.57a55.25,55.25,0,0,0,8.58-1.55A6.15,6.15,0,0,0,387.34,958.61Z"/><path class="cls-3" d="M360,953.56a17.54,17.54,0,0,0,3.92,7.77,85.69,85.69,0,0,1-11.4,4.46c-4.74,1.44-9.53,1.74-12.57-.37a12.09,12.09,0,0,1-4-4.68,29.78,29.78,0,0,1-1.44-3.22c-.35-1.17-.83-2.3-1.11-3.52-1.35-4.81-2.13-9.94-3.31-15.23,8.62,2.72,19.13,5,29.79,4.63A22.93,22.93,0,0,0,360,953.56Z"/><path class="cls-6" d="M398,955.48a8.54,8.54,0,0,1-.76.72c-.35.3-.7.58-1.07.87l-.17.13a15.31,15.31,0,0,1-1.35.84,8.26,8.26,0,0,1-7.12.66.82.82,0,0,1-.19-.09c.19-.24.34-.48.52-.72-.48.11-.94.24-1.39.35a10.67,10.67,0,0,1-2.05-1.26,5.66,5.66,0,0,1-2.09-3.07c-.5-2.46.18-4.59.13-6.72a10.92,10.92,0,0,0-1.67-6.07,13.1,13.1,0,0,0-1.26-1.74l.32-.15a13.22,13.22,0,0,1,1.35,1.61,11.62,11.62,0,0,1,2.26,6.3c.16,2.27-.34,4.55.2,6.42a4.14,4.14,0,0,0,1.68,2.18,9.46,9.46,0,0,0,2.72,1.3,7,7,0,0,0,2.87.24,7.44,7.44,0,0,0,2.67-1.06,13,13,0,0,0,3.59-3.4A24.79,24.79,0,0,0,398,955.48Z"/><path class="cls-3" d="M384.42,957a10.67,10.67,0,0,0,2.05,1.26,55.25,55.25,0,0,1-8.58,1.55c-3.08.23-5.67-.22-7.67-1.57a18.35,18.35,0,0,1-5.4-6.46c-1.44-2.55-2.68-5.4-4.22-8.38a53.24,53.24,0,0,0,18.93-4,13.1,13.1,0,0,1,1.26,1.74,10.92,10.92,0,0,1,1.67,6.07c.05,2.13-.63,4.26-.13,6.72A5.66,5.66,0,0,0,384.42,957Z"/><path class="cls-3" d="M386.47,958.24c.45-.11.91-.24,1.39-.35-.18.24-.33.48-.52.72A6.15,6.15,0,0,1,386.47,958.24Z"/><path class="cls-3" d="M403.35,940.57a30.09,30.09,0,0,1-2.29,5.79,39.62,39.62,0,0,1-3.17,5.53c-.22.32-.46.63-.7.93a13,13,0,0,1-3.59,3.4,7.44,7.44,0,0,1-2.67,1.06,7,7,0,0,1-2.87-.24,9.46,9.46,0,0,1-2.72-1.3,4.14,4.14,0,0,1-1.68-2.18c-.54-1.87,0-4.15-.2-6.42a11.62,11.62,0,0,0-2.26-6.3,13.22,13.22,0,0,0-1.35-1.61,43.38,43.38,0,0,0,10-5.92,42.9,42.9,0,0,0,6,1.87,36.06,36.06,0,0,1,5.94,1.81,3.1,3.1,0,0,1,1.55,1.34A3.93,3.93,0,0,1,403.35,940.57Z"/><path class="cls-3" d="M405.35,944.23l-1.09,2.87-.24-.28C404.48,946,404.94,945.12,405.35,944.23Z"/><path class="cls-6" d="M460.2,935a11.36,11.36,0,0,1-2.81,4.3,12.52,12.52,0,0,1-3.5,2.16,11.85,11.85,0,0,1,.43,1.24,5.44,5.44,0,0,1-2.09,6,17.7,17.7,0,0,1-3.39,1.89,47.68,47.68,0,0,1-19.6,4,28.51,28.51,0,0,1-7-1,12.62,12.62,0,0,1-6.55-4.13,6.17,6.17,0,0,1-.44-.57,14.79,14.79,0,0,1-7.09,2.24,9.32,9.32,0,0,1-1.57-.13,7.25,7.25,0,0,1-1.82-.63c-.18-.11-.35-.19-.5-.3a2.93,2.93,0,0,1-.48-.33,2.3,2.3,0,0,1-.42-.35,0,0,0,0,1,0,0,3.06,3.06,0,0,1-.5-.46,37.73,37.73,0,0,1-3,4.51q-.53.68-1.11,1.32c-.26.29-.5.55-.76.79a24.79,24.79,0,0,1-.81-2.66c.24-.3.48-.61.7-.93a39.62,39.62,0,0,0,3.17-5.53,30.09,30.09,0,0,0,2.29-5.79,3.93,3.93,0,0,0,0-2.24,3.1,3.1,0,0,0-1.55-1.34,36.06,36.06,0,0,0-5.94-1.81,42.9,42.9,0,0,1-6-1.87c1.15-.89,2.28-1.87,3.39-2.92l2.31.81,7.85,2.7a6.52,6.52,0,0,1,3,3.19,5.82,5.82,0,0,1,.34,2.38,8.31,8.31,0,0,1-.3,1.87l-1,2.76-.07.13c-.41.89-.87,1.74-1.33,2.59l.24.28a4.59,4.59,0,0,0,2.79,1.7c2.5.5,5.37-.78,7.2-1.85a12,12,0,0,1-.81-4.9c.05-1.61.07-3.24,0-4.85,1.07-.37,2.16-.74,3.25-1.13.43,1.92.74,3.81,1,5.74a6.51,6.51,0,0,0,1.83,4.23c2,1.93,5.93,2.52,9.7,2.35a55.14,55.14,0,0,0,11.55-1.85,42.18,42.18,0,0,0,5.5-1.81,13.39,13.39,0,0,0,1.94-1,6.89,6.89,0,0,0-.72-1.39,20.1,20.1,0,0,0-1.69-2.15,55.15,55.15,0,0,0-4.18-4.2c-1.48-1.37-3.07-2.66-4.66-3.92l-2.5-1.94a3.65,3.65,0,0,1-.52-.45c1.52-.59,3-1.16,4.39-1.68l1,.52a56.23,56.23,0,0,1,5.46,3.51,38.39,38.39,0,0,1,5.14,4.22,23.62,23.62,0,0,1,2.37,2.63c.17.26.37.5.57.78a10.46,10.46,0,0,0,2.08-2.43,8.37,8.37,0,0,0,.77-6.64,22,22,0,0,0-4.16-7.81,37.56,37.56,0,0,0-4.18-4.57,35.09,35.09,0,0,0-6.15-4.54,19.81,19.81,0,0,0-3.33-1.53,9.17,9.17,0,0,0-1.68-.48l-.85-.15-1.17-.19a16,16,0,0,1-8.81-3.92,8.51,8.51,0,0,1-2.48-5.87c.37-.18.76-.35,1.13-.55a7.06,7.06,0,0,0,3.35,3.92,14.64,14.64,0,0,0,7.22,1.3h1l1.28,0a17.13,17.13,0,0,1,2.53.35,22.34,22.34,0,0,1,4.63,1.57,31,31,0,0,1,7.79,5.29,32.42,32.42,0,0,1,5.9,7.26,26.78,26.78,0,0,1,1.43,2.83c.2.44.37.89.55,1.35s.3.87.43,1.33a.53.53,0,0,1,0,.17c.11.37.2.74.29,1.11a11.1,11.1,0,0,1,.19,1.13c.07.41.11.83.16,1.26A13.55,13.55,0,0,1,460.2,935Z"/><path class="cls-3" d="M403.35,940.57a30.09,30.09,0,0,1-2.29,5.79,39.62,39.62,0,0,1-3.17,5.53c-.22.32-.46.63-.7.93C395.84,947.23,397.08,942.55,403.35,940.57Z"/><path class="cls-3" d="M414.25,947c-1.83,1.07-4.7,2.35-7.2,1.85a4.59,4.59,0,0,1-2.79-1.7l-.24-.28c.46-.85.92-1.7,1.33-2.59l.07-.13,1-2.76a8.31,8.31,0,0,0,.3-1.87c2.16-.7,4.4-1.46,6.68-2.27.07,1.61.05,3.24,0,4.85A12,12,0,0,0,414.25,947Z"/><path class="cls-3" d="M448.23,943.75a13.39,13.39,0,0,1-1.94,1,42.18,42.18,0,0,1-5.5,1.81,55.14,55.14,0,0,1-11.55,1.85c-3.77.17-7.66-.42-9.7-2.35a6.51,6.51,0,0,1-1.83-4.23c-.28-1.93-.59-3.82-1-5.74,5.87-2.09,11.83-4.31,17.25-6.37h0a3.65,3.65,0,0,0,.52.45l2.5,1.94c1.59,1.26,3.18,2.55,4.66,3.92a55.15,55.15,0,0,1,4.18,4.2,20.1,20.1,0,0,1,1.69,2.15A6.89,6.89,0,0,1,448.23,943.75Z"/><path class="cls-3" d="M455,937.25a10.46,10.46,0,0,1-2.08,2.43c-.2-.28-.4-.52-.57-.78a23.62,23.62,0,0,0-2.37-2.63,38.39,38.39,0,0,0-5.14-4.22,56.23,56.23,0,0,0-5.46-3.51l-1-.52c5.66-2.2,10.38-4.07,13.23-5.22a22,22,0,0,1,4.16,7.81A8.37,8.37,0,0,1,455,937.25Z"/><path class="cls-10" d="M251.63,159.17c42,12,85.08,16.89,94.61-16.35,5.43-18.93-3.14-37.87-29.45-45.41-17.08-4.9-36.48-3.46-61.22,4.43L268.3,22.56c22.56-5.53,55.28-4.64,83,3.3,63.71,18.26,108.39,75,91,135.51-14.55,50.78-64.78,77.86-113,73.53L319,265.9l-80.79-23.16ZM280.3,275.3a49.47,49.47,0,1,1-61.65,33.79A49.5,49.5,0,0,1,280.3,275.3Z"/><path class="cls-4" d="M289.25,140.13c42,12,85.09,16.89,94.61-16.35,5.43-18.93-3.13-37.87-29.45-45.41-17.08-4.9-36.47-3.46-61.22,4.43L305.92,3.52c22.57-5.52,55.29-4.64,83,3.3,63.71,18.26,108.39,75,91.06,135.51-14.56,50.79-64.78,77.86-113,73.53l-10.39,31L275.79,223.7Zm28.67,116.13a49.47,49.47,0,1,1-61.64,33.79A49.5,49.5,0,0,1,317.92,256.26Z"/><path class="cls-11" d="M272.3,147c42,12,85.09,16.89,94.62-16.35,5.42-18.93-3.14-37.87-29.46-45.41-17.08-4.9-36.47-3.46-61.22,4.43L289,10.41c22.57-5.52,55.29-4.64,83,3.3C435.67,32,480.35,88.74,463,149.22c-14.56,50.79-64.78,77.86-113,73.53l-10.39,31-80.79-23.16ZM301,263.15a49.47,49.47,0,1,1-61.64,33.79A49.49,49.49,0,0,1,301,263.15Z"/></svg>