<svg id="Vrstva_1" data-name="Vrstva 1" xmlns="http://www.w3.org/2000/svg" viewBox="0 0 197.44 173.94"><defs><style>.cls-1{fill:#ff5299;}.cls-2{fill:#0ce2af;}.cls-3{fill:#82e8e3;}.cls-4{fill:#00b3b7;}.cls-5{fill:#edbf77;}.cls-6{fill:#281b00;}.cls-7{fill:#fff;}.cls-8{fill:#684800;}.cls-9{fill:#1d1d1b;}.cls-10{fill:#362b26;}.cls-11{fill:#ffc5df;}.cls-12{fill:none;}</style></defs><circle class="cls-1" cx="94.5" cy="81.42" r="81.42"/><rect class="cls-2" x="25.66" y="100.11" width="9.38" height="36.91"/><rect class="cls-3" x="41.52" y="91.37" width="9.38" height="45.65"/><rect class="cls-2" x="57.39" y="76.88" width="9.38" height="60.14"/><rect class="cls-4" x="73.25" y="80.39" width="9.38" height="56.63"/><rect class="cls-2" x="89.11" y="63.49" width="9.38" height="73.53"/><rect class="cls-3" x="104.98" y="38.94" width="9.38" height="98.08"/><rect class="cls-2" x="121.37" y="30.71" width="9.38" height="106.31"/><rect class="cls-4" x="137.75" y="25.59" width="9.38" height="111.43"/><path class="cls-5" d="M114,185.93l.4.1-.22.05Z" transform="translate(-6.28 -18.03)"/><path class="cls-5" d="M121.86,185.93l.48.39,0,.08C122.14,186.25,122,186.09,121.86,185.93Z" transform="translate(-6.28 -18.03)"/><path class="cls-5" d="M176.81,188.93a.29.29,0,0,0,0-.09,2.1,2.1,0,0,0,.61.09A1.94,1.94,0,0,1,176.81,188.93Z" transform="translate(-6.28 -18.03)"/><path class="cls-5" d="M188.73,189l-.18-.08.28-.07A1.3,1.3,0,0,1,188.73,189Z" transform="translate(-6.28 -18.03)"/><path class="cls-5" d="M202.52,184.64a2,2,0,0,1-.42.5L202,185a4.28,4.28,0,0,0-.48-.54,8.41,8.41,0,0,0-1.05-.86,11,11,0,0,0-1.11-.71l-.21-.11-.89.34a.41.41,0,0,0,.1.09l.51.4c.33.26.65.52,1,.8a9.74,9.74,0,0,1,.85.85c.13.15.25.3.35.44a1.62,1.62,0,0,1,.15.29,3,3,0,0,1-.4.2,10.93,10.93,0,0,1-3.48.74,2.8,2.8,0,0,1-2-.48,1.38,1.38,0,0,1-.37-.86c-.06-.39-.12-.78-.21-1.17l-.66.23c0,.33,0,.66,0,1a2.48,2.48,0,0,0,.17,1,2.31,2.31,0,0,1-1.47.38,1,1,0,0,1-.57-.35l-.05-.06c.09-.17.19-.34.27-.52l0,0,.21-.56a1.59,1.59,0,0,0,.06-.39,1.19,1.19,0,0,0-.07-.48A1.27,1.27,0,0,0,192,184l-1.6-.55-.47-.17q-.35.33-.69.6a9,9,0,0,0,1.22.38,6.92,6.92,0,0,1,1.21.37.61.61,0,0,1,.31.27.77.77,0,0,1,0,.46,6.23,6.23,0,0,1-.46,1.18,9.73,9.73,0,0,1-.65,1.13l-.14.19a2.81,2.81,0,0,1-.73.69,1.63,1.63,0,0,1-.55.22,1.5,1.5,0,0,1-.59,0,1.76,1.76,0,0,1-.55-.27A.82.82,0,0,1,188,188a7,7,0,0,1,0-1.31,2.4,2.4,0,0,0-.46-1.29c-.09-.12-.18-.22-.28-.33l-.07,0a1.77,1.77,0,0,1,.26.35,2.17,2.17,0,0,1,.34,1.24,6.88,6.88,0,0,0,0,1.37,1.14,1.14,0,0,0,.42.63,2,2,0,0,0,.42.25,11.46,11.46,0,0,1-1.75.32,2.4,2.4,0,0,1-1.56-.32,3.59,3.59,0,0,1-1.1-1.32c-.3-.52-.55-1.1-.87-1.71h-.13a4.67,4.67,0,0,0,0,2.07,3.55,3.55,0,0,0,.8,1.58,17,17,0,0,1-2.33.91,3.07,3.07,0,0,1-2.56-.07,2.5,2.5,0,0,1-.81-1,5.54,5.54,0,0,1-.29-.65c-.07-.24-.17-.47-.23-.72-.27-1-.43-2-.67-3.11h0a9.13,9.13,0,0,0-.34,3.3c0,.2,0,.4.08.6a2,2,0,0,1-.65-.33,2.87,2.87,0,0,1-.84-1,6.41,6.41,0,0,1-.7-2.52c0-.33,0-.66-.06-1l-.77-.35h0c0-.23,0-.47-.05-.71s0-.47,0-.7c0-.92.06-1.83.15-2.73,0-.46.08-.93.15-1.38l.19-1.37c.05-.31.1-.64.15-1-.52.42-1,.84-1.6,1.21a25.35,25.35,0,0,1-2.68,1.65,23.59,23.59,0,0,1-5.9,2.28,23.13,23.13,0,0,1-12.61-.62,30.78,30.78,0,0,1-5.78-2.63c-.43-.26-.86-.52-1.29-.8v0a4.63,4.63,0,0,1-.06.67l-1.07.25-.07.14c-.19.4-.37.82-.53,1.25q-.12.33-.21.66l-.09.34a.72.72,0,0,1-.05.14l0,.11a1.15,1.15,0,0,1-.49.69,2.27,2.27,0,0,1-1,.33,9.69,9.69,0,0,1-1.87,0l.14-.27a3.82,3.82,0,0,0,.26-1.48,4.63,4.63,0,0,0-.27-1.35l-1,0,0,.18a8.67,8.67,0,0,1,0,1.13,3.8,3.8,0,0,1-.23,1,2.45,2.45,0,0,1-.51.78,1.46,1.46,0,0,1-.78.37,4.29,4.29,0,0,1-1.83-.27,4.25,4.25,0,0,0,.35-.39l.07-.08,0-.07c.08-.34.13-.67.18-1a6.77,6.77,0,0,0,.05-1,5,5,0,0,0-.08-.77l-.4-.06a6.82,6.82,0,0,1-.1.79,9.21,9.21,0,0,1-.2.91c-.07.27-.14.54-.23.8a4.45,4.45,0,0,1-1.07.85,1.26,1.26,0,0,1-1.17.1,2.92,2.92,0,0,1-1.05-1c-.14-.19-.27-.39-.4-.6,0,.22-.1.43-.14.63,0-.06,0-.13-.07-.2-.19.64-.4,1.28-.61,1.93a15.62,15.62,0,0,1-1.15,2.58c-.2.33-.42.66-.65,1l-.83-.19a4,4,0,0,1-.8.85,2.7,2.7,0,0,1-1.1.54,2.78,2.78,0,0,1-1.25,0,5.13,5.13,0,0,1-1.85-.9,4.86,4.86,0,0,0,.59-1.4,1.5,1.5,0,0,0,.06-.29c-.32-.1-.63-.2-.93-.31l-.11.26a3.54,3.54,0,0,1-1.87,2,5.65,5.65,0,0,1-2.91.12c-.92-.15-1.85-.41-2.81-.65a5,5,0,0,0,1-.49,11.37,11.37,0,0,0,2.86-2.8l-.11-.05c-.25.3-.52.58-.79.85a9.83,9.83,0,0,1-2.14,1.69,2.49,2.49,0,0,1-2.43.25,2.79,2.79,0,0,1-1.31-2,4,4,0,0,1,.56-2.44,7.69,7.69,0,0,1,1.27-1.63c-.21-.2-.41-.41-.59-.61.13-.15.27-.28.41-.42a11.05,11.05,0,0,1,5-2.73c.23-.06.49-.09.71-.14a.94.94,0,0,0,.38-.18,2.72,2.72,0,0,0,.66-.92,10.9,10.9,0,0,0,.79-2.5,42.07,42.07,0,0,0,.65-5.41c.25-3.66.27-7.35.22-11s-.16-7.38-.3-11.07l-.21-5.54a43.83,43.83,0,0,1,.07-5.61,13.66,13.66,0,0,1,.2-1.43,13.89,13.89,0,0,1,.39-1.38,11,11,0,0,0,0-7.94,13.68,13.68,0,0,1-.37-2.8,8.49,8.49,0,0,1,.44-2.79,8.35,8.35,0,0,1,.56-1.3,3.45,3.45,0,0,1,.41-.59,1.25,1.25,0,0,1,.62-.43.88.88,0,0,1,.72.19,2.16,2.16,0,0,1,.46.54.09.09,0,0,1,0,.06,9.73,9.73,0,0,1,.4-3.49,7.73,7.73,0,0,1-2-2.74,14.83,14.83,0,0,1-.83-3.36l0,.11a1.37,1.37,0,0,1-.72.68,1.4,1.4,0,0,1-1.62-.49,1.74,1.74,0,0,1-.11-.18l-.06-.09,0-.05-.09-.2-.2-.39-.39-.79-1.53-3.17c-1.15-2.41-2.3-4.82-3.39-7.25H191.1c-.47,1.36-.95,2.72-1.44,4.07l-1.2,3.32-.31.83-.15.42-.08.21,0,0,0,.1-.1.19a1.41,1.41,0,0,1-1.55.67l-.18-.07a24.57,24.57,0,0,1-1.47,3.27c-.05.1-.11.2-.17.3a9.51,9.51,0,0,1,.24,3.19.17.17,0,0,1,0,.07,1.24,1.24,0,0,1,.33-.36,1.1,1.1,0,0,1,1.18,0,2.32,2.32,0,0,1,.8.82,2.08,2.08,0,0,1,.24.5,4.56,4.56,0,0,1,.18.52,6.78,6.78,0,0,1,.2,2.1,8.52,8.52,0,0,1-.45,2,5.87,5.87,0,0,1-.24.63,11.47,11.47,0,0,1,3.2,3.75,19,19,0,0,1,1.9,5.09,33.22,33.22,0,0,1,.3,10.85c-.14,1.09-.31,2.18-.53,3.26a9.41,9.41,0,0,1,1.16,2,16.56,16.56,0,0,1,.94,2.81,19.1,19.1,0,0,1,.47,2.92c0,.48,0,1,0,1.47s0,.92-.09,1.38h.06a7.66,7.66,0,0,1,2.13.3l.53.15a2.2,2.2,0,0,1,.54.32,4.73,4.73,0,0,1,.75.87,11.09,11.09,0,0,1,1,1.93,30.11,30.11,0,0,1,1.89,8.31,27.14,27.14,0,0,1-.52,8.56,12.47,12.47,0,0,1-1.7,4,7.57,7.57,0,0,1-1.52,1.68,6.36,6.36,0,0,1-1.21.77l-.23.11a1.74,1.74,0,0,0,.5,1.2,3.37,3.37,0,0,0,1.8.8l.24,0,.17,0a1.89,1.89,0,0,1,.34.09,3.81,3.81,0,0,1,.68.32,6.88,6.88,0,0,1,1.26.92,7.44,7.44,0,0,1,.85.93,4.6,4.6,0,0,1,.85,1.6A1.69,1.69,0,0,1,202.52,184.64Z" transform="translate(-6.28 -18.03)"/><path class="cls-5" d="M132.83,70S119.22,79.92,125,91.66c4.92,10-5,7.15-1.35,17.19,2.15,5.93,27.92,19.62,51.55-.76,10.83-9.34,5.95-30.2-7.25-39.7C156.92,60.45,139.77,61.76,132.83,70Z" transform="translate(-6.28 -18.03)"/><path class="cls-6" d="M181.15,93.25l-.77-1.46c0,.32,0,.64.05,1s0,.71,0,1.07v.12h.7C181.16,93.71,181.15,93.48,181.15,93.25ZM139,66.27l-.23.09a2.38,2.38,0,0,0-.37.24l.83-.41h0ZM126.7,94.82a8.38,8.38,0,0,0,0,2.5,6.81,6.81,0,0,0,0-2.71Zm-.36-1.74h0c-.13-.38-.28-.78-.46-1.21-.12.3-.25.6-.36.9h0c.17.41.32.8.44,1.17h.63l-.15-.53C126.41,93.31,126.37,93.2,126.34,93.08Zm55.49-.39v0a33.47,33.47,0,0,0-13.48-24.87,28.33,28.33,0,0,0-8.79-4.19l-.13,0h0l-.12,0a32.5,32.5,0,0,0-10.48-1.12A30,30,0,0,0,142,63.56l-.4.12h0l-.43.14a19.49,19.49,0,0,0-8.79,5.65,28.4,28.4,0,0,0-6.33,6.21c-3.78,5.2-4.45,10.63-2,15.71a16.61,16.61,0,0,1,1,2.43s0,.08,0,.12a7.8,7.8,0,0,1,.28,1.43A5.78,5.78,0,0,1,124,99.65c-.23.33-.46.67-.68,1h0a7.42,7.42,0,0,0-1.09,2.8s0,0,0,0a7.92,7.92,0,0,0,0,2.25h0a14.83,14.83,0,0,0,.83,3.36,7.73,7.73,0,0,0,2,2.74l.14.13a29.81,29.81,0,0,0,11.91,6.14,39.72,39.72,0,0,0,9.07,1.45c8.12.36,18.79-1.67,29.51-10.91a18.41,18.41,0,0,0,6.08-12.44c.06-.55.09-1.1.11-1.66,0-.21,0-.42,0-.63C181.86,93.53,181.85,93.11,181.83,92.69Zm-44.4,24c-7.73-2.18-12.4-6.12-13.12-8.11-1.63-4.5-.44-6.23.81-8.06a10.16,10.16,0,0,0,1.46-2.68,1.55,1.55,0,0,0,.07-.23c0-.09,0-.19.07-.29a6.81,6.81,0,0,0,0-2.71s0-.07,0-.11-.07-.34-.11-.51v0l-.15-.53c0-.1-.07-.21-.1-.33h0c-.13-.38-.28-.78-.46-1.21s-.34-.76-.54-1.17c-2.26-4.58-1.65-9.32,1.8-14.08a26.94,26.94,0,0,1,6.07-6l.08-.06.07-.07a16.32,16.32,0,0,1,5-3.94l.83-.41a21.15,21.15,0,0,1,2-.8c.45-.16.92-.31,1.39-.45h0l.65-.17A30.76,30.76,0,0,1,166.05,68c.37.22.73.45,1.08.7h0c.15.09.29.19.44.3s.57.42.86.65a32.28,32.28,0,0,1,11.65,19.68h0c.14.82.24,1.63.3,2.44h0c0,.32,0,.64.05,1s0,.71,0,1.07v.12c-.05,5.64-2,10.43-5.7,13.58C159.78,120.44,144.94,118.81,137.43,116.69Zm1.73-50.49-.19.07-.23.09a2.38,2.38,0,0,0-.37.24l.83-.41Z" transform="translate(-6.28 -18.03)"/><ellipse class="cls-7" cx="128.39" cy="77.65" rx="8.23" ry="8.72"/><ellipse cx="129.82" cy="77.26" rx="6.36" ry="6.74"/><path class="cls-2" d="M143.44,94.75c0-.1,0-.2,0-.29a2,2,0,0,0,0-.26,1.17,1.17,0,0,0,0-.26,2.79,2.79,0,0,0-.07-.38,7.78,7.78,0,0,0-5.64-6h0a7.27,7.27,0,0,0-3.41,0c-.27.07-.53.15-.79.24a7.92,7.92,0,0,0-5,6.18,8.48,8.48,0,0,0,.07,3.17,7.58,7.58,0,0,0,8.78,6.1l.27,0,.05,0h0l.35-.09a7.39,7.39,0,0,0,1.78-.82,7.15,7.15,0,0,0,1.11-.86l.14-.12.17-.17.24-.27a8.28,8.28,0,0,0,2-4.65,1,1,0,0,0,0-.17c0-.11,0-.22,0-.32C143.46,95.36,143.46,95.06,143.44,94.75Zm-12.58,1.8a5.74,5.74,0,0,1,0-2.61A5.31,5.31,0,0,1,134.75,90a5.16,5.16,0,0,1,6.14,3.93c0,.06,0,.13,0,.19a5.49,5.49,0,0,1-3.89,6.54A5.17,5.17,0,0,1,130.86,96.55Z" transform="translate(-6.28 -18.03)"/><path class="cls-6" d="M143.44,94.75c0-.1,0-.2,0-.29a2,2,0,0,0,0-.26,1.15,1.15,0,0,0,0-.26c0-.32-.11-.64-.19-1a9.22,9.22,0,0,0-1.55-3.29,9.07,9.07,0,0,0-2.68-2.38,9.27,9.27,0,0,0-1.62-.71,8.56,8.56,0,0,0-1.73-.35,7.83,7.83,0,0,0-2.11.08l-.1,0a7.55,7.55,0,0,0-1.24.33,8.33,8.33,0,0,0-3,1.81l0,0a9.19,9.19,0,0,0-2,2.83,10.09,10.09,0,0,0-.66,2.06,4.89,4.89,0,0,0-.09.53,7.53,7.53,0,0,0-.08.83l0,.26h0c0,.19,0,.39,0,.58a8.44,8.44,0,0,0,.13,1.33,6.71,6.71,0,0,0,.19.89c0,.13.07.25.11.37a9,9,0,0,0,1.58,3,7.57,7.57,0,0,0,1.07,1.12l.22.19a3.17,3.17,0,0,0,.46.36.05.05,0,0,0,0,0l-.32-.24-.31-.27a8.11,8.11,0,0,1-1.12-1.22,8.49,8.49,0,0,1-1.43-3,7.6,7.6,0,0,1-.16-.83,8.38,8.38,0,0,1,0-2.5l0-.21c0-.09,0-.19,0-.28a2.74,2.74,0,0,1,.09-.39,8.72,8.72,0,0,1,.88-2.22l.25-.41a8,8,0,0,1,1.79-2,7.87,7.87,0,0,1,2.7-1.38c.31-.08.63-.15.94-.2a7.52,7.52,0,0,1,2,0,6.53,6.53,0,0,1,1.44.33,6.29,6.29,0,0,1,1.35.61,6.76,6.76,0,0,1,1.28.91h0A8.09,8.09,0,0,1,142,93.37c.06.19.11.38.16.57a8.84,8.84,0,0,1,.24,2.57v.07h0a8.61,8.61,0,0,1-.76,3,7.79,7.79,0,0,1-.82,1.43l-.19.26a3.45,3.45,0,0,1-.23.28,7.08,7.08,0,0,1-.59.63l0,0a7.63,7.63,0,0,1-2.64,1.63l-.09,0-.2.07h0l-.27.08a7.63,7.63,0,0,1-2.69.25,8,8,0,0,1-1.53-.3l-.44-.16h0l.18.07.22.08a5.44,5.44,0,0,0,.54.15,7.23,7.23,0,0,0,1,.21,8,8,0,0,0,2.54-.08l.24,0,.23-.06.22,0a8.47,8.47,0,0,0,2.95-1.52,8.58,8.58,0,0,0,1.47-1.48l.18-.24a1.88,1.88,0,0,0,.16-.23c.15-.22.29-.44.42-.67a9.38,9.38,0,0,0,1.13-3.38c0-.15,0-.31,0-.46a1,1,0,0,0,0-.17c0-.11,0-.22,0-.32C143.46,95.36,143.46,95.06,143.44,94.75Zm-13.05,8.38-.33-.23.2.14Z" transform="translate(-6.28 -18.03)"/><ellipse class="cls-7" cx="131.05" cy="80.04" rx="0.95" ry="1"/><ellipse class="cls-7" cx="138.57" cy="93.94" rx="1.13" ry="1.98" transform="translate(-10.97 -10.72) rotate(-2.97)"/><ellipse class="cls-7" cx="152.86" cy="75.14" rx="10.31" ry="10.92"/><ellipse cx="154.65" cy="74.65" rx="7.97" ry="8.44"/><path class="cls-2" d="M169.67,90.58A9.6,9.6,0,0,0,164.78,84h0a8.56,8.56,0,0,0-4.68-1,8.25,8.25,0,0,0-1.38.22,9.71,9.71,0,0,0-7.07,10.68c0,.32.09.63.16.94a9.18,9.18,0,0,0,11,7.32,9,9,0,0,0,4-2.18,9.76,9.76,0,0,0,1.46-1.74h0a10.11,10.11,0,0,0,1.58-4.33A10.33,10.33,0,0,0,169.67,90.58Zm-15.54,3.74c0-.13,0-.25-.07-.38a7.19,7.19,0,0,1,5.17-8.2,6.78,6.78,0,0,1,8.1,5.41,7.73,7.73,0,0,1,.07,2.79,7,7,0,0,1-5.17,5.78A6.79,6.79,0,0,1,154.13,94.32Z" transform="translate(-6.28 -18.03)"/><path class="cls-6" d="M169.63,89.85a11.77,11.77,0,0,0-1.94-4,11.32,11.32,0,0,0-3.3-2.93,11.42,11.42,0,0,0-2-.87,9.72,9.72,0,0,0-2.13-.44,10.06,10.06,0,0,0-4.25.51,10.76,10.76,0,0,0-3.7,2.21,11.19,11.19,0,0,0-2.56,3.52A12,12,0,0,0,148.67,92a12.16,12.16,0,0,0,0,1.91,11.91,11.91,0,0,0,.48,2.39,11.47,11.47,0,0,0,1.95,3.75h0l.16.2.18.21a8.5,8.5,0,0,0,.73.74l.12.12.22.2,0,0,.08.06.14.12-.35-.31-.39-.37,0,0,0,0c-.16-.16-.32-.35-.48-.53l-.16-.21a1.56,1.56,0,0,1-.16-.2s0,0-.05,0a10.81,10.81,0,0,1-1.8-3.78,10.7,10.7,0,0,1-.26-4.19,10.91,10.91,0,0,1,1.29-3.92,10,10,0,0,1,6-4.81,9.51,9.51,0,0,1,3.71-.31h0a9.6,9.6,0,0,1,1.84.41,9.26,9.26,0,0,1,1.73.78,10,10,0,0,1,2.87,2.47h0l0,0a10.77,10.77,0,0,1,1.82,3.49,11,11,0,0,1,.48,2.79s0,0,0,0a6.76,6.76,0,0,1,0,.9,10.75,10.75,0,0,1-1,4.23,11.14,11.14,0,0,1-1.1,1.85,9.68,9.68,0,0,1-1.28,1.43,9.89,9.89,0,0,1-3.44,2.08,9.55,9.55,0,0,1-4,.47l-.47,0-.2,0h0l-.2,0c-.37-.08-.74-.17-1.11-.28a10.72,10.72,0,0,1-1.41-.58.61.61,0,0,1,.14.07l.3.14.3.13.3.12.31.1.3.1q.43.13.9.24l.2,0,.2,0,.44.07a10.25,10.25,0,0,0,4-.33,10.36,10.36,0,0,0,3.66-1.91,11.22,11.22,0,0,0,2.75-3.28,12,12,0,0,0,1.37-4.2c0-.14,0-.27,0-.4A12.24,12.24,0,0,0,169.63,89.85Zm-15.08,13.09.15.08-.45-.24Zm-1.23-.76.22.15a1.07,1.07,0,0,0,.21.13,9.29,9.29,0,0,1-.95-.7l.23.19Z" transform="translate(-6.28 -18.03)"/><ellipse class="cls-7" cx="156.19" cy="78.14" rx="1.19" ry="1.26"/><ellipse class="cls-7" cx="164.03" cy="90.99" rx="1.41" ry="2.48" transform="translate(-10.78 -9.4) rotate(-2.97)"/><ellipse class="cls-8" cx="146.83" cy="106.29" rx="11.13" ry="6.33" transform="translate(-12.88 -8.26) rotate(-3.73)"/><path class="cls-9" d="M151.38,100.3l.16.21c2.66.6,4.73,1.81,5.68,3.37l.2,0C156.47,102.22,154.24,100.91,151.38,100.3Zm6.71,5.29a4,4,0,0,0-.44-1.6v0s0,0,0,0a6.8,6.8,0,0,0-3.13-2.77,13.58,13.58,0,0,0-3.28-1.08h-.08a18.32,18.32,0,0,0-4.67-.29,18.61,18.61,0,0,0-4.65.87l-.4.14-.12,0h0l-.52.2a13.62,13.62,0,0,0-2.12,1.1,10.9,10.9,0,0,0-1.35,1,6.86,6.86,0,0,0-.77.87l-.08.11-.08.11a4.31,4.31,0,0,0-.81,2.69c.1,1.75,1.38,3.32,3.6,4.41a16.35,16.35,0,0,0,8,1.38,19.55,19.55,0,0,0,3.31-.49,14.6,14.6,0,0,0,4.51-1.87C157.1,109.06,158.19,107.35,158.09,105.59Zm-3.24,4.54a16.09,16.09,0,0,1-7.68,2.31c-6,.38-11.11-2.08-11.29-5.47a4.1,4.1,0,0,1,1-2.78l.12-.14.13-.16a8,8,0,0,1,.89-.84,10.69,10.69,0,0,1,2.37-1.45l.52-.23.06,0,.55-.21a17.88,17.88,0,0,1,1.75-.52,18.68,18.68,0,0,1,3.26-.48,17.51,17.51,0,0,1,5,.36h.06c2.66.6,4.73,1.81,5.68,3.37l0,0a0,0,0,0,1,0,0,3.53,3.53,0,0,1,.53,1.69C157.87,107.23,156.83,108.84,154.85,110.13Z" transform="translate(-6.28 -18.03)"/><ellipse class="cls-6" cx="146.39" cy="102.27" rx="3.85" ry="1.85" transform="translate(-17.31 -0.07) rotate(-6.76)"/><ellipse class="cls-7" cx="146.29" cy="101.23" rx="1.28" ry="0.61" transform="translate(-17.19 -0.09) rotate(-6.76)"/><path d="M150.37,101.81c-.05-.56-.54-1-1.36-1.31a6.56,6.56,0,0,0-2.82-.24,6.71,6.71,0,0,0-2.72.87,1.83,1.83,0,0,0-1.06,1.6c.12,1.12,2,1.8,4.19,1.55a9.6,9.6,0,0,0,1-.17,5.93,5.93,0,0,0,1.75-.71,1.89,1.89,0,0,0,1.07-1.48A.45.45,0,0,0,150.37,101.81Zm-1.22,1.31a6.43,6.43,0,0,1-2.59.82c-2,.23-3.74-.34-3.84-1.25,0-.42.29-.88.91-1.27a5.54,5.54,0,0,1,1.66-.66,9,9,0,0,1,.93-.17,6.42,6.42,0,0,1,2.69.22c.69.24,1.11.62,1.15,1S149.77,102.73,149.15,103.12Z" transform="translate(-6.28 -18.03)"/><path d="M137.07,106.88a2.88,2.88,0,0,1,.3-.5,2,2,0,0,1,.39-.43,1.61,1.61,0,0,1,.51-.29,1.22,1.22,0,0,1,.6,0h0l0,0a5.14,5.14,0,0,0,1.43,1.2,3.43,3.43,0,0,0,3.43,0,6.26,6.26,0,0,0,1.48-1.1l.16-.15.18.15a5,5,0,0,0,.44.32,4.48,4.48,0,0,0,.47.28,5.62,5.62,0,0,0,1,.44,4.31,4.31,0,0,0,1.06.2,4.21,4.21,0,0,0,1.06-.07c.18,0,.35-.1.52-.15l.25-.11c.08,0,.16-.08.24-.12a4.67,4.67,0,0,0,.9-.65,7.5,7.5,0,0,0,1.43-1.77l0-.07h.06l.46,0a3.17,3.17,0,0,1,.44,0,2.62,2.62,0,0,1,.87.24,1.9,1.9,0,0,1,.71.58,2.1,2.1,0,0,1,.38.83,2.12,2.12,0,0,0-.45-.77,1.92,1.92,0,0,0-.7-.47,2.58,2.58,0,0,0-.82-.15,3.25,3.25,0,0,0-.83.07l.1-.07a7.75,7.75,0,0,1-1.42,1.94,5.74,5.74,0,0,1-.45.41l-.25.17L151,107l-.13.07c-.09,0-.17.11-.26.15l-.28.12a5.62,5.62,0,0,1-.58.19,4.34,4.34,0,0,1-2.37-.11,5.28,5.28,0,0,1-1.09-.47,5.48,5.48,0,0,1-.52-.31,4.85,4.85,0,0,1-.49-.37h.34a6.62,6.62,0,0,1-1.62,1.15,4.6,4.6,0,0,1-.94.34,3.39,3.39,0,0,1-1,.09,3.82,3.82,0,0,1-1.87-.62,5.18,5.18,0,0,1-.78-.62,4.34,4.34,0,0,1-.65-.76l.06,0a1.1,1.1,0,0,0-.51,0,1.49,1.49,0,0,0-.48.22,2.42,2.42,0,0,0-.42.37A3.9,3.9,0,0,0,137.07,106.88Z" transform="translate(-6.28 -18.03)"/><ellipse cx="135.32" cy="86.92" rx="0.78" ry="0.82"/><ellipse cx="144.02" cy="86.11" rx="0.49" ry="0.52"/><ellipse cx="136.74" cy="87.67" rx="0.23" ry="0.24"/><ellipse cx="141.98" cy="87.44" rx="0.22" ry="0.23"/><path class="cls-6" d="M142.62,99.68a6.91,6.91,0,0,1,1.78-.84,8.41,8.41,0,0,1,1.92-.4,8.18,8.18,0,0,1,1,0,6.72,6.72,0,0,1,1,.12,5.53,5.53,0,0,1,1.83.71,11.36,11.36,0,0,0-1.88-.37,10.85,10.85,0,0,0-1.89,0,13.19,13.19,0,0,0-1.87.28C143.85,99.31,143.24,99.48,142.62,99.68Z" transform="translate(-6.28 -18.03)"/><path class="cls-6" d="M143.35,98.06a5.09,5.09,0,0,1,1.43-.73,6.09,6.09,0,0,1,1.57-.32,5.05,5.05,0,0,1,1.6.13,4.34,4.34,0,0,1,1.47.66,10.29,10.29,0,0,0-1.52-.32,8.6,8.6,0,0,0-1.52,0,11.33,11.33,0,0,0-1.52.21C144.36,97.77,143.86,97.9,143.35,98.06Z" transform="translate(-6.28 -18.03)"/><path class="cls-6" d="M144.24,96.57a3.45,3.45,0,0,1,1.08-.59,4.36,4.36,0,0,1,1.19-.26,3.91,3.91,0,0,1,1.23.08l.3.08.28.12.15.06.13.08.26.16-.3,0-.14,0-.15,0-.29,0-.29,0a8.67,8.67,0,0,0-1.14,0,8.84,8.84,0,0,0-1.15.16C145,96.39,144.63,96.47,144.24,96.57Z" transform="translate(-6.28 -18.03)"/><path class="cls-6" d="M144.83,95a2.55,2.55,0,0,1,.79-.47,3.3,3.3,0,0,1,.89-.21,2.54,2.54,0,0,1,.91.08l.23.06.21.1.1,0,.1.06.19.14c-.31,0-.59-.07-.87-.07a7.85,7.85,0,0,0-.84,0l-.84.1Z" transform="translate(-6.28 -18.03)"/><path class="cls-9" d="M153.46,82.7A35.91,35.91,0,0,1,155.33,76a16.19,16.19,0,0,1,1.61-3.12,5.67,5.67,0,0,1,1.24-1.36,2.74,2.74,0,0,1,.88-.47,2.08,2.08,0,0,1,1.05,0,4.27,4.27,0,0,1,1.69.84,9.86,9.86,0,0,1,1.26,1.24,19.65,19.65,0,0,1,2,2.82c.59,1,1.13,2,1.62,3a31.45,31.45,0,0,1,1.29,3.2c-1.22-1.92-2.4-3.85-3.69-5.67a27.61,27.61,0,0,0-2-2.59,10.57,10.57,0,0,0-1.14-1.09,3,3,0,0,0-1.22-.66,1.1,1.1,0,0,0-.57,0,1.77,1.77,0,0,0-.57.28,5.18,5.18,0,0,0-1.06,1.08A18.43,18.43,0,0,0,156,76.38,65.29,65.29,0,0,0,153.46,82.7Z" transform="translate(-6.28 -18.03)"/><path class="cls-9" d="M133.36,87a36.1,36.1,0,0,1,.6-6.39,19.57,19.57,0,0,1,.85-3.15,8.16,8.16,0,0,1,.75-1.51,4.6,4.6,0,0,1,.57-.7,2.39,2.39,0,0,1,.82-.52,2.2,2.2,0,0,1,1.9.28,4.25,4.25,0,0,1,1.24,1.22,11.06,11.06,0,0,1,.86,1.43c.24.49.44,1,.63,1.5s.35,1,.5,1.54.28,1,.4,1.57A22.81,22.81,0,0,1,143,85.4c-.73-2-1.42-4-2.27-5.87-.21-.47-.44-.93-.68-1.37a9.94,9.94,0,0,0-.79-1.26,4.19,4.19,0,0,0-.94-.94,1.16,1.16,0,0,0-1-.2,2,2,0,0,0-.9.77,7.22,7.22,0,0,0-.7,1.29,19.8,19.8,0,0,0-1,2.93C134.14,82.77,133.73,84.85,133.36,87Z" transform="translate(-6.28 -18.03)"/><path class="cls-10" d="M144.83,63.44l-6.73.5a3.33,3.33,0,0,0-2.88.17l-22.71,13a4.74,4.74,0,0,0-2.25,4.41,16.16,16.16,0,0,0,1.23,5.07c2.23,5.75,7,15.35,8.79,18.84a.63.63,0,0,0,1.17,0c2.6-6.74,14.69-37.73,17.5-38.77A25.56,25.56,0,0,0,144.83,63.44Z" transform="translate(-6.28 -18.03)"/><path d="M144.74,63.4l0,0h0s0,0,0,0Zm0,0a0,0,0,0,0,0,0v0h-.15l-.17.12-.27.17h0l-.08.06-.73.43c-.49.28-1,.55-1.49.8-.23.11-.46.23-.69.33s-.55.26-.83.37l-.78.31-.35.12h0l-.19.07-.23.09a2.38,2.38,0,0,0-.37.24A4,4,0,0,0,138,67c-.21.24-.38.48-.56.72-.35.49-.67,1-1,1.5-.62,1-1.17,2-1.72,3.09-1.1,2.08-2.11,4.21-3.1,6.34s-1.94,4.29-2.88,6.44-1.93,4.5-2.85,6.77c-.12.3-.25.6-.36.9h0c-.15.35-.29.7-.43,1a.61.61,0,0,0,0,.12c-.57,1.41-1.12,2.81-1.66,4.23-.86,2.19-1.69,4.4-2.51,6.6l0,.06.09.15,0,0s0,0-.1,0a.29.29,0,0,0-.12.09l.11-.29v0l-.21-.39-.4-.78-1.59-3.13c-1-2.08-2.09-4.18-3.1-6.29l-.12-.26c-1-2-1.91-4.06-2.78-6.11-.23-.54-.45-1.08-.67-1.62s-.4-1.07-.57-1.62a12.85,12.85,0,0,1-.61-3.31,4.34,4.34,0,0,1,1-2.9,4.59,4.59,0,0,1,.54-.54,5.64,5.64,0,0,1,.65-.43l1.47-.85,11.75-6.89L132,66.22,135,64.49l.36-.21a2.92,2.92,0,0,1,.36-.17,2.65,2.65,0,0,1,.77-.2,3.12,3.12,0,0,1,1.57.2h.07c1-.08,2-.18,3.06-.29l.23,0,3.2-.32.05,0,0,0h0c-.89.06-1.79.1-2.7.14l-.47,0-3.41.19a3.62,3.62,0,0,0-1.69-.25,3.7,3.7,0,0,0-.86.2,3,3,0,0,0-.41.19l-.37.2-3,1.66-5.94,3.3L114,75.69l-1.48.83a6.22,6.22,0,0,0-.78.49,5.19,5.19,0,0,0-2,4.28,20,20,0,0,0,1.83,7c.77,1.9,1.59,3.77,2.43,5.62,1.09,2.43,2.24,4.84,3.39,7.25l1.53,3.17.39.79.2.39.09.2,0,.05.06.09a1.74,1.74,0,0,0,.11.18,1.4,1.4,0,0,0,1.62.49,1.37,1.37,0,0,0,.72-.68l0-.11h0l0,0,0-.1.08-.21.59-1.46h0l1-2.48h0l1-2.57,1.32-3.25.07-.18h0l.12-.3h0l.26-.63.07-.17.16-.39L128,91.31l.63-1.55.5-1.24,1.09-2.71c1.77-4.35,3.56-8.69,5.5-12.93.49-1.06,1-2.11,1.53-3.13q.39-.78.84-1.5a6.8,6.8,0,0,1,.47-.68,2.12,2.12,0,0,1,.49-.5.63.63,0,0,1,.15-.08l.2-.09c.13-.06.27-.11.39-.18.27-.12.52-.24.78-.38q.77-.39,1.5-.84c.38-.23.76-.47,1.13-.73l.31-.21.69-.51.34-.26.17-.14.09-.07,0,0,0,0a.22.22,0,0,0,0-.1Z" transform="translate(-6.28 -18.03)"/><path class="cls-10" d="M158.57,63.58l6.74-.26a3.3,3.3,0,0,1,2.87-.16L192.07,73.5a4.66,4.66,0,0,1,2.69,4.13,16.5,16.5,0,0,1-.71,5.18c-1.64,6-5.44,16.06-6.85,19.73a.63.63,0,0,1-1.16.16c-3.26-6.4-18.4-35.85-21.31-36.56A25.26,25.26,0,0,1,158.57,63.58Z" transform="translate(-6.28 -18.03)"/><path d="M195.26,77.36a5.37,5.37,0,0,0-1.65-3.45,4.77,4.77,0,0,0-.76-.58,5.61,5.61,0,0,0-.82-.4l-1.56-.66L178,67l-6.25-2.61-3.12-1.3-.39-.17-.43-.14a3.26,3.26,0,0,0-.88-.1,3.74,3.74,0,0,0-1.66.44c-1.13.05-2.28.12-3.4.2-.87.06-1.72.12-2.56.16l-.61,0h.06l0,0h.77l2.46,0,3.29-.07h.07a3.25,3.25,0,0,1,1.54-.38,3,3,0,0,1,.79.11,2.32,2.32,0,0,1,.37.13l.39.18,3.09,1.38,6.19,2.76,12.37,5.52,1.55.69a6.32,6.32,0,0,1,.69.35,4.43,4.43,0,0,1,.6.47,4.35,4.35,0,0,1,1.26,2.78,12.87,12.87,0,0,1-.28,3.36c-.11.56-.25,1.12-.4,1.68s-.32,1.12-.5,1.68c-.69,2.23-1.45,4.45-2.24,6.67-.37,1-.75,2.06-1.13,3.08-.43,1.18-.88,2.35-1.32,3.52l-1.27,3.29-.32.82-.16.41,0,0,.14.29a.16.16,0,0,0-.12-.09c-.08,0-.1,0-.1,0h0l0,0,.06-.17,0,0c-1-2.1-2.09-4.2-3.17-6.29q-.44-.87-.9-1.74c-.21-.43-.44-.86-.66-1.29s-.53-1-.8-1.53l-.95-1.78h0c-1.09-2-2.2-4-3.32-6s-2.31-4.07-3.52-6.08-2.42-4-3.72-6c-.36-.54-.72-1.08-1.09-1.61s-.61-.86-.93-1.27c-.17-.23-.34-.45-.52-.67s-.39-.48-.59-.71-.41-.45-.63-.65a2.52,2.52,0,0,0-.84-.56l-.24-.07-.2,0-.4-.09-.8-.22c-.54-.16-1.06-.33-1.59-.52s-1-.41-1.56-.63l-.77-.35L159,63.7l-.19-.1h-.14s0,0,0,0v0h-.18a.12.12,0,0,0,0,.09l0,0,0,0,.1.06.17.11.37.22.49.29.25.14c.5.28,1,.53,1.53.78s1,.46,1.57.67l.81.29.41.13.2.07a.59.59,0,0,1,.17,0,2,2,0,0,1,.54.45c.18.19.35.4.53.62l.3.41q.36.48.69,1c.63,1,1.24,1.94,1.83,2.94,2.36,4,4.57,8.11,6.77,12.23l5.12,9.65.06.12.6,1.13.61,1.16.18.32,3.27,6.21.1.19.06.1,0,0,.06.11a1.42,1.42,0,0,0,.25.3,1.16,1.16,0,0,0,.36.23l.18.07a1.41,1.41,0,0,0,1.55-.67l.1-.19,0-.1,0,0,.08-.21.15-.42.31-.83,1.2-3.32c.49-1.35,1-2.71,1.44-4.07,1.08-3.1,2.13-6.21,3.05-9.38A20,20,0,0,0,195.26,77.36ZM158.65,63.53h0Zm23.18,29.12c-.26-.51-.53-1-.8-1.53v.09c0,.25.05.5.07.75s0,.53,0,.79,0,.33,0,.5l.36.69h1C182.28,93.51,182.05,93.08,181.83,92.65Z" transform="translate(-6.28 -18.03)"/><path class="cls-11" d="M177.33,95.75" transform="translate(-6.28 -18.03)"/><path class="cls-12" d="M153.52,120.53" transform="translate(-6.28 -18.03)"/><path class="cls-9" d="M143.25,139.24a8,8,0,0,1-3.85-2.15,17.07,17.07,0,0,1-2.66-3.58,25.58,25.58,0,0,0-2.31-3.55c-1-1.07-1.94-2.21-2.86-3.34s-1.83-2.26-2.75-3.38l-1.38-1.69a15.85,15.85,0,0,1-1.36-1.79,9.53,9.53,0,0,1-1.44-4.23s0,0,0-.06a.49.49,0,0,0,0-.12,9.73,9.73,0,0,1,.4-3.49,7.66,7.66,0,0,1,.27-.72s0,0,0,0v0a8.36,8.36,0,0,0-.14.85,10,10,0,0,0,1.78,7.19c.41.55.88,1.06,1.38,1.61l1.46,1.63c1,1.11,1.89,2.24,2.82,3.36s1.82,2.25,2.78,3.35a13.19,13.19,0,0,1,1.26,1.92c.36.66.68,1.31,1,2a19.5,19.5,0,0,0,2.23,3.64A8.92,8.92,0,0,0,143.25,139.24Z" transform="translate(-6.28 -18.03)"/><path class="cls-9" d="M186.49,102.24c-.06.24-.13.48-.2.72s-.17.52-.26.77a24.57,24.57,0,0,1-1.47,3.27c-.05.1-.11.2-.17.3s-.09.17-.13.25a25.62,25.62,0,0,1-2.59,3.73,18.06,18.06,0,0,1-3.87,3.48,12.79,12.79,0,0,1-2.32,1.21,9.7,9.7,0,0,1-2.52.58,17.55,17.55,0,0,0,4.23-2.62,29.42,29.42,0,0,0,3.46-3.51c.55-.62,1.06-1.28,1.56-1.94s1-1.34,1.47-2c.67-1,1.33-2,2-3l.45-.68C186.24,102.63,186.37,102.44,186.49,102.24Z" transform="translate(-6.28 -18.03)"/><path class="cls-9" d="M184.63,110.49a.17.17,0,0,1,0,.07c0,.12,0,.23,0,.35h0a16,16,0,0,1-.77,3.42,13.61,13.61,0,0,1-4.48,6.51,8.22,8.22,0,0,1-1.81,1,7.53,7.53,0,0,1-1,.33c-.27.1-.55.2-.83.28a9,9,0,0,0-2.95,2,15.14,15.14,0,0,0-2.23,3,21.74,21.74,0,0,0-1.64,3.44,14.43,14.43,0,0,1,1.06-3.73,13.23,13.23,0,0,1,2-3.36,9.35,9.35,0,0,1,3.22-2.46l1-.35a7.42,7.42,0,0,0,.83-.3,7.63,7.63,0,0,0,1.51-.88,11.15,11.15,0,0,0,2.49-2.59,17.52,17.52,0,0,0,1.81-3.22A18.21,18.21,0,0,0,184,110.4a11.35,11.35,0,0,0,.28-2.85,7.19,7.19,0,0,0-.09-.91,5.67,5.67,0,0,1,.22.66A9.51,9.51,0,0,1,184.63,110.49Z" transform="translate(-6.28 -18.03)"/><path class="cls-9" d="M187.55,114.14a8.52,8.52,0,0,1-.45,2,5.87,5.87,0,0,1-.24.63v0a14.35,14.35,0,0,1-1.63,2.89,15.39,15.39,0,0,1-2.63,3c.57-1.19,1.18-2.33,1.74-3.48a29.53,29.53,0,0,0,1.5-3.45l.15-.43.12-.44a8.77,8.77,0,0,0,.18-.86,8.18,8.18,0,0,0,0-1.78,3.84,3.84,0,0,0-.18-.83,1.53,1.53,0,0,0-.39-.67.63.63,0,0,0-.65-.21,1.2,1.2,0,0,0-.52.38h0l-.15.2a1.69,1.69,0,0,1,.18-.55,1.24,1.24,0,0,1,.33-.36,1.1,1.1,0,0,1,1.18,0,2.32,2.32,0,0,1,.8.82,2.08,2.08,0,0,1,.24.5,4.56,4.56,0,0,1,.18.52A6.78,6.78,0,0,1,187.55,114.14Z" transform="translate(-6.28 -18.03)"/><path class="cls-9" d="M114.36,186l-.22.05-.18-.15Z" transform="translate(-6.28 -18.03)"/><path class="cls-9" d="M118.16,182.69a13.73,13.73,0,0,0,1-1.24c-.29.44-.59.87-.91,1.29Z" transform="translate(-6.28 -18.03)"/><path class="cls-9" d="M125.17,116.55a5.48,5.48,0,0,0-.53-1,1.18,1.18,0,0,0-.13-.18,1.75,1.75,0,0,0-.47-.47.63.63,0,0,0-.58-.12,1.11,1.11,0,0,0-.49.38,3.58,3.58,0,0,0-.34.57,6.89,6.89,0,0,0-.47,1.27,7.8,7.8,0,0,0-.28,2.67,13.65,13.65,0,0,0,.5,2.67c.24.88.51,1.78.7,2.7a9,9,0,0,1,.18,2.89,13.64,13.64,0,0,1-.61,2.78c-.12.44-.24.86-.32,1.3a11.09,11.09,0,0,0-.15,1.32,50,50,0,0,0,.06,5.47l.3,5.54q.28,5.53.38,11.1c0,3.71,0,7.42-.29,11.14a44.37,44.37,0,0,1-.77,5.57,12.13,12.13,0,0,1-.93,2.76,3.73,3.73,0,0,1-1,1.27,2.13,2.13,0,0,1-.87.37c-.23,0-.44.05-.66.11a10.19,10.19,0,0,0-4.66,2.36l-.41.38c-.21-.2-.41-.41-.59-.61.13-.15.27-.28.41-.42a11.05,11.05,0,0,1,5-2.73c.23-.06.49-.09.71-.14a.94.94,0,0,0,.38-.18,2.72,2.72,0,0,0,.66-.92,10.9,10.9,0,0,0,.79-2.5,42.07,42.07,0,0,0,.65-5.41c.25-3.66.27-7.35.22-11s-.16-7.38-.3-11.07l-.21-5.54a43.83,43.83,0,0,1,.07-5.61,13.66,13.66,0,0,1,.2-1.43,13.89,13.89,0,0,1,.39-1.38,11,11,0,0,0,0-7.94,13.68,13.68,0,0,1-.37-2.8,8.49,8.49,0,0,1,.44-2.79,8.35,8.35,0,0,1,.56-1.3,3.45,3.45,0,0,1,.41-.59,1.25,1.25,0,0,1,.62-.43.88.88,0,0,1,.72.19,2.16,2.16,0,0,1,.46.54.09.09,0,0,1,0,.06A5,5,0,0,1,125.17,116.55Z" transform="translate(-6.28 -18.03)"/><path class="cls-9" d="M114,185.93l.4.1-.22.05Z" transform="translate(-6.28 -18.03)"/><path class="cls-9" d="M122.34,186.32l0,.08c-.15-.15-.29-.31-.43-.47Z" transform="translate(-6.28 -18.03)"/><path class="cls-9" d="M123,184.63c-.32-.1-.63-.2-.93-.31a15.45,15.45,0,0,0,.78-2.87A6.44,6.44,0,0,1,123,184.63Z" transform="translate(-6.28 -18.03)"/><path class="cls-9" d="M121.86,185.93l.48.39,0,.08C122.14,186.25,122,186.09,121.86,185.93Z" transform="translate(-6.28 -18.03)"/><path class="cls-9" d="M135,169.93a6.55,6.55,0,0,1-.36,3,2.27,2.27,0,0,1-.51.8,1.46,1.46,0,0,1-.21.16l-.2.13-.28.15a2.33,2.33,0,0,0-.68.78,16.7,16.7,0,0,0-1.08,2.38c-.23.63-.45,1.27-.66,1.91a0,0,0,0,0,0,0c-.07.21-.14.41-.2.61l-.06.18c-.05.17-.1.33-.16.5-.19.64-.4,1.28-.61,1.93a15.62,15.62,0,0,1-1.15,2.58c-.2.33-.42.66-.65,1l-.83-.19a6.89,6.89,0,0,0,.71-1.2,15.89,15.89,0,0,0,.93-2.47l.7-2.63c.26-.89.52-1.77.81-2.65a14.93,14.93,0,0,1,1.15-2.61,3.44,3.44,0,0,1,1.1-1.24l.32-.18.09-.06.06,0a1.41,1.41,0,0,0,.2-.35,5.37,5.37,0,0,0,.28-2.39,9.34,9.34,0,0,0-.51-2.5,8.37,8.37,0,0,0-1.13-2.28l-.19-.27a2.14,2.14,0,0,1-.23-.38,2,2,0,0,1-.16-.37,1.9,1.9,0,0,1-.11-.39,6.84,6.84,0,0,1-.17-1.47,14.92,14.92,0,0,1,1.15-5.48,11.88,11.88,0,0,1,1.34-2.45,5.48,5.48,0,0,1,1-1,2.44,2.44,0,0,1,1.26-.56,2.32,2.32,0,0,0-1.12.71,5.48,5.48,0,0,0-.79,1.07,12.16,12.16,0,0,0-1,2.47,17.78,17.78,0,0,0-.59,2.6,12.88,12.88,0,0,0-.14,2.62,6,6,0,0,0,.2,1.23,2.36,2.36,0,0,0,.21.51,1,1,0,0,0,.13.2l.21.28a9.51,9.51,0,0,1,1.28,2.28c0,.09.07.19.11.28s.17.48.24.73h0A9.77,9.77,0,0,1,135,169.93Z" transform="translate(-6.28 -18.03)"/><path class="cls-9" d="M175.23,175.1l-.88.7c-.52.42-1,.84-1.6,1.21a25.35,25.35,0,0,1-2.68,1.65,23.59,23.59,0,0,1-5.9,2.28,23.13,23.13,0,0,1-12.61-.62,30.78,30.78,0,0,1-5.78-2.63c-.43-.26-.86-.52-1.29-.8l-.55-.36a38.3,38.3,0,0,1-3.32-2.49,43.39,43.39,0,0,1-4.49-4.4c-.52-.59-1-1.19-1.52-1.79h0a30.64,30.64,0,0,1-2.27-3.18c.62.75,1.26,1.47,1.92,2.17s1.54,1.6,2.33,2.37a55.87,55.87,0,0,0,4.68,4,42,42,0,0,0,5.13,3.37,31.36,31.36,0,0,0,5.57,2.46,23.2,23.2,0,0,0,5.94,1.19,22.36,22.36,0,0,0,6.05-.33,25.5,25.5,0,0,0,5.83-1.85,29.67,29.67,0,0,0,2.77-1.37,15,15,0,0,0,1.33-.79l.49-.29Z" transform="translate(-6.28 -18.03)"/><path class="cls-9" d="M130.79,180.13c0,.22-.1.43-.14.63,0-.06,0-.13-.07-.2a5,5,0,0,1-.24-1.2c.13.24.27.47.4.7Z" transform="translate(-6.28 -18.03)"/><path class="cls-9" d="M135,178.23v-.13a2.15,2.15,0,0,0-.16-.93,1.8,1.8,0,0,1,.5.88l.06.24Z" transform="translate(-6.28 -18.03)"/><path class="cls-9" d="M139.16,178.41l-1,0a21.61,21.61,0,0,0-.46-2.26,5.19,5.19,0,0,1,1.5,2.2A0,0,0,0,1,139.16,178.41Z" transform="translate(-6.28 -18.03)"/><path class="cls-9" d="M144.49,176.89v0a4.63,4.63,0,0,1-.06.67l-1.07.25c.17-.36.35-.7.49-1,0-.09.07-.19.09-.28a1.24,1.24,0,0,0,0-.27,1,1,0,0,0-.23-.57,1,1,0,0,1,.58.46A1.51,1.51,0,0,1,144.49,176.89Z" transform="translate(-6.28 -18.03)"/><path class="cls-9" d="M186.49,184.45a6.73,6.73,0,0,1,.71.59l-.07,0A6.34,6.34,0,0,0,186.49,184.45Z" transform="translate(-6.28 -18.03)"/><path class="cls-9" d="M188.55,188.92l.28-.07a1.3,1.3,0,0,1-.1.15Z" transform="translate(-6.28 -18.03)"/><path class="cls-9" d="M192,184l-1.6-.55.26.07A7.5,7.5,0,0,1,192,184Z" transform="translate(-6.28 -18.03)"/><path class="cls-9" d="M192.26,136.5c-.14,1.09-.31,2.18-.53,3.26-.06.26-.11.51-.17.77-.09.44-.2.88-.32,1.32-.44,1.76-1,3.49-1.54,5.19a15.66,15.66,0,0,0-.62,2.47,2.68,2.68,0,0,0,0,.5l0,.09,0,.14a2.31,2.31,0,0,0,.1.28,6.62,6.62,0,0,0,.56,1.09,26.56,26.56,0,0,1,1.5,2.31,3.35,3.35,0,0,1,.39,1.6v.24l0,.18a3.29,3.29,0,0,1-.07.36l-.14.68c-.83,3.51-1.75,7-2.55,10.45-.4,1.74-.79,3.49-1.11,5.24a47.23,47.23,0,0,0-.75,5.26,4.19,4.19,0,0,0,0,.5v.09a9,9,0,0,0,.09,2c0,.1,0,.19.07.28a.88.88,0,0,0,.09.26,2.38,2.38,0,0,0,.29.5,4.67,4.67,0,0,0,.83.89,5.43,5.43,0,0,0,1.54.83q-.35.33-.69.6a5.59,5.59,0,0,1-1.38-.74,4.84,4.84,0,0,1-1-1,3,3,0,0,1-.4-.65,2,2,0,0,1-.15-.38c0-.12-.07-.24-.1-.36a11.65,11.65,0,0,1-.16-2.81,42.27,42.27,0,0,1,.64-5.41c.3-1.78.66-3.54,1-5.31.76-3.51,1.67-7,2.47-10.47l.14-.64c0-.1,0-.21.06-.3l0-.15v-.1a2,2,0,0,0-.25-1c-.34-.69-.92-1.4-1.42-2.2a8.35,8.35,0,0,1-.66-1.3c-.05-.12-.09-.24-.13-.36l-.06-.17-.05-.24a3.43,3.43,0,0,1,0-.84,14.63,14.63,0,0,1,.71-2.74c.57-1.71,1.15-3.39,1.61-5.1a46.08,46.08,0,0,0,1.11-5.19,34.44,34.44,0,0,0,.1-10.58,18.83,18.83,0,0,0-1.58-5.06,13.45,13.45,0,0,0-1.39-2.26,10.48,10.48,0,0,0-1.5-1.62c-.12-.1-.24-.2-.37-.29.13.08.25.17.37.26a11.47,11.47,0,0,1,3.2,3.75,19,19,0,0,1,1.9,5.09A33.22,33.22,0,0,1,192.26,136.5Z" transform="translate(-6.28 -18.03)"/><path class="cls-9" d="M192.63,185.48a4.08,4.08,0,0,1-.21.56Z" transform="translate(-6.28 -18.03)"/><path class="cls-9" d="M183.18,185.71l.09.18h-.13C183.15,185.83,183.17,185.78,183.18,185.71Z" transform="translate(-6.28 -18.03)"/><path class="cls-9" d="M188.83,188.85a1.3,1.3,0,0,1-.1.15l-.18-.08Z" transform="translate(-6.28 -18.03)"/><path class="cls-9" d="M177.07,185h0a0,0,0,0,1,0,0A.06.06,0,0,0,177.07,185Z" transform="translate(-6.28 -18.03)"/><path class="cls-9" d="M176.79,188.84a2.1,2.1,0,0,0,.61.09,1.94,1.94,0,0,1-.59,0A.29.29,0,0,0,176.79,188.84Z" transform="translate(-6.28 -18.03)"/><path class="cls-9" d="M177.4,188.93a1.94,1.94,0,0,1-.59,0,.29.29,0,0,0,0-.09A2.1,2.1,0,0,0,177.4,188.93Z" transform="translate(-6.28 -18.03)"/><path class="cls-9" d="M177.44,166.16c-.12.93-.29,1.84-.46,2.74l-1.11,5.38c-.36,1.77-.71,3.58-1,5.36a25.75,25.75,0,0,0-.35,4.37l-.77-.35h0c0-.23,0-.47-.05-.71s0-.47,0-.7c0-.92.06-1.83.15-2.73,0-.46.08-.93.15-1.38l.19-1.37c.05-.31.1-.64.15-1l0-.18c.08-.53.17-1.05.26-1.58.31-1.81.69-3.61,1-5.4.18-.88.35-1.77.47-2.65a12.11,12.11,0,0,0,.14-2.6,6.21,6.21,0,0,0-.65-2.39l-.32-.56-.36-.61a12.72,12.72,0,0,1-.62-1.29,10.83,10.83,0,0,1-.73-2.76c-.06-.47-.1-.93-.15-1.37a2.92,2.92,0,0,0-.31-1.17,3.34,3.34,0,0,0-.91-.83,2.71,2.71,0,0,0-1.17-.46.86.86,0,0,0-.94.57,3.43,3.43,0,0,0-.22,1.32,3.62,3.62,0,0,1,0-1.39,1.22,1.22,0,0,1,.41-.63,1,1,0,0,1,.34-.18,1.32,1.32,0,0,1,.39-.06,3,3,0,0,1,1.41.39,4.23,4.23,0,0,1,.62.37,2.17,2.17,0,0,1,.57.53,3.52,3.52,0,0,1,.54,1.41c.09.47.16.92.25,1.35a11.19,11.19,0,0,0,.82,2.49,10.68,10.68,0,0,0,.64,1.14l.35.56.39.63a7.24,7.24,0,0,1,.87,2.83A12.52,12.52,0,0,1,177.44,166.16Z" transform="translate(-6.28 -18.03)"/><path class="cls-9" d="M194.35,149c0,.46,0,.92-.09,1.38a.5.5,0,0,1,0,.12l-.05-.12a21.51,21.51,0,0,1-.92-2.66c-.27-.93-.5-1.86-.73-2.79l-.64-2.79c-.11-.52-.23-1-.34-1.56s-.19-.85-.3-1.29a4.6,4.6,0,0,1,.47.52,9.41,9.41,0,0,1,1.16,2,16.56,16.56,0,0,1,.94,2.81,19.1,19.1,0,0,1,.47,2.92C194.34,148,194.35,148.46,194.35,149Z" transform="translate(-6.28 -18.03)"/><path class="cls-9" d="M200.65,170.76a12.47,12.47,0,0,1-1.7,4,7.57,7.57,0,0,1-1.52,1.68,6.36,6.36,0,0,1-1.21.77l-.23.11c-.17.07-.34.15-.52.21h0a11.66,11.66,0,0,1-2.09.92,12.23,12.23,0,0,1-2.31.51,8.73,8.73,0,0,1-2.34,0,6.93,6.93,0,0,1-1.69-.46l-.53-.22.53.13a7.18,7.18,0,0,0,1.71.23,9.28,9.28,0,0,0,2.23-.23,12.78,12.78,0,0,0,2.12-.68,11.88,11.88,0,0,0,1.94-1l0,0,.06,0a5.69,5.69,0,0,0,1.62-1,7.75,7.75,0,0,0,1.23-1.5,12.54,12.54,0,0,0,1.43-3.7,22.8,22.8,0,0,0,.53-4,31.49,31.49,0,0,0,0-4.12,37.86,37.86,0,0,0-.48-4.1,26.82,26.82,0,0,0-1-4,11.42,11.42,0,0,0-.79-1.86,3.72,3.72,0,0,0-.56-.77,1.62,1.62,0,0,0-.34-.26l-.46-.19a8,8,0,0,0-2-.5,2.84,2.84,0,0,0-2,.4,2.79,2.79,0,0,1,1.85-.69h.13a7.66,7.66,0,0,1,2.13.3l.53.15a2.2,2.2,0,0,1,.54.32,4.73,4.73,0,0,1,.75.87,11.09,11.09,0,0,1,1,1.93,30.11,30.11,0,0,1,1.89,8.31A27.14,27.14,0,0,1,200.65,170.76Z" transform="translate(-6.28 -18.03)"/><path class="cls-9" d="M196.22,177.25l-.23.11a1.24,1.24,0,0,1,.12-.61A1.59,1.59,0,0,0,196.22,177.25Z" transform="translate(-6.28 -18.03)"/><path class="cls-9" d="M194.71,184.4l-.66.23a2.26,2.26,0,0,0,0-.26,10.37,10.37,0,0,0-.11-1.25,3,3,0,0,0-.37-1.19,2.73,2.73,0,0,1,.73,1.09,8,8,0,0,1,.4,1.26S194.7,184.36,194.71,184.4Z" transform="translate(-6.28 -18.03)"/><path class="cls-9" d="M199.13,182.76l-.89.34h0a2.27,2.27,0,0,1-.39-.43,4.58,4.58,0,0,1-.8-2.52,5.48,5.48,0,0,0,1.29,2.09,2.24,2.24,0,0,0,.44.32Z" transform="translate(-6.28 -18.03)"/><path class="cls-9" d="M156.85,144.76a11.18,11.18,0,0,0,.57,1.83,5.91,5.91,0,0,0,.88,1.56,3.72,3.72,0,0,0,2.85,1.44l.43,0h.49l.51,0,.51,0a8.7,8.7,0,0,1,2,.46,6.57,6.57,0,0,1,1.79,1,4,4,0,0,1,1.23,1.58,5.51,5.51,0,0,0-1.58-1,7.71,7.71,0,0,0-1.73-.54A10,10,0,0,0,163,151l-.45,0h-.94l-.53,0a5.8,5.8,0,0,1-1.08-.18,2.54,2.54,0,0,1-.52-.2,2.88,2.88,0,0,1-.5-.24,4.26,4.26,0,0,1-1.53-1.57,5.56,5.56,0,0,1-.64-2A6.09,6.09,0,0,1,156.85,144.76Z" transform="translate(-6.28 -18.03)"/><path class="cls-9" d="M152.17,144.76a5.83,5.83,0,0,1,.06,2,5.18,5.18,0,0,1-.64,2,4.23,4.23,0,0,1-1.52,1.57,2.88,2.88,0,0,1-.5.24,2.78,2.78,0,0,1-.52.2,5.8,5.8,0,0,1-1.08.18l-.54,0h-.93l-.46,0a9.83,9.83,0,0,0-1.8.21,7.79,7.79,0,0,0-1.74.54,5.47,5.47,0,0,0-1.57,1,3.85,3.85,0,0,1,1.23-1.58,6.29,6.29,0,0,1,1.79-1,8.46,8.46,0,0,1,2-.46l.51,0,.5,0h.5l.42,0a3.72,3.72,0,0,0,2.85-1.44,5.66,5.66,0,0,0,.89-1.56A11.17,11.17,0,0,0,152.17,144.76Z" transform="translate(-6.28 -18.03)"/><path class="cls-9" d="M118.27,182.74a11.37,11.37,0,0,1-2.86,2.8,5,5,0,0,1-1,.49l-.4-.1.18.15-.07,0a2.3,2.3,0,0,1-1.5-.17,3,3,0,0,1-1.13-1,3.46,3.46,0,0,1-.6-1.39,4.69,4.69,0,0,1,.54-2.9,7.88,7.88,0,0,1,1.35-1.88c.18.2.38.41.59.61a7.69,7.69,0,0,0-1.27,1.63,4,4,0,0,0-.56,2.44,2.79,2.79,0,0,0,1.31,2,2.49,2.49,0,0,0,2.43-.25,9.83,9.83,0,0,0,2.14-1.69c.27-.27.54-.55.79-.85Z" transform="translate(-6.28 -18.03)"/><path class="cls-7" d="M115.23,185.23a2.49,2.49,0,0,1-2.43.25,2.79,2.79,0,0,1-1.31-2,4,4,0,0,1,.56-2.44,7.69,7.69,0,0,1,1.27-1.63,18.71,18.71,0,0,0,4.84,3.31c-.25.3-.52.58-.79.85A9.83,9.83,0,0,1,115.23,185.23Z" transform="translate(-6.28 -18.03)"/><path class="cls-9" d="M123,184.63a1.5,1.5,0,0,1-.06.29,4.86,4.86,0,0,1-.59,1.4l-.48-.39c.14.16.28.32.43.47l-.15.21a3.67,3.67,0,0,1-1.58,1.19,4.28,4.28,0,0,1-1.89.27,6,6,0,0,1-1.76-.38,9.11,9.11,0,0,1-2.77-1.61l.22-.05c1,.24,1.89.5,2.81.65a5.65,5.65,0,0,0,2.91-.12,3.54,3.54,0,0,0,1.87-2l.11-.26C122.36,184.43,122.67,184.53,123,184.63Z" transform="translate(-6.28 -18.03)"/><path class="cls-7" d="M114,185.93l.4.1-.22.05Z" transform="translate(-6.28 -18.03)"/><path class="cls-7" d="M122,184.58a3.54,3.54,0,0,1-1.87,2,5.65,5.65,0,0,1-2.91.12c-.92-.15-1.85-.41-2.81-.65a5,5,0,0,0,1-.49,11.37,11.37,0,0,0,2.86-2.8,33.44,33.44,0,0,0,3.79,1.58Z" transform="translate(-6.28 -18.03)"/><path class="cls-9" d="M128.17,186a5.49,5.49,0,0,1-1.26,1.19,3.27,3.27,0,0,1-1.38.52,3.35,3.35,0,0,1-1.45-.17,5.08,5.08,0,0,1-1.79-1.18l0-.08a5.13,5.13,0,0,0,1.85.9,2.78,2.78,0,0,0,1.25,0,2.7,2.7,0,0,0,1.1-.54,4,4,0,0,0,.8-.85Z" transform="translate(-6.28 -18.03)"/><path class="cls-7" d="M121.86,185.93l.48.39,0,.08C122.14,186.25,122,186.09,121.86,185.93Z" transform="translate(-6.28 -18.03)"/><path class="cls-7" d="M127.34,185.85a4,4,0,0,1-.8.85,2.7,2.7,0,0,1-1.1.54,2.78,2.78,0,0,1-1.25,0,5.13,5.13,0,0,1-1.85-.9,4.86,4.86,0,0,0,.59-1.4,1.5,1.5,0,0,0,.06-.29C124.3,185.06,125.74,185.47,127.34,185.85Z" transform="translate(-6.28 -18.03)"/><path class="cls-7" d="M135,178.23a6.82,6.82,0,0,1-.1.79,9.21,9.21,0,0,1-.2.91c-.07.27-.14.54-.23.8a4.45,4.45,0,0,1-1.07.85,1.26,1.26,0,0,1-1.17.1,2.92,2.92,0,0,1-1.05-1c-.14-.19-.27-.39-.4-.6.06-.28.13-.57.21-.86a0,0,0,0,1,0,0,12.3,12.3,0,0,1,.66-1.91A12,12,0,0,0,135,178.23Z" transform="translate(-6.28 -18.03)"/><path class="cls-7" d="M138.17,179.75a3.8,3.8,0,0,1-.23,1,2.45,2.45,0,0,1-.51.78,1.46,1.46,0,0,1-.78.37,4.29,4.29,0,0,1-1.83-.27,4.25,4.25,0,0,0,.35-.39l.07-.08,0-.07c.08-.34.13-.67.18-1a6.77,6.77,0,0,0,.05-1,5,5,0,0,0-.08-.77,21.58,21.58,0,0,0,2.7.15l0,.18A8.67,8.67,0,0,1,138.17,179.75Z" transform="translate(-6.28 -18.03)"/><path class="cls-9" d="M144.43,177.59a.13.13,0,0,0,0,.06l-.06.31c0,.12-.05.24-.08.36-.1.44-.21.86-.31,1.28l-.15.63-.08.31a2.54,2.54,0,0,1-.11.38,3,3,0,0,1-.42.78,2.26,2.26,0,0,1-.71.56,2.78,2.78,0,0,1-1.59.29,5,5,0,0,1-2.07-.72,2.31,2.31,0,0,1-.63.66,2.23,2.23,0,0,1-1.56.43,2.88,2.88,0,0,1-1.35-.52,3.52,3.52,0,0,1-.68-.59,4,4,0,0,1-.81.56,2.13,2.13,0,0,1-.95.26,1.91,1.91,0,0,1-1-.26,2.36,2.36,0,0,1-.69-.64,3.2,3.2,0,0,1-.44-.75,2.14,2.14,0,0,0-.1-.22c0-.2.09-.41.14-.63.13.21.26.41.4.6a2.92,2.92,0,0,0,1.05,1,1.26,1.26,0,0,0,1.17-.1,4.45,4.45,0,0,0,1.07-.85c.09-.26.16-.53.23-.8a9.21,9.21,0,0,0,.2-.91,6.82,6.82,0,0,0,.1-.79l.4.06a5,5,0,0,1,.08.77,6.77,6.77,0,0,1-.05,1c-.05.33-.1.66-.18,1l0,.07-.07.08a4.25,4.25,0,0,1-.35.39,4.29,4.29,0,0,0,1.83.27,1.46,1.46,0,0,0,.78-.37,2.45,2.45,0,0,0,.51-.78,3.8,3.8,0,0,0,.23-1,8.67,8.67,0,0,0,0-1.13l0-.18,1,0a4.63,4.63,0,0,1,.27,1.35,3.82,3.82,0,0,1-.26,1.48l-.14.27a9.69,9.69,0,0,0,1.87,0,2.27,2.27,0,0,0,1-.33,1.15,1.15,0,0,0,.49-.69l0-.11a.72.72,0,0,0,.05-.14l.09-.34q.09-.33.21-.66c.16-.43.34-.85.53-1.25l.07-.14Z" transform="translate(-6.28 -18.03)"/><path class="cls-7" d="M143.36,177.84l-.07.14c-.19.4-.37.82-.53,1.25q-.12.33-.21.66l-.09.34a.72.72,0,0,1-.05.14l0,.11a1.15,1.15,0,0,1-.49.69,2.27,2.27,0,0,1-1,.33,9.69,9.69,0,0,1-1.87,0l.14-.27a3.82,3.82,0,0,0,.26-1.48,4.63,4.63,0,0,0-.27-1.35A27.18,27.18,0,0,0,143.36,177.84Z" transform="translate(-6.28 -18.03)"/><path class="cls-9" d="M176.81,188.93a2.11,2.11,0,0,1-.77-.25,3,3,0,0,1-1-1,3.06,3.06,0,0,1-.21-.29l-.16-.32-.16-.32c-.05-.1-.08-.22-.13-.33s-.16-.45-.21-.67l-.16-.7a14,14,0,0,1-.19-1.43l.77.35c0,.33,0,.66.06,1a6.41,6.41,0,0,0,.7,2.52,2.87,2.87,0,0,0,.84,1,2,2,0,0,0,.65.33A.29.29,0,0,1,176.81,188.93Z" transform="translate(-6.28 -18.03)"/><path class="cls-9" d="M184.17,189.77a7.37,7.37,0,0,1-2.15,1.66,4.86,4.86,0,0,1-1.73.53,3.06,3.06,0,0,1-1.95-.46,3.38,3.38,0,0,1-1.22-1.53,5.51,5.51,0,0,1-.28-.87l0-.17a1.94,1.94,0,0,0,.59,0,2.1,2.1,0,0,1-.61-.09c0-.2-.07-.4-.08-.6a9.13,9.13,0,0,1,.34-3.3h0c.24,1.08.4,2.13.67,3.11.06.25.16.48.23.72a5.54,5.54,0,0,0,.29.65,2.5,2.5,0,0,0,.81,1,3.07,3.07,0,0,0,2.56.07,17,17,0,0,0,2.33-.91A1.45,1.45,0,0,0,184.17,189.77Z" transform="translate(-6.28 -18.03)"/><path class="cls-7" d="M176.71,188.24c0,.2,0,.4.08.6a2,2,0,0,1-.65-.33,2.87,2.87,0,0,1-.84-1,6.41,6.41,0,0,1-.7-2.52c0-.33,0-.66-.06-1a24.14,24.14,0,0,0,2.51.93A9.13,9.13,0,0,0,176.71,188.24Z" transform="translate(-6.28 -18.03)"/><path class="cls-7" d="M176.79,188.84a2.1,2.1,0,0,0,.61.09,1.94,1.94,0,0,1-.59,0A.29.29,0,0,0,176.79,188.84Z" transform="translate(-6.28 -18.03)"/><path class="cls-9" d="M188.73,189a3.69,3.69,0,0,1-1.69,1.25,2.84,2.84,0,0,1-1.24.2,2.76,2.76,0,0,1-1.29-.41,2.24,2.24,0,0,1-.34-.27,1.45,1.45,0,0,1-.21-.22,3.55,3.55,0,0,1-.8-1.58,4.67,4.67,0,0,1,0-2.07h.13c.32.61.57,1.19.87,1.71a3.59,3.59,0,0,0,1.1,1.32,2.4,2.4,0,0,0,1.56.32,11.46,11.46,0,0,0,1.75-.32Z" transform="translate(-6.28 -18.03)"/><path class="cls-7" d="M183.16,188a3.55,3.55,0,0,0,.8,1.58,17,17,0,0,1-2.33.91,3.07,3.07,0,0,1-2.56-.07,2.5,2.5,0,0,1-.81-1,5.54,5.54,0,0,1-.29-.65c-.07-.24-.17-.47-.23-.72-.27-1-.43-2-.67-3.11a18.67,18.67,0,0,0,6.07,1A4.67,4.67,0,0,0,183.16,188Z" transform="translate(-6.28 -18.03)"/><path class="cls-9" d="M190.9,188.36l-.15.15-.22.17,0,0a1.78,1.78,0,0,1-.27.17,1.75,1.75,0,0,1-.71.23,1.84,1.84,0,0,1-.74-.09l0,0a1.3,1.3,0,0,0,.1-.15l-.28.07a2,2,0,0,1-.42-.25,1.14,1.14,0,0,1-.42-.63,6.88,6.88,0,0,1,0-1.37,2.17,2.17,0,0,0-.34-1.24,1.77,1.77,0,0,0-.26-.35l.07,0c.1.11.19.21.28.33a2.4,2.4,0,0,1,.46,1.29,7,7,0,0,0,0,1.31.82.82,0,0,0,.34.44,1.76,1.76,0,0,0,.55.27,1.5,1.5,0,0,0,.59,0,1.63,1.63,0,0,0,.55-.22,2.81,2.81,0,0,0,.73-.69C190.78,188,190.84,188.17,190.9,188.36Z" transform="translate(-6.28 -18.03)"/><path class="cls-7" d="M188.13,188.67a2,2,0,0,0,.42.25,11.46,11.46,0,0,1-1.75.32,2.4,2.4,0,0,1-1.56-.32,3.59,3.59,0,0,1-1.1-1.32c-.3-.52-.55-1.1-.87-1.71a11,11,0,0,0,3.86-.81,1.77,1.77,0,0,1,.26.35,2.17,2.17,0,0,1,.34,1.24,6.88,6.88,0,0,0,0,1.37A1.14,1.14,0,0,0,188.13,188.67Z" transform="translate(-6.28 -18.03)"/><path class="cls-7" d="M188.55,188.92l.28-.07a1.3,1.3,0,0,1-.1.15Z" transform="translate(-6.28 -18.03)"/><path class="cls-7" d="M192,185.32a6.23,6.23,0,0,1-.46,1.18,9.73,9.73,0,0,1-.65,1.13l-.14.19a2.81,2.81,0,0,1-.73.69,1.63,1.63,0,0,1-.55.22,1.5,1.5,0,0,1-.59,0,1.76,1.76,0,0,1-.55-.27A.82.82,0,0,1,188,188a7,7,0,0,1,0-1.31,2.4,2.4,0,0,0-.46-1.29c-.09-.12-.18-.22-.28-.33a8.87,8.87,0,0,0,2-1.2,9,9,0,0,0,1.22.38,6.92,6.92,0,0,1,1.21.37.61.61,0,0,1,.31.27A.77.77,0,0,1,192,185.32Z" transform="translate(-6.28 -18.03)"/><path class="cls-7" d="M192.4,186.07l-.22.58-.05-.06C192.22,186.42,192.32,186.25,192.4,186.07Z" transform="translate(-6.28 -18.03)"/><path class="cls-9" d="M203.59,184.18a2.44,2.44,0,0,1-.57.88,2.74,2.74,0,0,1-.72.44l.09.25A1.13,1.13,0,0,1,202,187a4.18,4.18,0,0,1-.69.39,11.07,11.07,0,0,1-1.29.46,9.78,9.78,0,0,1-2.71.35,5.49,5.49,0,0,1-1.42-.21,2.5,2.5,0,0,1-1.33-.84l-.09-.11a3.06,3.06,0,0,1-1.45.45l-.32,0a1.63,1.63,0,0,1-.37-.13l-.1-.06-.1-.07-.08-.07h0a.41.41,0,0,1-.1-.09,7.06,7.06,0,0,1-.62.92l-.22.27-.16.16c-.06-.19-.12-.37-.16-.54l.14-.19a9.73,9.73,0,0,0,.65-1.13,6.23,6.23,0,0,0,.46-1.18.77.77,0,0,0,0-.46.61.61,0,0,0-.31-.27,6.92,6.92,0,0,0-1.21-.37,9,9,0,0,1-1.22-.38q.34-.27.69-.6l.47.17,1.6.55a1.27,1.27,0,0,1,.62.65,1.19,1.19,0,0,1,.07.48,1.59,1.59,0,0,1-.06.39l-.21.56,0,0c-.08.18-.18.35-.27.52l.05.06a1,1,0,0,0,.57.35,2.31,2.31,0,0,0,1.47-.38,2.48,2.48,0,0,1-.17-1c0-.33,0-.66,0-1l.66-.23c.09.39.15.78.21,1.17a1.38,1.38,0,0,0,.37.86,2.8,2.8,0,0,0,2,.48,10.93,10.93,0,0,0,3.48-.74,3,3,0,0,0,.4-.2,1.62,1.62,0,0,0-.15-.29c-.1-.14-.22-.29-.35-.44a9.74,9.74,0,0,0-.85-.85c-.3-.28-.62-.54-1-.8l-.51-.4a.41.41,0,0,1-.1-.09l.89-.34.21.11a11,11,0,0,1,1.11.71,8.41,8.41,0,0,1,1.05.86,4.28,4.28,0,0,1,.48.54l.12.16a2,2,0,0,0,.42-.5,1.69,1.69,0,0,0,.16-1.35,4.6,4.6,0,0,0-.85-1.6,7.44,7.44,0,0,0-.85-.93,6.88,6.88,0,0,0-1.26-.92,3.81,3.81,0,0,0-.68-.32,1.89,1.89,0,0,0-.34-.09l-.17,0-.24,0a3.37,3.37,0,0,1-1.8-.8,1.74,1.74,0,0,1-.5-1.2l.23-.11a1.47,1.47,0,0,0,.68.8,3,3,0,0,0,1.47.26h.46a3,3,0,0,1,.52.07,4.34,4.34,0,0,1,.94.32,6.47,6.47,0,0,1,1.59,1.08,6.38,6.38,0,0,1,1.2,1.48,3.92,3.92,0,0,1,.29.58l.12.27a2.76,2.76,0,0,1,.08.27s0,0,0,0a1.8,1.8,0,0,1,.06.22,2.23,2.23,0,0,1,0,.23l0,.26A2.61,2.61,0,0,1,203.59,184.18Z" transform="translate(-6.28 -18.03)"/><path class="cls-7" d="M192,185.32a6.23,6.23,0,0,1-.46,1.18,9.73,9.73,0,0,1-.65,1.13l-.14.19A1.84,1.84,0,0,1,192,185.32Z" transform="translate(-6.28 -18.03)"/><path class="cls-7" d="M194.22,186.62a2.31,2.31,0,0,1-1.47.38,1,1,0,0,1-.57-.35l-.05-.06c.09-.17.19-.34.27-.52l0,0,.21-.56a1.59,1.59,0,0,0,.06-.39c.44-.14.9-.29,1.36-.46,0,.33,0,.66,0,1A2.48,2.48,0,0,0,194.22,186.62Z" transform="translate(-6.28 -18.03)"/><path class="cls-7" d="M201.15,186a3,3,0,0,1-.4.2,10.93,10.93,0,0,1-3.48.74,2.8,2.8,0,0,1-2-.48,1.38,1.38,0,0,1-.37-.86c-.06-.39-.12-.78-.21-1.17,1.2-.42,2.42-.88,3.52-1.3h0a.41.41,0,0,0,.1.09l.51.4c.33.26.65.52,1,.8a9.74,9.74,0,0,1,.85.85c.13.15.25.3.35.44A1.62,1.62,0,0,1,201.15,186Z" transform="translate(-6.28 -18.03)"/><path class="cls-7" d="M202.52,184.64a2,2,0,0,1-.42.5L202,185a4.28,4.28,0,0,0-.48-.54,8.41,8.41,0,0,0-1.05-.86,11,11,0,0,0-1.11-.71l-.21-.11c1.16-.45,2.12-.83,2.7-1.07a4.6,4.6,0,0,1,.85,1.6A1.69,1.69,0,0,1,202.52,184.64Z" transform="translate(-6.28 -18.03)"/><path class="cls-2" d="M6.28,109.35c4.46-4,9-7.87,13.56-11.8S29,89.8,33.55,85.94s9.19-7.67,13.84-11.44,9.26-7.59,13.94-11.31l1-.79,1.11.62,13,7.25-2.3.29,11-10.38,11-10.3q11.09-10.29,22.36-20.37l.13-.11.1,0c3.73-1.9,7.51-3.69,11.26-5.54s7.52-3.68,11.31-5.45c-3.55,2.21-7.15,4.35-10.75,6.48s-7.18,4.31-10.81,6.38l.23-.16Q109.42,41.82,98.6,52.38L87.76,62.91,76.85,73.38l-1,1-1.25-.72-13-7.35,2.1-.17c-4.68,3.72-9.44,7.36-14.17,11S40,84.44,35.24,88.08s-9.55,7.21-14.4,10.73S11.19,105.91,6.28,109.35Z" transform="translate(-6.28 -18.03)"/></svg>