<svg id="Vrstva_1" data-name="Vrstva 1" xmlns="http://www.w3.org/2000/svg" viewBox="0 0 460.83 635.58"><defs><style>.cls-1{fill:#edbf77;}.cls-2{fill:#281b00;}.cls-3{fill:#fff;}.cls-4{fill:#0ce2af;}.cls-5{fill:#684800;}.cls-6{fill:#1d1d1b;}.cls-7{fill:#362b26;}.cls-8{fill:#ffc5df;}.cls-9{fill:none;}</style></defs><path class="cls-1" d="M20.73,606l2,.48c-.35.11-.69.2-1.06.28C21.32,606.48,21,606.21,20.73,606Z"/><path class="cls-1" d="M59.5,606a28.25,28.25,0,0,0,2.33,1.92l-.26.39C60.85,607.52,60.16,606.76,59.5,606Z"/><path class="cls-1" d="M328.9,620.68c0-.15-.06-.3-.09-.46a9.68,9.68,0,0,0,3,.46A10.83,10.83,0,0,1,328.9,620.68Z"/><path class="cls-1" d="M387.34,621a6.15,6.15,0,0,1-.87-.37c.45-.11.91-.24,1.39-.35C387.68,620.53,387.53,620.77,387.34,621Z"/><path class="cls-1" d="M455,599.64a10.51,10.51,0,0,1-2.08,2.44c-.2-.28-.4-.52-.57-.78a23.62,23.62,0,0,0-2.37-2.63,39.26,39.26,0,0,0-5.14-4.23,58.09,58.09,0,0,0-5.46-3.5l-1-.52c-1.41.52-2.87,1.09-4.39,1.67a3.18,3.18,0,0,0,.52.46l2.5,1.94c1.59,1.26,3.18,2.54,4.66,3.91a57,57,0,0,1,4.18,4.2,21.23,21.23,0,0,1,1.69,2.16,6.89,6.89,0,0,1,.72,1.39,15.79,15.79,0,0,1-1.94,1,42.16,42.16,0,0,1-5.5,1.8,54.49,54.49,0,0,1-11.55,1.85c-3.77.18-7.66-.41-9.7-2.35a6.48,6.48,0,0,1-1.83-4.22c-.28-1.93-.59-3.83-1-5.74-1.09.39-2.18.76-3.25,1.13.07,1.61.05,3.24,0,4.85a12,12,0,0,0,.81,4.9c-1.83,1.06-4.7,2.35-7.2,1.85a4.64,4.64,0,0,1-2.79-1.7l-.24-.28c.46-.85.92-1.7,1.33-2.59l.07-.13,1-2.77a8.13,8.13,0,0,0,.3-1.87,5.78,5.78,0,0,0-.34-2.37,6.54,6.54,0,0,0-3-3.2l-7.85-2.69-2.31-.81q-1.67,1.58-3.39,2.92a42.9,42.9,0,0,0,6,1.87,36.09,36.09,0,0,1,5.94,1.8,3.12,3.12,0,0,1,1.55,1.35,3.93,3.93,0,0,1,0,2.24,30.34,30.34,0,0,1-2.29,5.79,39.62,39.62,0,0,1-3.17,5.53c-.22.32-.46.63-.7.93a12.83,12.83,0,0,1-3.59,3.39,7.46,7.46,0,0,1-2.67,1.07,7,7,0,0,1-2.87-.24,9.46,9.46,0,0,1-2.72-1.3,4.14,4.14,0,0,1-1.68-2.18c-.54-1.87,0-4.15-.2-6.42a11.68,11.68,0,0,0-2.26-6.31,14,14,0,0,0-1.35-1.61,2.39,2.39,0,0,1-.32.16,13.1,13.1,0,0,1,1.26,1.74,10.87,10.87,0,0,1,1.67,6.07c.05,2.13-.63,4.26-.13,6.72a5.66,5.66,0,0,0,2.09,3.07,10.67,10.67,0,0,0,2.05,1.26,54,54,0,0,1-8.58,1.54c-3.08.24-5.67-.21-7.67-1.56a18.35,18.35,0,0,1-5.4-6.46c-1.44-2.55-2.68-5.4-4.22-8.38-.22,0-.44,0-.65,0A22.93,22.93,0,0,0,360,616a17.59,17.59,0,0,0,3.92,7.77,85.69,85.69,0,0,1-11.4,4.46c-4.74,1.43-9.53,1.74-12.57-.37a12.09,12.09,0,0,1-4-4.68,30.68,30.68,0,0,1-1.44-3.22c-.35-1.17-.83-2.31-1.11-3.52-1.35-4.81-2.13-9.95-3.31-15.23a.12.12,0,0,1-.08,0,45,45,0,0,0-1.66,16.19,24.45,24.45,0,0,0,.39,2.91,10.24,10.24,0,0,1-3.17-1.58,14.28,14.28,0,0,1-4.16-4.85,31.92,31.92,0,0,1-3.41-12.41c-.18-1.61-.26-3.22-.31-4.85-1.43-.63-2.72-1.22-3.78-1.72v0c-.11-1.15-.18-2.33-.22-3.5s-.07-2.28-.07-3.44c0-4.48.31-8.94.74-13.36.24-2.26.42-4.54.72-6.78l1-6.68c.24-1.57.48-3.16.74-4.72-2.55,2.06-5.11,4.11-7.83,5.94a131.77,131.77,0,0,1-13.14,8.07,115.46,115.46,0,0,1-28.94,11.16c-20.27,4.94-42,3.57-61.83-3a152.38,152.38,0,0,1-28.34-12.91q-3.21-1.89-6.34-3.91v.13a22.71,22.71,0,0,1-.3,3.28c-1.78.46-3.52.85-5.24,1.22l-.33.68a66.37,66.37,0,0,0-2.61,6.15c-.37,1.07-.72,2.16-1,3.25l-.44,1.63a2.42,2.42,0,0,1-.22.69l-.19.55a5.7,5.7,0,0,1-2.44,3.39,10.89,10.89,0,0,1-4.79,1.63,49.68,49.68,0,0,1-9.15,0c.23-.44.45-.87.67-1.33a18.35,18.35,0,0,0,1.26-7.25,22.89,22.89,0,0,0-1.3-6.65c-1.79.11-3.49.15-5.14.17.05.31.07.59.11.89a33.19,33.19,0,0,1,.15,5.51,17,17,0,0,1-1.11,4.83,12,12,0,0,1-2.52,3.8,6.79,6.79,0,0,1-3.81,1.81c-2.59.41-5.72-.28-9-1.3.61-.61,1.15-1.27,1.7-1.9l.34-.41.09-.35c.39-1.67.68-3.26.91-4.89a35.46,35.46,0,0,0,.24-4.94,22.42,22.42,0,0,0-.41-3.81l-2-.26a24.08,24.08,0,0,1-.48,3.87c-.26,1.5-.56,3-1,4.46-.33,1.31-.7,2.66-1.11,3.9a22.26,22.26,0,0,1-5.27,4.19,6.11,6.11,0,0,1-5.72.48,14.63,14.63,0,0,1-5.18-4.67c-.67-.94-1.33-1.92-2-2.94-.24,1.06-.45,2.11-.65,3.11-.11-.33-.24-.65-.35-1-1,3.13-2,6.24-3,9.46a75.2,75.2,0,0,1-5.64,12.62,46.07,46.07,0,0,1-3.19,4.77c-1.37-.31-2.7-.61-4-.94a20.59,20.59,0,0,1-3.94,4.18A13.48,13.48,0,0,1,77,612.39a14.09,14.09,0,0,1-6.16-.08,25,25,0,0,1-9-4.44A23.34,23.34,0,0,0,64.75,601c.1-.45.21-.93.28-1.39-1.57-.5-3.09-1-4.57-1.54-.17.43-.35.87-.54,1.28-2.07,4.57-5.09,8.2-9.18,9.72s-9.16,1.44-14.23.59c-4.53-.74-9.07-2-13.82-3.22A21.29,21.29,0,0,0,27.85,604a56.11,56.11,0,0,0,14-13.71,4,4,0,0,1-.52-.24c-1.26,1.44-2.57,2.81-3.92,4.16A48.63,48.63,0,0,1,27,602.54c-3.79,2.13-8.38,3.26-11.92,1.24a13.89,13.89,0,0,1-6.44-10c-.57-4,.69-8.24,2.76-11.94a36.87,36.87,0,0,1,6.22-8c-1-1-2-2-2.89-3,.65-.7,1.33-1.37,2-2a54.11,54.11,0,0,1,24.71-13.4c1.14-.31,2.4-.46,3.48-.7a4.85,4.85,0,0,0,1.9-.87,13.73,13.73,0,0,0,3.24-4.5,54.93,54.93,0,0,0,3.83-12.27,202.66,202.66,0,0,0,3.22-26.55c1.19-17.94,1.3-36,1.06-54.08s-.78-36.16-1.48-54.26l-1-27.17c-.28-9.1-.54-18.23.33-27.5a62.65,62.65,0,0,1,1-7,59.75,59.75,0,0,1,1.92-6.78,69.47,69.47,0,0,0,3.19-12.8c1.4-8.48-1.17-17.23-3.17-26.1a70.33,70.33,0,0,1-1.81-13.73,40.84,40.84,0,0,1,2.18-13.71A35.28,35.28,0,0,1,62.05,261a15.73,15.73,0,0,1,2-2.91,5.94,5.94,0,0,1,3-2.07,4.14,4.14,0,0,1,3.53.91,10.38,10.38,0,0,1,2.28,2.64,1.08,1.08,0,0,1,.15.28,46.42,46.42,0,0,1,2-17.08c-5.07-4.79-8.44-9.44-9.9-13.47A72.73,72.73,0,0,1,61,212.87l-.24.55a6.74,6.74,0,0,1-3.52,3.35,6.83,6.83,0,0,1-7.92-2.42,5.42,5.42,0,0,1-.57-.87l-.26-.43-.11-.26-.47-1-1-1.94L45,206l-7.53-15.55c-5.64-11.8-11.25-23.61-16.62-35.53H399q-3.5,10-7.05,19.95L386,191.18l-1.5,4.07-.74,2.05-.39,1-.09.26-.2.46a7,7,0,0,1-.5.93,6.84,6.84,0,0,1-7.61,3.29,4.51,4.51,0,0,1-.87-.31,117.93,117.93,0,0,1-7.2,16c-.26.5-.55,1-.83,1.48a47.45,47.45,0,0,1,1.18,15.64,2.11,2.11,0,0,1-.05.35,5.28,5.28,0,0,1,1.59-1.79c1.59-1.22,4.11-1,5.79,0a11.3,11.3,0,0,1,3.94,4,12.41,12.41,0,0,1,1.19,2.43,18.34,18.34,0,0,1,.85,2.53,32.53,32.53,0,0,1,1,10.31,40.92,40.92,0,0,1-2.18,10c-.34,1-.74,2.07-1.17,3.07,6.57,4.7,11.7,11.33,15.69,18.38a94.7,94.7,0,0,1,9.31,25c3.72,17.51,3.54,35.54,1.43,53.19-.65,5.35-1.5,10.68-2.59,16a45.46,45.46,0,0,1,5.68,9.77,77.46,77.46,0,0,1,4.64,13.77,96,96,0,0,1,2.3,14.29c.18,2.39.22,4.83.24,7.24-.09,2.25-.15,4.49-.46,6.75a1.83,1.83,0,0,1,.33,0,36.84,36.84,0,0,1,10.44,1.43c.87.26,1.66.44,2.59.76a9.61,9.61,0,0,1,2.63,1.57,20.6,20.6,0,0,1,3.68,4.24,56.25,56.25,0,0,1,5,9.47c5.27,13.07,7.9,26.89,9.25,40.77,1.11,13.92.87,28.08-2.5,41.94a61.61,61.61,0,0,1-8.38,19.82,37.36,37.36,0,0,1-7.42,8.22,32.65,32.65,0,0,1-6,3.79c-.37.2-.76.37-1.13.54a8.51,8.51,0,0,0,2.48,5.88,16,16,0,0,0,8.81,3.91l1.17.2.85.15a9.17,9.17,0,0,1,1.68.48,19.74,19.74,0,0,1,3.33,1.52,35.15,35.15,0,0,1,6.15,4.55,36.84,36.84,0,0,1,4.18,4.57,22,22,0,0,1,4.16,7.81A8.34,8.34,0,0,1,455,599.64Z"/><path class="cls-1" d="M113.28,37.76s-66.74,48.42-38.36,106c24.12,49-24.49,35-6.62,84.26,10.55,29.06,136.91,96.2,252.74-3.71,53.11-45.81,29.2-148.1-35.53-194.65C231.39-9.25,147.3-2.87,113.28,37.76Z"/><path class="cls-2" d="M350.18,151.57c-1.24-2.35-2.5-4.75-3.79-7.18.13,1.59.22,3.13.29,4.7.06,1.76.1,3.5.1,5.24v.61h3.44C350.22,153.83,350.2,152.7,350.18,151.57ZM143.35,19.27a8,8,0,0,0-1.11.44,9.15,9.15,0,0,0-1.81,1.19c1.33-.71,2.7-1.39,4.09-2l-.21.07Zm-60.16,140a42.55,42.55,0,0,0,.11,12.29,32.79,32.79,0,0,0,0-13.3C83.3,158.55,83.24,158.9,83.19,159.23Zm-1.76-8.49s0,0,0,0c-.61-1.87-1.35-3.83-2.24-5.94-.61,1.46-1.22,2.94-1.78,4.39v0q1.31,3,2.17,5.74h3.07c-.22-.85-.46-1.7-.72-2.59C81.78,151.83,81.61,151.28,81.43,150.74Zm272.1-2v-.15c-2-46.64-27.89-94.48-66.09-122a139.89,139.89,0,0,0-43.1-20.56l-.65-.2h0c-.21-.06-.41-.1-.63-.17A158.88,158.88,0,0,0,191.67.26,144.15,144.15,0,0,0,158.21,6l-1.94.59h0c-.72.21-1.39.45-2.09.69-17.79,6-32.74,15.45-43.12,27.7A138.77,138.77,0,0,0,80,65.42c-18.54,25.47-21.84,52.1-9.57,77a80.69,80.69,0,0,1,4.85,11.92c.06.22.13.41.17.61a40.61,40.61,0,0,1,1.42,7c1,9.45-2.83,14.95-7,21-1.13,1.63-2.26,3.3-3.35,5.07,0,0,0,0,0,0a36.81,36.81,0,0,0-5.37,13.73s0,0,0,0a41.29,41.29,0,0,0-.2,11v0a72.73,72.73,0,0,0,4.11,16.47c1.46,4,4.83,8.68,9.9,13.47.22.24.44.43.66.63,11.79,11,32.17,22.69,58.41,30.09a194.56,194.56,0,0,0,44.47,7.13c39.83,1.77,92.11-8.18,144.67-53.51,17.06-14.71,27.37-36,29.85-61,.26-2.67.44-5.37.52-8.13.05-1,.07-2,.07-3.07C353.66,152.92,353.62,150.85,353.53,148.78ZM135.82,266.5c-37.92-10.7-60.78-30-64.31-39.77-8-22.08-2.2-30.56,4-39.53,2.76-4,5.55-8.07,7.16-13.14A9,9,0,0,0,83,173a12,12,0,0,0,.34-1.43,32.79,32.79,0,0,0,0-13.3,5.07,5.07,0,0,0-.09-.54c-.15-.8-.35-1.65-.54-2.5a2.17,2.17,0,0,1-.07-.24c-.22-.85-.46-1.7-.72-2.59-.15-.52-.32-1.07-.5-1.61,0,0,0,0,0,0-.61-1.87-1.35-3.83-2.24-5.94C78.43,143,77.54,141,76.56,139c-11.07-22.46-8.12-45.69,8.81-69a133.14,133.14,0,0,1,29.74-29.18l.41-.26.33-.39A80.31,80.31,0,0,1,140.43,20.9c1.33-.71,2.7-1.39,4.09-2a99.38,99.38,0,0,1,9.6-3.92c2.22-.8,4.48-1.52,6.79-2.19h0c1-.31,2.09-.59,3.15-.87a146.19,146.19,0,0,1,43-4.31c24.15,1,48.69,7.72,69.12,20.19,1.78,1.09,3.54,2.22,5.26,3.44a0,0,0,0,1,0,0c.72.43,1.42.93,2.13,1.45,1.44,1,2.83,2.09,4.23,3.18,29.74,23.17,50.95,59.37,57.13,96.51v0c.67,4,1.15,8,1.45,12v0c.13,1.59.22,3.13.29,4.7.06,1.76.1,3.5.1,5.24v.61c-.21,27.63-10,51.12-27.91,66.57C245.43,284.86,172.65,276.88,135.82,266.5ZM144.31,19l-1,.32a8,8,0,0,0-1.11.44,9.15,9.15,0,0,0-1.81,1.19c1.33-.71,2.7-1.39,4.09-2Z"/><ellipse class="cls-3" cx="122.3" cy="163.46" rx="40.36" ry="42.76"/><ellipse cx="129.31" cy="161.56" rx="31.2" ry="33.05"/><path class="cls-4" d="M165.28,158.92c-.05-.5-.07-1-.11-1.46s-.09-.85-.15-1.26-.13-.85-.2-1.26c-.09-.61-.22-1.24-.35-1.85-3.22-15.1-14.33-26.19-27.67-29.52h0a34.62,34.62,0,0,0-16.69-.09,37,37,0,0,0-3.87,1.18c-13,4.69-22.1,16.53-24.41,30.28a40.6,40.6,0,0,0,.33,15.55c4.41,20.67,23.56,33.83,43.05,29.92l1.33-.28.24-.07h0c.59-.15,1.17-.3,1.74-.48a35.65,35.65,0,0,0,8.72-4,34.91,34.91,0,0,0,5.46-4.2l.66-.61.84-.85c.4-.41.79-.85,1.18-1.28a40.66,40.66,0,0,0,9.81-22.84,5.93,5.93,0,0,0,.07-.83c0-.52.06-1.05.08-1.57A37.21,37.21,0,0,0,165.28,158.92Zm-61.66,8.81a28.26,28.26,0,0,1,.22-12.79c2.35-9.33,9.38-17,18.86-19.28,13.3-3.22,26.61,5.4,30.07,19.28.09.3.15.63.22.93,3.09,14.41-5.49,28.79-19.08,32.07S106.71,182.16,103.62,167.73Z"/><path class="cls-2" d="M165.28,158.92c-.05-.5-.07-1-.11-1.46s-.09-.85-.15-1.26-.09-.85-.16-1.26a47.22,47.22,0,0,0-.93-4.68,45.38,45.38,0,0,0-7.64-16.12,43.53,43.53,0,0,0-13.14-11.66,41.16,41.16,0,0,0-7.94-3.48,40.21,40.21,0,0,0-8.46-1.72,39.08,39.08,0,0,0-10.36.39,3.1,3.1,0,0,1-.5.09,40.42,40.42,0,0,0-6,1.61,41.4,41.4,0,0,0-14.62,8.88l-.11.1a44.6,44.6,0,0,0-9.92,13.91,47.2,47.2,0,0,0-3.27,10.09c-.17.87-.32,1.72-.43,2.59-.2,1.33-.33,2.7-.42,4.05l-.06,1.3v0c0,1,0,1.92,0,2.87a43.09,43.09,0,0,0,.63,6.51,42.47,42.47,0,0,0,1,4.37c.15.61.33,1.2.52,1.81a45.84,45.84,0,0,0,7.75,14.68A39.63,39.63,0,0,0,96.16,196c.35.34.7.63,1.07.93a23.06,23.06,0,0,0,2.24,1.76,1.25,1.25,0,0,0,.24.16c-.52-.4-1-.79-1.57-1.2s-1-.87-1.54-1.31a40.7,40.7,0,0,1-5.51-6,42.3,42.3,0,0,1-7-14.82c-.33-1.32-.59-2.67-.79-4a42.55,42.55,0,0,1-.11-12.29c0-.33.11-.68.16-1s.15-.93.26-1.39c.11-.63.26-1.26.41-1.89a43,43,0,0,1,4.33-10.88c.39-.67.78-1.35,1.22-2a39.16,39.16,0,0,1,8.81-9.7,37.71,37.71,0,0,1,13.23-6.73,33.44,33.44,0,0,1,4.61-1,36.37,36.37,0,0,1,9.83-.09,35.84,35.84,0,0,1,7.07,1.61,35.25,35.25,0,0,1,6.64,3,35.73,35.73,0,0,1,6.26,4.48l0,0a39.78,39.78,0,0,1,4.87,5.09A42.59,42.59,0,0,1,158,152.15q.42,1.38.78,2.79a43.51,43.51,0,0,1,1.18,12.6c0,.1,0,.21,0,.32V168a42.91,42.91,0,0,1-3.7,14.9,40.14,40.14,0,0,1-4,7c-.28.43-.61.87-.93,1.28s-.74.94-1.14,1.37a30.85,30.85,0,0,1-2.87,3.07l-.15.15a37.51,37.51,0,0,1-12.94,8c-.16.06-.29.13-.44.17l-1,.33h0c-.43.13-.85.28-1.3.39a36.22,36.22,0,0,1-13.23,1.24,39.57,39.57,0,0,1-7.46-1.48c-.74-.24-1.46-.48-2.18-.76l-.17-.07c0,.05.08.05.13.07a6.34,6.34,0,0,0,.89.32c.35.16.72.27,1.07.4.88.28,1.76.53,2.65.75a38.32,38.32,0,0,0,5.05,1,39.5,39.5,0,0,0,12.46-.41c.39-.07.76-.16,1.16-.24s.76-.18,1.15-.29a7.53,7.53,0,0,0,1-.26,42.15,42.15,0,0,0,21.67-14.68c.31-.39.61-.78.89-1.18s.55-.74.81-1.13c.72-1.06,1.41-2.15,2-3.28A46.18,46.18,0,0,0,165,168.08c.11-.76.2-1.52.24-2.28a5.93,5.93,0,0,0,.07-.83c0-.52.06-1.05.08-1.57A37.21,37.21,0,0,0,165.28,158.92Zm-64,41.05c-.55-.34-1.09-.71-1.61-1.08.3.23.63.45,1,.67A4.53,4.53,0,0,0,101.32,200Z"/><ellipse class="cls-3" cx="135.34" cy="175.2" rx="4.64" ry="4.92"/><ellipse class="cls-3" cx="141.42" cy="154.93" rx="5.52" ry="9.7" transform="translate(-7.84 7.54) rotate(-2.97)"/><ellipse class="cls-3" cx="242.28" cy="151.15" rx="50.53" ry="53.54"/><ellipse cx="251.06" cy="148.76" rx="39.06" ry="41.38"/><path class="cls-4" d="M293.9,138.47a47.14,47.14,0,0,0-24-32.18.07.07,0,0,0-.06,0,42.5,42.5,0,0,0-23-4.76,40.61,40.61,0,0,0-6.74,1c-22.72,5.48-37.51,28.39-34.66,52.39.17,1.54.44,3.07.76,4.61,5.48,25.61,29.61,41.71,53.78,35.9a43.82,43.82,0,0,0,19.76-10.71,46.52,46.52,0,0,0,7.18-8.55,0,0,0,0,0,0,0,49.92,49.92,0,0,0,6.94-37.7Zm-76.19,18.32c-.13-.61-.24-1.24-.35-1.85-3-18.28,8.12-36,25.37-40.2,17.82-4.29,35.63,7.59,39.68,26.49a36.91,36.91,0,0,1,.35,13.71c-2.22,13.57-11.92,25.08-25.35,28.33C239.57,187.55,221.76,175.67,217.71,156.79Z"/><path class="cls-2" d="M293.68,134.86A56.84,56.84,0,0,0,284.17,115a52.33,52.33,0,0,0-26-18.65,51.14,51.14,0,0,0-10.42-2.13,49.79,49.79,0,0,0-20.87,2.48,52.29,52.29,0,0,0-18.12,10.86,55.1,55.1,0,0,0-12.55,17.25A57.74,57.74,0,0,0,191,145.58a54.12,54.12,0,0,0,.15,9.36,55.49,55.49,0,0,0,2.31,11.7A56.56,56.56,0,0,0,203,185s0,0,0,0c.29.35.55.68.83,1s.57.7.85,1a45.5,45.5,0,0,0,3.57,3.64,6.53,6.53,0,0,0,.61.56c.34.33.71.66,1.08,1a.45.45,0,0,1,.13.11l.42.33c.22.19.43.39.67.56l-1.72-1.5c-.66-.59-1.29-1.19-1.91-1.81a.94.94,0,0,0-.1-.1l-.07-.09c-.81-.83-1.59-1.72-2.35-2.61-.29-.33-.57-.68-.83-1s-.54-.66-.78-1a1.74,1.74,0,0,1-.22-.27,53.59,53.59,0,0,1-10.53-29.93,55.76,55.76,0,0,1,.41-9.14,53.86,53.86,0,0,1,6.31-19.19A49.15,49.15,0,0,1,228.7,103a46.12,46.12,0,0,1,18.16-1.48l.22,0a46.51,46.51,0,0,1,17.49,5.85,49.32,49.32,0,0,1,14.08,12.1l0,0,.13.15a53.85,53.85,0,0,1,11.29,30.79.09.09,0,0,1,0,.1,35.89,35.89,0,0,1,0,4.4,53.43,53.43,0,0,1-4.92,20.71,52,52,0,0,1-5.41,9.09,47.47,47.47,0,0,1-6.25,7,48.74,48.74,0,0,1-16.88,10.16,46.32,46.32,0,0,1-19.47,2.35c-.76-.09-1.55-.17-2.31-.28l-1-.18h0c-.35,0-.67-.1-1-.17a48.86,48.86,0,0,1-5.42-1.37,47.63,47.63,0,0,1-6.91-2.85c.21.13.45.24.67.35.48.24,1,.48,1.46.69s1,.44,1.48.63l1.48.59c.5.2,1,.37,1.5.52s1,.33,1.48.48a43.58,43.58,0,0,0,4.39,1.16,9.23,9.23,0,0,0,1,.19l1,.18c.72.13,1.44.23,2.15.32a49.54,49.54,0,0,0,19.8-1.61,50.67,50.67,0,0,0,18-9.37,54.6,54.6,0,0,0,13.47-16.08,57.68,57.68,0,0,0,6.72-20.6c.09-.66.15-1.29.2-1.94A58.86,58.86,0,0,0,293.68,134.86Zm-73.9,64.2.74.37c-.77-.37-1.51-.76-2.22-1.18C218.78,198.54,219.28,198.82,219.78,199.06Zm-6.05-3.74c.35.24.69.5,1.06.74s.68.45,1,.67a54.25,54.25,0,0,1-4.64-3.46c.37.33.74.66,1.11,1S213.25,195,213.73,195.32Z"/><ellipse class="cls-3" cx="258.62" cy="165.85" rx="5.81" ry="6.16"/><ellipse class="cls-3" cx="266.23" cy="140.47" rx="6.91" ry="12.14" transform="translate(-6.93 13.99) rotate(-2.97)"/><ellipse class="cls-5" cx="181.91" cy="215.49" rx="54.57" ry="31.04" transform="translate(-13.62 12.28) rotate(-3.73)"/><path class="cls-6" d="M204.2,186.14c.26.34.54.69.83,1,13,2.91,23.19,8.85,27.82,16.49.33.07.65.13,1,.17C229.17,195.51,218.23,189.12,204.2,186.14Zm32.94,25.93a19.65,19.65,0,0,0-2.18-7.85c0-.05,0-.07,0-.09a.16.16,0,0,0-.07-.13c-2.76-5.29-8-9.94-15.31-13.56a66.32,66.32,0,0,0-16.12-5.3,1.94,1.94,0,0,0-.2,0l-.2,0a89.66,89.66,0,0,0-22.86-1.39,91.71,91.71,0,0,0-22.8,4.26c-.68.22-1.33.46-2,.7-.22.06-.39.13-.59.19l0,0c-.87.32-1.74.65-2.59,1a64.46,64.46,0,0,0-10.4,5.39,45.15,45.15,0,0,0-6.59,5.16,32.28,32.28,0,0,0-3.76,4.22,3.88,3.88,0,0,0-.4.56,4.48,4.48,0,0,0-.39.53,21.26,21.26,0,0,0-4,13.18c.48,8.59,6.75,16.27,17.62,21.63s24.7,7.68,39.38,6.76a94.83,94.83,0,0,0,16.23-2.39A72.07,72.07,0,0,0,222,235.72C232.24,229.06,237.62,220.66,237.14,212.07Zm-15.91,22.26c-9.87,6.41-23.23,10.44-37.66,11.33-29.6,1.85-54.45-10.2-55.36-26.85-.26-4.76,1.45-9.39,4.74-13.62l.54-.67.66-.78a37.84,37.84,0,0,1,4.37-4.16,53.22,53.22,0,0,1,11.59-7.07c.85-.39,1.7-.76,2.59-1.13a1.19,1.19,0,0,0,.26-.11c.9-.35,1.79-.7,2.7-1a83.43,83.43,0,0,1,8.62-2.57,92,92,0,0,1,16-2.37,88.18,88.18,0,0,1,24.45,1.78c.06,0,.09,0,.15,0h0l.16,0c13,2.91,23.19,8.85,27.82,16.49a.24.24,0,0,1,.09.11.11.11,0,0,1,0,.09,17.82,17.82,0,0,1,2.63,8.31C236.05,220.12,230.94,228,221.23,234.33Z"/><ellipse class="cls-2" cx="179.76" cy="195.77" rx="18.88" ry="9.07" transform="translate(-21.81 22.54) rotate(-6.76)"/><ellipse class="cls-3" cx="179.24" cy="190.69" rx="6.26" ry="3.01" transform="translate(-21.21 22.44) rotate(-6.76)"/><path d="M199.28,193.53c-.28-2.76-2.65-5-6.68-6.44a32.16,32.16,0,0,0-13.83-1.15,32.59,32.59,0,0,0-13.32,4.26c-3.63,2.29-5.48,5.05-5.2,7.82.57,5.5,9.58,8.85,20.52,7.59a45.93,45.93,0,0,0,4.72-.83,28.89,28.89,0,0,0,8.57-3.46c3.42-2.13,5.24-4.68,5.24-7.24A5.06,5.06,0,0,0,199.28,193.53Zm-6,6.4a31.33,31.33,0,0,1-12.69,4c-9.74,1.13-18.36-1.7-18.81-6.14-.22-2,1.41-4.33,4.46-6.22a26.9,26.9,0,0,1,8.13-3.26,36.26,36.26,0,0,1,4.55-.81,30.66,30.66,0,0,1,13.2,1.09c3.38,1.17,5.42,3,5.64,5.07S196.35,198,193.28,199.93Z"/><path d="M134.07,218.4a14.88,14.88,0,0,1,1.44-2.47,11.36,11.36,0,0,1,1.93-2.11A7.7,7.7,0,0,1,140,212.4a6.26,6.26,0,0,1,2.92-.11l.14,0,.15.17a25.26,25.26,0,0,0,7,5.89,17.43,17.43,0,0,0,8.44,2.35,17.64,17.64,0,0,0,8.41-2.14,31.84,31.84,0,0,0,7.27-5.38l.78-.76.86.72a24.38,24.38,0,0,0,2.15,1.58c.76.5,1.54,1,2.33,1.39a30.68,30.68,0,0,0,4.94,2.13,21.65,21.65,0,0,0,5.19,1,19,19,0,0,0,5.21-.38,18.72,18.72,0,0,0,2.53-.73l1.22-.52c.41-.16.79-.4,1.19-.6a23.15,23.15,0,0,0,4.4-3.15,38.79,38.79,0,0,0,7-8.72l.19-.31.29-.05a15.52,15.52,0,0,1,2.23-.2,14.73,14.73,0,0,1,2.2.1,13.2,13.2,0,0,1,4.25,1.18,9.57,9.57,0,0,1,3.47,2.81,10.73,10.73,0,0,1,1.88,4.07,10.86,10.86,0,0,0-2.23-3.74,9,9,0,0,0-3.44-2.3,12.25,12.25,0,0,0-4-.77,16.47,16.47,0,0,0-4.05.37l.48-.36a37.78,37.78,0,0,1-7,9.54,27.78,27.78,0,0,1-2.23,2c-.38.31-.81.57-1.21.85l-.62.42-.64.37c-.44.24-.85.51-1.31.72l-1.35.61a21.07,21.07,0,0,1-2.82.91,21.63,21.63,0,0,1-11.62-.53,28.44,28.44,0,0,1-5.39-2.29,28,28,0,0,1-2.51-1.53,26,26,0,0,1-2.41-1.8l1.64,0a31.39,31.39,0,0,1-7.94,5.68,21,21,0,0,1-4.61,1.65,16.71,16.71,0,0,1-4.88.44,18.78,18.78,0,0,1-9.18-3,25.88,25.88,0,0,1-3.82-3,24.48,24.48,0,0,1-3.2-3.73l.29.21a5.32,5.32,0,0,0-2.48-.11,7.27,7.27,0,0,0-2.37,1.06,12.49,12.49,0,0,0-2,1.83A14.51,14.51,0,0,0,134.07,218.4Z"/><ellipse cx="156.3" cy="208.91" rx="3.81" ry="4.03"/><ellipse cx="198.94" cy="204.95" rx="2.39" ry="2.53"/><ellipse cx="163.23" cy="212.59" rx="1.11" ry="1.18"/><ellipse cx="188.94" cy="211.45" rx="1.06" ry="1.12"/><path class="cls-2" d="M161.26,183.1A34.67,34.67,0,0,1,170,179a40.09,40.09,0,0,1,9.44-1.93,35.52,35.52,0,0,1,4.84-.07,29.87,29.87,0,0,1,4.79.6,27,27,0,0,1,9,3.47,49.8,49.8,0,0,0-18.47-1.83,70.48,70.48,0,0,0-9.2,1.39C167.32,181.27,164.29,182.09,161.26,183.1Z"/><path class="cls-2" d="M164.84,175.14a25.84,25.84,0,0,1,7-3.59,29.94,29.94,0,0,1,7.71-1.57,26,26,0,0,1,7.86.65,20.75,20.75,0,0,1,7.19,3.23,45.64,45.64,0,0,0-7.46-1.55,41.32,41.32,0,0,0-7.46-.16,54,54,0,0,0-7.43,1C169.79,173.71,167.33,174.36,164.84,175.14Z"/><path class="cls-2" d="M169.2,167.81a18.75,18.75,0,0,1,5.29-2.87,23.07,23.07,0,0,1,5.87-1.28,19.31,19.31,0,0,1,6,.42c.49.12,1,.25,1.46.39l1.41.56.69.31c.22.12.44.24.66.38.44.26.87.52,1.28.81-.5-.07-1-.15-1.46-.24-.24,0-.48-.1-.71-.15l-.73-.08-1.41-.2c-.48,0-.95-.05-1.42-.09a36.49,36.49,0,0,0-5.63.06c-1.87.15-3.74.41-5.62.75S171.14,167.36,169.2,167.81Z"/><path class="cls-2" d="M172.11,160.05a12.37,12.37,0,0,1,3.86-2.34,15.89,15.89,0,0,1,4.37-1,13.36,13.36,0,0,1,4.49.37q.54.15,1.08.33c.35.14.7.3,1,.46l.51.26.48.31c.32.22.63.43.92.67-1.5-.11-2.87-.34-4.26-.34a35.2,35.2,0,0,0-4.11.11c-1.36.11-2.73.28-4.12.49Z"/><path class="cls-6" d="M214.42,99.8a173.63,173.63,0,0,1,9.18-32.69,79.94,79.94,0,0,1,7.86-15.3,29.76,29.76,0,0,1,6.08-6.66,13.85,13.85,0,0,1,4.34-2.3,10.52,10.52,0,0,1,5.16-.21,20.48,20.48,0,0,1,8.25,4.15,47.68,47.68,0,0,1,6.22,6.07,99,99,0,0,1,9.9,13.81,166.45,166.45,0,0,1,7.92,14.93,145.32,145.32,0,0,1,6.34,15.69c-6-9.42-11.79-18.87-18.11-27.8a137.44,137.44,0,0,0-9.95-12.73,49.8,49.8,0,0,0-5.6-5.32,15.49,15.49,0,0,0-6-3.27,5.33,5.33,0,0,0-2.75.06,8.76,8.76,0,0,0-2.82,1.38,24.37,24.37,0,0,0-5.18,5.29,87,87,0,0,0-8.2,13.94A317.44,317.44,0,0,0,214.42,99.8Z"/><path class="cls-6" d="M115.85,120.67a179,179,0,0,1,3-31.36A96,96,0,0,1,123,73.89a40.94,40.94,0,0,1,3.69-7.41,20.54,20.54,0,0,1,2.79-3.41,11.63,11.63,0,0,1,4-2.58,10.79,10.79,0,0,1,9.29,1.37,21.88,21.88,0,0,1,6.11,6,51.74,51.74,0,0,1,4.18,7c1.17,2.42,2.18,4.89,3.12,7.37s1.72,5,2.46,7.55,1.37,5.09,1.92,7.67a107.92,107.92,0,0,1,2.36,15.61c-3.58-9.82-6.95-19.59-11.13-28.81-1-2.3-2.14-4.55-3.34-6.71a46.51,46.51,0,0,0-3.84-6.14A20.28,20.28,0,0,0,140,66.78a5.66,5.66,0,0,0-4.87-1,9.79,9.79,0,0,0-4.42,3.79,35.28,35.28,0,0,0-3.43,6.29,101,101,0,0,0-4.87,14.36C119.69,100.16,117.7,110.38,115.85,120.67Z"/><path class="cls-7" d="M172.1,5.4l-33,2.45A16.19,16.19,0,0,0,125,8.67L13.65,72.31C6.52,76.39,2.14,84.62,2.59,93.94c.3,6.22,1.94,14.35,6,24.86,11,28.21,34.46,75.26,43.13,92.37,1.35,2.67,4.72,2.77,5.72.18,12.74-33,72-185,85.83-190.07C158.78,15.57,172.1,5.4,172.1,5.4Z"/><path d="M171.65,5.2l-.17.1.15,0s0,0,0,0a.11.11,0,0,0,0-.07S171.67,5.2,171.65,5.2Zm0,.08a.44.44,0,0,0,0,.16.43.43,0,0,0,.07.1l-.72.07-.87.56L168.8,7l0,0-.41.26c-1.2.72-2.4,1.42-3.59,2.11-2.4,1.38-4.83,2.7-7.29,3.94-1.13.57-2.24,1.11-3.37,1.63-1.35.64-2.72,1.24-4.09,1.81s-2.53,1-3.81,1.5c-.57.22-1.13.41-1.7.61l-.21.07-1,.32a8,8,0,0,0-1.11.44,9.15,9.15,0,0,0-1.81,1.19,19.87,19.87,0,0,0-2,2c-1,1.16-1.89,2.33-2.76,3.53-1.7,2.39-3.26,4.85-4.77,7.33-3,5-5.74,10.05-8.41,15.16C117.11,59.15,112.15,69.57,107.28,80s-9.51,21-14.12,31.59q-7.16,16.52-14,33.18c-.61,1.46-1.22,2.94-1.78,4.39v0c-.72,1.71-1.42,3.41-2.09,5.13-.09.2-.17.41-.24.61-2.79,6.9-5.48,13.79-8.16,20.73-4.2,10.75-8.27,21.56-12.31,32.37l-.11.27.41.76.09.21s-.2-.06-.48,0a1.36,1.36,0,0,0-.56.48l.54-1.45-.09-.18-1-1.91-2-3.81-7.81-15.34c-5.15-10.22-10.24-20.49-15.18-30.85-.2-.43-.42-.85-.61-1.28C23.13,145,18.49,135,14.21,125c-1.13-2.63-2.2-5.29-3.27-7.92S9,111.78,8.16,109.1a62.69,62.69,0,0,1-3-16.25,21.45,21.45,0,0,1,4.8-14.23A20.49,20.49,0,0,1,12.6,76a27.22,27.22,0,0,1,3.22-2.11L23,69.7,80.63,35.94,109.41,19l14.4-8.46L125.6,9.5a15,15,0,0,1,1.76-.84,13.59,13.59,0,0,1,3.74-1,16.09,16.09,0,0,1,7.72,1l.18.06.15,0c5-.44,10-.92,15-1.44.37,0,.74-.06,1.11-.11,5.16-.52,10.42-1.06,15.73-1.54l.24-.15.2-.13,0,0c-4.37.27-8.79.46-13.27.68-.74,0-1.5.06-2.26.11-5.57.26-11.17.56-16.76.91a17.68,17.68,0,0,0-8.26-1.22,16.92,16.92,0,0,0-4.25,1,19,19,0,0,0-2,.94l-1.83,1-14.57,8.09L79.13,33,20.84,65.44l-7.26,4.09a27.22,27.22,0,0,0-3.81,2.41,23.3,23.3,0,0,0-3.42,3.24A26.85,26.85,0,0,0,0,92.89c.28,12.51,4.66,23.82,9,34.51,3.79,9.29,7.79,18.45,11.93,27.54,5.37,11.92,11,23.73,16.62,35.53L45,206l1.89,3.87,1,1.94.47,1,.11.26.26.43a5.42,5.42,0,0,0,.57.87,6.83,6.83,0,0,0,7.92,2.42,6.74,6.74,0,0,0,3.52-3.35l.24-.55v0l.11-.22.2-.5.41-1L64.57,204l0,0,4.9-12.18,0,0,5.09-12.62L81,163.18l.35-.91v0l.61-1.48v0l1.26-3.07.35-.85.76-1.89,5.2-12.88,3.09-7.61,2.46-6.1,5.37-13.29c8.68-21.3,17.45-42.57,27-63.39,2.39-5.2,4.87-10.34,7.48-15.36,1.3-2.51,2.68-5,4.13-7.34.74-1.15,1.48-2.3,2.31-3.35a10.71,10.71,0,0,1,2.37-2.45,5.77,5.77,0,0,1,.78-.4l1-.41c.63-.28,1.29-.56,1.92-.87,1.28-.59,2.54-1.2,3.8-1.87,2.51-1.28,4.94-2.68,7.34-4.13,1.89-1.13,3.74-2.31,5.54-3.59.5-.31,1-.68,1.53-1,1.13-.8,2.28-1.65,3.39-2.5l1.68-1.28.82-.65.42-.35.19-.18a.54.54,0,0,0,.22-.19.91.91,0,0,0,.15-.48C172.22,5.26,171.91,5.28,171.63,5.28Z"/><path class="cls-7" d="M239.45,6.09,272.51,4.8A16.21,16.21,0,0,1,286.61,4L403.74,54.7C411.24,58,416.42,65.64,416.92,75c.33,6.22-.49,14.49-3.49,25.4-8.06,29.29-26.69,78.72-33.58,96.72-1.08,2.81-4.41,3.29-5.67.83-16-31.4-90.25-175.79-104.49-179.28C253.72,14.7,239.45,6.09,239.45,6.09Z"/><path d="M419.38,73.64a26.43,26.43,0,0,0-8.09-16.91,24.31,24.31,0,0,0-3.72-2.85,29.13,29.13,0,0,0-4.05-2l-7.63-3.24L334.67,23,304.06,10.2,288.74,3.8,286.83,3a18.22,18.22,0,0,0-2.09-.68,16.1,16.1,0,0,0-4.31-.52A18.7,18.7,0,0,0,272.29,4c-5.57.28-11.18.61-16.7,1-4.25.28-8.42.56-12.56.78-1,.09-2,.13-3,.17l.07,0,.19.08h0l.22.13,3.79-.06c4-.09,8-.13,12-.15,5.42-.07,10.79-.15,16.16-.31h.18l.15-.08a16.22,16.22,0,0,1,7.57-1.85,14.32,14.32,0,0,1,3.85.54,17.32,17.32,0,0,1,1.83.65l1.89.85,15.16,6.79L333.49,26.1l60.68,27.07,7.59,3.37a24.91,24.91,0,0,1,3.39,1.72,18.94,18.94,0,0,1,2.92,2.3,21.22,21.22,0,0,1,6.2,13.6,62.67,62.67,0,0,1-1.37,16.49c-.54,2.76-1.22,5.51-2,8.23s-1.57,5.5-2.44,8.24c-3.39,11-7.13,21.84-11,32.7q-2.7,7.58-5.5,15.12c-2.13,5.76-4.31,11.53-6.48,17.27l-6.22,16.12-1.57,4-.81,2-.06.2.67,1.39a1,1,0,0,0-.61-.41c-.39-.07-.5.06-.5.08v0l.11-.24.33-.8-.13-.27c-5.11-10.29-10.25-20.58-15.51-30.8-1.46-2.85-2.92-5.7-4.42-8.55-1.07-2.11-2.15-4.22-3.24-6.31q-2-3.75-4-7.51c-1.52-2.91-3.07-5.83-4.63-8.72v0q-8-14.88-16.3-29.61c-5.66-10-11.31-20-17.23-29.81s-11.88-19.64-18.23-29.19q-2.64-4-5.37-7.9c-1.48-2.09-3-4.18-4.55-6.22-.83-1.11-1.68-2.2-2.55-3.29S278.8,24,277.8,22.88s-2-2.17-3.09-3.19a12.46,12.46,0,0,0-4.11-2.75,11.22,11.22,0,0,0-1.16-.3l-1-.22c-.65-.15-1.3-.28-2-.46-1.32-.32-2.63-.67-3.93-1.06-2.61-.76-5.2-1.61-7.77-2.57s-5.11-2-7.64-3.09c-1.26-.54-2.52-1.11-3.78-1.69l-1.87-.9-.92-.45,0,0a5.31,5.31,0,0,1-.69,0,.18.18,0,0,0,0-.13.15.15,0,0,0,0-.13l-.85,0a.68.68,0,0,0,.18.46c.17.15.21.17.23.17l.22.15.46.29.87.56,1.81,1.09c.8.48,1.61,1,2.41,1.41.41.24.8.48,1.22.7,2.43,1.35,5,2.59,7.48,3.78s5.11,2.29,7.73,3.29c1.3.52,2.63,1,3.95,1.44.66.23,1.33.43,2,.63l1,.32a3.56,3.56,0,0,1,.82.29,10.23,10.23,0,0,1,2.61,2.17,37.31,37.31,0,0,1,2.61,3.07c.51.65,1,1.3,1.51,2,1.15,1.56,2.26,3.2,3.37,4.85,3.09,4.7,6.07,9.53,9,14.42,11.56,19.63,22.41,39.79,33.18,60l25.08,47.3.33.61,2.94,5.55,3,5.65.85,1.61L370,198.17l.5.93.27.48.1.24.31.52a7.39,7.39,0,0,0,1.22,1.48,7,7,0,0,0,1.76,1.13,4.51,4.51,0,0,0,.87.31,6.84,6.84,0,0,0,7.61-3.29,7,7,0,0,0,.5-.93l.2-.46.09-.26.39-1,.74-2.05,1.5-4.07,5.92-16.29q3.56-10,7.05-19.95c5.3-15.19,10.42-30.46,15-46C417.16,97.85,420.36,86.08,419.38,73.64ZM239.88,5.83h0a.06.06,0,0,0,0,0s0,0,0,.07a.27.27,0,0,0,.15,0Zm113.65,142.8q-2-3.75-4-7.51c0,.13,0,.29,0,.42.11,1.24.22,2.48.31,3.7s.15,2.56.19,3.87c.05.8.07,1.63.07,2.46.61,1.13,1.2,2.26,1.78,3.37h4.81C355.7,152.83,354.62,150.72,353.53,148.63Z"/><path class="cls-8" d="M331.45,163.82"/><path class="cls-9" d="M214.72,285.3"/><path class="cls-6" d="M164.34,377.06c-7.05-1.48-13.57-5.44-18.88-10.55s-9.36-11.38-13-17.55-7-12.6-11.32-17.41c-4.85-5.26-9.5-10.86-14-16.38s-8.94-11.1-13.46-16.6l-6.77-8.25a73.33,73.33,0,0,1-6.66-8.81,46.33,46.33,0,0,1-7.09-20.73c0-.09,0-.2,0-.28s0-.42,0-.61a46.42,46.42,0,0,1,2-17.08,29.35,29.35,0,0,1,1.33-3.57.33.33,0,0,1,0-.13s0,.11,0,.15c-.3,1.4-.52,2.79-.69,4.18a49.08,49.08,0,0,0,8.74,35.24,103.32,103.32,0,0,0,6.77,7.9l7.18,8c4.7,5.42,9.26,11,13.81,16.47s8.9,11,13.6,16.4a61.35,61.35,0,0,1,6.18,9.44c1.8,3.2,3.35,6.42,5,9.6,3.24,6.26,6.5,12.48,10.94,17.84A43.88,43.88,0,0,0,164.34,377.06Z"/><path class="cls-6" d="M376.37,195.64c-.3,1.18-.63,2.35-1,3.53s-.8,2.52-1.26,3.78a117.93,117.93,0,0,1-7.2,16c-.26.5-.55,1-.83,1.48s-.43.8-.65,1.19A123.57,123.57,0,0,1,352.72,240a88.27,88.27,0,0,1-19,17.08,62,62,0,0,1-11.38,5.89A47.18,47.18,0,0,1,310,265.81a85.37,85.37,0,0,0,20.73-12.88,140.79,140.79,0,0,0,17-17.19c2.68-3.05,5.18-6.27,7.62-9.51s4.83-6.59,7.22-9.92c3.31-4.76,6.55-9.59,9.77-14.49.72-1.11,1.46-2.22,2.19-3.35C375.15,197.54,375.76,196.6,376.37,195.64Z"/><path class="cls-6" d="M367.26,236.09a2.11,2.11,0,0,1-.05.35c0,.56-.08,1.13-.15,1.69a0,0,0,0,0,0,0,76.18,76.18,0,0,1-3.79,16.76C359,267,352.09,278.68,341.3,286.84a41.87,41.87,0,0,1-8.85,4.94,47.85,47.85,0,0,1-4.81,1.63c-1.35.48-2.7,1-4.09,1.37a44.09,44.09,0,0,0-14.45,9.82,71.68,71.68,0,0,0-10.94,14.46,103.36,103.36,0,0,0-8,16.84,71.51,71.51,0,0,1,5.18-18.27,64.67,64.67,0,0,1,10.07-16.49,45.52,45.52,0,0,1,15.78-12c1.58-.61,3.17-1.18,4.78-1.74,1.44-.51,2.74-.85,4.07-1.46a38,38,0,0,0,7.44-4.31,54.76,54.76,0,0,0,12.21-12.73,86.44,86.44,0,0,0,8.85-15.79,91.47,91.47,0,0,0,5.57-17.43,55.85,55.85,0,0,0,1.35-14,44.19,44.19,0,0,0-.44-4.41,25.94,25.94,0,0,1,1.09,3.22A47.45,47.45,0,0,1,367.26,236.09Z"/><path class="cls-6" d="M381.55,254a40.92,40.92,0,0,1-2.18,10c-.34,1-.74,2.07-1.17,3.07a.38.38,0,0,1,0,.13,71.4,71.4,0,0,1-8,14.2,75.57,75.57,0,0,1-12.92,14.45c2.83-5.85,5.79-11.44,8.57-17.06a150.45,150.45,0,0,0,7.36-16.9l.71-2.13.57-2.13a36.55,36.55,0,0,0,.89-4.25,39.12,39.12,0,0,0,.22-8.7,16.87,16.87,0,0,0-.91-4.07,7.87,7.87,0,0,0-1.92-3.33,3.11,3.11,0,0,0-3.15-1,5.63,5.63,0,0,0-2.55,1.87,0,0,0,0,0,0,0c-.26.31-.5.64-.74,1a7.7,7.7,0,0,1,.91-2.67,5.28,5.28,0,0,1,1.59-1.79c1.59-1.22,4.11-1,5.79,0a11.3,11.3,0,0,1,3.94,4,12.41,12.41,0,0,1,1.19,2.43,18.34,18.34,0,0,1,.85,2.53A32.53,32.53,0,0,1,381.55,254Z"/><path class="cls-6" d="M22.69,606.43c-.35.11-.69.2-1.06.28-.31-.23-.61-.5-.9-.76Z"/><path class="cls-6" d="M41.36,590.09c1.74-1.93,3.39-4,5-6.07-1.39,2.14-2.85,4.27-4.44,6.31A4,4,0,0,1,41.36,590.09Z"/><path class="cls-6" d="M75.73,265.81a28.61,28.61,0,0,0-2.63-5c-.2-.3-.39-.61-.61-.89a9.64,9.64,0,0,0-2.33-2.31,3.18,3.18,0,0,0-2.85-.56,5,5,0,0,0-2.37,1.87,13.87,13.87,0,0,0-1.7,2.78A34.55,34.55,0,0,0,61,267.92,38.14,38.14,0,0,0,59.59,281,65.91,65.91,0,0,0,62,294.09c1.17,4.33,2.5,8.7,3.43,13.25a44.22,44.22,0,0,1,.87,14.14,67.62,67.62,0,0,1-2.95,13.64c-.64,2.15-1.18,4.22-1.59,6.35A61.69,61.69,0,0,0,61,348c-.57,8.79-.07,17.82.32,26.83l1.48,27.15c.92,18.12,1.57,36.27,1.85,54.43.13,18.19,0,36.4-1.44,54.63a205.9,205.9,0,0,1-3.78,27.3,58.68,58.68,0,0,1-4.55,13.54A18.37,18.37,0,0,1,50,558.07a10.12,10.12,0,0,1-4.28,1.78c-1.13.2-2.13.29-3.2.55A50.51,50.51,0,0,0,19.6,572c-.67.61-1.35,1.24-2,1.89-1-1-2-2-2.89-3,.65-.7,1.33-1.37,2-2a54.11,54.11,0,0,1,24.71-13.4c1.14-.31,2.4-.46,3.48-.7a4.85,4.85,0,0,0,1.9-.87,13.73,13.73,0,0,0,3.24-4.5,54.93,54.93,0,0,0,3.83-12.27,202.66,202.66,0,0,0,3.22-26.55c1.19-17.94,1.3-36,1.06-54.08s-.78-36.16-1.48-54.26l-1-27.17c-.28-9.1-.54-18.23.33-27.5a62.65,62.65,0,0,1,1-7,59.75,59.75,0,0,1,1.92-6.78,69.47,69.47,0,0,0,3.19-12.8c1.4-8.48-1.17-17.23-3.17-26.1a70.33,70.33,0,0,1-1.81-13.73,40.84,40.84,0,0,1,2.18-13.71A35.28,35.28,0,0,1,62.05,261a15.73,15.73,0,0,1,2-2.91,5.94,5.94,0,0,1,3-2.07,4.14,4.14,0,0,1,3.53.91,10.38,10.38,0,0,1,2.28,2.64,1.08,1.08,0,0,1,.15.28A25.07,25.07,0,0,1,75.73,265.81Z"/><path class="cls-6" d="M20.73,606l2,.48c-.35.11-.69.2-1.06.28C21.32,606.48,21,606.21,20.73,606Z"/><path class="cls-6" d="M61.83,607.87l-.26.39c-.72-.74-1.41-1.5-2.07-2.31A28.25,28.25,0,0,0,61.83,607.87Z"/><path class="cls-6" d="M65,599.6c-1.57-.5-3.09-1-4.57-1.54a74,74,0,0,0,3.81-14A31.74,31.74,0,0,1,65,599.6Z"/><path class="cls-6" d="M59.5,606a28.25,28.25,0,0,0,2.33,1.92l-.26.39C60.85,607.52,60.16,606.76,59.5,606Z"/><path class="cls-6" d="M123.88,527.52a33,33,0,0,1-1.76,14.69,11.38,11.38,0,0,1-2.53,3.92,5.92,5.92,0,0,1-1,.82c-.37.24-.74.48-1,.61l-1.37.74a11.22,11.22,0,0,0-3.35,3.85,79.38,79.38,0,0,0-5.27,11.64c-1.15,3.09-2.24,6.22-3.26,9.36a1.07,1.07,0,0,0-.06.17c-.33,1-.66,2-1,3-.09.28-.18.59-.26.87-.27.83-.53,1.65-.79,2.48-1,3.13-2,6.24-3,9.46a75.2,75.2,0,0,1-5.64,12.62,46.07,46.07,0,0,1-3.19,4.77c-1.37-.31-2.7-.61-4-.94a36.55,36.55,0,0,0,3.48-5.85,79.28,79.28,0,0,0,4.55-12.12l3.41-12.92c1.27-4.33,2.55-8.66,4-13a73.35,73.35,0,0,1,5.59-12.81,17.22,17.22,0,0,1,5.44-6.07l1.56-.89a2.71,2.71,0,0,0,.44-.29.65.65,0,0,0,.26-.21,5.19,5.19,0,0,0,1-1.72A26.74,26.74,0,0,0,117.5,528,47.67,47.67,0,0,0,115,515.73a41.74,41.74,0,0,0-5.55-11.16l-.93-1.35a10.43,10.43,0,0,1-1.11-1.82,11.43,11.43,0,0,1-.81-1.85,10.13,10.13,0,0,1-.54-1.87,33.2,33.2,0,0,1-.83-7.25c0-9.44,2.33-18.38,5.68-26.87a57.85,57.85,0,0,1,6.55-12,28.51,28.51,0,0,1,4.7-5,12.13,12.13,0,0,1,6.18-2.72,11.33,11.33,0,0,0-5.51,3.46,25.76,25.76,0,0,0-3.85,5.26,59.73,59.73,0,0,0-5,12.1A83.89,83.89,0,0,0,111,477.42a64,64,0,0,0-.72,12.84,27.85,27.85,0,0,0,1,6,11.22,11.22,0,0,0,1,2.53,6.9,6.9,0,0,0,.65,1l1,1.37a47.18,47.18,0,0,1,6.27,11.18l.52,1.33c.43,1.19.83,2.39,1.17,3.61l0,0A51.12,51.12,0,0,1,123.88,527.52Z"/><path class="cls-6" d="M321.14,552.87c-1.44,1.13-2.86,2.28-4.29,3.44-2.55,2.06-5.11,4.11-7.83,5.94a131.77,131.77,0,0,1-13.14,8.07,115.46,115.46,0,0,1-28.94,11.16c-20.27,4.94-42,3.57-61.83-3a152.38,152.38,0,0,1-28.34-12.91q-3.21-1.89-6.34-3.91c-.91-.59-1.8-1.18-2.69-1.78a172.06,172.06,0,0,1-16.25-12.23,214.77,214.77,0,0,1-22.06-21.54q-3.83-4.33-7.42-8.81l0,0a160.66,160.66,0,0,1-11.13-15.6c3,3.65,6.2,7.2,9.44,10.66,3.7,4,7.53,7.83,11.42,11.57a272.29,272.29,0,0,0,22.95,19.78,206,206,0,0,0,25.15,16.53,153.89,153.89,0,0,0,27.33,12.06,113.93,113.93,0,0,0,29.1,5.85,109.26,109.26,0,0,0,29.64-1.63,126.48,126.48,0,0,0,28.58-9c4.72-1.83,9.07-4.42,13.6-6.73,2.28-1.08,4.35-2.56,6.55-3.87l2.37-1.46Z"/><path class="cls-6" d="M103.25,577.52c-.24,1.06-.45,2.11-.65,3.11-.11-.33-.24-.65-.35-1a23.36,23.36,0,0,1-1.17-5.92c.63,1.18,1.28,2.33,2,3.44Z"/><path class="cls-6" d="M123.94,568.23c0-.22,0-.46,0-.68a10.54,10.54,0,0,0-.78-4.52,8.68,8.68,0,0,1,2.44,4.31,9.62,9.62,0,0,1,.28,1.15Z"/><path class="cls-6" d="M144.31,569.08c-1.79.11-3.49.15-5.14.17-.48-3.52-1.33-7.18-2.26-11.07A25.48,25.48,0,0,1,144.26,569,1.12,1.12,0,0,0,144.31,569.08Z"/><path class="cls-6" d="M170.43,561.66v.13a22.71,22.71,0,0,1-.3,3.28c-1.78.46-3.52.85-5.24,1.22.85-1.74,1.72-3.41,2.39-5a13.28,13.28,0,0,0,.46-1.39,4.55,4.55,0,0,0,.15-1.31,5.38,5.38,0,0,0-1.13-2.81,5,5,0,0,1,2.85,2.24A7.46,7.46,0,0,1,170.43,561.66Z"/><path class="cls-6" d="M376.37,598.71a31.19,31.19,0,0,1,3.48,2.91,2.39,2.39,0,0,1-.32.16A35.23,35.23,0,0,0,376.37,598.71Z"/><path class="cls-6" d="M386.47,620.64c.45-.11.91-.24,1.39-.35-.18.24-.33.48-.52.72A6.15,6.15,0,0,1,386.47,620.64Z"/><path class="cls-6" d="M403.39,596.29l-7.85-2.69c.41.1.85.24,1.28.37A37.71,37.71,0,0,1,403.39,596.29Z"/><path class="cls-6" d="M404.63,363.62c-.65,5.35-1.5,10.68-2.59,16-.26,1.26-.52,2.52-.8,3.78q-.72,3.24-1.57,6.46c-2.17,8.64-4.94,17.13-7.57,25.44-1.24,4.13-2.61,8.37-3,12.11a9.85,9.85,0,0,0,0,2.46l.09.46.24.7c.17.45.28.91.5,1.37a32.6,32.6,0,0,0,2.76,5.33c2.18,3.54,5.07,6.85,7.35,11.33a16.66,16.66,0,0,1,1.92,7.85l-.09,1.16-.15.89c-.09.61-.2,1.2-.31,1.74l-.69,3.33c-4.09,17.25-8.57,34.15-12.49,51.25-2,8.55-3.87,17.1-5.48,25.7a242,242,0,0,0-3.68,25.78c-.06.82-.11,1.65-.13,2.48a3.1,3.1,0,0,0,0,.43,45.88,45.88,0,0,0,.46,9.6c.1.48.24.93.34,1.39a5,5,0,0,0,.46,1.26,11.74,11.74,0,0,0,1.39,2.46,22.51,22.51,0,0,0,4.09,4.35,26,26,0,0,0,7.55,4.09q-1.67,1.58-3.39,2.92a28.11,28.11,0,0,1-6.77-3.64,24.66,24.66,0,0,1-5.11-5,16.3,16.3,0,0,1-2-3.2,7.11,7.11,0,0,1-.69-1.83c-.18-.59-.37-1.2-.53-1.78a59.68,59.68,0,0,1-.78-13.77,213.56,213.56,0,0,1,3.13-26.52c1.48-8.73,3.25-17.39,5.09-26,3.75-17.23,8.23-34.36,12.14-51.35l.68-3.13c.11-.52.22-1,.28-1.5l.13-.74.05-.48a10.34,10.34,0,0,0-1.22-4.83c-1.68-3.42-4.55-6.87-7-10.81a38.69,38.69,0,0,1-3.27-6.38c-.24-.56-.41-1.15-.61-1.74l-.3-.87-.24-1.15a15.64,15.64,0,0,1-.09-4.13,69.56,69.56,0,0,1,3.44-13.41c2.81-8.39,5.63-16.62,7.92-25a227.36,227.36,0,0,0,5.44-25.46c2.5-17.16,3.33-34.78.48-51.88a92.06,92.06,0,0,0-7.73-24.78,67.26,67.26,0,0,0-6.83-11.1,49.65,49.65,0,0,0-7.37-8c-.57-.48-1.18-1-1.79-1.39a20.5,20.5,0,0,1,1.83,1.26c6.57,4.7,11.7,11.33,15.69,18.38a94.7,94.7,0,0,1,9.31,25C406.92,327.94,406.74,346,404.63,363.62Z"/><path class="cls-6" d="M406.46,603.73a18.76,18.76,0,0,1-1,2.77Z"/><path class="cls-6" d="M360.14,604.91c.16.28.31.59.46.87-.22,0-.44,0-.65,0C360,605.5,360.08,605.21,360.14,604.91Z"/><path class="cls-6" d="M387.86,620.29c-.18.24-.33.48-.52.72a6.15,6.15,0,0,1-.87-.37C386.92,620.53,387.38,620.4,387.86,620.29Z"/><path class="cls-6" d="M330.16,601.17a.12.12,0,0,1-.08,0,.53.53,0,0,1,0-.17C330.14,601,330.14,601.1,330.16,601.17Z"/><path class="cls-6" d="M328.81,620.22a9.68,9.68,0,0,0,3,.46,10.83,10.83,0,0,1-2.9,0C328.88,620.53,328.84,620.38,328.81,620.22Z"/><path class="cls-6" d="M331.8,620.68a10.83,10.83,0,0,1-2.9,0c0-.15-.06-.3-.09-.46A9.68,9.68,0,0,0,331.8,620.68Z"/><path class="cls-6" d="M332,509c-.57,4.59-1.42,9-2.24,13.47l-5.42,26.34c-1.76,8.73-3.5,17.58-4.83,26.31a125.54,125.54,0,0,0-1.72,21.4c-1.43-.63-2.72-1.22-3.78-1.72v0c-.11-1.15-.18-2.33-.22-3.5s-.07-2.28-.07-3.44c0-4.48.31-8.94.74-13.36.24-2.26.42-4.54.72-6.78l1-6.68c.24-1.57.48-3.16.74-4.72,0-.31.09-.61.13-.92.41-2.56.85-5.13,1.28-7.7,1.53-8.87,3.4-17.71,5.07-26.47.85-4.36,1.72-8.73,2.31-13a59.09,59.09,0,0,0,.65-12.72,30.5,30.5,0,0,0-3.18-11.75L321.57,481l-1.76-3a57.68,57.68,0,0,1-3.07-6.33,53.53,53.53,0,0,1-3.57-13.54c-.3-2.3-.48-4.56-.74-6.72a14.63,14.63,0,0,0-1.54-5.72,15.54,15.54,0,0,0-4.46-4.07,13.4,13.4,0,0,0-5.72-2.26,4.27,4.27,0,0,0-4.62,2.83,17,17,0,0,0-1.06,6.46,17.58,17.58,0,0,1,.13-6.81,6,6,0,0,1,2-3.09,4.9,4.9,0,0,1,1.7-.91,8.29,8.29,0,0,1,1.89-.31,14.88,14.88,0,0,1,6.94,1.92,26.29,26.29,0,0,1,3,1.82,11.6,11.6,0,0,1,2.81,2.61,17.2,17.2,0,0,1,2.61,6.92c.46,2.29.81,4.48,1.26,6.62a52.46,52.46,0,0,0,4,12.2,47.82,47.82,0,0,0,3.11,5.59l1.74,2.74,1.89,3.07a36.45,36.45,0,0,1,4.29,13.9A61.69,61.69,0,0,1,332,509Z"/><path class="cls-6" d="M414.9,424.66c-.09,2.25-.15,4.49-.46,6.75,0,.19,0,.39-.06.59-.09-.2-.17-.4-.26-.59a107.35,107.35,0,0,1-4.51-13.05c-1.34-4.55-2.48-9.1-3.59-13.67L402.89,391c-.56-2.55-1.11-5.07-1.65-7.64-.48-2.09-1-4.17-1.48-6.31a21.8,21.8,0,0,1,2.28,2.53,45.46,45.46,0,0,1,5.68,9.77,77.46,77.46,0,0,1,4.64,13.77,96,96,0,0,1,2.3,14.29C414.84,419.81,414.88,422.25,414.9,424.66Z"/><path class="cls-6" d="M445.82,531.57a61.61,61.61,0,0,1-8.38,19.82,37.36,37.36,0,0,1-7.42,8.22,32.65,32.65,0,0,1-6,3.79c-.37.2-.76.37-1.13.54-.83.37-1.68.72-2.55,1l-.08,0A58.68,58.68,0,0,1,410,569.47,57,57,0,0,1,398.74,572a43.05,43.05,0,0,1-11.51-.11,33.23,33.23,0,0,1-8.29-2.24c-.87-.34-1.72-.71-2.57-1.11.87.24,1.74.48,2.59.68a36.93,36.93,0,0,0,8.4,1.09,46,46,0,0,0,10.92-1.09,64.28,64.28,0,0,0,10.4-3.33,62.38,62.38,0,0,0,9.53-5l.17-.13.31-.11a28,28,0,0,0,7.92-5,36,36,0,0,0,6-7.33c3.42-5.44,5.48-11.75,7-18.17a113.93,113.93,0,0,0,2.61-19.82,160.13,160.13,0,0,0-.2-20.19A181.75,181.75,0,0,0,439.7,470a129.68,129.68,0,0,0-4.76-19.6,51.26,51.26,0,0,0-3.85-9.11,20.27,20.27,0,0,0-2.74-3.81,7.63,7.63,0,0,0-1.66-1.24c-.65-.31-1.52-.61-2.28-.94a39.82,39.82,0,0,0-9.7-2.46c-3.27-.26-6.88-.15-9.64,2,2.28-2.39,5.76-3.22,9.05-3.41h.32a1.83,1.83,0,0,1,.33,0,36.84,36.84,0,0,1,10.44,1.43c.87.26,1.66.44,2.59.76a9.61,9.61,0,0,1,2.63,1.57,20.6,20.6,0,0,1,3.68,4.24,56.25,56.25,0,0,1,5,9.47c5.27,13.07,7.9,26.89,9.25,40.77C449.43,503.55,449.19,517.71,445.82,531.57Z"/><path class="cls-6" d="M424.06,563.4c-.37.2-.76.37-1.13.54a6.85,6.85,0,0,1,.59-3A9.33,9.33,0,0,0,424.06,563.4Z"/><path class="cls-6" d="M416.69,598.47c-1.09.39-2.18.76-3.25,1.13,0-.43,0-.85,0-1.28a54.48,54.48,0,0,0-.54-6.14,15.26,15.26,0,0,0-1.83-5.85c1.74,1.33,2.7,3.42,3.57,5.35a38.86,38.86,0,0,1,1.95,6.18C416.6,598.06,416.64,598.27,416.69,598.47Z"/><path class="cls-6" d="M438.35,590.42c-1.41.52-2.87,1.09-4.39,1.67h0A12.49,12.49,0,0,1,432,590a22.56,22.56,0,0,1-3.91-12.37c1.54,3.89,3.48,7.72,6.3,10.26a10.83,10.83,0,0,0,2.18,1.59Z"/><path class="cls-6" d="M231.06,404.13a55,55,0,0,0,2.77,9,28.4,28.4,0,0,0,4.33,7.63,18.28,18.28,0,0,0,14,7.08l2.09.12c.69.05,1.62,0,2.42.06l2.48.08,2.49.26a41.43,41.43,0,0,1,9.76,2.27,31.26,31.26,0,0,1,8.78,4.89,19.36,19.36,0,0,1,6,7.76,26.83,26.83,0,0,0-7.73-5.05,37.79,37.79,0,0,0-8.52-2.67,55.56,55.56,0,0,0-8.84-1l-2.24-.1-2.25,0c-.78,0-1.43,0-2.31,0l-2.64-.1a25.57,25.57,0,0,1-5.28-.89,14.71,14.71,0,0,1-2.56-1,11.88,11.88,0,0,1-2.45-1.21,20.64,20.64,0,0,1-7.47-7.7,26.21,26.21,0,0,1-3.16-9.66A29,29,0,0,1,231.06,404.13Z"/><path class="cls-6" d="M208.1,404.13a29.28,29.28,0,0,1,.31,9.76,26.19,26.19,0,0,1-3.15,9.66,20.72,20.72,0,0,1-7.47,7.7,12,12,0,0,1-2.46,1.21,14.42,14.42,0,0,1-2.56,1,25.48,25.48,0,0,1-5.27.89l-2.64.1c-.89,0-1.54,0-2.32,0l-2.25,0-2.23.1a55.68,55.68,0,0,0-8.85,1,38.11,38.11,0,0,0-8.52,2.67,26.65,26.65,0,0,0-7.72,5.05,19.25,19.25,0,0,1,6-7.76,31.54,31.54,0,0,1,8.78-4.89,41.39,41.39,0,0,1,9.77-2.27l2.48-.26,2.49-.08c.8,0,1.72,0,2.42-.06l2.09-.12a18.28,18.28,0,0,0,14-7.08,28.11,28.11,0,0,0,4.32-7.63A56,56,0,0,0,208.1,404.13Z"/><path class="cls-6" d="M41.88,590.33a56.11,56.11,0,0,1-14,13.71,21.29,21.29,0,0,1-5.16,2.39l-2-.48c.29.26.59.53.9.76l-.33.07A11.29,11.29,0,0,1,14,606,15,15,0,0,1,8.4,601.1a16.67,16.67,0,0,1-2.94-6.79c-.91-5,.46-10,2.61-14.22a39.54,39.54,0,0,1,6.64-9.25c.89,1,1.85,2,2.89,3a36.87,36.87,0,0,0-6.22,8c-2.07,3.7-3.33,7.9-2.76,11.94a13.89,13.89,0,0,0,6.44,10c3.54,2,8.13.89,11.92-1.24a48.63,48.63,0,0,0,10.46-8.29c1.35-1.35,2.66-2.72,3.92-4.16A4,4,0,0,0,41.88,590.33Z"/><path class="cls-3" d="M27,602.54c-3.79,2.13-8.38,3.26-11.92,1.24a13.89,13.89,0,0,1-6.44-10c-.57-4,.69-8.24,2.76-11.94a36.87,36.87,0,0,1,6.22-8c5.33,5.25,12.92,10.84,23.76,16.23-1.26,1.44-2.57,2.81-3.92,4.16A48.63,48.63,0,0,1,27,602.54Z"/><path class="cls-6" d="M65,599.6c-.07.46-.18.94-.28,1.39a23.34,23.34,0,0,1-2.92,6.88A28.25,28.25,0,0,1,59.5,606c.66.81,1.35,1.57,2.07,2.31a10.41,10.41,0,0,1-.72,1,18,18,0,0,1-7.72,5.85,21.5,21.5,0,0,1-9.29,1.33,31.08,31.08,0,0,1-8.64-1.85,44.93,44.93,0,0,1-13.57-7.9c.37-.08.71-.17,1.06-.28,4.75,1.2,9.29,2.48,13.82,3.22,5.07.85,10.14,1,14.23-.59s7.11-5.15,9.18-9.72c.19-.41.37-.85.54-1.28C61.94,598.6,63.46,599.1,65,599.6Z"/><path class="cls-3" d="M20.73,606l2,.48c-.35.11-.69.2-1.06.28C21.32,606.48,21,606.21,20.73,606Z"/><path class="cls-3" d="M59.92,599.34c-2.07,4.57-5.09,8.2-9.18,9.72s-9.16,1.44-14.23.59c-4.53-.74-9.07-2-13.82-3.22A21.29,21.29,0,0,0,27.85,604a56.11,56.11,0,0,0,14-13.71,162.31,162.31,0,0,0,18.58,7.73C60.29,598.49,60.11,598.93,59.92,599.34Z"/><path class="cls-6" d="M90.4,606.5a25.26,25.26,0,0,1-6.14,5.83,16,16,0,0,1-6.81,2.54,15.53,15.53,0,0,1-7.09-.82,24.46,24.46,0,0,1-8.79-5.79l.26-.39a25,25,0,0,0,9,4.44,14.09,14.09,0,0,0,6.16.08,13.48,13.48,0,0,0,5.39-2.65,20.59,20.59,0,0,0,3.94-4.18C87.7,605.89,89,606.19,90.4,606.5Z"/><path class="cls-3" d="M59.5,606a28.25,28.25,0,0,0,2.33,1.92l-.26.39C60.85,607.52,60.16,606.76,59.5,606Z"/><path class="cls-3" d="M86.37,605.56a20.59,20.59,0,0,1-3.94,4.18A13.48,13.48,0,0,1,77,612.39a14.09,14.09,0,0,1-6.16-.08,25,25,0,0,1-9-4.44A23.34,23.34,0,0,0,64.75,601c.1-.45.21-.93.28-1.39Q74.62,602.77,86.37,605.56Z"/><path class="cls-3" d="M123.94,568.23a24.08,24.08,0,0,1-.48,3.87c-.26,1.5-.56,3-1,4.46-.33,1.31-.7,2.66-1.11,3.9a22.26,22.26,0,0,1-5.27,4.19,6.11,6.11,0,0,1-5.72.48,14.63,14.63,0,0,1-5.18-4.67c-.67-.94-1.33-1.92-2-2.94.31-1.37.63-2.79,1-4.2a1.07,1.07,0,0,1,.06-.17,63.53,63.53,0,0,1,3.26-9.36S113.26,566.64,123.94,568.23Z"/><path class="cls-3" d="M139.43,575.65a17,17,0,0,1-1.11,4.83,12,12,0,0,1-2.52,3.8,6.79,6.79,0,0,1-3.81,1.81c-2.59.41-5.72-.28-9-1.3.61-.61,1.15-1.27,1.7-1.9l.34-.41.09-.35c.39-1.67.68-3.26.91-4.89a35.46,35.46,0,0,0,.24-4.94,22.42,22.42,0,0,0-.41-3.81,104.16,104.16,0,0,0,13.27.76c.05.31.07.59.11.89A33.19,33.19,0,0,1,139.43,575.65Z"/><path class="cls-6" d="M170.13,565.07a1.45,1.45,0,0,0,0,.29c-.09.52-.2,1-.31,1.52s-.24,1.18-.37,1.76c-.48,2.16-1,4.22-1.52,6.29l-.74,3.07-.37,1.52a17.15,17.15,0,0,1-.57,1.89,13.19,13.19,0,0,1-2,3.81,11.42,11.42,0,0,1-3.48,2.76,14,14,0,0,1-7.81,1.4,24.16,24.16,0,0,1-10.14-3.53,11.71,11.71,0,0,1-3.09,3.24,11,11,0,0,1-7.66,2.13,14.66,14.66,0,0,1-6.63-2.54,19.58,19.58,0,0,1-3.33-2.94,18,18,0,0,1-3.94,2.77,10.76,10.76,0,0,1-4.68,1.28,9.62,9.62,0,0,1-4.8-1.28,11.65,11.65,0,0,1-3.4-3.12,17.06,17.06,0,0,1-2.15-3.69l-.46-1.07c.2-1,.41-2,.65-3.11.63,1,1.29,2,2,2.94a14.63,14.63,0,0,0,5.18,4.67,6.11,6.11,0,0,0,5.72-.48,22.26,22.26,0,0,0,5.27-4.19c.41-1.24.78-2.59,1.11-3.9.41-1.48.71-3,1-4.46a24.08,24.08,0,0,0,.48-3.87l2,.26a22.42,22.42,0,0,1,.41,3.81,35.46,35.46,0,0,1-.24,4.94c-.23,1.63-.52,3.22-.91,4.89l-.09.35-.34.41c-.55.63-1.09,1.29-1.7,1.9,3.24,1,6.37,1.71,9,1.3a6.79,6.79,0,0,0,3.81-1.81,12,12,0,0,0,2.52-3.8,17,17,0,0,0,1.11-4.83,33.19,33.19,0,0,0-.15-5.51c0-.3-.06-.58-.11-.89,1.65,0,3.35-.06,5.14-.17a22.89,22.89,0,0,1,1.3,6.65,18.35,18.35,0,0,1-1.26,7.25c-.22.46-.44.89-.67,1.33a49.68,49.68,0,0,0,9.15,0,10.89,10.89,0,0,0,4.79-1.63,5.7,5.7,0,0,0,2.44-3.39l.19-.55a2.42,2.42,0,0,0,.22-.69l.44-1.63c.32-1.09.67-2.18,1-3.25a66.37,66.37,0,0,1,2.61-6.15l.33-.68C166.61,565.92,168.35,565.53,170.13,565.07Z"/><path class="cls-3" d="M164.89,566.29l-.33.68a66.37,66.37,0,0,0-2.61,6.15c-.37,1.07-.72,2.16-1,3.25l-.44,1.63a2.42,2.42,0,0,1-.22.69l-.19.55a5.7,5.7,0,0,1-2.44,3.39,10.89,10.89,0,0,1-4.79,1.63,49.68,49.68,0,0,1-9.15,0c.23-.44.45-.87.67-1.33a18.35,18.35,0,0,0,1.26-7.25,22.89,22.89,0,0,0-1.3-6.65A128.18,128.18,0,0,0,164.89,566.29Z"/><path class="cls-6" d="M328.9,620.68a11,11,0,0,1-3.76-1.22,15.28,15.28,0,0,1-5.16-4.7c-.35-.47-.72-.93-1-1.43l-.81-1.57-.78-1.56c-.24-.53-.39-1.09-.61-1.64-.35-1.11-.82-2.19-1.06-3.3l-.79-3.4a70.88,70.88,0,0,1-.93-7.05c1.06.5,2.35,1.09,3.78,1.72.05,1.63.13,3.24.31,4.85a31.92,31.92,0,0,0,3.41,12.41,14.28,14.28,0,0,0,4.16,4.85,10.24,10.24,0,0,0,3.17,1.58C328.84,620.38,328.88,620.53,328.9,620.68Z"/><path class="cls-6" d="M365,624.79a36.07,36.07,0,0,1-10.55,8.14,23.42,23.42,0,0,1-8.48,2.59,15.23,15.23,0,0,1-9.55-2.24,16.36,16.36,0,0,1-6-7.51,27.16,27.16,0,0,1-1.37-4.24c0-.28-.11-.57-.15-.85a10.83,10.83,0,0,0,2.9,0,9.68,9.68,0,0,1-3-.46,24.45,24.45,0,0,1-.39-2.91,45,45,0,0,1,1.66-16.19.12.12,0,0,0,.08,0c1.18,5.28,2,10.42,3.31,15.23.28,1.21.76,2.35,1.11,3.52a30.68,30.68,0,0,0,1.44,3.22,12.09,12.09,0,0,0,4,4.68c3,2.11,7.83,1.8,12.57.37a85.69,85.69,0,0,0,11.4-4.46A7.42,7.42,0,0,0,365,624.79Z"/><path class="cls-3" d="M328.42,617.31a24.45,24.45,0,0,0,.39,2.91,10.24,10.24,0,0,1-3.17-1.58,14.28,14.28,0,0,1-4.16-4.85,31.92,31.92,0,0,1-3.41-12.41c-.18-1.61-.26-3.22-.31-4.85a122.53,122.53,0,0,0,12.32,4.59A45,45,0,0,0,328.42,617.31Z"/><path class="cls-3" d="M328.81,620.22a9.68,9.68,0,0,0,3,.46,10.83,10.83,0,0,1-2.9,0C328.88,620.53,328.84,620.38,328.81,620.22Z"/><path class="cls-6" d="M387.34,621a18.08,18.08,0,0,1-8.27,6.15,14.78,14.78,0,0,1-6.09,1,13,13,0,0,1-6.31-2,10.94,10.94,0,0,1-1.68-1.31,7.42,7.42,0,0,1-1-1.06A17.59,17.59,0,0,1,360,616,22.93,22.93,0,0,1,360,605.8c.21,0,.43,0,.65,0,1.54,3,2.78,5.83,4.22,8.38a18.35,18.35,0,0,0,5.4,6.46c2,1.35,4.59,1.8,7.67,1.56a54,54,0,0,0,8.58-1.54A6.15,6.15,0,0,0,387.34,621Z"/><path class="cls-3" d="M360,616a17.59,17.59,0,0,0,3.92,7.77,85.69,85.69,0,0,1-11.4,4.46c-4.74,1.43-9.53,1.74-12.57-.37a12.09,12.09,0,0,1-4-4.68,30.68,30.68,0,0,1-1.44-3.22c-.35-1.17-.83-2.31-1.11-3.52-1.35-4.81-2.13-9.95-3.31-15.23,8.62,2.72,19.13,5,29.79,4.63A22.93,22.93,0,0,0,360,616Z"/><path class="cls-6" d="M398,617.88a7.19,7.19,0,0,1-.76.71c-.35.31-.7.59-1.07.87a.76.76,0,0,1-.17.13,13.35,13.35,0,0,1-1.35.85,9.14,9.14,0,0,1-3.48,1.13,8.9,8.9,0,0,1-3.64-.47,1.63,1.63,0,0,1-.19-.09c.19-.24.34-.48.52-.72-.48.11-.94.24-1.39.35a10.67,10.67,0,0,1-2.05-1.26,5.66,5.66,0,0,1-2.09-3.07c-.5-2.46.18-4.59.13-6.72a10.87,10.87,0,0,0-1.67-6.07,13.1,13.1,0,0,0-1.26-1.74,2.39,2.39,0,0,0,.32-.16,14,14,0,0,1,1.35,1.61,11.68,11.68,0,0,1,2.26,6.31c.16,2.27-.34,4.55.2,6.42a4.14,4.14,0,0,0,1.68,2.18,9.46,9.46,0,0,0,2.72,1.3,7,7,0,0,0,2.87.24,7.46,7.46,0,0,0,2.67-1.07,12.83,12.83,0,0,0,3.59-3.39A24.79,24.79,0,0,0,398,617.88Z"/><path class="cls-3" d="M384.42,619.38a10.67,10.67,0,0,0,2.05,1.26,54,54,0,0,1-8.58,1.54c-3.08.24-5.67-.21-7.67-1.56a18.35,18.35,0,0,1-5.4-6.46c-1.44-2.55-2.68-5.4-4.22-8.38a53.24,53.24,0,0,0,18.93-4,13.1,13.1,0,0,1,1.26,1.74,10.87,10.87,0,0,1,1.67,6.07c.05,2.13-.63,4.26-.13,6.72A5.66,5.66,0,0,0,384.42,619.38Z"/><path class="cls-3" d="M386.47,620.64c.45-.11.91-.24,1.39-.35-.18.24-.33.48-.52.72A6.15,6.15,0,0,1,386.47,620.64Z"/><path class="cls-3" d="M403.35,603a30.34,30.34,0,0,1-2.29,5.79,39.62,39.62,0,0,1-3.17,5.53c-.22.32-.46.63-.7.93a12.83,12.83,0,0,1-3.59,3.39,7.46,7.46,0,0,1-2.67,1.07,7,7,0,0,1-2.87-.24,9.46,9.46,0,0,1-2.72-1.3,4.14,4.14,0,0,1-1.68-2.18c-.54-1.87,0-4.15-.2-6.42a11.68,11.68,0,0,0-2.26-6.31,14,14,0,0,0-1.35-1.61,43.33,43.33,0,0,0,10-5.91,42.9,42.9,0,0,0,6,1.87,36.09,36.09,0,0,1,5.94,1.8,3.12,3.12,0,0,1,1.55,1.35A3.93,3.93,0,0,1,403.35,603Z"/><path class="cls-3" d="M405.35,606.63l-1.09,2.87-.24-.28C404.48,608.37,404.94,607.52,405.35,606.63Z"/><path class="cls-6" d="M460.2,597.4a11.32,11.32,0,0,1-2.81,4.31,12.48,12.48,0,0,1-3.5,2.15,12.72,12.72,0,0,1,.43,1.24,5.45,5.45,0,0,1-2.09,6,17.7,17.7,0,0,1-3.39,1.89,49.19,49.19,0,0,1-6.35,2.26A48,48,0,0,1,429.24,617a29.51,29.51,0,0,1-7-1,12.68,12.68,0,0,1-6.55-4.13,6.17,6.17,0,0,1-.44-.57,14.89,14.89,0,0,1-7.09,2.24,9.32,9.32,0,0,1-1.57-.13,7.25,7.25,0,0,1-1.82-.63c-.18-.11-.35-.2-.5-.31a2.36,2.36,0,0,1-.48-.32,2.3,2.3,0,0,1-.42-.35,0,0,0,0,1,0,0,3.06,3.06,0,0,1-.5-.46,36.83,36.83,0,0,1-3,4.5c-.35.46-.72.9-1.11,1.33-.26.28-.5.55-.76.79a24.79,24.79,0,0,1-.81-2.66c.24-.3.48-.61.7-.93a39.62,39.62,0,0,0,3.17-5.53,30.34,30.34,0,0,0,2.29-5.79,3.93,3.93,0,0,0,0-2.24,3.12,3.12,0,0,0-1.55-1.35,36.09,36.09,0,0,0-5.94-1.8,42.9,42.9,0,0,1-6-1.87q1.73-1.35,3.39-2.92l2.31.81,7.85,2.69a6.54,6.54,0,0,1,3,3.2,5.78,5.78,0,0,1,.34,2.37,8.13,8.13,0,0,1-.3,1.87l-1,2.77-.07.13c-.41.89-.87,1.74-1.33,2.59l.24.28a4.64,4.64,0,0,0,2.79,1.7c2.5.5,5.37-.79,7.2-1.85a12,12,0,0,1-.81-4.9c.05-1.61.07-3.24,0-4.85,1.07-.37,2.16-.74,3.25-1.13.43,1.91.74,3.81,1,5.74a6.48,6.48,0,0,0,1.83,4.22c2,1.94,5.93,2.53,9.7,2.35a54.49,54.49,0,0,0,11.55-1.85,42.16,42.16,0,0,0,5.5-1.8,15.79,15.79,0,0,0,1.94-1,6.89,6.89,0,0,0-.72-1.39,21.23,21.23,0,0,0-1.69-2.16,57,57,0,0,0-4.18-4.2c-1.48-1.37-3.07-2.65-4.66-3.91l-2.5-1.94a3.18,3.18,0,0,1-.52-.46c1.52-.58,3-1.15,4.39-1.67l1,.52a58.09,58.09,0,0,1,5.46,3.5,39.26,39.26,0,0,1,5.14,4.23,23.62,23.62,0,0,1,2.37,2.63c.17.26.37.5.57.78a10.51,10.51,0,0,0,2.08-2.44,8.34,8.34,0,0,0,.77-6.63,22,22,0,0,0-4.16-7.81,36.84,36.84,0,0,0-4.18-4.57,35.15,35.15,0,0,0-6.15-4.55,19.74,19.74,0,0,0-3.33-1.52,9.17,9.17,0,0,0-1.68-.48l-.85-.15-1.17-.2a16,16,0,0,1-8.81-3.91,8.51,8.51,0,0,1-2.48-5.88c.37-.17.76-.34,1.13-.54a7.1,7.1,0,0,0,3.35,3.92,14.75,14.75,0,0,0,7.22,1.3h1l1.28,0a17.13,17.13,0,0,1,2.53.35,22.34,22.34,0,0,1,4.63,1.57,30.92,30.92,0,0,1,7.79,5.28,32.7,32.7,0,0,1,5.9,7.27,25.85,25.85,0,0,1,1.43,2.83c.2.43.37.89.55,1.35s.3.87.43,1.32a.58.58,0,0,1,0,.18c.11.37.2.74.29,1.11a11.1,11.1,0,0,1,.19,1.13c.07.41.11.83.16,1.26A13.47,13.47,0,0,1,460.2,597.4Z"/><path class="cls-3" d="M403.35,603a30.34,30.34,0,0,1-2.29,5.79,39.62,39.62,0,0,1-3.17,5.53c-.22.32-.46.63-.7.93C395.84,609.63,397.08,605,403.35,603Z"/><path class="cls-3" d="M414.25,609.35c-1.83,1.06-4.7,2.35-7.2,1.85a4.64,4.64,0,0,1-2.79-1.7l-.24-.28c.46-.85.92-1.7,1.33-2.59l.07-.13,1-2.77a8.13,8.13,0,0,0,.3-1.87c2.16-.69,4.4-1.45,6.68-2.26.07,1.61.05,3.24,0,4.85A12,12,0,0,0,414.25,609.35Z"/><path class="cls-3" d="M448.23,606.15a15.79,15.79,0,0,1-1.94,1,42.16,42.16,0,0,1-5.5,1.8,54.49,54.49,0,0,1-11.55,1.85c-3.77.18-7.66-.41-9.7-2.35a6.48,6.48,0,0,1-1.83-4.22c-.28-1.93-.59-3.83-1-5.74,5.87-2.09,11.83-4.31,17.25-6.38h0a3.18,3.18,0,0,0,.52.46l2.5,1.94c1.59,1.26,3.18,2.54,4.66,3.91a57,57,0,0,1,4.18,4.2,21.23,21.23,0,0,1,1.69,2.16A6.89,6.89,0,0,1,448.23,606.15Z"/><path class="cls-3" d="M455,599.64a10.51,10.51,0,0,1-2.08,2.44c-.2-.28-.4-.52-.57-.78a23.62,23.62,0,0,0-2.37-2.63,39.26,39.26,0,0,0-5.14-4.23,58.09,58.09,0,0,0-5.46-3.5l-1-.52c5.66-2.2,10.38-4.07,13.23-5.22a22,22,0,0,1,4.16,7.81A8.34,8.34,0,0,1,455,599.64Z"/></svg>