<svg id="Vrstva_1" data-name="Vrstva 1" xmlns="http://www.w3.org/2000/svg" viewBox="0 0 170.43 162.85"><defs><style>.cls-1{fill:#82e8e3;}.cls-2{fill:#ff1d6f;}.cls-3{fill:#fefefe;}.cls-4{fill:#010101;}.cls-5{fill:#ffc5df;}.cls-6{fill:#ff5299;}.cls-7{fill:#0ce2af;}</style></defs><circle class="cls-1" cx="84.86" cy="81.42" r="81.42"/><path d="M19.86,115.82c-.9-8.93,7.19-19,18.49-19.07a17.87,17.87,0,0,1,10.44,3,1.25,1.25,0,0,0,2-.21Q70.86,79.39,91.05,59.27a1.37,1.37,0,0,0,.28-2A19,19,0,1,1,126.88,49c0,.21,0,.43,0,.63-.2,1,.07,1.29,1.13,1.19A18.44,18.44,0,0,1,141,54.65a19,19,0,0,1-10,34,18.59,18.59,0,0,1-13.06-3.86c-.53-.41-.82-.45-1.32.06Q96.35,105.15,76,125.41c-.74.73-.23,1.13.09,1.67,4,6.76,4.24,13.64.06,20.3S65.8,157,58.1,156.12c-8.23-.94-13.63-5.71-16.19-13.61a17.34,17.34,0,0,1-.7-6.33c.09-1.61.09-1.62-1.48-1.54A18.29,18.29,0,0,1,24.15,128,16.15,16.15,0,0,1,19.86,115.82Z" transform="translate(-19.79 -23.58)"/><path class="cls-2" d="M120.59,42.49a13.07,13.07,0,0,1,.6,9.88c-.4,1.34-1,2.67.18,3.88s2.51.62,3.85.18a14,14,0,1,1-5.09,23.64c-2.81-2.54-3.31-2.53-6,.14L71.08,123.28c-2,2-2,2.91-.17,5.12a13.94,13.94,0,1,1-22.4,16.54A13.65,13.65,0,0,1,47,132.8l.24-.71a2.57,2.57,0,0,0-3.46-3.38,14.34,14.34,0,0,1-6.54.9,11.4,11.4,0,0,1-4.32-1.18c-.34-6.17,1.72-11.35,6.7-15.07a16.53,16.53,0,0,1,20.24.08c1.29,1,1.29,1,2.47-.2L104.64,70.9c1.17-1.17,1.17-1.17.29-2.52a16.73,16.73,0,0,1,6.28-24.06A16.28,16.28,0,0,1,120.59,42.49Z" transform="translate(-19.79 -23.58)"/><path class="cls-3" d="M120.59,42.49c-.37.42-.86.26-1.3.25a16.44,16.44,0,0,0-16.54,13.51,15.68,15.68,0,0,0,2.75,12.38,1.28,1.28,0,0,1-.17,2.05Q83.67,92.26,62.08,113.93c-.76.76-1.21.82-2,.12a16.44,16.44,0,0,0-26.86,13c0,.48.19,1-.28,1.42a13.92,13.92,0,0,1,2.3-26.23,13.69,13.69,0,0,1,12.57,3c1.8,1.53,2.92,1.5,4.56-.14L96.45,60.94c1.59-1.59,1.62-2.54.31-4.4C93.56,52,93,47.08,95.42,42.07c2.66-5.4,7.21-8,13.23-7.84C113.82,34.37,118.94,38,120.59,42.49Z" transform="translate(-19.79 -23.58)"/><path d="M75.49,93.31a2.9,2.9,0,0,1-1,2.09c-3.69,3.7-7.39,7.41-11.1,11.09-1.29,1.28-2.83,1.36-3.88.28s-1-2.55.27-3.79c3.71-3.75,7.45-7.47,11.18-11.19A2.58,2.58,0,0,1,74,91,2.42,2.42,0,0,1,75.49,93.31Z" transform="translate(-19.79 -23.58)"/><path class="cls-4" d="M78.39,85.46A2.52,2.52,0,0,1,80.84,88a2.53,2.53,0,1,1-2.45-2.5Z" transform="translate(-19.79 -23.58)"/><path d="M76.62,174.14c.8-1.6,2-2.62,3.89-2.43.74.07.6-.54.67-.89,1.08-5.13,2.13-10.26,3.2-15.39,1.76-8.52,3.5-17.05,5.32-25.57A11.75,11.75,0,0,1,97.31,121c.6-.24.84-.46.85-1.15a12.14,12.14,0,0,1,11.19-12,1.49,1.49,0,0,0,1.21-.75,10.3,10.3,0,0,1,13.59-3.36,1,1,0,0,0,1.42-.15,12.07,12.07,0,0,1,15.74,0,1,1,0,0,0,1.32.15,10.31,10.31,0,0,1,13.74,3.46,1.23,1.23,0,0,0,1.06.6,12.21,12.21,0,0,1,11.26,12.1c0,.38-.11.76.47,1,5.08,1.84,7.43,5.71,8.44,10.84,2.57,13,5.34,26,8,39,.16.78.47,1,1.22.95a3.29,3.29,0,0,1,3.39,3.34,3.32,3.32,0,0,1-3.45,3.29c-4.73,0-9.47,0-14.2,0q-45.75,0-91.5,0c-2.06,0-3.56-.57-4.44-2.47Z" transform="translate(-19.79 -23.58)"/><path class="cls-5" d="M133.4,171.7h-44c-1.54,0-1.54,0-1.24-1.47q4-19.35,8-38.69a5.51,5.51,0,0,1,5.74-4.66H165a5.51,5.51,0,0,1,5.72,4.68q4.06,19.56,8.13,39.12c.17.81.07,1-.84,1Q155.7,171.68,133.4,171.7Z" transform="translate(-19.79 -23.58)"/><path class="cls-6" d="M133.34,120.22c-9.17,0-18.34,0-27.51,0-1,0-1.14-.35-1-1.2a5.58,5.58,0,0,1,6.47-4.5c2.14.36,3.53-.42,4.18-2.46a3.82,3.82,0,0,1,7-1.06,3.27,3.27,0,0,0,5.78-.33,5.6,5.6,0,0,1,10.25,0,3.27,3.27,0,0,0,5.73.33,3.83,3.83,0,0,1,7.06,1.06,3.29,3.29,0,0,0,4.11,2.42A5.58,5.58,0,0,1,162,119.1c.15.8.08,1.15-.92,1.15C151.82,120.21,142.58,120.22,133.34,120.22Z" transform="translate(-19.79 -23.58)"/><path d="M117.54,132.62A10.33,10.33,0,0,1,127,138.9c.29.6.54.88,1.26.87,3.48-.05,6.95,0,10.43,0a1.1,1.1,0,0,0,1.19-.81,10.4,10.4,0,1,1,18.43,9.52,1.32,1.32,0,0,0,0,1.65,10.4,10.4,0,1,1-18.42,9.55,1.16,1.16,0,0,0-1.26-.87c-3.48.05-7,0-10.43,0a1.1,1.1,0,0,0-1.19.81A10.4,10.4,0,1,1,108.62,150a1.14,1.14,0,0,0,0-1.44,10,10,0,0,1-.23-10.53C110.31,134.51,113.45,132.81,117.54,132.62Z" transform="translate(-19.79 -23.58)"/><path class="cls-7" d="M149.59,159.27a3.84,3.84,0,0,1-4-3.5c-.22-2.51-1.4-3.59-3.94-3.59q-8.31,0-16.63,0c-2.45,0-3.65,1.12-3.85,3.57A3.77,3.77,0,0,1,114,157a3.76,3.76,0,0,1,1.28-4.54l.47-.29a3.33,3.33,0,0,0,0-5.73c-1.75-1.2-2.38-2.71-1.84-4.42a3.75,3.75,0,0,1,4-2.68,3.81,3.81,0,0,1,3.37,3.43c.27,2.64,1.38,3.65,4,3.66h16.64c2.36,0,3.62-1.17,3.8-3.51a3.77,3.77,0,0,1,7.25-1.24,3.69,3.69,0,0,1-1.35,4.5,4,4,0,0,0-1.92,2.33c-.36,1.55.17,2.71,1.77,3.82a3.77,3.77,0,0,1-1.11,6.86A3.9,3.9,0,0,1,149.59,159.27Z" transform="translate(-19.79 -23.58)"/></svg>