<svg id="Vrstva_1" data-name="Vrstva 1" xmlns="http://www.w3.org/2000/svg" viewBox="0 0 259.42 81.42"><defs><style>.cls-1{fill:#0ce2af;}.cls-2{fill:#ff1d6f;}.cls-3,.cls-9{fill:#362b26;}.cls-3{stroke:#fff;stroke-miterlimit:10;}.cls-4{fill:#1d1d1b;}.cls-5{fill:#edbf77;}.cls-6{fill:#281b00;}.cls-7{fill:#fff;}.cls-8{fill:#684800;}.cls-10{fill:#ff5299;}.cls-11{fill:#ffc5df;}.cls-12{fill:#82e8e3;}.cls-13{fill:#00eac8;}.cls-14{fill:#d3d3d3;}.cls-15{fill:none;}</style></defs><path class="cls-1" d="M115.21,158.27a20.62,20.62,0,0,0,9,2.76c1.57,0,2.69-.56,2.69-1.94,0-1.94-2.16-1.94-5.59-3.13-4.1-1.41-6.93-3.43-6.93-7.79,0-5.25,4.06-8.57,10.09-8.57a21.17,21.17,0,0,1,8.8,2v7.08a20.31,20.31,0,0,0-8.72-2.69c-1.42,0-2.39.45-2.39,1.64,0,1.76,2.09,1.76,5.37,2.91,4.21,1.49,7.15,3.58,7.15,8.12,0,5.44-4.28,8.76-10.54,8.76a21.88,21.88,0,0,1-8.94-1.94Z" transform="translate(-20.29 -113.44)"/><path class="cls-1" d="M147.85,166.1a9,9,0,0,1-4.77,1.3,7.78,7.78,0,0,1-4.33-1.15,5.06,5.06,0,0,1-2.34-4.4,5.35,5.35,0,0,1,2.16-4.4,8.77,8.77,0,0,1,5.14-1.38,13.2,13.2,0,0,1,2.8.3v-.26a1.71,1.71,0,0,0-.53-1.34,3.65,3.65,0,0,0-2.46-.67,14,14,0,0,0-5.32,1.23v-5.74a17.1,17.1,0,0,1,6.78-1.34,11.12,11.12,0,0,1,6.63,1.79c1.64,1.23,2.27,2.94,2.27,5.25v5.29c0,.75.26,1.19.93,1.19a1.93,1.93,0,0,0,.86-.22v5.07a7.35,7.35,0,0,1-3.46.71,7,7,0,0,1-4.29-1.23ZM146.51,160a5.58,5.58,0,0,0-1.09-.12c-1,0-1.86.38-1.86,1.34s.78,1.31,1.64,1.31a3.73,3.73,0,0,0,1.31-.26Z" transform="translate(-20.29 -113.44)"/><path class="cls-1" d="M159.21,154.47h-2.53v-5.81h2.53v-2.2c0-3.17.82-5.22,2.27-6.48a8.92,8.92,0,0,1,5.89-1.87,11.32,11.32,0,0,1,3.35.45v5.78a15.61,15.61,0,0,0-2.42-.3c-1.34,0-1.71.78-1.71,2.12v2.5h4v5.81h-4V167h-7.38Z" transform="translate(-20.29 -113.44)"/><path class="cls-1" d="M190,166a18.05,18.05,0,0,1-7.15,1.42c-6.49,0-10.92-3.58-10.92-9.39,0-6,4.73-9.76,10-9.76,4.51,0,9.16,2.79,9.16,9.39a13.78,13.78,0,0,1-.11,1.86H179.37c.71,1.94,2.46,2.61,4.43,2.61A13.42,13.42,0,0,0,190,160.4Zm-5.59-10.28a2.51,2.51,0,0,0-2.57-2.24,2.55,2.55,0,0,0-2.53,2.24Z" transform="translate(-20.29 -113.44)"/><path class="cls-1" d="M203,140h8.75c3.51,0,6.12.41,8.13,1.42a8,8,0,0,1,4.69,7.6,7.77,7.77,0,0,1-4,7.12c-2.09,1.23-5,1.82-8.65,1.82H210.7v9H203Zm9.05,12.15a8.42,8.42,0,0,0,3.47-.48,3,3,0,0,0-.11-5.07,8.24,8.24,0,0,0-3.58-.49H210.7v6Z" transform="translate(-20.29 -113.44)"/><path class="cls-1" d="M243.68,166a18.05,18.05,0,0,1-7.15,1.42c-6.49,0-10.92-3.58-10.92-9.39,0-6,4.73-9.76,9.95-9.76,4.51,0,9.16,2.79,9.16,9.39a13.78,13.78,0,0,1-.11,1.86H233.1c.71,1.94,2.46,2.61,4.43,2.61a13.42,13.42,0,0,0,6.15-1.71Zm-5.59-10.28a2.51,2.51,0,0,0-2.57-2.24A2.55,2.55,0,0,0,233,155.7Z" transform="translate(-20.29 -113.44)"/><path class="cls-1" d="M260.52,166.51a12,12,0,0,1-4.58.89,7.61,7.61,0,0,1-5.4-1.9c-1-1-1.79-2.61-1.79-5.78v-5.25H246v-5.81h2.72v-4.59l7.38-1.26v5.85h4.39v5.81h-4.39v4.73c0,1.46.44,2.28,1.82,2.28a7.76,7.76,0,0,0,2.57-.6Z" transform="translate(-20.29 -113.44)"/><path class="cls-1" d="M263.32,160.13a18.43,18.43,0,0,0,7.52,2.13c.9,0,1.34-.23,1.34-.75,0-1-1.64-.78-4.39-1.56-3.54-1-5.15-2.72-5.15-5.37,0-4,3.69-6.33,8.54-6.33a20.49,20.49,0,0,1,7.52,1.49v5.74a18.07,18.07,0,0,0-7.26-2.09c-.9,0-1.27.26-1.27.71,0,.93,1.53.71,4.32,1.49,3.54,1,5.22,2.57,5.22,5.36,0,4.1-3.8,6.45-8.76,6.45a20,20,0,0,1-7.63-1.53Z" transform="translate(-20.29 -113.44)"/><path class="cls-2" d="M112.41,161.06a20.69,20.69,0,0,0,9,2.76c1.57,0,2.68-.56,2.68-1.94,0-1.93-2.16-1.93-5.59-3.13-4.1-1.41-6.93-3.42-6.93-7.78,0-5.26,4.06-8.57,10.1-8.57a21.08,21.08,0,0,1,8.79,2v7.08a20.38,20.38,0,0,0-8.71-2.68c-1.42,0-2.39.45-2.39,1.64,0,1.75,2.09,1.75,5.37,2.9,4.21,1.49,7.15,3.58,7.15,8.13,0,5.44-4.28,8.75-10.54,8.75a22.08,22.08,0,0,1-9-1.93Z" transform="translate(-20.29 -113.44)"/><path class="cls-2" d="M145.05,168.89a9,9,0,0,1-4.77,1.3A7.74,7.74,0,0,1,136,169a5.05,5.05,0,0,1-2.35-4.4,5.35,5.35,0,0,1,2.16-4.39,8.74,8.74,0,0,1,5.15-1.38,13.8,13.8,0,0,1,2.79.29v-.26a1.74,1.74,0,0,0-.52-1.34,3.65,3.65,0,0,0-2.46-.67,14.24,14.24,0,0,0-5.33,1.23v-5.74a17.17,17.17,0,0,1,6.78-1.34,11.22,11.22,0,0,1,6.64,1.79c1.64,1.23,2.27,2.94,2.27,5.25v5.3c0,.74.26,1.19.93,1.19a2,2,0,0,0,.86-.23v5.07a7.36,7.36,0,0,1-3.47.71,7,7,0,0,1-4.28-1.23Zm-1.34-6.11a5.42,5.42,0,0,0-1.08-.11c-1,0-1.86.37-1.86,1.34s.78,1.3,1.64,1.3a3.67,3.67,0,0,0,1.3-.26Z" transform="translate(-20.29 -113.44)"/><path class="cls-2" d="M156.42,157.26h-2.54v-5.81h2.54v-2.2c0-3.16.82-5.21,2.27-6.48a8.89,8.89,0,0,1,5.89-1.86,11.42,11.42,0,0,1,3.35.44v5.78a15.76,15.76,0,0,0-2.42-.3c-1.34,0-1.72.78-1.72,2.12v2.5h4v5.81h-4v12.52h-7.37Z" transform="translate(-20.29 -113.44)"/><path class="cls-2" d="M187.16,168.78a18.24,18.24,0,0,1-7.16,1.41c-6.48,0-10.91-3.57-10.91-9.39A9.62,9.62,0,0,1,179,151c4.51,0,9.17,2.8,9.17,9.39a15.51,15.51,0,0,1-.11,1.86H176.58c.7,1.94,2.45,2.61,4.43,2.61a13.46,13.46,0,0,0,6.15-1.71Zm-5.59-10.29a2.51,2.51,0,0,0-2.57-2.23,2.56,2.56,0,0,0-2.54,2.23Z" transform="translate(-20.29 -113.44)"/><path class="cls-2" d="M200.23,142.81H209c3.5,0,6.11.41,8.12,1.41a8,8,0,0,1,4.7,7.6,7.76,7.76,0,0,1-4,7.12c-2.09,1.23-5,1.83-8.65,1.83h-1.23v9h-7.68ZM209.29,155a8.34,8.34,0,0,0,3.46-.48,2.57,2.57,0,0,0,1.38-2.5,2.62,2.62,0,0,0-1.49-2.57,8.42,8.42,0,0,0-3.57-.48h-1.16v6Z" transform="translate(-20.29 -113.44)"/><path class="cls-2" d="M240.89,168.78a18.24,18.24,0,0,1-7.16,1.41c-6.48,0-10.92-3.57-10.92-9.39a9.63,9.63,0,0,1,9.95-9.76c4.51,0,9.17,2.8,9.17,9.39a15.51,15.51,0,0,1-.11,1.86H230.3c.71,1.94,2.46,2.61,4.44,2.61a13.46,13.46,0,0,0,6.15-1.71Zm-5.59-10.29a2.51,2.51,0,0,0-2.57-2.23,2.56,2.56,0,0,0-2.54,2.23Z" transform="translate(-20.29 -113.44)"/><path class="cls-2" d="M257.73,169.3a12,12,0,0,1-4.58.89,7.57,7.57,0,0,1-5.41-1.9c-1-1-1.79-2.6-1.79-5.77v-5.26h-2.72v-5.81H246v-4.58l7.38-1.27v5.85h4.4v5.81h-4.4V162c0,1.45.45,2.27,1.83,2.27a7.76,7.76,0,0,0,2.57-.6Z" transform="translate(-20.29 -113.44)"/><path class="cls-2" d="M260.52,162.93a18.38,18.38,0,0,0,7.53,2.12c.89,0,1.34-.22,1.34-.74,0-1-1.64-.79-4.4-1.57-3.54-1-5.14-2.72-5.14-5.36,0-3.95,3.69-6.34,8.53-6.34a20.79,20.79,0,0,1,7.53,1.49v5.74a18.11,18.11,0,0,0-7.26-2.09c-.9,0-1.27.26-1.27.71,0,.93,1.53.71,4.32,1.49,3.54,1,5.22,2.57,5.22,5.37,0,4.1-3.8,6.44-8.76,6.44a20.1,20.1,0,0,1-7.64-1.52Z" transform="translate(-20.29 -113.44)"/><path class="cls-3" d="M114.09,160a20.58,20.58,0,0,0,9,2.75c1.56,0,2.68-.55,2.68-1.93,0-1.94-2.16-1.94-5.59-3.13-4.1-1.42-6.93-3.43-6.93-7.79,0-5.25,4.06-8.57,10.1-8.57a21.27,21.27,0,0,1,8.79,2v7.08a20.41,20.41,0,0,0-8.72-2.68c-1.41,0-2.38.45-2.38,1.64,0,1.75,2.08,1.75,5.36,2.91,4.21,1.49,7.16,3.57,7.16,8.12,0,5.44-4.29,8.76-10.55,8.76a22,22,0,0,1-8.94-1.94Z" transform="translate(-20.29 -113.44)"/><path class="cls-3" d="M146.73,167.77a9,9,0,0,1-4.77,1.31,7.73,7.73,0,0,1-4.32-1.16,5,5,0,0,1-2.35-4.4,5.33,5.33,0,0,1,2.16-4.39,8.71,8.71,0,0,1,5.14-1.38,13.2,13.2,0,0,1,2.8.3v-.26a1.78,1.78,0,0,0-.52-1.35,3.65,3.65,0,0,0-2.46-.67,14.24,14.24,0,0,0-5.33,1.23v-5.73a17.08,17.08,0,0,1,6.78-1.35,11.17,11.17,0,0,1,6.63,1.79c1.64,1.23,2.28,2.95,2.28,5.26v5.29c0,.74.26,1.19.93,1.19a1.89,1.89,0,0,0,.85-.22v5.06a7.35,7.35,0,0,1-3.46.71,7,7,0,0,1-4.29-1.23Zm-1.34-6.11a6.37,6.37,0,0,0-1.08-.11c-1,0-1.87.37-1.87,1.34s.79,1.31,1.64,1.31a3.69,3.69,0,0,0,1.31-.27Z" transform="translate(-20.29 -113.44)"/><path class="cls-3" d="M158.09,156.15h-2.53v-5.82h2.53v-2.19c0-3.17.82-5.22,2.28-6.49a8.88,8.88,0,0,1,5.88-1.86,11.12,11.12,0,0,1,3.36.45V146a15.87,15.87,0,0,0-2.43-.3c-1.34,0-1.71.79-1.71,2.13v2.49h4v5.82h-4v12.52h-7.38Z" transform="translate(-20.29 -113.44)"/><path class="cls-3" d="M188.83,167.66a18.16,18.16,0,0,1-7.15,1.42c-6.48,0-10.92-3.58-10.92-9.39a9.63,9.63,0,0,1,10-9.77c4.51,0,9.17,2.8,9.17,9.39a15.68,15.68,0,0,1-.11,1.87H178.25c.71,1.93,2.46,2.61,4.44,2.61a13.41,13.41,0,0,0,6.14-1.72Zm-5.59-10.28a2.51,2.51,0,0,0-2.57-2.24,2.55,2.55,0,0,0-2.53,2.24Z" transform="translate(-20.29 -113.44)"/><path class="cls-3" d="M201.91,141.69h8.76c3.5,0,6.11.41,8.12,1.41a8,8,0,0,1,4.7,7.61,7.75,7.75,0,0,1-4,7.11c-2.09,1.23-5,1.83-8.64,1.83h-1.23v9h-7.68ZM211,153.84a8.16,8.16,0,0,0,3.46-.49,2.57,2.57,0,0,0,1.38-2.49,2.63,2.63,0,0,0-1.49-2.58,8.44,8.44,0,0,0-3.58-.48h-1.15v6Z" transform="translate(-20.29 -113.44)"/><path class="cls-3" d="M242.56,167.66a18.16,18.16,0,0,1-7.15,1.42c-6.48,0-10.92-3.58-10.92-9.39a9.63,9.63,0,0,1,9.95-9.77c4.51,0,9.17,2.8,9.17,9.39a13.78,13.78,0,0,1-.12,1.87H232c.71,1.93,2.46,2.61,4.43,2.61a13.45,13.45,0,0,0,6.15-1.72ZM237,157.38a2.51,2.51,0,0,0-2.57-2.24,2.55,2.55,0,0,0-2.53,2.24Z" transform="translate(-20.29 -113.44)"/><path class="cls-3" d="M259.4,168.18a11.76,11.76,0,0,1-4.58.9,7.61,7.61,0,0,1-5.4-1.9c-1-1.05-1.79-2.61-1.79-5.78v-5.25h-2.72v-5.82h2.72v-4.58l7.38-1.27v5.85h4.39v5.82H255v4.73c0,1.45.44,2.27,1.82,2.27a8,8,0,0,0,2.57-.59Z" transform="translate(-20.29 -113.44)"/><path class="cls-3" d="M262.2,161.81a18.38,18.38,0,0,0,7.53,2.12c.89,0,1.34-.22,1.34-.74,0-1-1.64-.78-4.4-1.57-3.54-1-5.14-2.72-5.14-5.36,0-3.95,3.69-6.34,8.53-6.34a20.79,20.79,0,0,1,7.53,1.49v5.74a18.06,18.06,0,0,0-7.27-2.08c-.89,0-1.27.26-1.27.7,0,.94,1.53.71,4.33,1.49,3.54,1,5.21,2.58,5.21,5.37,0,4.1-3.8,6.45-8.75,6.45a20.08,20.08,0,0,1-7.64-1.53Z" transform="translate(-20.29 -113.44)"/><path class="cls-4" d="M25.39,163.29a40.5,40.5,0,0,1,17.32-42.73l1.14,1.73a38.42,38.42,0,0,0-16.44,40.54Z" transform="translate(-20.29 -113.44)"/><path class="cls-4" d="M96.58,132.78a38.4,38.4,0,0,0-52.73-10.49l-1.14-1.73a40.47,40.47,0,0,1,55.57,11.05Z" transform="translate(-20.29 -113.44)"/><path class="cls-5" d="M41.18,121.13S29,130.24,34.75,140.24c4.89,8.49-4.35,6.4-.62,15,2.19,5.07,26.43,16,47.47-2.64,9.64-8.54,4.39-26.49-8.11-34.25C63,111.87,47.27,113.66,41.18,121.13Z" transform="translate(-20.29 -113.44)"/><path class="cls-6" d="M55.23,163.71a38.48,38.48,0,0,1-8.41-.92c-7.28-1.61-12.28-5-13.29-7.3-2-4.5-.61-6.5.57-8.27s2.12-3.17-.2-7.19c-2.49-4.32-2.06-9.07,1.23-13.73a25.94,25.94,0,0,1,5.6-5.65c3.07-3.7,8.49-6.18,14.9-6.79a29.84,29.84,0,0,1,18.2,3.94c7.38,4.58,12.61,12.88,13.32,21.15.49,5.76-1.33,10.78-5.12,14.14C72.48,161.54,62.73,163.71,55.23,163.71ZM58.58,115c-6.85,0-13.44,2.25-16.9,6.5l-.06.07-.08,0a24.5,24.5,0,0,0-5.37,5.41c-3,4.27-3.4,8.42-1.15,12.31,2.72,4.72,1.41,6.67.15,8.56-1.09,1.64-2.12,3.18-.45,7,.73,1.7,5.18,5,12.38,6.55,7,1.56,20.73,2.4,34.07-9.41,3.48-3.08,5.14-7.72,4.69-13.06-.67-7.87-5.66-15.79-12.71-20.16A28.11,28.11,0,0,0,58.58,115Z" transform="translate(-20.29 -113.44)"/><circle class="cls-7" cx="23.51" cy="29.92" r="7.59"/><circle cx="24.81" cy="29.52" r="5.87"/><path class="cls-1" d="M46.74,149.75a7,7,0,1,1,4.91-8.56A7,7,0,0,1,46.74,149.75Zm-3.07-11.33a4.76,4.76,0,1,0,5.84,3.35A4.78,4.78,0,0,0,43.67,138.42Z" transform="translate(-20.29 -113.44)"/><path class="cls-6" d="M40.47,150.18a7.91,7.91,0,0,1-2.37-1.77,8,8,0,0,1-1.57-2.55,8,8,0,0,1,1.92-8.54,8,8,0,0,1,2.68-1.69,8.11,8.11,0,0,1,3.17-.5,8.71,8.71,0,0,1,1.6.24,8.41,8.41,0,0,1,1.52.56,7.91,7.91,0,0,1,3.51,10.9,7.95,7.95,0,0,1-4.63,3.79,7.89,7.89,0,0,1-5.83-.44Zm0,0a7.86,7.86,0,0,0,1.4.52,7.34,7.34,0,0,0,1.47.21,7.13,7.13,0,0,0,2.9-.46,7.2,7.2,0,0,0,4.08-3.92,7.29,7.29,0,0,0-3.49-9.39,7.52,7.52,0,0,0-1.27-.48,6.83,6.83,0,0,0-1.34-.23,7.33,7.33,0,0,0-2.71.3,7.15,7.15,0,0,0-2.43,1.3,7.06,7.06,0,0,0-1.8,2.15,7.26,7.26,0,0,0,.85,8.2,8,8,0,0,0,1.08,1A7.78,7.78,0,0,0,40.47,150.18Z" transform="translate(-20.29 -113.44)"/><circle class="cls-7" cx="26.05" cy="31.9" r="0.87"/><ellipse class="cls-7" cx="47.33" cy="141.7" rx="1.04" ry="1.72" transform="translate(-34.18 -108.02) rotate(-5.72)"/><circle class="cls-7" cx="45.97" cy="26.79" r="9.51"/><circle cx="47.6" cy="26.3" r="7.35"/><path class="cls-1" d="M69.92,148a8.46,8.46,0,1,1,5.94-10.38A8.47,8.47,0,0,1,69.92,148Zm-3.85-14.18a6.24,6.24,0,1,0,7.65,4.38A6.24,6.24,0,0,0,66.07,133.78Z" transform="translate(-20.29 -113.44)"/><path class="cls-6" d="M62.1,148.78a9.84,9.84,0,0,1-3-2.22,9.83,9.83,0,0,1-2.55-6.91,9.85,9.85,0,0,1,3.07-6.88A10.09,10.09,0,0,1,63,130.7a9.76,9.76,0,0,1,3.9-.6,9.29,9.29,0,0,1,2,.3,10,10,0,0,1,1.87.69,10.18,10.18,0,0,1,1.7,1,10.45,10.45,0,0,1,1.45,1.37,9.82,9.82,0,0,1,1.25,11.05,9.89,9.89,0,0,1-9.43,5.2A9.68,9.68,0,0,1,62.1,148.78Zm0,0a9.09,9.09,0,0,0,1.74.64,8.9,8.9,0,0,0,1.84.28,9.08,9.08,0,0,0,3.65-.57,9.19,9.19,0,0,0,3.56-14.76,8.94,8.94,0,0,0-2.77-2.07,8.56,8.56,0,0,0-1.62-.61,9,9,0,0,0-1.71-.29,9.16,9.16,0,0,0-7.63,15.12,9.61,9.61,0,0,0,1.35,1.28A9.32,9.32,0,0,0,62.1,148.78Z" transform="translate(-20.29 -113.44)"/><circle class="cls-7" cx="49.15" cy="29.27" r="1.09"/><ellipse class="cls-7" cx="70.68" cy="138.16" rx="1.3" ry="2.16" transform="translate(-33.71 -105.71) rotate(-5.72)"/><ellipse class="cls-8" cx="55.38" cy="152.12" rx="10.26" ry="5.51" transform="translate(-35.18 -107.16) rotate(-5.72)"/><path class="cls-4" d="M59,157.2a18.25,18.25,0,0,1-3,.55,15.75,15.75,0,0,1-7.45-.89c-2.09-.87-3.32-2.18-3.47-3.7s.79-3,2.66-4.31a15.92,15.92,0,0,1,7.13-2.36,15.87,15.87,0,0,1,7.45.9c2.09.86,3.32,2.17,3.47,3.7s-.79,3-2.67,4.31A14,14,0,0,1,59,157.2Zm-7.11-9.87c-4,1.09-6.79,3.41-6.55,5.8.29,3,5,4.89,10.6,4.33a15.54,15.54,0,0,0,7-2.3c1.78-1.2,2.68-2.64,2.54-4h0c-.29-2.94-5.05-4.88-10.6-4.33A18.1,18.1,0,0,0,51.87,147.33Z" transform="translate(-20.29 -113.44)"/><ellipse class="cls-6" cx="54.84" cy="148.64" rx="3.55" ry="1.61" transform="translate(-41.82 -103.62) rotate(-8.57)"/><ellipse class="cls-7" cx="54.7" cy="147.74" rx="1.18" ry="0.53" transform="translate(-41.69 -103.65) rotate(-8.57)"/><path d="M56,150.19a8.06,8.06,0,0,1-.88.19c-2.05.31-3.77-.21-3.92-1.19-.07-.48.26-1,.93-1.42a6.33,6.33,0,0,1,2.46-.87,6.43,6.43,0,0,1,2.62.1c.76.22,1.23.61,1.3,1.09h0c.07.49-.26,1-.92,1.43A5.64,5.64,0,0,1,56,150.19Zm-2.21-2.82a5.09,5.09,0,0,0-1.51.64c-.55.36-.84.78-.79,1.14.12.78,1.76,1.22,3.59.94a6.15,6.15,0,0,0,2.35-.82c.56-.36.85-.77.79-1.14s-.45-.67-1.09-.85a6,6,0,0,0-2.49-.09A5.56,5.56,0,0,0,53.77,147.37Z" transform="translate(-20.29 -113.44)"/><path d="M46.42,153a2.53,2.53,0,0,1,.25-.45,2.13,2.13,0,0,1,.35-.39,1.19,1.19,0,0,1,1-.31h0l0,0a4.7,4.7,0,0,0,1.36,1,3.3,3.3,0,0,0,3.17-.09,6.17,6.17,0,0,0,1.32-1l.15-.14.16.12.42.26a3.17,3.17,0,0,0,.45.23,5.28,5.28,0,0,0,.94.34,4.63,4.63,0,0,0,1,.14,4,4,0,0,0,1-.11,4.26,4.26,0,0,0,.47-.15l.23-.1.21-.12a4.19,4.19,0,0,0,.81-.59,7,7,0,0,0,1.26-1.6l0-.06h.06a2.87,2.87,0,0,1,.41-.05h.42a2.55,2.55,0,0,1,.81.17,2,2,0,0,1,.67.47,2,2,0,0,1,.38.71,1.92,1.92,0,0,0-.44-.64,1.74,1.74,0,0,0-.67-.39,2.73,2.73,0,0,0-.76-.1,2.78,2.78,0,0,0-.76.1l.09-.07A6.8,6.8,0,0,1,60,151.94a4.64,4.64,0,0,1-.4.36l-.22.16-.12.08-.11.07-.24.14-.25.12a3.31,3.31,0,0,1-.53.18,4.39,4.39,0,0,1-2.19,0,5.87,5.87,0,0,1-1-.36,4.59,4.59,0,0,1-.49-.26,3.29,3.29,0,0,1-.46-.3l.3,0a5.51,5.51,0,0,1-1.45,1.07,4.16,4.16,0,0,1-.85.33,3.56,3.56,0,0,1-.91.12,3.75,3.75,0,0,1-1.75-.47,5.4,5.4,0,0,1-.74-.51,4.69,4.69,0,0,1-.63-.63l.06,0a1.06,1.06,0,0,0-.47,0,1.37,1.37,0,0,0-.44.21,2.37,2.37,0,0,0-.66.75Z" transform="translate(-20.29 -113.44)"/><circle cx="30.24" cy="37.71" r="0.72"/><circle cx="38.22" cy="36.68" r="0.45"/><circle cx="31.56" cy="38.31" r="0.21"/><circle cx="36.39" cy="37.91" r="0.2"/><path class="cls-6" d="M51.27,146.54a6.88,6.88,0,0,1,1.6-.81,8.18,8.18,0,0,1,1.76-.41,6.93,6.93,0,0,1,1.82,0,5.1,5.1,0,0,1,1.71.54,9.46,9.46,0,0,0-1.74-.24,10.09,10.09,0,0,0-1.74.06A14.45,14.45,0,0,0,53,146C52.39,146.17,51.83,146.34,51.27,146.54Z" transform="translate(-20.29 -113.44)"/><path class="cls-6" d="M51.88,145.1a4.86,4.86,0,0,1,1.29-.69,5.92,5.92,0,0,1,1.44-.34,5.25,5.25,0,0,1,1.48.05,3.86,3.86,0,0,1,1.37.52,8.6,8.6,0,0,0-1.41-.22,8.17,8.17,0,0,0-1.4,0,10.94,10.94,0,0,0-1.39.25A14.34,14.34,0,0,0,51.88,145.1Z" transform="translate(-20.29 -113.44)"/><path class="cls-6" d="M52.64,143.76a3.63,3.63,0,0,1,1-.55,5.11,5.11,0,0,1,1.09-.27,3.57,3.57,0,0,1,1.13,0l.28.06.27.08.13,0,.13.07.25.13-.28,0-.14,0h-.13l-.27,0h-.27a9.23,9.23,0,0,0-1.05,0l-1,.18Z" transform="translate(-20.29 -113.44)"/><path class="cls-6" d="M53.14,142.37a2.27,2.27,0,0,1,.7-.45,2.91,2.91,0,0,1,.82-.21,2.38,2.38,0,0,1,.84,0l.21,0,.2.07.1,0,.09,0,.18.12c-.29,0-.55,0-.81,0a6.64,6.64,0,0,0-.77.05l-.77.12Z" transform="translate(-20.29 -113.44)"/><path class="cls-4" d="M60.64,131.35a29.91,29.91,0,0,1,1.49-5.87,14,14,0,0,1,1.36-2.78,5.48,5.48,0,0,1,1.09-1.23,2.58,2.58,0,0,1,.8-.44,2.14,2.14,0,0,1,1-.08,4,4,0,0,1,1.58.67,10.21,10.21,0,0,1,1.22,1,18.26,18.26,0,0,1,2,2.37,30.06,30.06,0,0,1,1.6,2.59,24.53,24.53,0,0,1,1.3,2.74c-1.19-1.63-2.35-3.26-3.6-4.79a24.34,24.34,0,0,0-2-2.19,10.2,10.2,0,0,0-1.09-.9,2.91,2.91,0,0,0-1.15-.53,1.14,1.14,0,0,0-.52,0,1.85,1.85,0,0,0-.52.27,4.6,4.6,0,0,0-.93,1,15.32,15.32,0,0,0-1.44,2.54A54.29,54.29,0,0,0,60.64,131.35Z" transform="translate(-20.29 -113.44)"/><path class="cls-4" d="M42.27,135.82a30,30,0,0,1,.32-5.59,16.45,16.45,0,0,1,.68-2.77,7.06,7.06,0,0,1,.63-1.34,3.64,3.64,0,0,1,.5-.63,2.25,2.25,0,0,1,.74-.48,2.1,2.1,0,0,1,1.76.17,4.07,4.07,0,0,1,1.19,1,10.51,10.51,0,0,1,.84,1.21c.24.42.44.85.64,1.29a12.41,12.41,0,0,1,.51,1.32c.16.44.3.89.42,1.34a18.62,18.62,0,0,1,.56,2.75c-.74-1.71-1.45-3.42-2.3-5-.21-.4-.44-.79-.68-1.17a9,9,0,0,0-.77-1.06,3.82,3.82,0,0,0-.9-.78,1.12,1.12,0,0,0-.92-.14,1.82,1.82,0,0,0-.8.71,6.17,6.17,0,0,0-.6,1.14,17,17,0,0,0-.81,2.59C42.84,132.15,42.54,134,42.27,135.82Z" transform="translate(-20.29 -113.44)"/><path class="cls-9" d="M52,114.93l-6.18.69a3.22,3.22,0,0,0-2.64.26L22.71,128A4.07,4.07,0,0,0,20.79,132a13.45,13.45,0,0,0,1.32,4.36c2.26,4.92,7,13.09,8.78,16.05a.59.59,0,0,0,1.08,0C34.12,146.4,44.14,119,46.7,118A24.08,24.08,0,0,0,52,114.93Z" transform="translate(-20.29 -113.44)"/><path d="M51.92,115c-1,.13-2.06.27-3.08.42l-3,.39h-.07a3.25,3.25,0,0,0-1.45-.12,2.71,2.71,0,0,0-.7.21,2.49,2.49,0,0,0-.33.16l-.33.2-2.64,1.62L35,121.06,24.45,127.5l-1.32.8a5,5,0,0,0-.59.4,3.64,3.64,0,0,0-1.28,3.05,10.56,10.56,0,0,0,.69,2.86c.17.46.37.93.58,1.38s.44.93.67,1.38c.92,1.83,1.91,3.64,2.91,5.44s2,3.58,3.08,5.35l1.58,2.66.4.66.2.33.1.17,0,0h0s0,0-.1,0a.18.18,0,0,0-.1.09l.11-.31c.68-2,1.36-3.9,2.07-5.84q2.1-5.84,4.46-11.57c.79-1.91,1.58-3.82,2.42-5.72S42.06,124.9,43,123c.46-.93.94-1.85,1.47-2.76.27-.45.54-.9.84-1.33.16-.22.31-.44.49-.65a2.36,2.36,0,0,1,.7-.6.91.91,0,0,1,.2-.08l.18-.07.35-.13c.24-.1.48-.19.71-.3.46-.21.92-.43,1.38-.67s.9-.49,1.34-.75l.65-.41.33-.21.16-.1.08-.06,0,0s0,0,0,0S51.91,115,51.92,115Zm.15-.06a.19.19,0,0,1,0,.09s0,0,0,0l0,0-.08.06-.15.12-.3.24-.62.47c-.42.31-.86.6-1.3.88s-.89.54-1.35.79l-.7.36-.35.17-.18.08-.15.08a1.69,1.69,0,0,0-.42.45,6.49,6.49,0,0,0-.41.61c-.26.43-.5.88-.73,1.33q-.67,1.38-1.29,2.79c-1.63,3.76-3.12,7.61-4.6,11.45L35,146.5l-2.19,5.79-.07.18,0,.09,0,0,0,.1a1.25,1.25,0,0,1-.64.62,1.33,1.33,0,0,1-1.5-.36,1.58,1.58,0,0,1-.12-.15l-.05-.08,0,0-.1-.17-.19-.34-.39-.67-1.53-2.7c-2-3.61-4-7.22-5.82-11a16.55,16.55,0,0,1-1.95-6,4.67,4.67,0,0,1,1.07-3.2A5,5,0,0,1,22,128a7.59,7.59,0,0,1,.7-.46l1.34-.78,10.71-6.21,5.36-3.1,2.68-1.55.34-.19a2.53,2.53,0,0,1,.37-.18,3.54,3.54,0,0,1,.79-.21,3.61,3.61,0,0,1,1.6.16h-.07l3.17-.29Z" transform="translate(-20.29 -113.44)"/><path class="cls-9" d="M64.66,114.53l6.2-.49a3.24,3.24,0,0,1,2.64-.25l22.39,8.08a4.06,4.06,0,0,1,2.62,3.49,13.6,13.6,0,0,1-.46,4.53c-1.3,5.26-4.44,14.18-5.6,17.42a.59.59,0,0,1-1.06.19c-3.24-5.44-18.26-30.48-21-31A24.38,24.38,0,0,1,64.66,114.53Z" transform="translate(-20.29 -113.44)"/><path d="M64.58,114.51c1-.09,2-.2,3.1-.31l3.17-.31-.06,0a3.54,3.54,0,0,1,1.54-.46,2.77,2.77,0,0,1,.81.06,2.92,2.92,0,0,1,.4.1l.36.13,2.93,1,5.85,2,11.69,4.07,1.46.52a4.86,4.86,0,0,1,.77.32,3.71,3.71,0,0,1,.72.47A4.61,4.61,0,0,1,99,125.1a16.76,16.76,0,0,1-.76,6.31c-1.07,4-2.36,7.94-3.65,11.87l-1,2.94-.25.73-.12.37-.07.18v.05l0,.09a1.19,1.19,0,0,1-.08.16,1.34,1.34,0,0,1-1.41.65,1.24,1.24,0,0,1-.74-.49l-.07-.09,0,0,0-.08-.1-.17-3.24-5.27-6.5-10.52c-2.18-3.5-4.37-7-6.68-10.38-.58-.84-1.18-1.68-1.8-2.49-.31-.4-.62-.8-1-1.17-.17-.18-.34-.37-.51-.52a2.19,2.19,0,0,0-.51-.37l-.16,0-.19,0-.38-.1-.75-.22c-.5-.16-1-.34-1.48-.53s-1-.39-1.43-.61l-.7-.34-.35-.18-.17-.1-.08,0,0,0,0,0A.1.1,0,0,1,64.58,114.51Zm.15,0s0,0,0-.05h0l0,0,.09,0,.17.07.36.14.72.28c.49.17,1,.34,1.46.48s1,.29,1.48.4l.75.16.37.06.19,0,.22,0a2.29,2.29,0,0,1,.79.46,7.84,7.84,0,0,1,.61.54c.38.37.73.76,1.07,1.15.69.79,1.34,1.61,2,2.43,1.27,1.65,2.46,3.34,3.64,5S81,129.25,82.13,131q3.41,5.19,6.56,10.52c1.07,1.77,2.11,3.56,3.15,5.34l.16.29s-.07-.06-.12-.07a.12.12,0,0,0-.1,0h0l0-.05.06-.18.14-.36.26-.73,1-2.9q1.05-2.91,2-5.84c.65-2,1.27-3.92,1.83-5.89.14-.49.27-1,.4-1.48s.22-1,.31-1.48a10.75,10.75,0,0,0,.13-2.93,3.65,3.65,0,0,0-1.27-2.37,3.07,3.07,0,0,0-.56-.38,4.38,4.38,0,0,0-.65-.28l-1.45-.54-11.61-4.33-5.79-2.17-2.9-1.08-.36-.13-.35-.11a3,3,0,0,0-.73-.06,3.2,3.2,0,0,0-1.41.38l0,0h0c-1,.07-2,.13-3,.18Z" transform="translate(-20.29 -113.44)"/><path class="cls-5" d="M69.44,160.24s-16,6.35-30.21-.57h0s-.73,5.23,2,6.64,12.72,6.59,17.33,6.3a17.54,17.54,0,0,0,7.25-1.85l1.29-2.48.19-1.89-1.14-.84.51-.36-.16-.78-.94-1,.16-.17.74-.49,1.24-.7,2-.7.28-.53Z" transform="translate(-20.29 -113.44)"/><path class="cls-4" d="M60.54,165.08a4.73,4.73,0,0,1-1.95.21,8.47,8.47,0,0,1-1.92-.43A9.52,9.52,0,0,1,54.9,164c-.28-.17-.55-.36-.82-.54s-.51-.41-.74-.63c.3.13.59.27.87.41l.87.4c.3.12.58.27.88.37l.43.18.45.16a16.2,16.2,0,0,0,1.81.51A8.48,8.48,0,0,0,60.54,165.08Z" transform="translate(-20.29 -113.44)"/><path class="cls-2" d="M74.1,137.45s4.69-.77,5.92,5.09c0,0-5.1,1.45-5.12,4.46C74.9,147,70.55,143.68,74.1,137.45Z" transform="translate(-20.29 -113.44)"/><path class="cls-10" d="M74.87,138.71s3.44,3.08,3.22,3.89-3.25,3.2-3.25,3.2-1.9-3.26-1.25-4.55S72.12,138.12,74.87,138.71Z" transform="translate(-20.29 -113.44)"/><path class="cls-11" d="M74.67,141.67a5.21,5.21,0,0,0,.41,1.68c.41,1.06-.41,1.31-.41,1.31S73.1,140.18,74.67,141.67Z" transform="translate(-20.29 -113.44)"/><path class="cls-2" d="M94.25,143.6a56.34,56.34,0,0,1,5.86,3.22s-3.43-13.39-9-11.52c0,0-2.08,5.78-.26,7.24C90.8,142.54,91.77,142.4,94.25,143.6Z" transform="translate(-20.29 -113.44)"/><path class="cls-10" d="M91.14,136.12a7.65,7.65,0,0,1,4.32,7.2s-5.79-.2-5.3-1.65S89.85,135.76,91.14,136.12Z" transform="translate(-20.29 -113.44)"/><path class="cls-11" d="M91.73,138.85s0,0,0,.05a5.87,5.87,0,0,1,.43,1.24,1.44,1.44,0,0,1-.19,1.32.51.51,0,0,1-.57.15.44.44,0,0,1-.19-.19c-.2-.37.07-.54.23-.81s.29-.18.16-.68c-.08-.27-.3-.57-.25-.87S91.54,138.51,91.73,138.85Z" transform="translate(-20.29 -113.44)"/><path class="cls-11" d="M83.11,141.79" transform="translate(-20.29 -113.44)"/><path class="cls-7" d="M83.11,141.79s-.51-6-7.86-6.3l-1.15,2s4.59-1.38,5.92,5.09Z" transform="translate(-20.29 -113.44)"/><path class="cls-7" d="M100,145.8s-2.45-12-8.9-10.5c0,0,1.67-3,5.49-1.26s5.63,9.92,5.63,9.92,2.5,7.69,1.58,8.88" transform="translate(-20.29 -113.44)"/><path class="cls-7" d="M103.76,160.37s2.06-18-18.47-18.72c0,0-9.45.42-10.39,5.35s.27,4.26-4.12,8.9c0,0-1.67,3.3-.65,5.29,0,0-3.9.6-4.28,2.35,0,0,3.24.32,1.85,4.85s-10.6,4.09-10.6,4.09S43.34,168.9,39.85,165l-.93-6.84s-.52-6.4-3.17-7-3.73-1.06-7,2-3.18,16.32,2.75,22.94,17.73,18.06,29.33,17.54,23.49-1.55,32-11.41A54.5,54.5,0,0,0,103.76,160.37Z" transform="translate(-20.29 -113.44)"/><path class="cls-12" d="M97.8,145.4a2.24,2.24,0,0,0-1.07-.27c-2.18,0-4.51,1.22-6.47,2.11a3.94,3.94,0,0,0-1.56,1.06,4.61,4.61,0,0,0-.67,2.51c-.14,1.76-.48,3.69-1.86,4.78a4,4,0,0,0-1.1,1,2.32,2.32,0,0,0-.13,1.52,11,11,0,0,0,1.77,4.78,6.71,6.71,0,0,0,4.16,2.8,8.63,8.63,0,0,0,4.42-.61,11,11,0,0,0,6-4.69,10.33,10.33,0,0,0,.52-7.71C101.28,150.77,99.91,146.5,97.8,145.4Z" transform="translate(-20.29 -113.44)"/><path class="cls-11" d="M85.19,158.35s1.11,1.41,2.38,1.32c0,0,.57,2.69-4,4.31,0,0-4.46,1-3.93-2.33a9,9,0,0,1,2-3.61S83.52,159.35,85.19,158.35Z" transform="translate(-20.29 -113.44)"/><path class="cls-2" d="M80.83,164a5.51,5.51,0,0,0,6-2.33,7.5,7.5,0,0,0-3.53.69,1.73,1.73,0,0,0-1.29-.8C81,161.43,80.35,163.25,80.83,164Z" transform="translate(-20.29 -113.44)"/><ellipse class="cls-4" cx="80.97" cy="151.34" rx="3.37" ry="3.94" transform="translate(-24.09 -111.35) rotate(-1.45)"/><circle class="cls-7" cx="61.04" cy="36.06" r="1.62"/><path class="cls-7" d="M79,152.34c.77,1.06,1.43,1,1.65,1.47a.39.39,0,0,1-.16.46h0a.36.36,0,0,1-.46,0c-.3-.44-1.25-.71-1.51-2.38,0-.39,0-.58,0-.36h0A2.83,2.83,0,0,0,79,152.34Z" transform="translate(-20.29 -113.44)"/><circle class="cls-7" cx="60.76" cy="41.09" r="0.22"/><circle class="cls-13" cx="61.88" cy="39.14" r="0.71"/><circle class="cls-13" cx="62.73" cy="38.15" r="0.24"/><ellipse class="cls-4" cx="94.25" cy="155.93" rx="3.94" ry="3.37" transform="translate(-107.52 58.67) rotate(-63.95)"/><circle class="cls-7" cx="75.12" cy="41.01" r="1.62"/><path class="cls-7" d="M92,155.89c.21,1.3.81,1.56.8,2.07,0,.12-.16.32-.37.34h0a.37.37,0,0,1-.39-.24c-.06-.54-.78-1.21-.24-2.81.16-.36.24-.53.18-.31h0A2.78,2.78,0,0,0,92,155.89Z" transform="translate(-20.29 -113.44)"/><circle class="cls-7" cx="72.55" cy="45.35" r="0.22"/><circle class="cls-13" cx="74.44" cy="44.13" r="0.71"/><circle class="cls-13" cx="75.66" cy="43.65" r="0.24"/><circle class="cls-11" cx="56.75" cy="43.89" r="2.42"/><circle class="cls-11" cx="71.33" cy="49.22" r="2.42"/><path class="cls-11" d="M64.86,172.67s-1.09,3.89,1.42,4.68,10-.5,8.91-5.82-5.4-1.57-5.4-1.57S65.66,173,64.86,172.67Z" transform="translate(-20.29 -113.44)"/><path class="cls-12" d="M32.18,176.84S30,162.66,35.34,166c0,0-.13-8,3.85-5.4,0,0,.72-9.92-6.41-10,0,0-5.64,2.21-5.84,7.8S32.18,176.84,32.18,176.84Z" transform="translate(-20.29 -113.44)"/><path class="cls-14" d="M74,177.85s10.91.38,6.7,9-16.44,2.4-16.44,2.4,4.63,4.7,11.06,3.17,9.23-5.16,9.23-5.16,1.14-4.32,0-6.07-2.77-4.08-4.59-4.11-1.91-.78-4.76,0Z" transform="translate(-20.29 -113.44)"/><path class="cls-14" d="M86.33,175.23s-6.28-.9-5.43-4.38,6.33-4.77,10.16-3.12c0,0-2.4-3.8-8-1.38s-4.39,4.83-4.69,6.69,3.25,4,4.69,3.66A15.28,15.28,0,0,0,86.33,175.23Z" transform="translate(-20.29 -113.44)"/><path class="cls-14" d="M68.6,161.55s3.33-.3,3.62,1.82,1.64,3-2,4.74-4,3.38-4,3.38,4.88-3.14,9-3.38a4.27,4.27,0,0,0,.47-4.41s-3.87-3-4.55-2.5S68.6,161.55,68.6,161.55Z" transform="translate(-20.29 -113.44)"/><path class="cls-4" d="M64.86,194.86a40.47,40.47,0,0,1-39.47-31.57l2-.46a38.39,38.39,0,0,0,75.84-8.42,38.23,38.23,0,0,0-6.67-21.63l1.7-1.17a40.45,40.45,0,0,1-33.42,63.25Z" transform="translate(-20.29 -113.44)"/><path class="cls-4" d="M45.86,181.74a41.09,41.09,0,0,0-4.72-.77,13.78,13.78,0,0,1-2.35-.54,14.61,14.61,0,0,1-2.21-1,18.81,18.81,0,0,1-7-6.61,22.06,22.06,0,0,1-3.15-9.14,24.12,24.12,0,0,1-.05-4.88A14,14,0,0,1,27.62,154,8,8,0,0,1,29.09,152a6.43,6.43,0,0,1,2.14-1.43,6,6,0,0,1,2.55-.47,4.58,4.58,0,0,1,2.49.85,5.72,5.72,0,0,1,1.67,2,10.85,10.85,0,0,1,.89,2.33,28.38,28.38,0,0,1,.71,4.8,36.21,36.21,0,0,0,.59,4.69,16,16,0,0,0,.68,2.23A13.67,13.67,0,0,0,41.87,169a12.78,12.78,0,0,0,1.38,1.9,10.84,10.84,0,0,0,.8.87l.43.41.44.39A15.07,15.07,0,0,0,49,175a14.67,14.67,0,0,1-2.21-.91,14.29,14.29,0,0,1-2-1.3,5.58,5.58,0,0,1-.47-.38c-.16-.13-.31-.25-.46-.39s-.59-.55-.86-.85a13.82,13.82,0,0,1-1.52-1.89,14.67,14.67,0,0,1-1.18-2.13c-.15-.37-.31-.75-.44-1.14a11.29,11.29,0,0,1-.35-1.17,35.37,35.37,0,0,1-.74-4.76,29.38,29.38,0,0,0-.78-4.64,9.27,9.27,0,0,0-.83-2.11,4.89,4.89,0,0,0-1.42-1.63,3.54,3.54,0,0,0-.93-.47,4,4,0,0,0-1-.18,5,5,0,0,0-2.11.4,5.57,5.57,0,0,0-1.8,1.22,7.06,7.06,0,0,0-1.28,1.81,12.72,12.72,0,0,0-1.15,4.42,23.51,23.51,0,0,0,0,4.67,22.23,22.23,0,0,0,1,4.57,21.54,21.54,0,0,0,1.92,4.27A18.68,18.68,0,0,0,36.82,179a13.39,13.39,0,0,0,2.1,1.07,14.67,14.67,0,0,0,2.27.63c.78.16,1.57.28,2.35.43A18.86,18.86,0,0,1,45.86,181.74Z" transform="translate(-20.29 -113.44)"/><path class="cls-4" d="M57.05,183.76a22.45,22.45,0,0,0-.42-2.71,10,10,0,0,1-.22-2.8,7.13,7.13,0,0,1,.88-2.72,6.44,6.44,0,0,1,2-2.12,10,10,0,0,1,2.59-1.21c.9-.28,1.8-.5,2.67-.75a14.85,14.85,0,0,0,2.5-.9c.8-.38,1.57-.86,2.39-1.31a11.34,11.34,0,0,1,2.64-1.12,5.9,5.9,0,0,1,3,0,4.05,4.05,0,0,1,1.39.7,3.62,3.62,0,0,1,1,1.22,4.94,4.94,0,0,1,.39,2.94,6.82,6.82,0,0,1-3,4.72,6.16,6.16,0,0,1-2.67.94,10.6,10.6,0,0,1-2.76-.12,11.22,11.22,0,0,0,2.72-.17,6.06,6.06,0,0,0,2.42-1.06A6.42,6.42,0,0,0,77,172.86a4.25,4.25,0,0,0-.4-2.43,2.71,2.71,0,0,0-1.82-1.38,4.93,4.93,0,0,0-2.47,0,10.49,10.49,0,0,0-2.4,1.05c-.79.43-1.58.91-2.45,1.31a14.68,14.68,0,0,1-2.68.93c-.9.23-1.79.43-2.65.68a9.44,9.44,0,0,0-2.42,1,5.82,5.82,0,0,0-1.83,1.8,6.63,6.63,0,0,0-1,2.44C56.6,180.07,57.16,181.92,57.05,183.76Z" transform="translate(-20.29 -113.44)"/><path class="cls-4" d="M75.16,177l.61-.2.64-.14.64-.09.66,0a8.16,8.16,0,0,1,2.63.37,7.41,7.41,0,0,1,4.2,3.41,8.17,8.17,0,0,1,.57,1.29,4.32,4.32,0,0,1,.19.68l.08.35c0,.12,0,.23.05.35a8.84,8.84,0,0,1-.08,2.81,8.07,8.07,0,0,1-1,2.64,7.89,7.89,0,0,1-1.9,2.13,11.91,11.91,0,0,1-5,2.09,19.76,19.76,0,0,1-2.64.3A18.22,18.22,0,0,1,67,191.63a8.74,8.74,0,0,1-1.16-.64,8.26,8.26,0,0,1-1.06-.81,5.22,5.22,0,0,1-.86-1,5.12,5.12,0,0,1-.54-1.19l.1,0a4.87,4.87,0,0,0,1.52,2,6.14,6.14,0,0,0,1,.69,9.23,9.23,0,0,0,1.15.53,15.72,15.72,0,0,0,2.44.67,19.52,19.52,0,0,0,7.54-.05,11.22,11.22,0,0,0,4.6-1.95,7.41,7.41,0,0,0,2-9.06,6.94,6.94,0,0,0-3.67-3.28,8.24,8.24,0,0,0-5-.32Z" transform="translate(-20.29 -113.44)"/><path class="cls-4" d="M88.33,173.39c-.32.36-.64.72-1,1.07s-.69.67-1.07,1a7.19,7.19,0,0,1-2.59,1.42,4.33,4.33,0,0,1-3-.28A5.06,5.06,0,0,1,78,173a5.43,5.43,0,0,1,0-1.56A6.53,6.53,0,0,1,79,168.5a7.16,7.16,0,0,1,2.25-2.1,9.35,9.35,0,0,1,2.83-1.12,9.62,9.62,0,0,1,3-.19,6.81,6.81,0,0,1,2.93,1,7.17,7.17,0,0,1,2.19,2.16A8.66,8.66,0,0,1,93.44,171a10,10,0,0,1,.24,3,9.54,9.54,0,0,1-.73,2.88,7.58,7.58,0,0,1-1.67,2.43,5.46,5.46,0,0,1-2.54,1.4l.34-.13.16-.07.16-.09.32-.17L90,180a1.54,1.54,0,0,0,.29-.21l.28-.22c.16-.17.34-.32.49-.51a7,7,0,0,0,.82-1.14,7.42,7.42,0,0,0,.59-1.28,8.93,8.93,0,0,0,.18-5.48,8.6,8.6,0,0,0-1.16-2.47,6.16,6.16,0,0,0-1.94-1.83A6,6,0,0,0,87,166.1a8.56,8.56,0,0,0-2.71.19,8.35,8.35,0,0,0-2.53,1,6.53,6.53,0,0,0-2,1.8,5.49,5.49,0,0,0-1,2.44A4.36,4.36,0,0,0,81,176a3.74,3.74,0,0,0,2.59.37,6.71,6.71,0,0,0,2.54-1.15A21.35,21.35,0,0,0,88.33,173.39Z" transform="translate(-20.29 -113.44)"/><path class="cls-4" d="M40,165.58a81.68,81.68,0,0,0,8.08,3.85c1.38.55,2.77,1.07,4.19,1.48a28.12,28.12,0,0,0,4.3,1,16.21,16.21,0,0,0,4.34.12,9.7,9.7,0,0,0,4-1.36,2.63,2.63,0,0,0,.44-.3l.43-.33a1.17,1.17,0,0,0,.31-.32,1.1,1.1,0,0,0,.17-.4,1.27,1.27,0,0,0-.79-1.47,8.54,8.54,0,0,0-2.13-.47,4,4,0,0,0-2.15.37,3.76,3.76,0,0,1,2.15-.65,6.29,6.29,0,0,1,1.15.06,9.12,9.12,0,0,1,1.14.21,1.86,1.86,0,0,1,.58.29,1.74,1.74,0,0,1,.45.49,1.88,1.88,0,0,1,.27,1.29,1.69,1.69,0,0,1-.23.65,1.42,1.42,0,0,1-.2.28,1,1,0,0,1-.23.23l-.44.38a3.25,3.25,0,0,1-.47.36A10,10,0,0,1,61.05,173a17,17,0,0,1-4.62-.06,32.53,32.53,0,0,1-8.66-2.75A45.13,45.13,0,0,1,40,165.58Z" transform="translate(-20.29 -113.44)"/><path class="cls-4" d="M65.41,163.38a13,13,0,0,1,2.74-1.87,6.77,6.77,0,0,1,3.34-.7,4.79,4.79,0,0,1,1.73.43,5.38,5.38,0,0,1,1.47,1,8.63,8.63,0,0,1,1.12,1.31,6.06,6.06,0,0,1,.84,1.57,3.65,3.65,0,0,1,.19.94,2.65,2.65,0,0,1-.15,1,2.51,2.51,0,0,1-.54.87,2.6,2.6,0,0,1-.81.57,5,5,0,0,1-1.74.45,11.63,11.63,0,0,0-1.57.15,6.11,6.11,0,0,0-1.39.65,16,16,0,0,1-1.51.71,6.46,6.46,0,0,1-1.63.45,2,2,0,0,1-.85,0,1,1,0,0,1-.39-.2,1,1,0,0,1-.24-.34,1.1,1.1,0,0,0,.29.28,1.14,1.14,0,0,0,.37.11,2,2,0,0,0,.77-.09,6.79,6.79,0,0,0,1.47-.63c.47-.25.93-.53,1.38-.83l.69-.46a3.89,3.89,0,0,1,.82-.39,10.75,10.75,0,0,1,1.68-.27,4.38,4.38,0,0,0,1.41-.42,1.67,1.67,0,0,0,.84-.9,2,2,0,0,0-.07-1.28,5,5,0,0,0-.68-1.32,10.45,10.45,0,0,0-1-1.2,5.06,5.06,0,0,0-1.18-.9,4.89,4.89,0,0,0-1.42-.44,6.76,6.76,0,0,0-3.07.37A18.25,18.25,0,0,0,65.41,163.38Z" transform="translate(-20.29 -113.44)"/><path class="cls-4" d="M69.62,161.3c-.45-1.94-.67-4.21,1.17-6.24l.56-.6a8.69,8.69,0,0,0,2.55-3.88,15,15,0,0,0,.23-1.8,5.74,5.74,0,0,1,1.68-4.28A12.83,12.83,0,0,1,83,141.28a21.81,21.81,0,0,1,9.21,1.06c4.32,1.34,7.39,3.36,9.14,6,2.27,3.46,2.57,7.58,2.86,11.58l0,.4-1,.08,0-.41c-.28-3.86-.57-7.85-2.7-11.08-1.61-2.45-4.49-4.33-8.57-5.59a20.8,20.8,0,0,0-8.78-1,11.85,11.85,0,0,0-6.65,2.95,4.84,4.84,0,0,0-1.36,3.61,14.2,14.2,0,0,1-.25,1.93,9.59,9.59,0,0,1-2.81,4.38l-.54.59c-1.23,1.35-1.5,2.89-.93,5.31Z" transform="translate(-20.29 -113.44)"/><path class="cls-4" d="M104.85,156.69,99.49,146l.93-.46,3.24,6.46c-.51-8-2.65-14-6-16.68a5.12,5.12,0,0,0-4.2-1.24c-3.86.8-2.58,8.08-2.57,8.16l-1,.18c-.07-.34-1.48-8.35,3.37-9.35a6.17,6.17,0,0,1,5.06,1.44c2.3,1.83,6.2,6.84,6.49,19.86Z" transform="translate(-20.29 -113.44)"/><path class="cls-4" d="M93.36,143.26c.7.25,1.4.54,2.09.86s1.36.65,2,1a17.88,17.88,0,0,1,1.94,1.21,6.78,6.78,0,0,1,1.73,1.66l-.84.37c-.45-1.38-.92-2.77-1.46-4.12s-1.1-2.7-1.74-4a17.68,17.68,0,0,0-2.31-3.62,5.9,5.9,0,0,0-.76-.74,3.51,3.51,0,0,0-.88-.55,2.77,2.77,0,0,0-1-.24,3.06,3.06,0,0,0-1.07.19,2.67,2.67,0,0,1,2.21-.3,5,5,0,0,1,2,1.2,11.56,11.56,0,0,1,1.49,1.72,19.77,19.77,0,0,1,1.2,1.91,33.92,33.92,0,0,1,1.88,4.06,43.77,43.77,0,0,1,1.39,4.24l.8,3.05-1.64-2.68A6.79,6.79,0,0,0,98.91,147c-.56-.47-1.16-.89-1.77-1.32s-1.24-.83-1.87-1.23S94,143.65,93.36,143.26Z" transform="translate(-20.29 -113.44)"/><path class="cls-4" d="M83.11,141.79a10,10,0,0,0-1.2-2.43,7.85,7.85,0,0,0-1.79-1.93,7.05,7.05,0,0,0-2.3-1.13,9.16,9.16,0,0,0-2.56-.3l.4-.21a17.27,17.27,0,0,0-1.47,2.67,12,12,0,0,0-.91,2.89,6.85,6.85,0,0,0,.1,3,5.75,5.75,0,0,0,.58,1.41l.21.33.23.31a7,7,0,0,0,.5.61,5.5,5.5,0,0,1-2-2.49,6.72,6.72,0,0,1-.41-1.6,7.68,7.68,0,0,1,0-1.66,8.84,8.84,0,0,1,.3-1.63,11.75,11.75,0,0,1,.52-1.55,15.24,15.24,0,0,1,.7-1.47,11.66,11.66,0,0,1,.87-1.41L75,135h.25a9,9,0,0,1,2.86.42,7.27,7.27,0,0,1,1.34.59,7,7,0,0,1,1.17.85,7.39,7.39,0,0,1,1.71,2.28A8,8,0,0,1,83.11,141.79Z" transform="translate(-20.29 -113.44)"/><path class="cls-4" d="M80,142.54c-.41-.65-.77-1.27-1.15-1.87A12,12,0,0,0,77.64,139a3.9,3.9,0,0,0-1.54-1.12,3.27,3.27,0,0,0-1-.18,6,6,0,0,0-1.09.09,3.09,3.09,0,0,1,1-.59,2.81,2.81,0,0,1,1.23-.11,3.59,3.59,0,0,1,2.12,1.21,6.41,6.41,0,0,1,1.18,2A6.54,6.54,0,0,1,80,142.54Z" transform="translate(-20.29 -113.44)"/><ellipse class="cls-4" cx="49.5" cy="58.04" rx="1.08" ry="0.64"/><ellipse class="cls-4" cx="52.74" cy="59.68" rx="1.08" ry="0.64"/><ellipse class="cls-4" cx="51.93" cy="57.87" rx="1.08" ry="0.64"/><path class="cls-4" d="M66.57,172.64a.54.54,0,0,0-.25.71c.09.27.42.36.7.41a3.47,3.47,0,0,1,2.34,1.3,1.49,1.49,0,0,0,.2.29,1,1,0,0,0,.72.25,1.24,1.24,0,0,0,1.13-.45,1.22,1.22,0,0,0,0-1.17,3.07,3.07,0,0,0-1.88-1.46A5.23,5.23,0,0,0,66.57,172.64Z" transform="translate(-20.29 -113.44)"/><path class="cls-4" d="M72.22,168.42a3.49,3.49,0,0,1-.46-.33,3,3,0,0,1-.31-.3,3.76,3.76,0,0,1-.25-.31l-.33-.43a.73.73,0,0,1,.62-.1,1.1,1.1,0,0,1,.54.32,1.2,1.2,0,0,1,.26.53A.9.9,0,0,1,72.22,168.42Z" transform="translate(-20.29 -113.44)"/><path class="cls-4" d="M75.08,168.11a5.35,5.35,0,0,1-.57-.62l-.44-.58a5.28,5.28,0,0,0-.42-.5A1.65,1.65,0,0,0,73,166a.88.88,0,0,1,.91-.14,1.61,1.61,0,0,1,.75.57,2.23,2.23,0,0,1,.37.78A1.87,1.87,0,0,1,75.08,168.11Z" transform="translate(-20.29 -113.44)"/><path class="cls-4" d="M76.32,166c-.32-.16-.59-.32-.85-.47a6,6,0,0,0-.76-.38A2.84,2.84,0,0,0,74,165a4.69,4.69,0,0,0-.92,0,1.44,1.44,0,0,1,.86-.61,1.87,1.87,0,0,1,1.12.09,2.36,2.36,0,0,1,.85.64A2,2,0,0,1,76.32,166Z" transform="translate(-20.29 -113.44)"/><path class="cls-4" d="M79.15,174.79a2.51,2.51,0,0,1-.05-1,3.1,3.1,0,0,1,.27-.93,2.15,2.15,0,0,1,.64-.81,1.18,1.18,0,0,1,.51-.23.74.74,0,0,1,.53.12,1.1,1.1,0,0,0-.61.54c-.13.22-.25.46-.37.71s-.25.52-.4.78A4.53,4.53,0,0,1,79.15,174.79Z" transform="translate(-20.29 -113.44)"/><path class="cls-4" d="M81.73,176.7a1.92,1.92,0,0,1-.38-.77,2.36,2.36,0,0,1-.06-.84,1.93,1.93,0,0,1,.27-.84,1,1,0,0,1,.76-.49,2,2,0,0,0-.19.72c0,.23,0,.45-.07.69s-.06.48-.1.73A3.75,3.75,0,0,1,81.73,176.7Z" transform="translate(-20.29 -113.44)"/><path class="cls-4" d="M84.2,176.46a1.84,1.84,0,0,1-.35-.94,2.38,2.38,0,0,1,.1-1,2.23,2.23,0,0,1,.5-.87,1.8,1.8,0,0,1,.84-.54c-.11.34-.24.59-.33.86s-.19.52-.27.78-.16.53-.23.81S84.3,176.13,84.2,176.46Z" transform="translate(-20.29 -113.44)"/><path d="M82.12,164.3a2.82,2.82,0,0,1-2.2-.8c-1.59-1.88,1.5-5.39,1.63-5.54l.19.17s-3.07,3.49-1.62,5.21c.67.8,2.38.93,4,.32,2-.75,3.27-2.24,3.27-4h.26c0,2.2-1.78,3.63-3.44,4.23A6.29,6.29,0,0,1,82.12,164.3Z" transform="translate(-20.29 -113.44)"/><path d="M96.74,163.12a10.52,10.52,0,0,0-1.32-.5A9.82,9.82,0,0,0,94,162.3a5.13,5.13,0,0,0-1.41,0,2.65,2.65,0,0,0-1.29.54,2.43,2.43,0,0,1,1.28-.58,5.27,5.27,0,0,1,1.43,0,9.3,9.3,0,0,1,1.38.35A7.85,7.85,0,0,1,96.74,163.12Z" transform="translate(-20.29 -113.44)"/><path d="M85.19,158.35a4.11,4.11,0,0,0,1,.72,3.73,3.73,0,0,0,1.1.4,3.68,3.68,0,0,0,.58.07c.1,0,.2,0,.3,0h.29l.3,0,.3,0,.59-.11-.56.24c-.2,0-.4.12-.6.14a3.75,3.75,0,0,1-1.25,0A3,3,0,0,1,85.19,158.35Z" transform="translate(-20.29 -113.44)"/><path d="M97.51,160.7a9.8,9.8,0,0,0-1.71-.08,8.78,8.78,0,0,0-1.69.21,6.07,6.07,0,0,0-1.59.58,5.18,5.18,0,0,0-1.33,1.05,4.44,4.44,0,0,1,1.31-1.09,6.87,6.87,0,0,1,1.6-.61,10.79,10.79,0,0,1,1.7-.19A9,9,0,0,1,97.51,160.7Z" transform="translate(-20.29 -113.44)"/><path d="M72.22,156.08a7.47,7.47,0,0,1,1.42,0,8.35,8.35,0,0,1,1.41.17,4.59,4.59,0,0,1,1.34.49,2.39,2.39,0,0,1,1,1,2.52,2.52,0,0,0-1-1,4.91,4.91,0,0,0-1.33-.47,9.42,9.42,0,0,0-1.4-.19A13.45,13.45,0,0,0,72.22,156.08Z" transform="translate(-20.29 -113.44)"/><path d="M73.93,154.21a9,9,0,0,1,1.34.5,8.29,8.29,0,0,1,1.24.68,5.09,5.09,0,0,1,1.06,1,2.32,2.32,0,0,1,.54,1.3,2.51,2.51,0,0,0-.58-1.27,4.44,4.44,0,0,0-1-.93,9.36,9.36,0,0,0-1.23-.71A12.53,12.53,0,0,0,73.93,154.21Z" transform="translate(-20.29 -113.44)"/><path d="M80.9,157.34a4.11,4.11,0,0,0,.95.72,4.4,4.4,0,0,0,1.1.4,3.83,3.83,0,0,0,.58.07h.3l.29,0,.3,0,.3,0c.2,0,.39-.09.6-.12l-.57.24a4.34,4.34,0,0,1-.6.14,3.5,3.5,0,0,1-1.25,0A3,3,0,0,1,80.9,157.34Z" transform="translate(-20.29 -113.44)"/><path d="M84.59,157.8c.22.6.61,1,1.3.51a2.11,2.11,0,0,1,.61-.41c.17-.05.35-.05.52-.09a.45.45,0,0,0,.37-.33.42.42,0,0,0-.26-.41,1.47,1.47,0,0,0-.51-.08,2.5,2.5,0,0,1-1.26-.33,4.25,4.25,0,0,0-.7-.5.3.3,0,0,0-.29,0c-.09.07-.08.2-.07.32A5.92,5.92,0,0,0,84.59,157.8Z" transform="translate(-20.29 -113.44)"/><path class="cls-15" d="M62.07,164.25" transform="translate(-20.29 -113.44)"/><path class="cls-4" d="M66.77,168.91a4.9,4.9,0,0,0,.17-1.71,1.62,1.62,0,0,0-.24-.68,1.47,1.47,0,0,0-.51-.48,4.51,4.51,0,0,0-1.54-.51c-.57-.11-1.16-.18-1.77-.29a5.68,5.68,0,0,1,1.83-.32,3.64,3.64,0,0,1,1.89.46,2.06,2.06,0,0,1,.74.78,2,2,0,0,1,.21,1A2.89,2.89,0,0,1,66.77,168.91Z" transform="translate(-20.29 -113.44)"/><path class="cls-4" d="M60.23,165.11A7.36,7.36,0,0,1,62,163.72a5.55,5.55,0,0,1,2.22-.73,2.78,2.78,0,0,1,1.26.2,1.8,1.8,0,0,1,.55.36,3.1,3.1,0,0,1,.72,1,1.15,1.15,0,0,1,.09.33.57.57,0,0,1-.08.41.6.6,0,0,1-.32.22.84.84,0,0,1-.31,0,2.13,2.13,0,0,1-.57-.11,3,3,0,0,0,.54-.1c.17,0,.33-.15.33-.23a.23.23,0,0,0,0-.13.87.87,0,0,0-.11-.18,3.73,3.73,0,0,0-.33-.38,1.88,1.88,0,0,0-.77-.53,2.19,2.19,0,0,0-.93-.1,7.65,7.65,0,0,0-2,.5C61.6,164.52,60.92,164.82,60.23,165.11Z" transform="translate(-20.29 -113.44)"/></svg>