<svg id="Vrstva_1" data-name="Vrstva 1" xmlns="http://www.w3.org/2000/svg" viewBox="0 0 69.52 65.61"><defs><style>.cls-1{fill:#ffc5df;}.cls-2{fill:#1d1d1b;}</style></defs><path class="cls-1" d="M23.41,16.68c1.77-.86,2.45-.56,4.37-.75,4-.41,7.35-5.17,10.53-7.36A41.51,41.51,0,0,1,50.78,2.76a9.67,9.67,0,0,1,5.1-.35,9.92,9.92,0,0,1,4.57,3.48c6.68,7.89,10.9,18.53,8.74,28.64a32,32,0,0,1-9.38,16A61.3,61.3,0,0,1,44.26,60.92c-7.35,3.63-15.23,6.5-23.42,6.85a21,21,0,0,1-11-2.06A18,18,0,0,1,1.71,55.2c-2-6.36-2.52-14.38,2.23-19.63C5,34.38,6,33,6.83,31.87c2.08-2.65,4.12-5.32,6.41-7.79A47.62,47.62,0,0,1,17,20.57l2-1.74a9.53,9.53,0,0,1,4.37-2.13l.07,0" transform="translate(-0.24 -2.19)"/><ellipse class="cls-2" cx="31.23" cy="23.88" rx="7.32" ry="4.35" transform="translate(-4.18 4.11) rotate(-10.85)"/><ellipse class="cls-2" cx="54.94" cy="30.67" rx="7.32" ry="4.35" transform="translate(-5.03 8.7) rotate(-10.85)"/><ellipse class="cls-2" cx="47.22" cy="19.65" rx="7.32" ry="4.35" transform="translate(-3.1 7.05) rotate(-10.85)"/><path class="cls-2" d="M11.18,35.68a3.73,3.73,0,0,0-.75,5.07c1,1.69,3.29,1.85,5.23,1.88,6.23.07,13,1.08,17.26,5.64A12.3,12.3,0,0,0,34.65,50a7,7,0,0,0,5.1.74c2.86-.44,5.9-1.77,7-4.45s-.14-5.57-1.85-7.76c-3.42-4.37-8.9-6.81-14.42-7.32C27.54,30.94,15.36,31.87,11.18,35.68Z" transform="translate(-0.24 -2.19)"/></svg>