<svg id="Vrstva_1" data-name="Vrstva 1" xmlns="http://www.w3.org/2000/svg" viewBox="0 0 267.01 372.4"><defs><style>.cls-1{fill:#ff1d6f;}.cls-2{fill:#0ce2af;}.cls-3{fill:#362b26;stroke:#fff;stroke-miterlimit:10;stroke-width:4px;}</style></defs><path class="cls-1" d="M34.91,159.17c42,12,85.09,16.89,94.61-16.35,5.43-18.93-3.13-37.87-29.45-45.41C83,92.51,63.59,94,38.85,101.84L51.58,22.56c22.57-5.53,55.29-4.64,83,3.3,63.71,18.26,108.39,75,91.06,135.51-14.56,50.78-64.78,77.86-113,73.53l-10.39,31L21.45,242.74ZM63.58,275.3a49.47,49.47,0,1,1-27.26,95.1,49.47,49.47,0,1,1,27.26-95.1Z"/><path class="cls-2" d="M72.53,140.13c42,12,85.09,16.89,94.62-16.35,5.42-18.93-3.14-37.87-29.45-45.41-17.09-4.9-36.48-3.46-61.23,4.43L89.2,3.52c22.57-5.52,55.29-4.64,83,3.3,63.71,18.26,108.39,75,91.06,135.51-14.56,50.79-64.78,77.86-113,73.53l-10.38,31L59.07,223.7ZM101.2,256.26a49.47,49.47,0,1,1-61.64,33.79A49.5,49.5,0,0,1,101.2,256.26Z"/><path class="cls-3" d="M55.58,147c42,12,85.09,16.89,94.62-16.35,5.42-18.93-3.14-37.87-29.45-45.41-17.08-4.9-36.48-3.46-61.23,4.43L72.26,10.41c22.56-5.52,55.28-4.64,83,3.3C219,32,263.63,88.74,246.3,149.22c-14.56,50.79-64.78,77.86-113,73.53l-10.38,31-80.8-23.16ZM84.25,263.15A49.47,49.47,0,1,1,57,358.25a49.47,49.47,0,1,1,27.26-95.1Z"/></svg>