<?xml version="1.0" encoding="utf-8"?>
<!-- Generator: Adobe Illustrator 25.4.1, SVG Export Plug-In . SVG Version: 6.00 Build 0)  -->
<svg version="1.1" id="Vrstva_1" xmlns="http://www.w3.org/2000/svg" xmlns:xlink="http://www.w3.org/1999/xlink" x="0px" y="0px"
	 viewBox="0 0 42 28.8" style="enable-background:new 0 0 42 28.8;" xml:space="preserve">
<style type="text/css">
	.st0{fill:#00B3B7;}
	.st1{fill:#00B2B5;}
</style>
<path class="st0" d="M6.9,4.5C6.8,4.6,6.7,4.7,6.6,4.6s0.1-0.2,0.2-0.2L6.9,4.5z"/>
<g>
	<path class="st1" d="M35.2,11.6c-1.3-0.7-2.6-0.5-3.8,0.3c-0.2,0.2-0.4,0.2-0.6,0c-1.5-1-3-1.7-4.7-2.1c-1.4-0.4-2.8-0.6-4.3-0.6
		c0-0.1,0-0.1,0-0.2c0.5-2.3,1-4.7,1.5-7c0.1-0.3,0.2-0.2,0.4-0.2c1.5,0.3,3,0.6,4.5,0.9c0.3,0.1,0.4,0.1,0.4,0.4
		c0.3,1.1,1.3,1.9,2.4,1.8c1.1,0,2.1-0.9,2.3-1.9C33.6,1.8,33,0.7,32,0.2c-1-0.5-2.2-0.2-2.9,0.7c-0.1,0.2-0.3,0.2-0.5,0.2
		c-1.8-0.4-3.6-0.7-5.4-1.1c-0.6-0.1-1,0.2-1.1,0.8c-0.5,2.6-1.1,5.3-1.6,7.9C20.3,9,20.2,9,20,9c-3.2,0.1-6.2,1-8.9,2.8
		c-0.2,0.2-0.4,0.1-0.6,0c-1.2-0.8-2.4-1-3.7-0.4c-1.3,0.6-2,1.7-2,3.2c0,1.4,0.7,2.4,1.8,3.1C6.8,17.7,7,17.7,7,17.9
		c-0.1,0.3,0,0.7,0,1c0,2,0.9,3.7,2.2,5.2c2.6,2.8,6,4,9.8,4.4c1.8,0.2,3.6,0.2,5.4-0.1c2.8-0.5,5.4-1.4,7.6-3.3
		c2.2-1.9,3.4-4.2,3.3-7.2c0-0.2,0.1-0.3,0.2-0.4c1-0.6,1.5-1.6,1.6-2.7C37.2,13.4,36.5,12.3,35.2,11.6z M12.8,17
		c0-1.3,1.1-2.4,2.5-2.4c1.3,0,2.4,1.1,2.3,2.4c0,1.3-1.1,2.4-2.4,2.4C13.9,19.5,12.8,18.3,12.8,17z M27.1,23.5c0,0.1,0,0.2-0.1,0.2
		c-1.8,1.2-3.8,2-5.9,1.9c-2.1,0-4-0.4-5.7-1.6c-0.1-0.1-0.2-0.1-0.3-0.2c-0.3-0.2-0.4-0.5-0.2-0.8c0.2-0.3,0.5-0.4,0.9-0.2
		c0.1,0.1,0.2,0.1,0.3,0.2c1.4,0.9,2.9,1.4,4.6,1.4c1.7,0,3.2-0.2,4.7-1.1c0.2-0.1,0.5-0.3,0.7-0.5c0.3-0.2,0.5-0.1,0.8,0
		C27.2,23,27.2,23.2,27.1,23.5z M26.7,19.6c-1.3-0.1-2.5-0.8-2.6-2.4c0-1.3,1-2.4,2.4-2.4c1.3,0,2.4,1.1,2.4,2.5
		C28.9,18.5,27.9,19.7,26.7,19.6z"/>
</g>
</svg>
