<svg id="Vrstva_1" data-name="Vrstva 1" xmlns="http://www.w3.org/2000/svg" viewBox="0 0 527.88 100.81"><defs><style>.cls-1{fill:#0ce2af;}.cls-2{fill:#ff1d6f;}.cls-3{fill:#362b26;stroke:#fff;stroke-miterlimit:10;}</style></defs><path class="cls-1" d="M11.34,63.26c10.53,6.09,22.46,8.66,28.31,8.66,4.92,0,8.43-1.75,8.43-6.08,0-6.08-6.79-6.08-17.55-9.83C17.66,51.56,8.77,45.24,8.77,31.55c0-16.5,12.76-26.91,31.72-26.9,8.77,0,19.65,2.23,27.61,6.21V33.09c-10.17-5.74-21.41-8.43-27.37-8.43-4.45,0-7.49,1.4-7.49,5.14,0,5.5,6.55,5.5,16.84,9.13,13.22,4.69,22.47,11.24,22.46,25.51,0,17.09-13.46,27.5-33.12,27.49-8.65,0-19.53-2-28.07-6.09Z"/><path class="cls-1" d="M113.83,87.85a28.35,28.35,0,0,1-15,4.1,24.37,24.37,0,0,1-13.57-3.63,15.83,15.83,0,0,1-7.37-13.81A16.79,16.79,0,0,1,84.7,60.7c4.45-3.27,10.53-4.32,16.15-4.32a41.73,41.73,0,0,1,8.77.94V56.5A5.48,5.48,0,0,0,108,52.28c-1.75-1.63-4.68-2.1-7.72-2.1-6.08,0-11.93,1.87-16.73,3.85V36a54,54,0,0,1,21.3-4.2c8.31,0,15.91,1.87,20.82,5.62,5.15,3.86,7.14,9.24,7.14,16.5V70.54c0,2.34.82,3.75,2.93,3.75a6.26,6.26,0,0,0,2.69-.7V89.5c-2.46,1.4-6.44,2.22-10.89,2.22-4.79,0-9.59-.94-13.45-3.87Zm-4.21-19.19a19,19,0,0,0-3.4-.35c-3,0-5.85,1.17-5.85,4.21,0,2.81,2.46,4.1,5.15,4.1a11.56,11.56,0,0,0,4.1-.82Z"/><path class="cls-1" d="M149.52,51.36h-8V33.1h8V26.2c0-9.94,2.58-16.38,7.14-20.35C161.58,1.52,168.6,0,175.15,0a35.68,35.68,0,0,1,10.53,1.41V19.54a49.6,49.6,0,0,0-7.61-.94c-4.21,0-5.38,2.46-5.38,6.67v7.84h12.63V51.37H172.68V90.68H149.51Z"/><path class="cls-1" d="M246,87.53C240,90.34,231.41,92,223.57,92c-20.36,0-34.28-11.25-34.28-29.5,0-18.95,14.87-30.65,31.25-30.64,14.16,0,28.78,8.78,28.77,29.49a45.21,45.21,0,0,1-.35,5.85H212.81c2.22,6.08,7.72,8.19,13.92,8.19A42.08,42.08,0,0,0,246,70ZM228.49,55.24c-1.05-5.27-4.68-7-8.07-7-4.1,0-6.91,2.57-8,7Z"/><path class="cls-1" d="M287.11,6h27.5c11,0,19.19,1.29,25.5,4.45,8.78,4.33,14.74,12.06,14.74,23.87,0,9.83-4.22,17.44-12.64,22.35-6.55,3.86-15.56,5.73-27.15,5.73H311.2V90.71H287.09Zm28.43,38.15c5.26,0,8.89-.46,10.88-1.52,2.81-1.4,4.33-4.09,4.33-7.83s-1.64-6.67-4.68-8.08c-2.22-1.05-5.15-1.52-11.23-1.52h-3.63v19Z"/><path class="cls-1" d="M414.74,87.57C408.66,90.38,400.12,92,392.28,92,371.92,92,358,80.77,358,62.52c0-19,14.87-30.65,31.25-30.64,14.16,0,28.78,8.78,28.77,29.49a45.21,45.21,0,0,1-.35,5.85H381.52c2.22,6.08,7.72,8.19,13.92,8.19A42.08,42.08,0,0,0,414.75,70ZM397.2,55.28c-1.05-5.27-4.68-7-8.07-7-4.1,0-6.91,2.57-8,7Z"/><path class="cls-1" d="M467.62,89.23A37.37,37.37,0,0,1,453.23,92c-7.14,0-13.22-2.23-17-6-3.28-3.28-5.62-8.19-5.61-18.14V51.42h-8.54V33.17h8.54V18.78l23.16-4V33.18h13.81V51.43h-13.8V66.29c0,4.56,1.4,7.14,5.73,7.14a24.74,24.74,0,0,0,8.08-1.87Z"/><path class="cls-1" d="M476.4,69.22c8.89,4.8,19.19,6.67,23.63,6.67,2.81,0,4.21-.7,4.21-2.33,0-3.16-5.14-2.46-13.8-4.92-11.11-3.16-16.14-8.55-16.14-16.85.12-12.41,11.59-19.89,26.8-19.89a64.81,64.81,0,0,1,23.63,4.69v18c-8.89-4.69-18.48-6.56-22.81-6.56-2.81,0-4,.82-4,2.22,0,2.93,4.8,2.22,13.57,4.68,11.12,3.17,16.38,8.08,16.38,16.86C527.76,84.68,515.94,92,500.38,92c-6.79,0-16.5-1.41-24-4.8Z"/><path class="cls-2" d="M2.57,72C13.1,78.12,25,80.69,30.88,80.69c4.91,0,8.42-1.75,8.42-6.08,0-6.08-6.78-6.08-17.54-9.83C8.89,60.33,0,54,0,40.32c0-16.5,12.76-26.91,31.71-26.9,8.78,0,19.66,2.23,27.62,6.21V41.86c-10.18-5.74-21.41-8.43-27.38-8.43-4.44,0-7.49,1.4-7.49,5.14,0,5.5,6.55,5.5,16.85,9.13,13.22,4.69,22.46,11.24,22.46,25.51,0,17.09-13.46,27.5-33.12,27.49-8.66,0-19.54-2-28.08-6.09Z"/><path class="cls-2" d="M105.05,96.62a28.3,28.3,0,0,1-15,4.1A24.41,24.41,0,0,1,76.5,97.09a15.85,15.85,0,0,1-7.37-13.81,16.81,16.81,0,0,1,6.79-13.81c4.45-3.27,10.54-4.32,16.15-4.32a41.75,41.75,0,0,1,8.78.94v-.82a5.48,5.48,0,0,0-1.64-4.22c-1.75-1.63-4.68-2.1-7.72-2.1-6.09,0-11.94,1.87-16.73,3.85v-18a54,54,0,0,1,21.3-4.2c8.3,0,15.91,1.87,20.82,5.62C122,50.06,124,55.44,124,62.7V79.31c0,2.34.82,3.75,2.92,3.75a6.3,6.3,0,0,0,2.7-.7V98.27c-2.46,1.4-6.43,2.22-10.88,2.22-4.8,0-9.59-.94-13.45-3.87Zm-4.21-19.19a18.85,18.85,0,0,0-3.39-.35c-3,0-5.85,1.17-5.85,4.21,0,2.81,2.46,4.1,5.15,4.1a11.55,11.55,0,0,0,4.09-.82Z"/><path class="cls-2" d="M140.74,60.13h-8V41.87h8V35c0-9.94,2.58-16.38,7.14-20.35,4.91-4.33,11.94-5.85,18.49-5.85a35.73,35.73,0,0,1,10.53,1.41V28.31a49.34,49.34,0,0,0-7.6-.94c-4.21,0-5.38,2.46-5.39,6.67v7.84h12.64V60.14H163.91V99.45H140.73Z"/><path class="cls-2" d="M237.26,96.3c-6.09,2.81-14.63,4.45-22.47,4.45-20.36,0-34.28-11.25-34.27-29.5,0-19,14.87-30.65,31.25-30.64,14.15,0,28.78,8.78,28.77,29.49a47.06,47.06,0,0,1-.35,5.85H204c2.23,6.08,7.73,8.19,13.93,8.19a42,42,0,0,0,19.3-5.38ZM219.72,64c-1.06-5.27-4.68-7-8.08-7-4.09,0-6.9,2.57-7.95,7Z"/><path class="cls-2" d="M278.34,14.76h27.49c11,0,19.19,1.29,25.51,4.45,8.77,4.33,14.74,12.06,14.74,23.87,0,9.83-4.22,17.44-12.64,22.35-6.56,3.86-15.57,5.73-27.15,5.73h-3.86V99.48h-24.1Zm28.42,38.15c5.27,0,8.89-.46,10.88-1.52C320.45,50,322,47.3,322,43.56s-1.63-6.67-4.67-8.08c-2.23-1-5.15-1.52-11.24-1.52h-3.62V52.91Z"/><path class="cls-2" d="M406,96.34c-6.09,2.81-14.63,4.45-22.47,4.45-20.36,0-34.28-11.25-34.27-29.5,0-19,14.86-30.65,31.24-30.64,14.16,0,28.78,8.78,28.78,29.49A47.06,47.06,0,0,1,408.9,76H372.74c2.23,6.08,7.72,8.19,13.92,8.19A42,42,0,0,0,406,78.79ZM388.42,64.05c-1.05-5.27-4.67-7-8.07-7-4.09,0-6.9,2.57-8,7Z"/><path class="cls-2" d="M458.85,98a37.41,37.41,0,0,1-14.39,2.8c-7.14,0-13.22-2.23-17-6-3.27-3.28-5.61-8.19-5.61-18.14V60.19h-8.54V41.94h8.54V27.55l23.17-4V42h13.8V60.2H445.05V75.06c0,4.56,1.4,7.14,5.73,7.14a24.69,24.69,0,0,0,8.07-1.87Z"/><path class="cls-2" d="M467.63,78c8.89,4.8,19.18,6.67,23.63,6.67,2.81,0,4.21-.7,4.21-2.33,0-3.16-5.15-2.46-13.8-4.92-11.12-3.16-16.15-8.55-16.15-16.85.12-12.41,11.59-19.89,26.8-19.89A64.9,64.9,0,0,1,516,45.36v18c-8.89-4.69-18.48-6.56-22.81-6.56-2.81,0-4,.82-4,2.22,0,2.93,4.79,2.22,13.57,4.68,11.11,3.17,16.38,8.08,16.38,16.86-.12,12.87-11.94,20.23-27.5,20.23-6.79,0-16.5-1.41-24-4.8Z"/><path class="cls-3" d="M7.83,68.52c10.53,6.09,22.46,8.66,28.31,8.67,4.92,0,8.43-1.76,8.43-6.09C44.57,65,37.78,65,27,61.27,14.15,56.82,5.26,50.5,5.26,36.81,5.27,20.32,18,9.91,37,9.91c8.77,0,19.65,2.23,27.61,6.21V38.35c-10.17-5.74-21.41-8.43-27.37-8.43-4.45,0-7.49,1.4-7.49,5.14,0,5.5,6.55,5.5,16.84,9.13C59.78,48.88,69,55.43,69,69.71,69,86.79,55.56,97.2,35.9,97.19c-8.65,0-19.53-2-28.08-6.09Z"/><path class="cls-3" d="M110.32,93.12a28.44,28.44,0,0,1-15,4.09,24.2,24.2,0,0,1-13.57-3.63A15.83,15.83,0,0,1,74.4,79.77,16.79,16.79,0,0,1,81.19,66c4.44-3.27,10.53-4.32,16.15-4.32a41.73,41.73,0,0,1,8.77.94v-.82a5.46,5.46,0,0,0-1.64-4.21c-1.75-1.64-4.68-2.11-7.72-2.11-6.08,0-11.93,1.87-16.73,3.86v-18a54,54,0,0,1,21.3-4.21c8.31,0,15.91,1.88,20.82,5.62,5.15,3.86,7.14,9.25,7.14,16.5V75.8c0,2.34.82,3.75,2.93,3.75a6.12,6.12,0,0,0,2.69-.7V94.76C132.43,96.16,128.45,97,124,97c-4.79,0-9.59-.94-13.45-3.86Zm-4.21-19.19a18.16,18.16,0,0,0-3.4-.35c-3,0-5.85,1.16-5.85,4.21,0,2.8,2.46,4.09,5.15,4.09a11.61,11.61,0,0,0,4.1-.82Z"/><path class="cls-3" d="M146,56.62h-8V38.37h8V31.46c0-9.94,2.58-16.38,7.14-20.35,4.92-4.33,11.94-5.85,18.49-5.85a35.68,35.68,0,0,1,10.53,1.41V24.8a50.76,50.76,0,0,0-7.61-.93c-4.21,0-5.38,2.45-5.38,6.66v7.84h12.63V56.63H169.17V95.94H146Z"/><path class="cls-3" d="M242.52,92.8c-6.08,2.8-14.62,4.44-22.46,4.44-20.36,0-34.28-11.24-34.28-29.5,0-18.95,14.87-30.65,31.25-30.64,14.16,0,28.78,8.78,28.77,29.49a45.21,45.21,0,0,1-.35,5.85H209.3c2.22,6.08,7.72,8.19,13.92,8.19a42.06,42.06,0,0,0,19.31-5.37ZM225,60.5c-1-5.27-4.68-7-8.07-7-4.1,0-6.91,2.57-8,7Z"/><path class="cls-3" d="M283.6,11.26h27.5c11,0,19.19,1.29,25.5,4.45,8.78,4.34,14.74,12.06,14.74,23.88,0,9.82-4.22,17.43-12.64,22.34-6.55,3.86-15.56,5.73-27.15,5.73h-3.86V96H283.58ZM312,49.41c5.26,0,8.89-.47,10.88-1.52,2.81-1.41,4.33-4.1,4.33-7.84s-1.64-6.67-4.68-8.08c-2.22-1-5.15-1.52-11.23-1.52H307.7v19Z"/><path class="cls-3" d="M411.23,92.84c-6.08,2.8-14.63,4.44-22.46,4.44-20.36,0-34.28-11.24-34.28-29.5,0-19,14.87-30.65,31.25-30.64,14.16,0,28.78,8.78,28.77,29.49a45.21,45.21,0,0,1-.35,5.85H378c2.22,6.09,7.72,8.19,13.92,8.19a42.06,42.06,0,0,0,19.31-5.37Zm-17.54-32.3c-1.05-5.27-4.68-7-8.07-7-4.1,0-6.91,2.57-8,7Z"/><path class="cls-3" d="M464.11,94.49a37.37,37.37,0,0,1-14.39,2.8c-7.14,0-13.22-2.22-17-6-3.28-3.28-5.62-8.19-5.62-18.14V56.69h-8.54V38.43h8.54V24l23.16-4V38.44h13.81V56.7h-13.8V71.55c0,4.56,1.4,7.14,5.73,7.14a24.49,24.49,0,0,0,8.08-1.87Z"/><path class="cls-3" d="M472.89,74.48c8.89,4.8,19.19,6.68,23.63,6.68,2.81,0,4.21-.7,4.21-2.34,0-3.16-5.14-2.46-13.8-4.92-11.11-3.16-16.14-8.54-16.14-16.85.12-12.4,11.59-19.89,26.8-19.89a65,65,0,0,1,23.63,4.69v18c-8.89-4.68-18.48-6.56-22.81-6.56-2.81,0-4,.82-4,2.22,0,2.93,4.8,2.23,13.57,4.69,11.12,3.16,16.38,8.07,16.38,16.85-.12,12.87-11.94,20.24-27.5,20.23-6.79,0-16.5-1.4-24-4.8Z"/></svg>