<svg id="Vrstva_1" data-name="Vrstva 1" xmlns="http://www.w3.org/2000/svg" viewBox="0 0 34.45 28.7"><defs><style>.cls-1{fill:#00b3b7;}</style></defs><path class="cls-1" d="M39.8,10.14a16.75,16.75,0,0,0-.46,2q-2,9.09-3.89,18.18l-1,4.5a3.24,3.24,0,0,1-.35.94,1.4,1.4,0,0,1-1.68.7,2.86,2.86,0,0,1-1-.48L24,30.52c-.2-.14-.31-.15-.49,0C22.23,31.77,21,33,19.7,34.18a2,2,0,0,1-1.15.57c-.19,0-.25,0-.23-.22.18-2.5.36-5,.53-7.51a.62.62,0,0,1,.25-.48L33.44,13.66c.17-.15.45-.3.29-.56s-.44-.14-.68-.08a2,2,0,0,0-.56.28L14.67,24.45a.54.54,0,0,1-.52.08L6.63,22.18a2.41,2.41,0,0,1-1-.5.73.73,0,0,1-.09-1.1,2.69,2.69,0,0,1,1.2-.82L14.05,17,37.4,8a2.76,2.76,0,0,1,.85-.19,1.39,1.39,0,0,1,1.49,1.29c.08.15,0,.33.06.48Z" transform="translate(-5.35 -7.83)"/><path class="cls-1" d="M39.8,9.6a.67.67,0,0,1-.06-.48h.06Z" transform="translate(-5.35 -7.83)"/></svg>