<svg id="Vrstva_1" data-name="Vrstva 1" xmlns="http://www.w3.org/2000/svg" viewBox="0 0 42.31 34.69"><defs><style>.cls-1{fill:#00b3b7;}</style></defs><path class="cls-1" d="M2.16,35.23A17.81,17.81,0,0,0,12.6,32.64c.43-.27.83-.56,1.24-.85a1.58,1.58,0,0,0,.28-.23A9,9,0,0,1,6,25.48,10.71,10.71,0,0,0,10,25.33a8.89,8.89,0,0,1-5-3.16,8.67,8.67,0,0,1-1.9-5.51,9.51,9.51,0,0,0,2.58.92,3.87,3.87,0,0,0,1.25.1A10.79,10.79,0,0,1,5.2,16.06,8.43,8.43,0,0,1,4.07,6.52c.16-.33.24-.47.56-.1a24.38,24.38,0,0,0,14.08,8.32,23,23,0,0,0,3.08.39c.32,0,.42,0,.36-.37A8.71,8.71,0,0,1,29,4.65a8.52,8.52,0,0,1,7.79,2.28.73.73,0,0,0,.77.21,19.18,19.18,0,0,0,4.62-1.77c.1,0,.19-.16.4-.07a8.56,8.56,0,0,1-3.73,4.63,22.8,22.8,0,0,0,4.85-1.2l-.39.57a17,17,0,0,1-3.51,3.58.81.81,0,0,0-.37.81c.3,9.59-5.32,19.09-14,23-8.11,3.69-16.13,3.21-23.84-1.36C1.75,35.06,2,35.22,2.16,35.23Z" transform="translate(-1.38 -4.47)"/><path class="cls-1" d="M2.16,35.23c-.16.1-.39-.08-.53.11-.11,0-.18-.06-.25-.19A1.7,1.7,0,0,1,2.16,35.23Z" transform="translate(-1.38 -4.47)"/></svg>