<svg id="Vrstva_1" data-name="Vrstva 1" xmlns="http://www.w3.org/2000/svg" xmlns:xlink="http://www.w3.org/1999/xlink" viewBox="0 0 181.37 206.69"><defs><style>.cls-1{fill:none;}.cls-2{fill:#ffc5df;}.cls-3{fill:#0ce2af;}.cls-4{clip-path:url(#clip-path);}.cls-5{fill:#ff5299;}.cls-6{fill:#82e8e3;}.cls-7{fill:#444;}.cls-8{fill:#404040;}.cls-9{fill:#6e6e6e;}.cls-10{fill:#5b5b5b;}.cls-11{fill:#8d8d8d;}.cls-12{fill:#959595;}.cls-13{fill:#727272;}.cls-14{fill:#505050;}.cls-15{fill:#555;}.cls-16{fill:#797979;}.cls-17{fill:#898989;}.cls-18{fill:#00b3b7;}.cls-19{clip-path:url(#clip-path-2);}.cls-20{clip-path:url(#clip-path-3);}</style><clipPath id="clip-path" transform="translate(-14.32 15.21)"><circle class="cls-1" cx="153.22" cy="89.24" r="18.1"/></clipPath><clipPath id="clip-path-2" transform="translate(-14.32 15.21)"><circle class="cls-1" cx="141.12" cy="36.61" r="18.1"/></clipPath><clipPath id="clip-path-3" transform="translate(-14.32 15.21)"><circle class="cls-1" cx="118.56" cy="71.14" r="16.56"/></clipPath><image id="image" width="2000" height="2000" xlink:href="../coins2.png"/></defs><circle class="cls-2" cx="99.94" cy="125.27" r="81.42"/><path d="M126.12,174.4H81.56a7.75,7.75,0,0,1-8-6.27,8,8,0,0,1-.14-1.7q0-35.58,0-71.17a1.76,1.76,0,0,1,1.29-1.89l47.39-16.2c4.24-1.44,8.48-2.9,12.71-4.35a11.48,11.48,0,0,1,15.47,10.91c0,2.89,0,5.79,0,8.68,0,.83.26,1,1,1q9.72,0,19.42,0c4,0,6.92,2.11,7.94,5.61a10,10,0,0,1,.34,2.82c0,5.94,0,11.88,0,17.82,0,.78.08,1.11,1,1.11a4,4,0,0,1,4.07,4.06q.06,9.08,0,18.16a4,4,0,0,1-4,4c-1,0-1.13.41-1.12,1.27,0,5.86,0,11.73,0,17.59,0,5.32-3.21,8.52-8.54,8.52Z" transform="translate(-14.32 15.21)"/><path class="cls-3" d="M85,93.25l21.49-7.36q14.6-5,29.18-10c6-2.05,11.38,1.72,11.47,8.07,0,2.85,0,5.71,0,8.56,0,.59-.08.88-.79.88q-30.37,0-60.76,0A5,5,0,0,1,85,93.25Z" transform="translate(-14.32 15.21)"/><g class="cls-4"><use transform="translate(71.62 52.63) scale(0.05)" xlink:href="#image"/></g><path class="cls-3" d="M124.35,96.56h46c3.69,0,5.42,1.74,5.42,5.47,0,5.86,0,11.72,0,17.59,0,.85-.16,1.14-1.09,1.13-4.38,0-8.76,0-13.14,0a13.16,13.16,0,0,0-2.22,26.18,17.12,17.12,0,0,0,3,.15c4.15,0,8.3,0,12.45,0,.88,0,1.05.25,1,1.08,0,6.06,0,12.11,0,18.16a4.59,4.59,0,0,1-4.91,4.93H81.45a4.5,4.5,0,0,1-4.85-4.73q0-34.5,0-69c0-1,.51-1,1.18-1Z" transform="translate(-14.32 15.21)"/><path class="cls-5" d="M170,123.89h9.36c1.32,0,1.54.21,1.54,1.52,0,5.68,0,11.35,0,17,0,1-.38,1.5-1.39,1.5-6.28,0-12.56.11-18.83-.11a9.77,9.77,0,0,1-9.35-10.24,9.92,9.92,0,0,1,9.74-9.67c3-.07,5.94,0,8.91,0Z" transform="translate(-14.32 15.21)"/><path class="cls-6" d="M167.61,133.87a5.66,5.66,0,1,1-5.76-5.62A5.64,5.64,0,0,1,167.61,133.87Z" transform="translate(-14.32 15.21)"/><path class="cls-3" d="M164.44,133.93a2.5,2.5,0,0,1-2.45,2.49,2.59,2.59,0,0,1-2.56-2.54,2.51,2.51,0,0,1,2.49-2.47A2.45,2.45,0,0,1,164.44,133.93Z" transform="translate(-14.32 15.21)"/><path d="M65.12,114.12l.42.09c.08.11.2.1.31.13l.26.06c.15,0,.29.1.43,0l2.56.51c.1.15.27.12.4.16l.26,0c.12,0,.23.07.34,0l.28.05a28.07,28.07,0,0,1,5.34,2,30.37,30.37,0,0,1,4.94,3,.85.85,0,0,0,1.21,0,5.16,5.16,0,0,1,8,3.12,1,1,0,0,0,.72.81A5.07,5.07,0,0,1,94,129.57a.82.82,0,0,0,.4.79,6,6,0,0,1,1.18,1.07,4.41,4.41,0,0,1,1,3.43l-.32,1.56A10.94,10.94,0,0,1,94,140a1.84,1.84,0,0,0-.44,1.65,28.68,28.68,0,0,1,.29,6.14,19.16,19.16,0,0,0-.2,2l-.09.43c-.11.07-.11.19-.13.29a1.84,1.84,0,0,0-.05.25c0,.1-.07.21,0,.32l-.63,3.13c-.11.06-.11.17-.13.27s-.06.2,0,.3l-.14.71c-.44,1.14-.69,2.35-1.19,3.48A32.39,32.39,0,0,1,79.59,173.1,32.33,32.33,0,0,1,43.12,173c-.7-.47-.7-.48-.88.36a12,12,0,0,1-12,9.5c-3.39-.19-6.62-1-9-3.7a14.51,14.51,0,0,1-3-5.42A6.28,6.28,0,0,1,18,173a3.28,3.28,0,0,0-1.51-2,5,5,0,0,1-1.92-5.83,5.23,5.23,0,0,1,6.9-3.14c3.17,1.16,4.89,3.57,5.92,6.61.3.9.56,1.81.92,2.68a1.83,1.83,0,0,0,2,1.26,2.06,2.06,0,0,0,1.9-1.45,24,24,0,0,1,1.52-4.76c.19-.41-.07-.43-.37-.46a6,6,0,0,1-2.83-.8,5,5,0,0,1-2.38-4.53,1.37,1.37,0,0,0-.61-1.29,5,5,0,0,1-1.68-6,1,1,0,0,0-.21-1.17,5.09,5.09,0,0,1,2.87-8.52c.54-.1.7-.35.75-.86a31.82,31.82,0,0,1,5.46-14.82,32.44,32.44,0,0,1,8.2-8.24,31.79,31.79,0,0,1,12.62-5.29,25.78,25.78,0,0,1,9.31-.25A.34.34,0,0,0,65.12,114.12Z" transform="translate(-14.32 15.21)"/><path class="cls-7" d="M69.52,115.14c-.17,0-.34,0-.42-.22l.43.09s0,.06,0,.09S69.53,115.14,69.52,115.14Z" transform="translate(-14.32 15.21)"/><path class="cls-8" d="M66.54,114.41c-.14.16-.3.08-.46,0s0-.07,0-.1l0,0Z" transform="translate(-14.32 15.21)"/><path class="cls-9" d="M69.52,115.14a.53.53,0,0,1,0-.13l.29.06s.05.06,0,.08,0,0,0,0Z" transform="translate(-14.32 15.21)"/><path class="cls-10" d="M66.11,114.32a.35.35,0,0,1,0,.13l-.28-.07a.06.06,0,0,1,0-.09s0,0,0,0Z" transform="translate(-14.32 15.21)"/><path class="cls-11" d="M69.8,115.19a.5.5,0,0,1,0-.12l.28.06C70,115.3,69.91,115.23,69.8,115.19Z" transform="translate(-14.32 15.21)"/><path class="cls-12" d="M93.36,150.48c0-.12,0-.25.17-.25l-.06.29S93.38,150.56,93.36,150.48Z" transform="translate(-14.32 15.21)"/><path class="cls-13" d="M93.36,150.48l.11,0,0,.28c-.06.06-.1,0-.12,0Z" transform="translate(-14.32 15.21)"/><path class="cls-14" d="M93.3,150.77l.12,0-.06.29A.24.24,0,0,1,93.3,150.77Z" transform="translate(-14.32 15.21)"/><path class="cls-15" d="M92.55,154.49c0-.13,0-.24.18-.27l-.06.28C92.62,154.55,92.58,154.55,92.55,154.49Z" transform="translate(-14.32 15.21)"/><path class="cls-16" d="M92.55,154.49h.12l-.06.29C92.45,154.72,92.51,154.6,92.55,154.49Z" transform="translate(-14.32 15.21)"/><path class="cls-17" d="M65.83,114.26s0,.09,0,.12-.26,0-.26-.17Z" transform="translate(-14.32 15.21)"/><path class="cls-3" d="M87.29,124.84a3.08,3.08,0,0,1-.57,1.23,53,53,0,0,1-25.09,20.07,73.67,73.67,0,0,1-29.18,5.11c-1,0-2.08-.09-3.11-.15a2.49,2.49,0,0,1-2.44-2.54,2.43,2.43,0,0,1,2.64-2.39,73.76,73.76,0,0,0,20.21-1.69c10-2.24,19-6.36,26.41-13.48a44.71,44.71,0,0,0,6.57-7.88,2.45,2.45,0,0,1,2.53-1.2,2.36,2.36,0,0,1,1.95,1.63A2.18,2.18,0,0,1,87.29,124.84Z" transform="translate(-14.32 15.21)"/><path class="cls-18" d="M30.21,157.62a2.49,2.49,0,0,1-1.91-3.42.9.9,0,0,1,1-.64,75.6,75.6,0,0,0,34.81-5.78,54.85,54.85,0,0,0,24.62-20.24l.08-.12c.62-.92,1-1,1.86-.18a2.5,2.5,0,0,1,.25,3.37,50.37,50.37,0,0,1-5,6.38,59,59,0,0,1-23.24,15.27,87.09,87.09,0,0,1-31.84,5.42C30.59,157.67,30.35,157.63,30.21,157.62Z" transform="translate(-14.32 15.21)"/><path class="cls-3" d="M32.92,163.23a2.51,2.51,0,0,1-2.14-2.52c0-.44.14-.56.59-.55A90.85,90.85,0,0,0,54,157.51c10-2.46,19.27-6.47,27.39-12.92A53.31,53.31,0,0,0,92.25,133c.41-.6.68-.49,1.09-.1a2.51,2.51,0,0,1,.16,3.42A62.13,62.13,0,0,1,84,146.5,68.94,68.94,0,0,1,55.09,161a78.26,78.26,0,0,1-20.51,2.35C34,163.29,33.38,163.25,32.92,163.23Z" transform="translate(-14.32 15.21)"/><path class="cls-18" d="M36.55,166.69A32.56,32.56,0,0,0,40,170.26c.14.13.28.25.2.49-.52,1.42-.64,3-1.37,4.34A9.79,9.79,0,0,1,27,179.7a8.89,8.89,0,0,1-5.62-5.27c-.54-1.31-1-2.67-1.46-4a2,2,0,0,0-1.35-1.28,2.45,2.45,0,0,1-1.57-2.9,2.48,2.48,0,0,1,2.81-1.85,5.82,5.82,0,0,1,3.95,2.71,15.61,15.61,0,0,1,1.5,3.52c.2.6.38,1.2.63,1.77a4.43,4.43,0,0,0,4.86,2.85,4.66,4.66,0,0,0,4.14-3.77A17.06,17.06,0,0,1,36.55,166.69Z" transform="translate(-14.32 15.21)"/><path class="cls-3" d="M72.28,173.91a70.31,70.31,0,0,0,3.08-8.23,63.62,63.62,0,0,0,2.25-10.49,1.89,1.89,0,0,1,1-1.59,55.62,55.62,0,0,0,5.2-3.7,41.09,41.09,0,0,1-.38,5.51,51.87,51.87,0,0,1-3.85,14.09,1.76,1.76,0,0,1-.48.7A28.45,28.45,0,0,1,72.28,173.91Z" transform="translate(-14.32 15.21)"/><path class="cls-18" d="M57,119.76c.59-1.06,1.29-2,1.93-2.93.17-.25.41-.24.64-.25a30,30,0,0,1,19.9,6c.3.22.34.36.11.68a50.67,50.67,0,0,1-3.67,4.47c-.28.3-.42.22-.67,0a30.14,30.14,0,0,0-11.57-6.36A49.16,49.16,0,0,0,57,119.76Z" transform="translate(-14.32 15.21)"/><path class="cls-3" d="M53.82,125.74c.49-1.16,1-2.26,1.61-3.35a.46.46,0,0,1,.56-.3c5.7,1,11.15,2.6,15.9,6,.55.4,1,.88,1.57,1.29.38.29.29.46,0,.75a47.14,47.14,0,0,1-5.22,4c-.24.16-.4.33-.71,0A29.73,29.73,0,0,0,56.21,127l-2.11-.79C53.91,126.12,53.57,126.08,53.82,125.74Z" transform="translate(-14.32 15.21)"/><path class="cls-18" d="M75,155.83a63.27,63.27,0,0,1-5.47,18,2.65,2.65,0,0,1-2.32,1.58.83.83,0,0,1-.66-.2A31.46,31.46,0,0,1,63,172c-.29-.3-.34-.48,0-.83a28.59,28.59,0,0,0,6-11.75,1.2,1.2,0,0,1,.77-.93c1.57-.68,3.09-1.48,4.59-2.31Z" transform="translate(-14.32 15.21)"/><path class="cls-18" d="M44.53,143a37.76,37.76,0,0,1,.82-9.86,39.81,39.81,0,0,1,6.26-14.54,1.57,1.57,0,0,1,.89-.67,31.87,31.87,0,0,1,3.2-.79c-.48.77-.91,1.45-1.33,2.14a41.71,41.71,0,0,0-5.45,14.2,31.86,31.86,0,0,0-.38,8.16c0,.5-.1.68-.57.75C46.83,142.53,45.7,142.75,44.53,143Z" transform="translate(-14.32 15.21)"/><path class="cls-3" d="M47.65,120.11l-.88,1.72a41.74,41.74,0,0,0-4.72,20.61c0,.74-.18.94-.88,1-.94,0-1.87.15-2.81.24-.33,0-.5,0-.5-.44a48.68,48.68,0,0,1,4-19,2.54,2.54,0,0,1,.76-1,30.45,30.45,0,0,1,4.46-3C47.25,120.16,47.38,120,47.65,120.11Z" transform="translate(-14.32 15.21)"/><path class="cls-18" d="M63.34,175.92a34,34,0,0,1-4.64-.06,3,3,0,0,1-1.66-.6,25.46,25.46,0,0,1-7.95-9.91c-.24-.53-.17-.66.4-.75,1.5-.25,3-.56,4.48-.87.34-.07.55-.06.73.32a35.51,35.51,0,0,0,8.5,11.63S63.27,175.79,63.34,175.92Z" transform="translate(-14.32 15.21)"/><path class="cls-18" d="M91.07,143.11A29.73,29.73,0,0,1,83.63,166,60,60,0,0,0,86,154.47a61.73,61.73,0,0,0,.31-6.23c0-.22,0-.42.15-.6C88,146.24,89.53,144.77,91.07,143.11Z" transform="translate(-14.32 15.21)"/><path class="cls-18" d="M65.61,135.82a50.07,50.07,0,0,1-4.84,2.47c-.26.13-.4,0-.56-.13A24.43,24.43,0,0,0,52,133.35c-.38-.13-.44-.32-.36-.69.3-1.33.67-2.63,1.08-3.91.08-.24.13-.4.44-.29C57.73,130.11,62.14,132.11,65.61,135.82Z" transform="translate(-14.32 15.21)"/><path class="cls-3" d="M39.05,165.75c2.13-.14,4.18-.22,6.2-.55.86-.14,1.19.1,1.5.89a24.05,24.05,0,0,0,5,7.73l.55.6C49.35,174.26,42,169.5,39.05,165.75Z" transform="translate(-14.32 15.21)"/><path class="cls-3" d="M66.1,160.05a23.6,23.6,0,0,1-5.16,9.56A36.16,36.16,0,0,1,57,163,87.25,87.25,0,0,0,66.1,160.05Z" transform="translate(-14.32 15.21)"/><path class="cls-18" d="M37.56,128.78c-.25,1-.52,2-.76,3A47.65,47.65,0,0,0,35.42,143c0,.61-.15.89-.82.83a14.1,14.1,0,0,0-2,0c-.6,0-.84-.11-.76-.78a30.43,30.43,0,0,1,1.86-7.59A24.83,24.83,0,0,1,37.56,128.78Z" transform="translate(-14.32 15.21)"/><path class="cls-3" d="M58,139.45A59,59,0,0,1,51,141.64a30.82,30.82,0,0,1,0-5.52c0-.62.41-.32.64-.23A24.26,24.26,0,0,1,58,139.45Z" transform="translate(-14.32 15.21)"/><g class="cls-19"><use transform="translate(59.52) scale(0.05)" xlink:href="#image"/></g><g class="cls-20"><use transform="translate(80.64 39.43) scale(0.05)" xlink:href="#image"/></g></svg>