<svg id="Vrstva_1" data-name="Vrstva 1" xmlns="http://www.w3.org/2000/svg" viewBox="0 0 203.31 170.44"><defs><style>.cls-1{fill:#444;}.cls-2{fill:#404040;}.cls-3{fill:#6e6e6e;}.cls-4{fill:#5b5b5b;}.cls-5{fill:#8d8d8d;}.cls-6{fill:#959595;}.cls-7{fill:#727272;}.cls-8{fill:#505050;}.cls-9{fill:#555;}.cls-10{fill:#797979;}.cls-11{fill:#898989;}.cls-12{fill:#0ce2af;}.cls-13{fill:#00b3b7;}</style></defs><path d="M128.77,20.71l1,.21c.18.29.49.27.76.34l.65.13c.35,0,.69.27,1.05,0l6.33,1.28c.24.36.65.27,1,.38l.65.13c.28,0,.56.18.83,0l.7.15A70.2,70.2,0,0,1,155,28.21a77.15,77.15,0,0,1,12.19,7.47,2.11,2.11,0,0,0,3,.13,12.74,12.74,0,0,1,19.74,7.69,2.43,2.43,0,0,0,1.76,2,12.5,12.5,0,0,1,8.56,13.36,2,2,0,0,0,1,2,14.83,14.83,0,0,1,2.9,2.64,10.84,10.84,0,0,1,2.51,8.46l-.78,3.86c-1.13,3.48-3.5,6.18-5.81,8.88a4.58,4.58,0,0,0-1.07,4.09,71.69,71.69,0,0,1,.71,15.14,47.86,47.86,0,0,0-.5,4.93l-.21,1c-.27.17-.27.46-.33.72s-.09.4-.13.61-.15.53,0,.78l-1.56,7.73c-.25.16-.26.43-.32.67s-.14.5,0,.74l-.36,1.76c-1.08,2.83-1.71,5.8-2.94,8.59a79.84,79.84,0,0,1-28.84,34.85,79.81,79.81,0,0,1-90-.28c-1.74-1.17-1.73-1.19-2.18.88-3,13.89-15.86,24.24-29.67,23.46-8.37-.48-16.36-2.45-22.25-9.14A35.75,35.75,0,0,1,13,167.84c-.17-.57-.41-1.13-.53-1.71-.48-2.23-1.84-3.62-3.72-4.95C4,157.84,2.31,153,4,146.8c1.57-5.75,8.91-10.69,17-7.75,7.83,2.84,12.08,8.79,14.62,16.32.75,2.21,1.39,4.45,2.27,6.61a4.52,4.52,0,0,0,4.9,3.1,5,5,0,0,0,4.68-3.58,58.84,58.84,0,0,1,3.76-11.74c.46-1-.16-1.07-.9-1.14-2.45-.24-4.87-.56-7-2a12.27,12.27,0,0,1-5.88-11.18,3.42,3.42,0,0,0-1.5-3.19,12.31,12.31,0,0,1-4.17-14.86,2.32,2.32,0,0,0-.51-2.88,12.58,12.58,0,0,1,7.09-21c1.33-.25,1.71-.86,1.84-2.13a78.39,78.39,0,0,1,13.5-36.58A79.5,79.5,0,0,1,74,34.45a78.5,78.5,0,0,1,31.16-13.07c7.59-1.41,15.27-2,23-.62A.92.92,0,0,0,128.77,20.71Z" transform="translate(-3.35 -19.97)"/><path class="cls-1" d="M139.62,23.22c-.41,0-.83,0-1-.52l1,.21c.1.08.13.16.08.22S139.66,23.23,139.62,23.22Z" transform="translate(-3.35 -19.97)"/><path class="cls-2" d="M132.28,21.42c-.34.4-.74.21-1.13.1-.09-.1-.11-.18-.05-.24s.09-.08.13-.07Z" transform="translate(-3.35 -19.97)"/><path class="cls-3" d="M139.62,23.22c0-.1,0-.21,0-.31l.71.14c.09.08.12.16.07.22s-.08.09-.12.08Z" transform="translate(-3.35 -19.97)"/><path class="cls-4" d="M131.23,21.21c0,.1,0,.2-.08.31l-.71-.15c-.08-.1-.1-.18,0-.23a.17.17,0,0,1,.13-.08Z" transform="translate(-3.35 -19.97)"/><path class="cls-5" d="M140.32,23.35c0-.1,0-.2.05-.3l.7.14C140.9,23.62,140.6,23.45,140.32,23.35Z" transform="translate(-3.35 -19.97)"/><path class="cls-6" d="M198.49,110.49c0-.3,0-.63.43-.63l-.14.71C198.64,110.71,198.54,110.68,198.49,110.49Z" transform="translate(-3.35 -19.97)"/><path class="cls-7" d="M198.49,110.49a1.57,1.57,0,0,1,.29.08l-.14.7c-.15.14-.25.11-.3-.08Z" transform="translate(-3.35 -19.97)"/><path class="cls-8" d="M198.34,111.19l.3.08-.15.7A.58.58,0,0,1,198.34,111.19Z" transform="translate(-3.35 -19.97)"/><path class="cls-9" d="M196.49,120.37c0-.32.08-.59.44-.67l-.14.71C196.67,120.54,196.57,120.53,196.49,120.37Z" transform="translate(-3.35 -19.97)"/><path class="cls-10" d="M196.49,120.37l.3,0-.14.7C196.25,120.94,196.39,120.65,196.49,120.37Z" transform="translate(-3.35 -19.97)"/><path class="cls-11" d="M130.53,21.06a1.58,1.58,0,0,1-.09.31c-.29,0-.63,0-.62-.45Z" transform="translate(-3.35 -19.97)"/><path class="cls-12" d="M183.52,47.17a7.73,7.73,0,0,1-1.42,3.06c-15.39,23.08-36.32,39.29-61.94,49.54-23.11,9.25-47.21,13.09-72,12.6-2.57-.05-5.13-.2-7.69-.37a6.12,6.12,0,0,1-6-6.27,6,6,0,0,1,6.52-5.88,182.67,182.67,0,0,0,49.9-4.19C115.39,90.15,137.61,80,156,62.39a110.36,110.36,0,0,0,16.22-19.46,6,6,0,0,1,6.25-3,5.83,5.83,0,0,1,4.83,4A5.62,5.62,0,0,1,183.52,47.17Z" transform="translate(-3.35 -19.97)"/><path class="cls-13" d="M42.58,128.11a6.13,6.13,0,0,1-4.7-8.45,2.16,2.16,0,0,1,2.41-1.57c29.73,1.81,58.48-2.55,85.94-14.27,25.1-10.71,45.55-27.2,60.78-50l.21-.3c1.51-2.28,2.53-2.38,4.59-.44,2.31,2.16,2.57,5.36.62,8.31a127.31,127.31,0,0,1-12.3,15.76c-16,17.39-35.42,29.48-57.37,37.69a214.92,214.92,0,0,1-78.63,13.37C43.54,128.24,42.94,128.14,42.58,128.11Z" transform="translate(-3.35 -19.97)"/><path class="cls-12" d="M49.28,142A6.22,6.22,0,0,1,44,135.73c0-1.08.34-1.37,1.47-1.36a224.17,224.17,0,0,0,55.74-6.55c24.69-6,47.58-15.95,67.63-31.87a132.12,132.12,0,0,0,26.93-28.73c1-1.47,1.67-1.22,2.68-.24,2.31,2.22,2.5,5.59.39,8.43a152,152,0,0,1-23.43,25.25c-20.84,17.8-44.91,29.19-71.4,35.67a193.44,193.44,0,0,1-50.61,5.8C51.9,142.09,50.41,142,49.28,142Z" transform="translate(-3.35 -19.97)"/><path class="cls-13" d="M58.25,150.51a81.9,81.9,0,0,0,8.5,8.81c.36.32.7.61.49,1.19-1.27,3.53-1.57,7.34-3.38,10.73a24.17,24.17,0,0,1-29.25,11.38,22,22,0,0,1-13.87-13c-1.33-3.25-2.41-6.6-3.6-9.91a4.78,4.78,0,0,0-3.34-3.15,6.08,6.08,0,0,1,3.07-11.73,14.27,14.27,0,0,1,9.73,6.68,39,39,0,0,1,3.71,8.7c.5,1.46,1,2.95,1.56,4.37,2.19,5.15,6.39,7.59,12,7a11.46,11.46,0,0,0,10.23-9.3A41.86,41.86,0,0,1,58.25,150.51Z" transform="translate(-3.35 -19.97)"/><path class="cls-12" d="M146.45,168.32A174.59,174.59,0,0,0,154.06,148a155.93,155.93,0,0,0,5.54-25.9,4.72,4.72,0,0,1,2.45-3.94,135.46,135.46,0,0,0,12.83-9.11,101.89,101.89,0,0,1-.92,13.59,127.64,127.64,0,0,1-9.52,34.77,4.25,4.25,0,0,1-1.18,1.75A70,70,0,0,1,146.45,168.32Z" transform="translate(-3.35 -19.97)"/><path class="cls-13" d="M108.76,34.62c1.46-2.6,3.17-4.87,4.76-7.23.42-.61,1-.57,1.58-.6a74,74,0,0,1,49.12,14.86c.74.55.86.88.28,1.67a127.86,127.86,0,0,1-9.07,11c-.68.74-1,.55-1.64,0-8.21-7.61-18-12.28-28.58-15.7A123.77,123.77,0,0,0,108.76,34.62Z" transform="translate(-3.35 -19.97)"/><path class="cls-12" d="M100.87,49.4c1.21-2.86,2.55-5.58,4-8.27a1.15,1.15,0,0,1,1.4-.73c14.07,2.41,27.53,6.4,39.25,14.93,1.35,1,2.54,2.17,3.86,3.18,1,.72.74,1.15-.06,1.86a119.25,119.25,0,0,1-12.89,9.95c-.59.39-1,.8-1.74,0-7.74-8.37-17.43-13.72-27.89-17.85-1.72-.67-3.47-1.27-5.19-1.94C101.09,50.33,100.25,50.24,100.87,49.4Z" transform="translate(-3.35 -19.97)"/><path class="cls-13" d="M153.24,123.68c-2.66,15.64-6.5,30.53-13.51,44.5a6.55,6.55,0,0,1-5.72,3.9,2.06,2.06,0,0,1-1.62-.49,75.7,75.7,0,0,1-8.92-8c-.71-.73-.83-1.19-.11-2a70.48,70.48,0,0,0,14.82-29,3,3,0,0,1,1.89-2.32c3.89-1.68,7.64-3.64,11.35-5.69C151.93,124.3,152.46,124.07,153.24,123.68Z" transform="translate(-3.35 -19.97)"/><path class="cls-13" d="M77.93,91.91a94.07,94.07,0,0,1,2-24.33A98.54,98.54,0,0,1,95.42,31.67,3.79,3.79,0,0,1,97.62,30a74.16,74.16,0,0,1,7.9-2c-1.18,1.91-2.25,3.58-3.27,5.29A102.2,102.2,0,0,0,88.79,68.41a79,79,0,0,0-1,20.14c.1,1.24-.23,1.68-1.41,1.86C83.61,90.85,80.82,91.4,77.93,91.91Z" transform="translate(-3.35 -19.97)"/><path class="cls-12" d="M85.65,35.51l-2.18,4.23a102.83,102.83,0,0,0-11.65,50.9c.05,1.81-.45,2.31-2.17,2.35-2.32.05-4.63.38-6.94.61-.82.08-1.23,0-1.22-1.1a120.28,120.28,0,0,1,4.34-30.94,118.77,118.77,0,0,1,5.59-15.85,6.28,6.28,0,0,1,1.89-2.53,74.51,74.51,0,0,1,11-7.37A1.4,1.4,0,0,1,85.65,35.51Z" transform="translate(-3.35 -19.97)"/><path class="cls-13" d="M124.38,173.28a82.3,82.3,0,0,1-11.46-.14,7.34,7.34,0,0,1-4.09-1.49A62.86,62.86,0,0,1,89.2,147.2c-.59-1.31-.42-1.64,1-1.87,3.7-.61,7.37-1.37,11-2.13.86-.18,1.36-.15,1.8.78a87.58,87.58,0,0,0,21,28.71C124.16,172.79,124.2,173,124.38,173.28Z" transform="translate(-3.35 -19.97)"/><path class="cls-13" d="M192.83,92.28c1.77,21.74-4.31,40.44-18.35,56.53A143.88,143.88,0,0,0,181.11,105c0-.54-.11-1,.38-1.48C185.35,100,189,96.39,192.83,92.28Z" transform="translate(-3.35 -19.97)"/><path class="cls-13" d="M130,74.27a123.11,123.11,0,0,1-11.93,6.12c-.66.3-1,0-1.4-.34a60.27,60.27,0,0,0-20.4-11.86c-.93-.32-1.08-.79-.87-1.71.73-3.27,1.63-6.48,2.67-9.66.18-.57.32-1,1.07-.71C110.52,60.2,121.42,65.13,130,74.27Z" transform="translate(-3.35 -19.97)"/><path class="cls-12" d="M64.42,148.17c5.26-.33,10.32-.55,15.31-1.36,2.12-.34,2.93.26,3.7,2.2A59.36,59.36,0,0,0,95.89,168.1c.44.46.86.93,1.37,1.47C89.85,169.18,71.79,157.43,64.42,148.17Z" transform="translate(-3.35 -19.97)"/><path class="cls-12" d="M131.2,134.11c-1.47,7.09-7.56,18.35-12.74,23.6a89.28,89.28,0,0,1-9.85-16.25A213.42,213.42,0,0,0,131.2,134.11Z" transform="translate(-3.35 -19.97)"/><path class="cls-13" d="M60.74,56.91c-.63,2.46-1.3,4.91-1.89,7.38A118.39,118.39,0,0,0,55.45,92c0,1.51-.37,2.21-2,2.07a32.45,32.45,0,0,0-4.83,0c-1.48.09-2.06-.27-1.86-1.94a75.55,75.55,0,0,1,4.59-18.74A60.93,60.93,0,0,1,60.74,56.91Z" transform="translate(-3.35 -19.97)"/><path class="cls-12" d="M111.07,83.24A142.06,142.06,0,0,1,94,88.65,77.39,77.39,0,0,1,94.06,75c.12-1.54,1-.79,1.58-.56A59.91,59.91,0,0,1,111.07,83.24Z" transform="translate(-3.35 -19.97)"/></svg>